<?xml version="1.0" encoding="UTF-8"?>
<svg id="Shark" xmlns="http://www.w3.org/2000/svg" xmlns:xlink="http://www.w3.org/1999/xlink" viewBox="0 0 586.14 401.97">
  <defs>
    <style>
      .cls-1 {
        fill: url(#linear-gradient-4);
      }

      .cls-2 {
        fill: url(#linear-gradient-3);
      }

      .cls-3 {
        fill: url(#linear-gradient-2);
      }

      .cls-4 {
        fill: url(#linear-gradient);
      }

      .cls-5 {
        fill: #060506;
      }

      .cls-6 {
        fill: #e8b0b3;
      }
    </style>
    <linearGradient id="linear-gradient" x1="317.1" y1="356.98" x2="262.41" y2="260.12" gradientUnits="userSpaceOnUse">
      <stop offset="0" stop-color="#ffcf99"/>
      <stop offset=".11" stop-color="#f8cd99"/>
      <stop offset=".26" stop-color="#e6c99a"/>
      <stop offset=".44" stop-color="#c8c19b"/>
      <stop offset=".63" stop-color="#9fb79d"/>
      <stop offset=".84" stop-color="#6baa9f"/>
      <stop offset="1" stop-color="#3fa0a2"/>
    </linearGradient>
    <linearGradient id="linear-gradient-2" x1="121.42" y1="353.22" x2="174.01" y2="259.82" gradientUnits="userSpaceOnUse">
      <stop offset="0" stop-color="#ffcf99"/>
      <stop offset=".25" stop-color="#cec39b"/>
      <stop offset=".99" stop-color="#3fa0a2"/>
    </linearGradient>
    <linearGradient id="linear-gradient-3" x1="380.72" y1="98.87" x2="301.36" y2="166.17" gradientUnits="userSpaceOnUse">
      <stop offset=".24" stop-color="#ffcf99"/>
      <stop offset=".34" stop-color="#eac999"/>
      <stop offset=".57" stop-color="#b5bd9c"/>
      <stop offset=".88" stop-color="#61a8a0"/>
      <stop offset="1" stop-color="#3fa0a2"/>
    </linearGradient>
    <linearGradient id="linear-gradient-4" x1="21.84" y1="191.67" x2="522.91" y2="154.08" gradientUnits="userSpaceOnUse">
      <stop offset=".43" stop-color="#3fa0a2"/>
      <stop offset=".49" stop-color="#44a1a1"/>
      <stop offset=".58" stop-color="#55a5a0"/>
      <stop offset=".68" stop-color="#70ac9f"/>
      <stop offset=".78" stop-color="#96b59d"/>
      <stop offset=".89" stop-color="#c7c19b"/>
      <stop offset="1" stop-color="#ffcf99"/>
    </linearGradient>
  </defs>
  <g id="shark">
    <path class="cls-4" d="M317.95,369.26c5.36-5.32,2.78-15.81,1.78-22.3-1.55-10.13-4.34-20.22-3.79-30.55.63-11.9,7.2-26.22,3.62-37.89.97-1.81.99-4.15-.71-5.87-12.33-12.48-28.64-20.19-43.78-28.64-4.88-2.72-9.72-5.57-14.72-8.09-6.05-4.12-12.65-7.25-19.88-8.89-5.43-1.23-13.35-2.93-17.53,1.1-14.01,7.69-3.41,27.04,1.15,38.02,6.91,16.62,13.4,33.49,20.83,49.89,6.65,14.67,17.18,28.98,28.69,40.25,11.09,10.86,24.39,24.72,39.13,24,4.06-.2,6.87-2.69,6.15-6.15-.34-1.62-.65-3.25-.94-4.87Z"/>
    <path class="cls-3" d="M178.72,316.68c-3.2.31-6.29.29-9.35-.04-.41-.52-.99-.98-1.8-1.34-1.95-.85-3.9-1.7-5.85-2.55-.79-.34-1.56-.48-2.3-.47-9.93-4.17-19.26-9.71-27.66-16.48-.3-.24-.62-.45-.93-.63-1.28-2.94-5.2-4.78-8.05-1.78-10.94,11.56-20.73,24.12-29.29,37.53-3.22,3.27-6.12,6.84-8.67,10.66-.66.99-.82,2.18-.61,3.31l-.82,1.3c-3.83,1.19-7.01,4.27-6.98,8.96.02,2.32,1.33,3.8,3,4.45,1.37,2.25,3.64,3.88,6.73,4.24,2.7.31,5.22-.71,7.07-2.47.67.11,1.4.1,2.18-.12,3.42-.96,6.8-2,10.17-3.1,1.1.84,2.53,1.2,4.12.66,3.88-1.34,7.7-2.83,11.44-4.47.94.38,2,.5,3.05.23,9.74-2.56,18.68-8.4,27.53-13.05,9.84-5.18,19.68-10.35,29.52-15.53,4.22-2.22,2.47-9.8-2.52-9.32Z"/>
    <path class="cls-2" d="M388.96,96.01c-5.4-3.77-13.59-3.87-19.9-3.3-7.09.63-14,2.45-20.72,4.78-15.69,5.44-30.16,13.49-44.75,21.32-.96-.33-2-.41-2.94-.15-4.93,1.39-8.51,4.43-11.84,7.84-5.95,2.96-11.98,5.73-18.2,8.13-5.94,2.29-3.36,11.96,2.66,9.64.29-.11.57-.23.86-.34.02,1.06.29,2.17.87,3.35,2.48,5.02,9.31,7.49,13.86,10.09,11.3,6.44,22.48,13.86,34.35,19.21,5.65,2.55,11.43,3.9,17.63,4.18,3.81.17,10.08.91,12.15-3,10.06-3.55,17.7-12.65,22.94-22.51,3.92-7.39,7.99-14.94,11.39-22.58,2.37-5.33,4.76-11.78,4.26-17.79.38-1.1.76-2.2,1.1-3.3,1.81-5.71,1.59-11.85-3.72-15.56ZM351.95,123.11c-.17-.35-.34-.7-.5-1.06.22,0,.45,0,.67.02-.04.34-.1.69-.17,1.04Z"/>
    <path class="cls-1" d="M560.49,49.77c-6.27-.19-12.08,6.88-16.38,10.55-11.56,9.9-22.73,20.25-33.49,31.02-5.79,5.8-11.51,11.68-16.12,18.49-4.35,6.42-7.78,13.45-11.35,20.32-6.27,12.09-12.31,24.33-16.94,37.13-1.08.56-1.94,1.52-2.27,2.91-.56,2.36-1.13,4.72-1.69,7.08-1.24.47-2.22,1.54-2.5,3.34-.77,4.84-1.9,9.59-3.58,14.2-1.35,3.68-2.94,8.92-6.42,11.21-.93.12-1.85.51-2.63,1.09-.05.01-.1.03-.15.05-1.05-.17-2.18.05-3.19.54-3.23.32-6.7.11-9.62.03-2.48-.07-4.97-.23-7.43-.53-1.78-.21-5.63-.26-7.47-1.16.03-.17.07-.36.11-.57.38-.94.87-1.82,1.45-2.65,1.15-1.68,2.72-3.09,4.22-4.45,3.12-2.83,6.51-5.3,9.24-8.55,4.06-4.82,8.47-13.84,3.77-19.7-4.81-5.99-15.46-2.46-20.96.5-7.48,4.02-13.88,10.54-19.06,17.17-1.27,1.63-2.5,3.29-3.65,5.01-.76,1.13-1.88,3.85-3.26,4.38-1.53.59-5.53-1.53-6.95-2.01-2.49-.84-4.97-1.68-7.46-2.52-9.94-3.36-19.89-6.72-29.83-10.08-1.02-.34-1.93-.36-2.73-.14-24.29-12.13-49.25-23.78-71.04-40.07-1.89-1.41-3.76-1.14-5.12-.04-2.4-1.8-4.75-3.67-6.99-5.68-2.2-1.98-4.89-1.54-6.69-.08l-12.47-7.58c-.36-.22-.71-.38-1.05-.51-8.34-5-16.69-10.01-25.03-15.01-.98-.59-1.93-.81-2.81-.76-4.82-4.5-10.48-8.32-16.55-11.85-.11-.07-.23-.13-.34-.2-9.42-7.1-18.77-14.29-27.93-21.7-.28-.22-.56-.41-.85-.57-.43-2.05-1.99-3.83-4.7-3.83-.61,0-1.15.1-1.65.26-.06-.02-.13-.04-.19-.06-1.04-.83-2.09-1.65-3.17-2.44,1.05-1.71,1.06-3.9-.97-5.6-3.11-2.62-6.63-3.17-10.08-5.08-3.87-2.16-6.98-5.57-10.85-7.83-6.12-3.57-12.83-5.88-19.32-8.69-2.08-1.26-4.29-2.29-6.7-3.08-.59-.19-1.15-.26-1.69-.23-1.1-.64-2.22-1.24-3.38-1.74-5.25-2.24-10.51-4.24-16.24-4.7-6.01-.48-11.93-.25-17.95-.91-5.86-.65-11.51.67-17.13,2.2-1.83.5-2.88,1.69-3.31,3.07-5.54.94-11.16,2.4-15.66,5.54-.89.62-1.48,1.4-1.83,2.22-.76.39-1.44,1.03-1.97,1.98-2.67,4.83-5.33,9.73-7.05,15-1.67,5.11-1.52,9.96-1.8,15.16-.37.65-.61,1.41-.63,2.27-.02,1.22-.01,2.43,0,3.65-.17,1.12-.36,2.23-.55,3.34-2.2.29-4.11,1.87-3.93,4.76.41,6.59,1.22,13.13,2.39,19.63-.59.24-1.16.6-1.68,1.09-2.21,2.13-1.75,5.14-1.2,7.84,1.51,7.42,4.62,14.54,8.68,20.92.3.6.61,1.19.92,1.78-.03.56.04,1.15.24,1.77,1.36,4.24,2.99,8.35,4.83,12.35-1.58,1.2-2.55,3.15-1.79,5.18,2.55,6.88,7.02,12.96,10.98,19.11-.07.5-.07,1.02.03,1.56-.73,1.29-.82,2.94.21,4.7,6.98,11.83,14.14,23.72,23.02,34.19.25.6.61,1.13,1.07,1.6l.86.86c.11.57.35,1.16.74,1.73,0,.01.02.02.02.03.17.35.38.69.63,1.02.23.3.47.59.71.89,3.21,4.49,6.7,8.73,10.52,12.69.08.65.3,1.32.71,2,7.51,12.59,18.95,20.8,30.67,28.78.06,1.07.5,2.14,1.44,3.06,7.95,7.72,17.03,13.96,26.97,18.57,4.51,4.59,10.32,6.93,15.96,9.94,1.48.92,2.98,1.81,4.52,2.65,1.6.88,3.12.86,4.36.29,3.99,1.47,8.08,2.66,12.26,3.58.49,1.51,1.64,2.77,3.45,3.14.6.27,1.29.43,2.08.43.14,0,.26-.01.39-.02.09,0,.17.02.26.02.26,0,.51-.02.74-.05.07,0,.14.02.22.02.19.04.39.09.57.15.28.16.56.32.83.52.43.31,1,.5,1.6.59,3.06,2.99,7.08,3.72,11.28,4.38,5.35.84,10.14,3.01,15.22,4.77,5,1.73,9.96,2.33,15.23,1.97,3.99-.27,8.3-1.14,12.28-.41.5.42,1.11.75,1.83.95,1.04.28,2.08.56,3.12.85,4.91,1.33,8.27-5.08,4.97-8.3-.05-.13-.09-.26-.15-.39-6.3-13.95-12.61-27.9-18.91-41.85-3.05-6.76-6.27-13.47-9.11-20.32-1.05-2.54-1.92-5.14-2.74-7.76.07-.48.08-.98,0-1.52,0-.01,0-.02,0-.04-.44-.51-.79-1.14-1.03-1.91-3.02-10.12,7.27-18.71,16.82-18.17,4.84.28,9.47,1.87,14.04,3.35,1.8.58,3.65,1.32,5.18,2.39,4.19,1.53,8.32,3.38,12.6,5.38,5.77,2.69,11.27,5.93,15.43,10.48.36.15.73.3,1.12.42,1.47.47,3.19.63,4.82.96.59,1.35,1.71,2.46,3.19,2.74.82.16,1.64.33,2.45.53.8.54,1.66.72,2.49.65.69.2,1.37.41,2.06.63.81.43,1.7.72,2.63.91.05.02.1.03.14.05,0,0,0-.01,0-.02.44.08.88.15,1.33.2.11.01.22.01.33.01.01,0,.03.01.04.02.04.02.09.04.13.06.37.42.74.84,1.12,1.25,1,1.09,2.23,1.52,3.44,1.48,8.19,5.51,14.08,13.79,16.06,23.62,1.16,5.77.84,11.79-.77,17.44-1.6,5.63-5.75,10.61-5.11,16.68.29,2.73,2.06,4.95,5,5,10.72.18,21.47-1.02,31.84-3.76,5.1-1.35,10.07-3.08,14.93-5.13,5.42-2.28,10.65-5.42,16.56-6.17,10.6-1.34,21.07,2.9,31.57,3.78,9.14.77,17.76-.92,25.04-6.64,2.73-2.15,1.34-6.23-1.01-7.85l-8.91-6.15c-1.35-.93-2.7-1.87-4.05-2.8-.26-.18-.7-.54-1.16-.9,2.13-1.99,5.1-3.86,6.76-5.26,3.26-2.74,6.52-5.48,9.78-8.22,5.02-4.22,10.05-8.44,15.07-12.67,2.79.45,5.96-1.58,6.06-4.64,1.28-.61,2.56-1.22,3.84-1.82,11.11-1.44,22.11,3.46,32.8,6.03,10.63,2.55,21.56,3.45,32.45,4.13.08.69.29,1.35.65,1.96.44.75,1.04,1.35,1.79,1.79.78.45,1.62.68,2.52.68.9,0,1.74-.23,2.52-.68.73-.33,1.45-.66,2.18-.99,1.07-.49,2-1.9,2.3-2.99.15-.53.18-1.14.13-1.75,4.78-1.72,4.83-7.72,3.53-12.23-3.84-13.36-11.78-23.94-18.48-35.85-3.34-5.93-5.75-12.41-3.17-19.11,2.49-6.48,6.7-12.36,9.51-18.73,5.62-12.72,9.31-26.09,11-39.89.86-7.04.32-14.12,4.2-20.35,3.75-6.02,7.91-11.25,10.52-17.95,4.76-12.23,5.51-25.93,5.54-38.92.01-4.73-1.48-9.75-7.1-9.92ZM160.06,146.93c-2.5.03-5.44.2-7.52-.53-2.51-.88-4.63-5.13-6.04-7.35.79-3.11,2.02-6.11,3.41-9.08,4.46-.03,8.8,2.64,10.11,7.1.84,2.87.56,6.39.05,9.86Z"/>
    <path class="cls-5" d="M110.47,35.97c8.34,3.59,15.74,8.6,23.8,13.85,12.57,8.19,25.4,17.38,37.2,26.56,19.25,14.97,39.8,28.55,61.06,41.44,7.65,4.63,15.51,9.44,23.74,13.79,1.26.67,5.56,2.89,6.64,3,2.01.2,2.87-1.17,4.4-1.79,18.91-7.61,37.03-17.89,55.22-27.26,12.31-6.34,26.38-13.4,39.7-16.43,6.8-1.55,17.66-1.71,24.26.53,3.59,1.22,7.01,2.55,8.7,6.16.68,1.45,3.19,7.31,3.42,8.56.65,3.45-1.49,14.81-2.58,18.56-4.34,14.94-10.4,28.35-19.35,41.07-4.16,5.91-8.87,11.9-14.81,15.87-1.87,1.25-4.71,2.11-6.2,4.11l32.15,10.82c2.64-.99,3.63-3.36,5.48-5.08,5.32-4.93,11.75-11.53,17.21-15.4,5.17-3.67,10.86-6.5,16.73-9.08,1.05-.46,3.02-1.58,4.47-1.85.63-.11,7.05-.53,7.51-.4,2.84.79,5.36,5.02,5.61,7.88.14,1.6-1.87,13.32-2.51,15.12-.56,1.57-2.66,5.04-3.76,6.31-1.83,2.12-5.64,5.35-7.76,6.86-.73.52-5.38,2.7-4.63,3.52,1.67-1.24,1.43.55,1.66.48.35-.1.85-.82,1.53-.88.53-.04,1,.64,1.34.63,7.52-.04,17.96.94,21.77-6.77.63-1.27,1.63-4.54,2.32-6.31,9.23-23.74,17-49.12,30.55-71.35,10.84-17.77,26.3-34.3,40.71-48.95,4.73-4.81,11.78-10.65,17.37-15,2.34-1.82,11.01-7.38,13.55-8.51,2.07-.92,7.29-1.14,9.33-.09.55.28,3.61,3.71,3.94,4.31.65,1.2,3.02,7.17,3.15,8.36,1.69,16.58-3.47,36.15-13.63,49.17-1.31,4.12-5.77,6.32-7.71,10.02-.52,5.79.33,12.31.02,18.02-.57,10.56-5.58,26.66-9.62,36.65s-9.45,19.65-15.56,28.54c-.03.91,2.62,4.72,3.2,5.89,6.99,14.16,18.77,30.41,22.15,45.94,1,4.61.68,7.92-.07,12.29s-5.88,4.78-9.72,5.15c-10.4,1-26.19-1.55-36.31-4.45-9.34-2.67-37.54-8.83-37.54-8.83-2.08,2.23-4.67,4.15-6.82,6.26-5.22,5.14-10.02,10.4-16.71,14.67-3.1,1.98-6.21,3.88-9.02,5.84-1.51,1.05-3.52,3.29-2.69,3.5,1.69.43,8.54,5.27,9.89,6.67.32.33,3.16,3.92,3.27,4.16.63,1.37.29,5.53-.08,7.1-.89,3.71-5.22,6.54-8.68,7.63-14.45,4.53-33.46,2.7-47.7-1.35-.55-.16-1.07-.66-2.88-1.04-.48-.1-4.82,1.33-5.7,1.74-2.98,1.38-6.09,2.34-9.05,3.51-13.8,5.44-28.92,10.46-43.17,12.41-2.55.35-5.12-.25-7.67.69,1,3.91,2.21,7.79,2.82,11.8.35,2.25,1.58,10.16,1.53,11.94-.3,9.58-2.91,19.94-2.94,29.68-2.57,6-7.15,4.49-12.61,4.57-.51-.47-5.63-1.78-6.3-2.01-1.71-.59-4.45-2.19-6.37-3.12-14.29-6.89-27.46-18.87-36.09-32.84-2.87-4.65-5.03-9.69-8.45-13.95-.3-.38-12.22-2.03-12.22-2.03-15.36-1.89-30.4-4.83-45.71-8.15-1.1-.24-4.66-1.64-5.31-1.63-1.48.01-1.94,2.45-2.78,3.2-1.57,1.38-7.11,7.46-7.59,7.73-.15.09-4.28,3.02-5.33,3.59-7.43,4.02-14.37,4.16-22.55,9.55-.79.52-3.97,2.3-4.63,2.53-1.35.47-4.57,3-6.25,3.86-9.73,5-21.78,8.43-32.88,10.49-5.88,1.09-18.41,1.31-25.07-.56-.84-.24-6.23-1.87-6.51-2.07-.74-.53-2.67-4-2.54-4.78.22-1.28,2.16-5.98,2.67-7.45,1.76-5.01,5.6-10.43,8.12-14.88.99-1.74,1.93-4.12,2.97-5.93,0,0,1.38-2.48,1.85-3.09.66-.86.39.19,1.74-2.19,4.05-7.11,14.11-18.18,20.13-24.45,2.54-2.65,4.95-5.23,7.92-7.41,1.45-1.64-.87-3.32-2.13-4.43-1.63-1.45-12.59-10.27-13.54-11.11-10.47-9.15-19.06-15.78-28.21-26.49-19.24-22.53-32.06-41.58-43.22-69.48-9.84-24.58-20.21-52.38-19.42-79.85.5-17.54,6.27-43.44,19.68-56.08,6.71-6.33,23.93-12.48,32.94-13.48,11.1-1.24,34.76,1.25,45.13,5.71ZM459.47,257.31c1.04-1.1,2.66-4.37,3.98-5.26.77-.52,8.45-.37,9.49-.22,8.32,1.17,15.77.61,23.66,3.54,14.12,5.24,25.97,8.44,41.07,8.18,4.14-.07,7.83,1.59,8.41-3.57,1.54-13.67-15.8-37.48-22.34-50.07-.5-.96-5.56-7.44-3.55-11.17.29-.54,10.31-15.11,13.39-21.84,2.64-5.77,4.8-13.02,6.72-18.21,3.15-8.53,5.07-18.23,5.33-27.19.12-4.15-.89-13.26.19-16.59.61-1.86,2.89-3.14,3.84-4.32,7.7-9.5,13.8-20.05,16.27-32.19,1.3-6.41,1.98-15.86-.5-21.88-.28-.67-2.08-4.81-2.4-4.89-2.16-.54-4,1.42-5.82,2.27-12.81,6.05-22.9,17.06-32.74,27.2-9.26,9.56-18.78,19.06-26.47,30.12-3.55,5.1-7.62,11.56-10.55,16.77-9.24,16.44-14.75,33.96-21.6,51.29-2.41,6.09-7.28,20.4-11.12,24.85-.32.37-3.2,3.08-3.48,3.24-.84.47-3.04,1.01-4.07,1.2-5.58,1.03-10.96.84-16.54.65-2.33-.08-6.23-.42-6.71-.31-1.77.42-8.79-.82-9.8-2.62-.4-.71-1.63-1.65-.69-3.14.16-.25,3.92-3.02,4.61-3.54,5.2-3.91,12.46-7.21,16.28-12.62,1.6-2.26,5.51-16.94,2.39-17.69-.99-.24-8.42,2.84-12.7,4.64-.73.3-3.92,1.71-4.46,2.01-1.38.78-3.37,2.28-4.66,3.23-2.61,1.94-3.2,2.71-5.16,4.68-.58.59-4.71,4.29-5.3,4.78-4.24,3.5-7.98,8.3-11.99,11.98-.14.13-4.38,1.02-5.14.82-10.04-2.68-19.12-5.39-28.62-9.7l-33.72-17.36c-.15-1.15.04-1.06,1.1-.86,6.14,1.19,13.68,6.47,20.66,5.98s16.27-8.43,20.37-13.57c10.37-13.01,19.52-31.71,23.45-47.54.53-2.14,1.82-8.96,1.8-10.9-.01-.85-2.42-7.84-2.89-8.84-1.31-2.76-8.52-3.72-11.34-4-15.75-1.56-32.11,6.7-45.62,13.18-12.03,5.77-24.19,12.19-35.81,18.36-5.88,3.12-12.78,6.72-18.77,9.54-2.32,1.09-5.18,1.8-7.62,2.7,11.24,9.48,24.69,16.22,37.19,23.95,1.78,2.12.28,2.24-1.83,1.83-44.78-21.5-87.27-45.27-127-74.41-9.57-7.02-19.25-14.6-28.92-21.42-18.19-12.85-35.9-27.28-58.47-30.26-18.76-2.48-31.57-2.81-48.63,6.75-2.76,1.54-5.84,2.78-7.85,5.58-4.87,6.79-9.91,15.68-11.86,24.1-3.29,14.2-5.06,29.59-2.82,43.42.67,4.12.99,8,2.7,11.84.03.47-.06.98,0,1.44.1.82.47.91.48.96,1.25,6.52,3.3,12.81,5.32,18.89,6.39,19.29,13.97,39.4,24.23,57.3,1.95,3.4,4.54,6.41,6.7,10.05,3.85,6.48,8.35,11.27,13.16,17.09,6.35,7.69,13.22,16.23,20.37,23.27,4.93,4.86,11.89,8.75,17.04,14.11,3.52,3.67,7.09,5.79,11.14,8.87,8.63,6.57,15.65,12.38,25.31,17.58,28.53,15.37,62.7,23.04,96.63,26.54,1.85.19,3.63.98,5.52.95-.86-1.06-1.82-2.3-2.5-3.49-1.18-2.08-2.25-4.46-3.23-6.46-11.72-23.79-23.79-48.21-28.98-75.01-.17-.86-.41-1.5.18-2.3.09.02.66-.67,1.43-.27,1.53.8,2.47,6.16,3.15,7.92,2.97,7.7,6.66,15.12,9.92,22.69,7.56,17.55,14.68,35.08,23.86,50.57,4.55,7.67,8.93,15.47,13.42,23.02,2.65,4.44,5.31,7.55,8.58,11.44,5.38,6.41,8.78,9.19,15.13,14.14,2.71,2.12,6.67,5,9.79,6.62,3.64,1.89,8.75,3.15,12.7,3.99,1.78.38,4.72-.48,4.68-1.33-.38-7.62,2.34-16.38,1.95-23.95-.51-9.82-1.97-19.31-4.4-28.73-.81-3.13-3.59-8.27-2.22-11.41.45-1.04,1.43-1.91,2.01-3.26,1.8-4.16,4.47-13.4,4.56-13.74,1.12-4.82.47-16.31-.59-21.36-.34-1.63-.95-3.45-1.88-4.84-4.13-6.22-25.48-14.18-32.86-18.46-1.04-.6-3.27-1.61-3.52-2.72-.28-1.25.38-.46.83-.35,7.85,1.94,21.66,7.87,28.91,11.61,14.46,7.46,17.24,16.56,15.82,32.36-.52,5.75-2.42,11.56-3.99,16.7-.42,1.4-2.51,4.95-2.62,5.96-.2,2,.67,3.97,1.12,5.89,2.24-.38,4.75-.04,6.94-.24,9.82-.92,17.82-3.8,27.22-6.83,4.24-1.37,9.63-2.57,13.63-4.12,5.27-2.05,10.78-5.68,16.06-7.92,4.76.68,8.84,2.38,13.48,3.61,8.37,2.22,16.84,2.51,25.79,2.14.83-.03,12.65-2.01,14.47-2.84.56-.25,2.53-2.03,2.76-2.52,1.33-2.88-1.63-4.09-3.1-5.54-.46-.45-7.07-4.71-7.91-5.02-2.24-.83-9.6-5.21-9.31-5.9,1.11-2.68,12.05-6.43,13.97-9.57,5.08-3.24,13.28-7.61,17.61-12.08.74-.76,6.36-6.32,7.9-7.95ZM130.55,296.84c-1.6-.99-3.55-1.58-4.85-3.04-.59,0-3.99,4.43-4.72,5.1-5.84,5.38-9.05,8.7-14.24,14.79-3.73,4.37-7.03,7.89-10.22,12.75-4.23,6.45-11.41,17.91-13.99,24.88-.57,1.55-.45,3.61-1.2,5.26,3.64.47,7.64,1.73,11.3,1.93,9.08.49,21.59-1.98,30.32-4.67,14.64-4.51,24.88-13.79,39.34-19.17,9.27-3.45,10.04-2.63,17.17-10.64.96-1.08,4.64-3.21,1.11-4.11-1.8-.46-3.15-.42-5.34-1.25-8.41-3.18-17.29-6.28-25.75-10.31-7.7-3.67-12.33-7.44-18.92-11.52Z"/>
    <path class="cls-6" d="M23.3,132.21c-.01-.05-.37-.14-.48-.96l.48.96Z"/>
    <path class="cls-5" d="M209.87,204.6c-.13-.94.18-1.78.45-2.66,3.74-11.81,11.37-23.79,15.82-35.48.54-8.89-4.82-18.78-5.08-27.4-.07-2.13,1.65-2.26,2.27-.42,2.59,9.49,7.14,18.69,6.65,28.77-4.07,7.52-6.8,15.69-10.81,23.23-1.61,3.03-5.74,10.6-7.65,12.97-.45.56-.78,1.16-1.65.99Z"/>
    <path class="cls-5" d="M229.54,207c1.18-5.83,4.69-11.33,6.93-16.8,3.23-7.85,7.54-16.98,6.45-25.59-.54-4.33-4.36-11.73-3.8-15.86,1.63-1.04,2.36,1.54,2.96,2.79,6.36,13.2,5.71,20.74.29,34.01-3.1,7.57-7.66,15.18-12.83,21.45Z"/>
    <path class="cls-5" d="M259.26,165.77c.45.45,2.85,11.08,2.9,12.25.26,5.95-7.86,24.89-10.8,30.91-2.25,4.6-5.35,9.81-8.88,13.41,1.76-5.57,4.3-10.89,6.45-16.32,3.12-7.9,9.34-21.4,9.87-29.45.22-3.42-.91-6.85-.5-10.1.09-.66.26-1.4.95-.71Z"/>
    <path class="cls-5" d="M52.46,73.81c.57.33,1.41,3.13,1.53,3.98.48,3.21.95,13.68-1.65,15.61-4.04,2.99-4.47-2.13-4.59-5.04-.14-3.25.14-8.63.7-11.79.33-1.88,2.04-3.91,4.02-2.76Z"/>
    <path class="cls-5" d="M86.01,72.4c.87.84,3.98,8.65,4.39,10.23.57,2.21,2.37,10.04-2.13,7.41-2.7-1.58-6.31-13.05-6-16.1.21-2.14,2.33-2.92,3.75-1.54Z"/>
    <path class="cls-6" d="M158.36,134.9c-.24-.85-.67-1.58-1.29-2.21-.15-.15-.29-.29-.44-.44-.45-.49-.99-.83-1.61-1.03-.6-.31-1.24-.46-1.93-.43-.69-.03-1.33.12-1.93.43-.62.2-1.16.55-1.61,1.03-.26.34-.52.67-.78,1.01-.45.78-.68,1.62-.68,2.52.06.44.12.89.18,1.33.24.85.67,1.58,1.29,2.21.15.15.29.29.44.44.45.49.99.83,1.61,1.03.6.31,1.24.46,1.93.43.69.03,1.33-.12,1.93-.43.62-.2,1.16-.55,1.61-1.03.26-.34.52-.67.78-1.01.45-.78.68-1.62.68-2.52-.06-.44-.12-.89-.18-1.33Z"/>
    <path class="cls-5" d="M155.52,129.01c.21.13,3.66,2.7,3.84,2.87,4.14,3.82,5.13,18.99-2.5,19.54-4.78.34-10.39-7.99-10.79-12.25-.51-5.6,2.61-14.42,9.44-10.15ZM150.75,132.27c-3.22.47-2.51,5.28-.14,6.67,4.43,2.6,3.91-7.22.14-6.67Z"/>
  </g>
</svg>