<?xml version="1.0" encoding="UTF-8"?>
<svg id="Small_fishes" data-name="Small fishes" xmlns="http://www.w3.org/2000/svg" xmlns:xlink="http://www.w3.org/1999/xlink" viewBox="0 0 586.14 401.97">
  <defs>
    <style>
      .cls-1 {
        fill: #ce6d62;
      }

      .cls-2 {
        fill: url(#linear-gradient-2);
      }

      .cls-3 {
        fill: url(#linear-gradient);
      }

      .cls-4 {
        fill: #0f1514;
      }

      .cls-5 {
        fill: #faf6d2;
      }
    </style>
    <linearGradient id="linear-gradient" x1="276.47" y1="130.04" x2="490.92" y2="130.04" gradientUnits="userSpaceOnUse">
      <stop offset="0" stop-color="#ffcf99"/>
      <stop offset=".27" stop-color="#fdcc97"/>
      <stop offset=".43" stop-color="#f9c492"/>
      <stop offset=".56" stop-color="#f2b58a"/>
      <stop offset=".68" stop-color="#e8a17f"/>
      <stop offset=".78" stop-color="#db8871"/>
      <stop offset=".87" stop-color="#ce6d62"/>
    </linearGradient>
    <linearGradient id="linear-gradient-2" x1="117.26" y1="256.34" x2="330.4" y2="256.34" xlink:href="#linear-gradient"/>
  </defs>
  <g id="small_fishes" data-name="small fishes">
    <path class="cls-3" d="M485.65,87.98c-5.81-3.26-13.96.34-19.27,3.06-8.82,4.51-15.63,11.6-21.56,19.41-.17.11-.34.24-.5.38-4.47,3.82-7.05,9.1-11,13.37-4,4.33-9.09,7.6-14.7,9.4-1.05.34-2.27.74-3.52,1.05-1,.13-1.99.3-2.99.49-.44.02-.87.03-1.28-.02-2.51-.27-1.96-.37-.93-2.49.75-1.54,1.75-2.99,2.56-4.51,2.31-4.34,4.28-8.86,5.97-13.47,1.93-1.99,2.3-4.8.77-7.45-1.23-2.13-3.46-2.75-5.44-2.23-1.71-.56-3.61-.6-5.6-.03-2.36.67-4.32,2.14-6.51,3.17-.85.4-1.72.74-2.6,1.03,1.47-3.08,2.76-6.23,3.87-9.47,1.54-4.51,3.81-10.35,2.95-15.17-2.33-13.05-19.16-4.8-25.58-.7-4.89,3.12-9.49,6.77-13.64,10.83-3.22,3.16-6.13,6.74-9.38,9.91-1.12.7-2.24,1.41-3.37,2.08-2.36,1.4-4.78,2.68-7.23,3.86-3.04.42-6.21.24-9.46.75-1.85.29-3.65.76-5.42,1.32-6.31-3.28-15.64,2.38-21.43,4.64-8.84,3.46-17.6,7.11-26.3,10.92-.66.29-1.17.65-1.57,1.07-.44.22-.8.51-1.13.84-.31.18-.6.39-.88.63-1.25.67-2.02,1.86-2.32,3.18-.03.05-.07.1-.1.16-.37.57-.56,1.19-.59,1.86-.11.5-.12,1.01-.03,1.51-.22.58-.34,1.19-.36,1.81,0,0,0,0,0,0-1.13,2.45-.7,5.38,1.79,6.84.02.01.04.02.06.03.22.79.72,1.56,1.58,2.24,13.15,10.44,28.46,17.06,45.18,18.97,9.67,1.11,18.45,2.15,27.79,5.13,4.26,1.36,8.52,2.73,12.78,4.1.61,1.98,2.27,3.71,4.66,3.83,3.43.17,6.82.49,10.21.94.26.08.53.17.79.25.73.23,1.43.27,2.09.15,1.63.26,3.26.54,4.89.87,5.52,1.1,8.74-5.97,3.85-9.14-1.73-1.12-4.89-3.28-4.06-5.77.69-2.07,3.89-3.33,5.68-4.21,6.02-2.96,12.26-5.54,18.38-8.29,9.21-4.15,18.42-8.29,27.63-12.44,1.27-.09,2.48-.58,3.31-1.49,0,0,0,0,.01,0,.44.03.88.01,1.32-.06,6.48,4.79,22.05-2.93,27.18-6.78,10.13-7.6,17.14-19.12,18.53-31.78.58-5.26.11-11.68-5.08-14.59Z"/>
    <path class="cls-2" d="M322.66,216.32c-10.7-3.22-20.06,9.02-25.62,16.26-7.1,9.27-13.86,20.56-25.81,23.94-.21.06-.39.14-.58.21-1.6-.04-3.23.22-4.88.45-1.73.24-3.47.49-5.2.73,1.91-1.7,3.64-3.57,5.1-5.62,2.49-3.49,2.27-7.46-1.12-10.26-1.59-1.31-3.45-1.85-5.31-2.61-2.69-1.1-4.52-2.62-6.81-4.21.16-.07.32-.27.49-.61,1.15-.36,2.49-2.34,3.43-3.22,1.9-1.78,3.88-3.5,5.54-5.51,2.79-3.37,4.18-7.66,3.16-12.01-1.2-5.14-4.69-8.39-8.95-9.63-.55-.62-1.19-1.18-1.94-1.64-6.22-3.79-13.79,2.55-18.56,6-.32.23-.62.48-.93.71-1.39.48-2.76,1.03-4.08,1.72-6.04,3.14-11.28,7.75-16.56,11.99-2.7,2.17-5.85,4.22-8.26,6.71-.62.64-2.19,2.77-2.89,4.65-1.12-.37-2.22-.67-3.41-.88-3.37-.59-6.79-.49-10.19-.79-14.72-1.29-27.98-7.42-43.05-5.61-6.87.82-23.8,2.51-27.12,10.63-1.24.75-2.05,2.11-1.83,4.08,1.11,10.05,4.04,17.88,12.28,24.16,3.89,2.96,8.22,5.35,12.77,7.22.35.45.8.87,1.36,1.24,5.18,3.38,11.15,4.47,17.24,4.78.69,1.52,2.13,2.73,4.33,2.85,5.02-.16,8.71,3.71,12.39,6.63,3.96,3.14,8.16,5.57,12.72,7.75,7.59,3.63,15.25,7.23,23.26,9.82.39.25.83.46,1.32.62,1.02.27,1.65.92,1.89,1.95,1.73,3.49,6.78,3,8.63,0,.56-.9,1.12-1.81,1.68-2.71,1.11-1.79.77-4.21-.53-5.8.12-.15.25-.28.36-.44.84-1.23,1.44-2.45,2.01-3.65,1.36-1.33,2.65-2.68,3.89-3.86,2.76-2.63,5.48-5.3,8.15-8.01,4.29-2.47,8.9-4.56,13.15-6.65,3.58-1.76,7.19-3.45,10.8-5.13,2.26-1.05,4.49-2.4,7.04-2.55,1.86-.11,3.79.35,5.65.43.03,0,.06,0,.09,0,.78.67,1.85,1.08,3.22,1.03,8.33-.27,16.58-1.22,24.76-2.78,1.25.28,2.71.14,3.64-.57.23-.17.45-.35.65-.52,9.38-3.68,15.11-12.52,17.65-22.15,2.21-8.38,6.72-25.62-5.02-29.15Z"/>
    <path class="cls-4" d="M266.36,206.06c.65.88,1.73.62,2.61,2.85,2.83,7.14-1.54,14.9-7.41,20.38-6.59,6.15-1.1,7.59,2.75,8.42.49.11.97.25,1.43.46,4.65,2.13,7.62,11.95,2.94,15.02-1,.66-3.01-.54-2.7,1.24,8.63-1.57,14.58-6.28,19.95-12.77,1.69-2.04,2.88-5.03,4.63-7.14,8.09-9.76,19.6-26.56,34.36-21.54,10.43,3.54,7.73,28.42,4.83,36.73-9.62,27.51-33.98,25.58-58.43,24-1.05-.07-2.09.13-3.04.58-9.95,4.72-19.93,9.48-30.53,12.5-3.64,1.03-5.45,5.11-3.88,8.56,1.9,4.18,3.07,9.51-2.39,14.09-2.82,2.36-7.92,3.98-11.52,3.59-9.59-1.03-25.82-9.6-33.89-15.19-3.85-2.66-11.22-10.27-14.52-11.48-3.29-1.2-6.09-.42-8.84-1.16-13.97-3.8-31.9-10.63-40.72-22.28-4.12-5.44-7.98-10.78-9.49-17.2-.53-2.28-.8-3.88.38-5.48,4.77-6.48,9.25-12.44,17.86-14.53,21.5-5.23,46.4,2.17,68.12,5.96,2.15.37,4.33-.4,5.75-2.05,9.51-11.07,21.08-22.1,34.85-27.2,3.39-1.26,14.9-4.38,17.93-3.99,3.33.43,7.07,5.07,8.97,7.62ZM165.93,279.42s.06,0,.09,0c5.82,0,9.6,1.6,11.96,3.01,4.8,2.88,5.73,6.36,12.54,11.5,1.96,1.48,4.19,2.96,6.95,4.51,7.89,4.46,17.47,9.59,26.51,9.98.55-2.79-.74-1.61-2.13-2.32-1.92-.98-12.79-3.7-9.87-6.67,1.39-1.41,9.16,1.91,11.5,2.01,1.66.08,2.49-.96,1.5-2-2.52-2.63-17.95-5.23-24.35-6.63-.77-.17-1.09-1.08-.59-1.69l.55-.68c.25-.31.65-.45,1.04-.37,3.89.85,24.46,5.3,25.35,4.36,1.78-1.88-3.32-4.98-4.68-5.81-12.79-7.85-26.11-10.45-40.59-7.34-.55.12-1.1-.21-1.24-.75-.38-1.4.1-3.61.66-3.96,1.01-.62,17.73-1.19,20.1-.87,3.86.52,8.07,2.46,11.76,3.74,4.82,1.68,9.32,3.57,13.96,5.61.24.1.5.12.75.04,13.08-4.24,26.3-8.7,38.64-14.79,3.31-1.64.76-2.74,5.65-1.86,12.49,2.25,36.99,2.47,46.73-7.27.61-.61,4.35-7.24,5.77-10.7.36-.88-.53-1.73-1.4-1.37-6.4,2.67-12.74,9.39-19.58,9.37-1.43,0-1.88.21-1.5-1.52.65-2.96,10.55-6.44,13.68-8.32,8.02-4.85,13.65-7.37,12.57-17.27-.08-.73-.87-1.15-1.53-.81-2.33,1.2-6.47.67-6.71.92-.34.34.57,3.12-1.01,4.48-.89.77-8.39,3.82-10.27,4.73-1.31.63-2.47,2.37-3.4,2.55-.89.17-4.07-.56-3.34-2.28.82-1.92,10.58-7.39,13.08-8.92,2.58-1.58,4.15-2.14,6.98-4,1.41-.92,6.16-3.22,5.82-4.88-2.66-13.22-19.11-1.37-24.4,4.27-6.19,6.6-13.24,20.39-19.42,25.58-.89.75-13.35,6.78-15.07,7.43-5.11,1.93-14.44,1.23-20.72,2.66-.69.16-1.32-.4-1.27-1.1.02-.28.04-.56.04-.83,0-.45.26-.84.68-.99,4.99-1.87,19.13-9.01,19.24-13.21.17-6.45-12.71-5.6-17.18-4.23-3.2.98-16.3,8.78-18.31,5.72-.48-.73-.83-2.59-.49-3.01.33-.4,7.69-2.88,9.53-3.98,5.62-3.37,18.56-14.09,21.89-19.11.51-.76,1.92-4.17,2.45-6.28.21-.82-.58-1.53-1.37-1.25-6.97,2.46-19.22,14.45-21.02,16.6-2.39.89-1.48-2.83-1.05-4.08.15-.44,5.37-6.31,6.04-6.94.77-.72,9.46-7.49,14.37-10.74.65-.43.64-1.43-.05-1.8-2.57-1.37-5.17,2.65-6.53,3.53-2.97,1.92-8.47,4.53-10.89,6.4-2.22,1.7-12.14,12.18-13,12.46-3.3,1.1-5.1.51-4.45-2.81.04-.21.15-.41.31-.57,7.77-7.58,17.69-12.79,25.68-20.05.51-.47,1.09-.82,1.52-1.25.75-.76.05-2.04-.99-1.79-19.05,4.62-37.09,17.24-47.04,33.96-.24.4-.7.59-1.15.48-5.67-1.45-12.34-1.79-17.24-2.8-2.18-.45-4.57-1.57-7-2-15.34-2.74-46.3-10.01-58.43,3.07-.39.42-4.33,6.19-4.41,6.57-1.24,6.34,4.55,12.77,10.19,19,3.03,3.34,5.78,5.78,7.58,7.28.06.05.12.09.18.12,14.89,7.95,19.9,8.95,29.84,9.94Z"/>
    <path class="cls-4" d="M408.29,100.14c-.18.75.48,1.43,1.24,1.28,3.14-.65,9.99-2.92,13.48,3.48,5.14,9.42-3.74,15.89-8.91,22.9-.51.69,0,1.68.87,1.68,10.82-.02,14.23-4.69,20.44-13.1,1.58-2.14,2.95-6.63,4.28-7.99,5.41-5.51,18.35-17.24,24.97-20.76,11.31-6.02,24.22-8.1,27.19,7.44,3.44,18.01-10.91,45.13-29.48,49.27-8.18,1.82-19.91.67-27.41,3.59-6.7,2.61-16.84,9.42-23.74,12.47-5.78,2.56-11.59,5.44-18.04,5.98-.72.06-1.2.79-.91,1.45,1.86,4.36,10.1,17.3,3.02,19.41-4.31,1.28-16.51-1.91-21.31-3.28-9.34-2.67-21.96-9.8-30.73-11.27-24.63-4.15-38.67-3.08-60.2-18.8-9.3-6.79-14.79-11.85-6.5-22.4,10.79-13.72,43.15-23.02,59.95-25.03,4.46-.53,9.03.79,13.46-.57,2.78-.85,15.07-14.68,19.11-17.85,8.12-6.37,30.35-21.16,38.77-9.94,4.15,5.53,2.03,15.57.47,22.06ZM409.62,126.08c6.32-7.28,19.04-24.38-.68-19.6-.11.03-.22.07-.32.14-1.73,1.09-18.31,11.55-17.64,9.33.92-3,10.54-12.52,12.08-17.36.3-.96-.76-1.77-1.59-1.21-4.77,3.26-13.22,10.56-17,11.06-2.9.39-1.51-4.02-.05-5.06,3.94-2.59,21.36-12.52,21.35-16.25,0-.65-.68-2.54-1.28-3.59-.23-.4-.68-.62-1.14-.52l-1.59.32c-.2.04-.39.14-.53.29-7.76,7.85-16.53,14.64-25.19,21.39-1.09.91-2.85-.23-3.07-1.11-.91-3.63,5.21-5.78,7.23-7.52,4.24-3.67,9.71-7.81,13.48-11.26.36-.33,2.56-2.63,4.02-4.46.64-.8-.12-1.94-1.11-1.68-16.43,4.27-28.72,16.61-40.11,28.41-2.28,2.36-2.7.96-4.51,5.03-.13.3-.77.62-1,1-3.96-4.03-3.8-1.06-8-1-.07,0-.32-1.01-1-1s-1.34-.04-2,0c-17.09,1.02-45.89,9.05-57.99,21.51-1.59,1.64-5.3,6.68-5.05,8.83.15,1.26,14.44,14.21,21.03,16.4.8.27,1.6.56,2.36.92,9.2,4.43,14.27,6.43,27.57,8.33.05,0,.1.01.15.01,6.02,0,17.38-.09,17.93,0,6.19,1.02,20.73,9.51,28.78,11.72,5.62,1.54,11.46,2.59,17.3,2.33.67-.03,1.14-.67.98-1.32-.76-2.92-5.14-9.54-6.69-10.6-.8-.55-10.74-3.88-11.93-4.07-4.34-.7-9.57,1.71-12.44-2.57-.9-4.25,9.94-2.16,14.27-1.57.85.12,1.48-.79,1.08-1.55-4.04-7.53-20.38-8.18-26.35-4.36-2.04,1.02-3.19-3.81-3.01-3.99.33-.34,8.06-2.87,9.01-3.01.62-.1,1.35.04,2,0,7.07-.41,16.59,1.54,21.4,7.1,1.99,2.3,2.99,7.67,5.88,7.68s19.55-5.4,22.94-6.85c10.02-4.26,33.69-15.75,37.7-20.06.45-.48,1.22-.43,1.62.1.68.9.27,1.58-.37,2.39-.54.68-.06,1.69.81,1.71,11.14.24,23.45-2.53,28.29-13.26.38-.85-.47-1.75-1.34-1.42-4.76,1.8-16.15,8.18-19.47,8.59-2.1.26-1.23-.12-1.46-1.48-.86-4.97,1.18-2.89,4.7-4.29,7.85-3.1,15.02-7.92,22.7-11.37.2-.09.36-.23.47-.42,2.95-4.91,4.83-10.53,5.09-16.34.04-.89-.98-1.43-1.69-.9-3.74,2.74-7.1,6.08-10.93,8.67-1.42.96-4.82,3.3-5.95,3.98-3.75,2.22-16.89,10.59-18.28,4.03-.1-.49.17-.98.64-1.17,4.71-1.89,11.16-3.79,15.22-6.26,1.38-.84,15.71-10.66,18.1-13.88,4.1-5.53-4.11-7.01-8.48-6.49-14.92,1.8-37.92,27.63-44.35,41.4-.15.31-.42.53-.76.59-5.35.92-25,8.38-27.33,4.77-.69-1.07,4.66-8.22,5.51-9.2Z"/>
    <path class="cls-1" d="M187.64,235.36c.22.05.41.16.56.33,4.43,5.11,5.56,14.57,9.71,19.3,2.51,2.86,10.66,1.56,13.48,6.52.73,1.28.5,3.14,1.51,4.49.91,1.2,3.43,1.52,3.95,3.08.96,2.85-3.52,5.1-3.93,8.95-.07.69-.77,1.12-1.42.88-3.31-1.23-6.94-2.76-10.31-3.22-2.37-.32-19.1.24-20.1.87-.58.36-1.07,2.71-.62,4.1.16.48.03,1-.4,1.28-.59.38-1.33.79-2.12.5-2.48-1.66-5.65-2.63-9.51-2.92-.95-.07-1.3-1.29-.55-1.88,3.22-2.55,8.95-5.96,11.48-6.19,1.62-.15,3.25-1.54,5.14-1.95,1.77-.39,4.03.36,5.79-.21.51-.16,7.1-7.28,7.25-7.8,1.17-4.15-4.81-9.93-6.99-13.14-.78-1.14-.39-3.09-1.59-4.41-2.14-2.33-7.95-3.44-8.07-9.19-.01-.69.66-1.19,1.33-1.02,1.87.49,3.7,1.25,5.4,1.65Z"/>
    <path class="cls-1" d="M341.78,111.43c.12,0,.23-.02.34-.06.87-.3,5.29-1.55,8.85,2.06,2.63,2.68,4.65,6.94,6.54,8.97,1.3,1.4,3.13,1.37,4.17,2.33,1.56,1.44,2.43,5.19,3.83,6.66,1.36,1.43,4,1.77,4.29,2.21.52.81.06,3.29.64,4.85.81,2.2,4.43,5.53,1.05,5.98-3.86.52-12.12-2.13-12.53,2.96-.05.58-.52,1.04-1.1,1.01,0,0-.01,0-.02,0-.57-.02-1.01-.49-1.01-1.06,0-2.13,1.39-4.68,1-6.22-.27-1.05-1.76-1.76-2.27-2.78-.62-1.23-.46-3.11-1.06-3.93-1.11-1.52-10.13-2.56-11.08-3.92s-.25-5.18-.69-7.31c-.79-3.83-3.63-7.52-2.98-10.92.1-.5.55-.86,1.06-.85.33,0,.66.01.99.02Z"/>
    <path class="cls-4" d="M160.73,269.2c-4.9,4.93-19.07-6.08-12.8-12.3,8.5-8.45,16.48,8.6,12.8,12.3Z"/>
    <path class="cls-5" d="M155.8,261.97c-1.85,1.87-7.21-2.3-4.84-4.65,3.22-3.2,6.23,3.25,4.84,4.65Z"/>
    <path class="cls-4" d="M323.62,142.79c9.07,10.71-9.02,18.24-15.4,6.94-6.85-12.13,7.05-16.8,15.4-6.94Z"/>
    <path class="cls-5" d="M316.88,142.88c3.95,4.66-3.93,7.94-6.71,3.02-2.98-5.28,3.07-7.31,6.71-3.02Z"/>
  </g>
</svg>