<?xml version="1.0" encoding="UTF-8"?>
<svg id="Urchin" xmlns="http://www.w3.org/2000/svg" viewBox="0 0 586.14 401.97">
  <defs>
    <style>
      .cls-1 {
        fill: #f0cbcd;
      }

      .cls-2 {
        fill: #def7f0;
      }

      .cls-3 {
        fill: #f2d2d4;
      }

      .cls-4 {
        fill: #c6f1e6;
      }

      .cls-5 {
        fill: #ce6d62;
      }

      .cls-6 {
        fill: #aeebdc;
      }

      .cls-7 {
        fill: #85e1ca;
      }

      .cls-8 {
        fill: #f3d5d7;
      }

      .cls-9 {
        fill: #abeada;
      }

      .cls-10 {
        fill: #c8f1e7;
      }

      .cls-11 {
        fill: #efc8ca;
      }

      .cls-12 {
        fill: #9be6d3;
      }

      .cls-13 {
        fill: #a2e8d6;
      }

      .cls-14 {
        fill: #d7f5ee;
      }

      .cls-15 {
        fill: #e0f0f0;
      }

      .cls-16 {
        fill: #99e6d2;
      }

      .cls-17 {
        fill: #b8dcdd;
      }

      .cls-18 {
        fill: #f3fcfa;
      }

      .cls-19 {
        fill: #aaeada;
      }

      .cls-20 {
        fill: #f0fbf9;
      }

      .cls-21 {
        fill: #f0cacc;
      }

      .cls-22 {
        fill: #ffcf99;
      }

      .cls-23 {
        fill: #eafaf6;
      }

      .cls-24 {
        fill: #f2fcf9;
      }

      .cls-25 {
        fill: #abd5d6;
      }

      .cls-26 {
        fill: #9bcecf;
      }

      .cls-27 {
        fill: #b0d8d9;
      }

      .cls-28 {
        fill: #f2d9d6;
      }

      .cls-29 {
        fill: #e6f9f4;
      }

      .cls-30 {
        fill: #eefbf7;
      }

      .cls-31 {
        fill: #9ae6d3;
      }

      .cls-32 {
        fill: #b6dbdc;
      }

      .cls-33 {
        fill: #96e5d1;
      }

      .cls-34 {
        fill: #93e4d0;
      }

      .cls-35 {
        fill: #efc9cb;
      }

      .cls-36 {
        fill: #a9ead9;
      }

      .cls-37 {
        fill: #b4dadb;
      }

      .cls-38 {
        fill: #202121;
      }

      .cls-39 {
        fill: #dbeded;
      }

      .cls-40 {
        fill: #d4f4ec;
      }

      .cls-41 {
        fill: #a1e8d6;
      }

      .cls-42 {
        fill: #e7f9f5;
      }

      .cls-43 {
        fill: #deefef;
      }

      .cls-44 {
        fill: #f3dcd9;
      }

      .cls-45 {
        fill: #c2f0e4;
      }

      .cls-46 {
        fill: #7ddfc6;
      }

      .cls-47 {
        fill: #84c2c3;
      }

      .cls-48 {
        fill: #e8f4f4;
      }

      .cls-49 {
        fill: #e8b0b3;
      }

      .cls-50 {
        fill: #eec6c8;
      }

      .cls-51 {
        fill: #65b3b5;
      }

      .cls-52 {
        fill: #c3f0e5;
      }

      .cls-53 {
        fill: #f6dfe0;
      }

      .cls-54 {
        fill: #8ac5c6;
      }

      .cls-55 {
        fill: #7adec5;
      }

      .cls-56 {
        fill: #92c9ca;
      }

      .cls-57 {
        fill: #a5e9d8;
      }

      .cls-58 {
        fill: #faf6d2;
      }

      .cls-59 {
        fill: #efc8cb;
      }

      .cls-60 {
        fill: #ecfaf7;
      }

      .cls-61 {
        fill: #d6f5ed;
      }

      .cls-62 {
        fill: #e4f8f3;
      }

      .cls-63 {
        fill: #c2e1e1;
      }

      .cls-64 {
        fill: #e0a39c;
      }

      .cls-65 {
        fill: #eab8bb;
      }

      .cls-66 {
        fill: #baeee1;
      }

      .cls-67 {
        fill: #82e0c8;
      }

      .cls-68 {
        fill: #e3f8f3;
      }

      .cls-69 {
        fill: #f1cdcf;
      }

      .cls-70 {
        fill: #a3e8d7;
      }

      .cls-71 {
        fill: #dbf6ef;
      }

      .cls-72 {
        fill: #e9b5b8;
      }

      .cls-73 {
        fill: #8de3cd;
      }

      .cls-74 {
        fill: #ebb9bc;
      }

      .cls-75 {
        fill: #79bcbe;
      }

      .cls-76 {
        fill: #dff7f1;
      }

      .cls-77 {
        fill: #dcf6f0;
      }

      .cls-78 {
        fill: #d8f5ee;
      }

      .cls-79 {
        fill: #3fa0a2;
      }

      .cls-80 {
        fill: #f3d6d7;
      }

      .cls-81 {
        fill: #daf6ef;
      }

      .cls-82 {
        fill: #caf2e8;
      }

      .cls-83 {
        fill: #e0f7f2;
      }

      .cls-84 {
        fill: #e8f9f5;
      }

      .cls-85 {
        fill: #b7ede0;
      }

      .cls-86 {
        fill: #e2f8f2;
      }

      .cls-87 {
        fill: #aed7d8;
      }

      .cls-88 {
        fill: #8ee3ce;
      }

      .cls-89 {
        fill: #a6e9d8;
      }

      .cls-90 {
        fill: #b5eddf;
      }

      .cls-91 {
        fill: #a7e9d9;
      }

      .cls-92 {
        fill: #d3f4ec;
      }

      .cls-93 {
        fill: #202020;
      }

      .cls-94 {
        fill: #f2d3d4;
      }

      .cls-95 {
        fill: #f2d1d3;
      }

      .cls-96 {
        fill: #86e1ca;
      }

      .cls-97 {
        fill: #f1cfd1;
      }

      .cls-98 {
        fill: #81e0c8;
      }

      .cls-99 {
        fill: #ebbbbe;
      }

      .cls-100 {
        fill: #ffdcb5;
      }

      .cls-101 {
        fill: #ebfaf6;
      }

      .cls-102 {
        fill: #97e5d2;
      }

      .cls-103 {
        fill: #161616;
      }

      .cls-104 {
        fill: #91e4cf;
      }

      .cls-105 {
        fill: #b2ecdd;
      }

      .cls-106 {
        fill: #cfe7e8;
      }
    </style>
  </defs>
  <g id="urchin">
    <path class="cls-84" d="M311.01,399.76v.46h-3.72c-.02-.31.03-.62,0-.93.37-1.39,3.57-.92,3.72.46Z"/>
    <path d="M267.81,70.46c-.07-.86-.37-3.39-.28-3.97s1.08-.93,1.17-1.43c.06-.32-1.06-5.31-1.17-6.21-.33-2.63.75-2.87.76-3.05.17-3.9-1.56-9.52-1.19-13.92.26-13.2.58-24.18.73-37.57.03-3.26-1.84-5.1,3.69-3.96.37,1.11-.56,2.51-.47,3.41.03.33.97.26,1.22,1.17,1.03,3.77,1.2,11.93,1.17,16.08-.01,1.46-.84,3.26-.75,4.66.11,1.71,2.02,4.54,2.09,5.57.09,1.33,0,5.6-.92,6.49,2.21,1.11-.02,2.16-.02,2.32,0,1.13.93.85.48,3.94.14,2.4.61,4.56,1.39,6.5.2,1.45.35,1.56,0,3.25.4,1.48.4,2.87,0,4.18,2.4,3.95,1.21,7.4,1.51,11.74.08,1.16,1.38,2.08,1.28,2.66.58.48.88.85.46,1.45,1.79,1.3,1.41,3.39.47,5.06-.76,4.02,2.73,6.46,1.39,1.86-.81-1.89-.86-4.13-.16-6.73-.49-.63-.61-1.07.16-1.63,0-.06.49-.52.49-1.16,0-.76-.52-2.16-.07-2.74.35-.45,1.01-.15,1.31-.38.5-.39.31-2.03,1.77-2.2,1.13,1.66,2.09,1.48,2.08,3.69.28.49.59.18.93-.93-.1-1.49-1.01-4.52-.97-5.79s.87-1.85.97-2.35c.05-.24-.67-.16-.9-.57-.94-1.73.29-2.09.35-3.12.23-3.66-.07-6.15.38-10.22.16-1.44-.21-9.07,2.51-8.42,2.99.71,1.64,9.19,2.68,11.7.31.75,1.06.7,1.02.88-1.28,5.34.55,11.25,1.37,16.76.27,1.81.72,3.07.96,4.39l.98.56c-.27,1.5-.6,2.86-.98,4.08l.48,1.68c.67,1.23,1.66,3.33.45,4.36l-.55.38c1.32,1.72,1.51,2.83.55,3.34,1.28,2.21,1.61,4.76,1.18,7.28l.51-1.48c-.41-1.73-.04-2.73,1.1-3.02-.77-1.28-1.15-4.91.46-5.57-1.4-.68-.62-4.22.93-4.18-1.55-.8-1.81-3.95-.52-5.04-.42-1.33-.29-1.71.98-2.4.09-.09.71.12.86-.05.17-.18-.84-3.78-.81-4.78.05-2.18,1.59-4.11,1.78-6.16s-.24-5.26.5-7.35c.5-1.43,1.27-1.04,1.39-1.18.08-.1-1.2-1.62-.91-2.47.12-.36.88-.26.93-.61.63-4.03.6-8.35,1.01-11.9.2-1.76,1.91-6.28,2.32-8.41.36-1.84.2-5.23.82-6.94.2-.54,1.21-.24,1.41-.78-.96-2.98,2.8-1.54,2.79.46.73,7.39.02,13.37-.04,20.67-.01,1.49.96,7.57.38,8.5-.13.21-.87-.1-.8.32.92.77,1.03,4.29.98,5.6-.03.92-1,.58-1,.91.02.96,1.12,1.15,1.22,1.84.18,1.24-.48,4.7-.51,6.28-.01.61.58,1,.56,1.18-.07.72-1.76.89-.79,2.23.28.38.96.26.94.57-.05.74-.79,1.04-.9,1.48-.13.48.4.53.42.61.32.46.29.92,0,1.39-.06.27.05.63,0,.93-.07,3.75,2.27,1.92,2.32-.93.13-.28.59-.61.83-1.24.55-1.45,2.5-9.57,2.93-9.86.6-.42,2.19.16,2.54.89.2.42.12,6.45.04,7.57-.11,1.5-.7,2.08-.76,4.49-.03,1.43.3,2.51.99,3.22-.34,4.5,1.25,2.44.52-.09l.81-1.28c.15-1.48,1.85-3.77,2.33-5.35.05-.17-1.87-.04-.14-2.88.41-.67,1.5-1.06,1.52-1.29,0-.09-.72-.47-.7-1.19.05-1.81,3.36-10.36,4.44-11.58-.87-1.26-.87-2.04,0-2.32,1.1-1.51.64-3.54,1.18-5.09.39-1.11,2.07-2,2.1-2.19.11-.77-.75-2.15-.49-3.61.16-.91,2.86-7.22,3.3-7.89s1.43-.68,1.61-1.63-.44-1.83-.31-2.51c.09-.46,1.14-.41,1.36-1.06.34-1-.1-2.43.33-3.88.4-1.36,3.54-3.86,4.81-2.76.1.52.22,1.05.24,1.58.07,3.05-2.02,11.57-2.72,15.24-.84,4.41-1.76,9.74-3.29,14.26-.42,1.24-2.33,2.35-.23,3.01-.48.99-2.47,2.15-2.36,3.25.02.23.93.24.93.44-.03,1.12-1.16,4.56-1.68,5.73-.26.59-.97.59-.99.64-.05.12.48,1.64.42,2.49-.12,1.81-2.03,4.17-2.29,5.19-.18.72.51,1.65.21,2.97-.2.87-1.41.98-1.47,1.78,0,.12.59,1.99.73,2.36.23,1.72-.45,4.03-1.07,5.83.32,1.23.06,1.92-.79,2.07.09.61-.26,5.51-.39,5.79-.18.39-.62.58-1,.72-.53,2.12.06,4.57.78.7l1.08-.24c-1.33-1.41-1.66-3.24.66-3.91.07-1.35.34-2.65,1.67-2.59-1.1-.41,1.05-5.91,1.48-6.46.71.13,1.15-.35,1.31-1.44.65-3.11,2.39-10.27,4.38-12.58.59-.68,1.61-.82,1.66-.9.21-.29-1.12-.93-.93-1.61.12-.46,1.24-.59,1.34-.75.08-.14-.46-.87-.3-1.44.67-2.55,2.24-5.02,3.23-7.49.51-1.29.07-3.76,2.08-3.89,1.66-.11,1.97,1.24,1.82,2.67-.25,2.34-2.21,5.72-2.74,7.86-.23.91.2,2.84-.18,3.61-.53,1.07-1.46.98-1.51,1.06-.1.13.79.95.92,1.62.27,1.49-.18,4.29-.71,5.76-.93,2.6-.41,1.51-.75,3.87-.18,1.26-2.23,3.05-.39,3.37-2.27,1.72-1.28,2.82-1.49,4.54-.07.57-.59,1.85-.84,2.66l.68.83c-2.97,5.94,1.08,1.73,2.11-.83.1-.58.24-.58.46-.93.5-.18.72-.45.93-.93.15-.09.71.12.85-.05.06-.07-.46-1.17-.33-1.93.24-1.41,1.42-1.43,1.84-2.08.31-.48-.04-1.27.08-1.43.29-.39,1.93-.79,2.11-1.11.33-.6-.06-1.64.1-2.38.04-.21,2.14-2.65,2.45-3.23.46-.85.99-3.51,1.38-3.95s1.4-.3,1.66-.67.72-3.01,1.55-4.26c.44-.65,2.73-2.27,2.74-2.46.05-.63-.66-1.66-.46-1.96.16-.22,1.86-.63,2.17-1.12.35-.56-.03-1.6.78-2.24.53-.42,1.56-.35,1.66-.44.06-.06-.55-.86-.15-1.71s1.37-1.04,1.9-1.87c.47-.73,1.34-2.2,1.71-2.95.27-.55.16-1.61.31-1.76.25-.24,1.5.2,2.05-.5.39-.49.49-2.49,1.4-3.7.99-1.32,2.09-2.31,3.01-3.62,1.92-2.73,3.77-6.08,5.75-8.77,1.87-2.55,4.75-4.27,4.73.28-1.53,3.09-3.62,5.77-5.11,8.88-1.76,3.69-2.63,7.16-5,10.8-.37.57-2.11,1.65-2.15,1.79-.15.5.36,1.07.18,1.77-.08.3-2.43,4.83-2.76,5.41-.19.33-1.51,1.07-1.55,1.2-.29.87.05,1.85-.36,2.68-.44.9-1.77.73-2.01,1.01-.12.15-.76,2.93-1.07,3.72-.14.36-.86.36-.9.68-.19,1.68.56,3.17-1.01,5.19-.18.23-.79.02-.84.08-.54.26-.7.57-.46.93-1.47,1.67-.29.9-.66,2.34-.15.6-4.76,9.06-5.38,10.2.37.36.41.79.22,1.26l-3.2,5.63c.44,1.38-2.03,3.92-3.05,2.86-.48.09-.48.71,0,1.86,1.22.17,1.15.52,0,.93-.85,0-2.28,6.43-1.38,3.44-.02-.89.96-2.98,1.98-2.28l.33-.7c-.24-.15-.43-.3-.45-.48-.04-.31,1.16-4.15,2.27-4.02.38-2.77,2.57-5.74,4.22-7.58.18-.4,2.56-1.77,2.68-1.97.29-.49.66-2.02,1.33-3.3.49-.94.41-1.78,1.32-2.65.41-.38,4.1-1.38,4.43-1.18,2.96,1.84-2.12,8.22-2.82,10.23-.21.59-1.04,2.88.02,3.04-.29-1.64,1.99-2.95,2.21-3.53.19-.5-.34-1.44.36-2.48.95-1.42,2.99-.9,1.15-2.81.42,0,.84-.2,1.15-.47,1.83-1.56,4.06-6.58,4.84-8.59,1.21-3.07,2.32-2.04,2.84-2.57.06-.07-.59-1.01-.44-1.57s1.26-.6,1.53-1.34c.21-.58-.28-1.59-.15-1.7.18-.16,1.22.09,1.62-.48,1.52-2.13,1.89-4.9,2.68-6.89.06-.16,2.18-1.61,2.57-2.27.68-1.18,1.62-4.82,2.04-5.6.18-.33,2.17-1.49,2.39-2.1,1.13-3.12,3.47-6.51,5.88-9.39,1.78-2.13,1.8-2.09,3.2-4.21.45-.68,2.11-1.44,2.67-2.25.24-.35.11-1.04.21-1.14.48-.45,3.08.18,3.47.85-.48.61-.76,3.04-.86,3.17-.19.24-.97.34-1.26.77-3.71,5.45-5.97,11.88-9.14,17.8-.85,1.58-1.63,4.17-2.48,5.34-.37.52-1.03.27-1.22.47-.65.7-1.91,1.76-2.24,2.18-.48.62.88,2.85.67,3.71-.36.05-1.1-.13-1.3.07-.18.18-1,4.24-1.58,4.94-.44.52-2.18.35-2.67,1.27.02.68,1.4,1.33,1.4,1.43.02,2.11-2.18,3.42-2.21,3.64-.06.43.48,1.18.37,1.81-.07.38-1,.51-1.36,1.07-.92,1.43-2.51,4.15-3.26,5.59-.67,1.27-.72,2.98-1.24,3.87-.39.66-1.94,2.36-2.45,3.37-.18.36.34.96.15,1.3-.33.59-1.98.75-2.37,1.37-.5.8.49,1.68.05,2.76-.34.84-1.94,2.08-2.57,2.82.37,1.1.32,1.72-.93,1.39.47,2.21-.51,5.51-2.68,6.4.6,2.17-1.81,5.7-3.83,6.14l.05,3.88c1.25-.26,1.71-.89,1.36-1.91.38-1.5,2.18-2.08,3.7-2.43-.48-1.2.26-1.67,1.39-1.39-.27-1.27.88-4.01,2.32-2.79.5-.43,1.78-.88,1.84-.97.09-.13-.61-1.11-.45-1.35.13-.19,3.48-1.36,4.05-2,.52-.58,1.34-3.09,1.98-3.82.6-.69,3.86-3.47,4.89-4.4.48-.43,1.4-.41,1.86-.94.67-.77.13-2.25.94-3.2,1-1.18,3.56-3.15,4.87-4.22l1.86-1.39c1.16-2.43,7.6-10.77,10.44-7.41.14.17,1.05,2.38,1.07,2.62.11,1.2-1.14,1.89-1.76,2.71-4.34,5.73-10,11.16-13.91,16.72-1.04,1.48-2.71,2.98-3.98,4.38-1.95,2.15-2.33,4.64-3.6,5.92-.65.66-2.04,1.11-2.65,1.99-.11.4-.27.39-.46,0-.23,1.13.85,2.01,1.39.93-.13-.36.04-.5.46-.46,2.53-2.59,3.5-1.08,4.18-1.4.09-.04-.46-1.22-.02-1.98.29-.5.97-.32,1.36-.62s.47-1.03.85-1.13c.89-.23,3.13.75,3.38.49.11-.11.06-2.54.58-3.14.66-.76,2.99-.45,3.13-.6.1-.11-.32-1.68,1.1-2.59.43-.27,1.13-.13,1.68-.44.6-.33.55-1.86,2.81-1.14l-.47-1.39c2,.15,3.04-1.8,4.57-2.74.64-.39,2.09-.51,2.58-.95.44-.39.17-1.14.37-1.32.16-.15,3.57-1.53,4.07-1.69.83-.27,1.84.27,1.89.19.16-.25-.59-1.03-.06-1.65.67-.78,1.73-.54,1.92-.67,1.01-.25,1.04-.32.93-1.39,3.25-2.02,5.53-2.2,8.38-4.78,4.65-4.2,12.11-8.68,17.72-12.1,2.95-1.8,5.95-5.17,9.21-3.09-1.05,1.26-1.53,3.77-2.31,4.9-1.17,1.71-6.24,4.98-8.04,6.68-1.44,1.37-3.77,4.93-5.57,6.39-1.49,1.21-5.14,2.62-6.38,4.31-.7-.17-.86.13-.46.93-.94,1.39-.5.57-1.57,1.45-.99.81-1.14,1.9-3.07,1.81l.46.91c-1.77-.18-2.53,2.21-3.63,2.79-1.16.6-2.76-.08-2.85.03s.11.7-.07.98c-.38.6-1.15.31-.4,1.32-2.43-.29-.66.65-1.12,1.4-.29.47-1.55.74-2.11,1.19-.61.49-1.44,1.64-1.9,1.85-.61.27-1.32-.3-1.37-.26-.11.1-.04,1.77-.58,2.22-.35.29-1.55.38-2.45,1.03-1.18.86-3.38,4.18-4.06,4.52-.6.3-1.45.04-2.2.36-.95.42-1.68,2.47-2.82,3.24-1.58,1.07-4.67.28-4.62,3.95.36,1.61-1.78,2.28-3.17,1.99-.7,1.49-1.5,1.91-2.4,1.27-1.09.13-1.95.97-.49,1.42-.56.79,1.86,1.4,2.81,1.37-1.43-2.28,2.56-2.77,4.33-2.31-.05-1.71,1.78-3.43,2.64-1.4.66-.3,1.04-.24,1.41.3.47-1.2,1.39-2.23,2.77-3.09,1.48-.73,3.95-2.01,5.57-2.56.91-.31,1.94-.18,2.79-.7.39-.39.85-.86,1.39-1.39,1.36-.5,3.17-.12,4.64-.95-1.26-1.72,1.33-.81,1.88-1.17.69-.45.72-1.84.98-2,.45-.27,1.63.08,2.39-.16,2.21-.69,4.18-3.05,5.59-3.94,1.08-.68,6.47-3.15,7.22-1.93.47.77-.81,2.2,1.46,1.78-.93,1.15,1.64,1.07-.34,2.8-2.12,1.85-4.63,1.88-6.92,2.69-.85.3-2.01,2.07-3.89,1.47l.47,1.39c-2.09.19-2.85,2.08-5.11.94,1.18,2.43-1.56,1.92-2.44,2.34-1.86.89-3.97,2.34-5.85,3.17-1.04.47-2.14.84-3.12,1.45-.39-1.85-.68-.11-2.07,0-.35,1.61,1.69.3,1.4,1.84h.45c-.01-2.52,3.06-.71,3.26-.92.1-.11-.26-1.05.28-1.44.65-.47,1.78,0,2.51-.18,1.98-.51,3.06-.55,4.69-.9,1.05-.22,1.12-1.66,2.22-1.9.64-.13,1.42.37,2.07.25.41-.07,0-1.11,1.46-.99,1.22.1,1.5.95,2.57.97-.69-3.68,6.44-4.05,9.07-4.88,2.08-.65,4.2-1.61,6.36-2.23,2.31-.66,8.03-2.64,10.01-1.82,2.37.98,2.09,3.35.61,5.01-.73.81-1.74.67-2.49,1.11-.47.28-.46,1.15-1.08,1.34-3.93,1.22-5.74,2.54-9.33,4.24-5.29,2.51-10.39,4.48-15.37,6.36-.57.21-.57,1.02-1.15,1.24-.88.32-1.68-.23-1.73-.16-.2.27.51,1.24-1.13,1.89-.86.34-1.83.03-2.87.35-.53.16-2.02,1.67-2.24,1.76-1.65.68-4.47.4-5.38,2.5.81-.12,1.83.6,2.51.5.32-.05.24-.9.48-.9,3.85.03,5.42-.86,9.36-.55.48.04,6.73-1.06,9.09-1.18,2.48-.12,3.87-1.7,6.18,1.24,1.78,2.26.06,2.12-.2,2.61-.35.67-.36,1.87-.92,2.25-1.12.76-3.89.23-4.11.33-.07.03-.13.63-.42.81-3.04,1.93-5.9,2.22-8.82,3.71-.76.39-2.21.63-2.45,1.41,1.69.45,2.75.52,3.95-.92.69,2.28,1.22-.55,3.45-.71,1.9-.14,3.96-.3,5.82-.39.58-.03,2.08-1.27,3.3-1.18.77.05,1.35,1.03,1.59.89.04-.03-.11-.63.33-.94,1.29-.92,3.35.53,4.52.48.3-.01.3-.77.61-.92,4.37-2.16,9.23-.42,14.09-1.61,3.37-.83,5.55-.34,9-.75,3.18-.38,4.69-2.37,8.31,0,1.17.76.55,3.78-.12,4.46-1.95,2-10.89,1.61-14.21,2.65-.2.06-.26.72-1.12,1.08-2.36.96-3.08.7-5.02.33-2.76-.53-2.03,1.43-3.22,1.71-.83.2-1.25-.62-1.79-.69-1.3-.15-2.09,1.54-2.36,1.62-.86.26-1.51-.64-2.28-.7-1.19-.1-3.89,1.71-5.22,2.01-2.74.63-8.15,1.92-10.79,2.23-.94.11-1.82-.41-2.51-.28-.4.08-.1,1.4-1.23.48v1.41c-.86-.3-2.04-1.06-2.95-.95-.27.03-.24.94-1.31,1.12-1.49.25-1.69-1.02-2.71-.17.39,2.06-1.34,2.77-5.19,2.15-1.81,1.15-3.18,1.36-4.1.64-.6.2-.69.53-.26.98-.35.38-5.31,1.44-5.78.41l-.29,1-7.85,1.64c2.66-.13,5.13.32,7.4,1.35.84-.81,2.01-.9,3.53-.27.87-.94,2.42-.78,4.65.46.77-1.53,4.84-1.34,5.98-.09.77-.78,1.43-1.1,1.92.09.28.04.68.69,1.54.78,2.2.23,4.83-1.51,6.99-1.09,1.03.2,1.8,1.15,2.88,1.22,1.52.1,4.34-.85,6.02-.91,1.86-.06,4.73.52,6.48.48,1.16-.03,2.42-.82,3.36-.82.99,0,1.91,1.09,3.11.83.34-.07.25-.99.52-.97,1.24.09,4,1.8,4.24,1.84.54.09,1.09-.84,1.79-.88.88-.05,1.43.8,1.87.92.29.08.14-.91.49-.94,2.25-.25,3.96,1.41,4.19,1.41,3.5.02,7.31.38,11.03.3.55-.01,1.16-.68,1.91-.71.98-.04,3.94.78,4.43,1.7,1.87,3.51-.46,4.87-3.52,5.62-2.02.5-7.8,1.66-9.76,1.89-1.12.14-3.18-.5-4.41-.18-1.39.36-1.41,1.47-3.87,1.12-3.09-.44-.91-.11-3.38.39-1.35.27-4.17-.19-5.5-.31-.21-.02-.2.98-1.09,1.15-1.05.19-2.05-.96-1.9.65-2.33-2.66-4-.41-5.8-.42-.85,0-2.19-1.05-2.78-.88-.11.03-.88,1.27-1.9,1.29-.18,0-.18-.72-.3-.79-1.09-.59-2.98.91-3.99,1.13-1.25.27-4.6.97-5.67,1.06-.51,1.42-2.95.9-3.25-.46-.88-.24-1.81-.09-2.79.46-1.09.71-2.32.71-3.72,0,.02,2.17-2.39,1.47-3.72.46-.4,1.8-5.34,2.34-6.5.93-.64-.36-1.19-.22-1.86,0-.63,1.13-1.95,1.55-3.95,1.26-4.93-.31-4.74.52-.21.96l.94,1.08c1.67-1.05,3.48-.26,4.54,1.16,1.85.83,3.74,1.35,5.66,1.57-.08-2.23,3.4-1.44,3.56.63l.63-.16c-.09-1.36,1.63-1.35,1.86,0,.02-.22.07-.43.16-.61.27-.5,6.7.05,6.81,1.54.11.02,1.04.83,2.04,1.02,2.14.4,4.81-.41,6.56,1.77.4.16.11-.67.32-.81.85-.55,6.66,1.25,8.22,1.44,3.2.4,6.13-.6,9.22,1.35.37.24.6,1.57,1.28,1.64.43.04,1.47-1.02,2.33-1.09.6-.04,5.13.95,5.58,1.65.65-2.19,3.12-.01,4.64.26,2.02.36,4.15-.28,6.44,1.12.41.25.27.91.31.94.21.13.89-.85,1.63-.93,1.46-.16,2.7.96,3.83,1.28,1.21.35,3.78.59,5.32,1.17,1.43.54,4.23,1.43,4.46,2.99.71,4.84-6.87,4.22-9.85,4.27-.75-.25-.7-1.31-.76-1.36-.24-.17-.58.56-.91.64-1.38.34-1.62.74-1.73.77-.54.12-6.18-.33-6.79-.48-.37-.09-.27-.86-.6-.9-.22-.03-2.97-.06-3.13-.04-.4.06-.07.99-.93.95-2.94-.15-5.48-1.93-8.36-1.41-.39.07-.29.79-.37.86-.79.56-1.28-1.03-2-1.12-4.08-.55-10.53.4-14.33-.67-.45-.13-.19-1.01-1.01-.96-2,.11-1.9,1.14-5.01.02-.41-.15-.33-.92-.59-.92-.18,0-2.56.79-3.47.95l-1.43-.12c-.51,1.77-4.82.79-6-.34-.94,1.65-3.06.46-4.18-.46-.64-.07-.7-.59-.47-1.1.34-.76-.09,1.16-.63,1.61-.73.61-4.33.4-4.47-.98-.9-.35-1.21.08-.93.93,2.06-.11,4.17.45,6.33,1.7,1.34-.21,2.64.46,3.89,2.02.38-1.36,2.28-.88,2.32.46,1.16,1.05,3.26.72,4.33,1.36.56.34.48,1.32,1.59,1.78,1.35.56,2.81-.03,3.93.2,1.57.33,12.7,3.67,13.25,4.21,1.99,1.97-.03,4.6-2.24,5.2-.29.08-3.65.29-3.84.27-.34-.05-.3-.97-.53-.98-.67-.02-1.26.75-1.9.83-4.11.48-13.34-2.42-17.83-3.12l-.33.57c-1.34-.35-2.15-.02-3.12.87-1.18-.46-3.62-1.11-1.28-.32,1.28.44,2.68,1.1,2.87,2.59,2.37,1.28,4.84,2.6,6.97,3.72.95-.1,4.74.57,5.05,1.24.16.35.15.72.06,1.08,1.14.64,3.61,1.99,4.56,2.65.6.42,1.09,1.53,1.32,1.56.59.07,1.39-.61,2.16-.43.58.14,1.14,1.14,1.87,1.45s3.91.8,4.42,1.38c.26.3-.02,1.17.08,1.28.15.16,1.24-.32,1.86-.17,2.17.54,3.12,2.1,4.26,2.85.15.1,2.16-.38,2.72-.07.86.46,1.11,2.1,2.44,2.65s4.88,1.23,6.34,1.96c4.43,2.23,7.01,2.99,11.05,5.84.59.41,2.08.03,2.77.55.35.26.52,1.1,1.04,1.51,3.37,2.7,7.55,2.4,10.03,5.77.45.62,2.26.25,1.86,1.92-.38,1.57-1.94,3-3.69,2.74-.18-.03-3.36-1.08-3.53-1.16-.67-.34-.65-1.29-1.29-1.62-2.68-1.41-10.83-2.99-14.49-4.42-.75-.29-2.13-.69-2.67-1.01-.79-.46-.91-1.37-1.29-1.53-.94-.4-.64.98-.9.93-.3-.06-3.38-1.07-3.54-1.16-.37-.22-.04-1.65-.66-1.61-.11,0-.47.66-.92.72-.63.09-2.92-1.28-3.35-1.77-.09-.1.28-1.14-.59-1.52-.43-.18-2.11.36-3.06.27-1.05-.11-1.62-.82-2.54-.97-1.35-.42-2.81-.82-4.18-.46-1.39-.29-2.68-1.17-4.18-1.86-.09-.31-.4-.31-.93,0-.87-.44-.77-1.67-.97-1.83-.17-.13-2.89,1.13-3.45-1.42-.96,2.54-3.97-.26-5.37-.68s-3.38-.67-5.08-1.18l-3.71-.44.4.74c-1.22.75-.51.94.52,1.09,1.51.78,3.17,1.77,2.79,3.72.48-.13.87-.44,1.39-.47,2.05.43,3.13,1.36,3.25,2.79,2.01,1.58,3.12,2.27,4.88,4.18.72.78,1.57-.15.7,1.85,1.03.22,1.75-1.25,2.77-.72.13.07,2.13,1.68,2.22,1.8.27.38.04,1.16.12,1.25.12.14,1.05-.65,1.34-.45.11.08,1.43,2.17,1.45,2.3.75.13.58,1.12.44,1.81-.04.17-.32-1.79.49-1.81.86.25,3.98,3.13,4.51,3.88.29.42.07,1.14.14,1.23.04.05.73-.4,1.08-.33,1.74.35,1.99,3.46,2.17,3.58.08.06,1.05-.61,1.96-.4.16.04,2.73,1.61,2.85,1.73.64.71.11,1.53.3,1.91.1.19,2.49.56,3.82,1.41.72.46,5.77,4.58,6.18,5.07,2.15,2.53,2.17,5.65-1.89,5.61-2.53-.03-6.9-4.09-9.44-4.99-2.07-.74-1.37-.06-3.38-1.23-3.25-1.88-6.49-3.57-9.51-4.88-.83-.36-4.27-3.36-4.82-3.49-.82-.18-1.51.29-2.7-.14-.52-.19-1.47-1.77-2.01-2.18-.48-.37-2.67-2-2.83-2.09-.31-.19-1.18.53-2.12.09-1.85-.87-4.6-3.26-6.62-4.33-3.6.74-6-1.42-8.36-3.72-1.53-.12-.79-1.28-.27-.83.89.78-2.13,1.34-2.8-.61-4.13-2.7-3.41-1.77,2.15,2.79.03,2.14.8,3.23,2.31,3.29,1.22.12,2.31,1.05,3.25,2.79,2.57,1.81,6.87,7.08,9.57,9.73.5.49,1.36.4,1.62.79.33.48.17,1.57.54,1.91.28.27,1.2.12,1.55.56.27.35-.23,1.2-.06,1.44.35.5,1.49.33,2.09.69.69.41,1.35,2.2,2.04,2.84.91.85,2.88.22,1.7,2.94,3.83-1.54,2.77,2.28,3.25,2.79.12.13,1.96-1.2,3,.96.28.58-.35,1.37.48,1.82.84-2.31,1.07-.33,1.31-.17.63.4,1.53.32,1.95,1.1.31.58.14,1.77.22,1.87.12.14,1.01-.43,1.42-.24.54.25.73,1.25,1.17,1.62.93.78,2.5,1.4,3.3,2.49.54.75,1.05,2.83,1.67,3.43.57.55,1.85.6,2.52,1.2.55.49,1,2.1,1.1,2.16.13.08,1.19-.64,1.36-.45.06.07-.13.82.15,1.22,1.26,1.82,4.61,5.58,6.13,7.13.8.81,3.47,1.27,5.08,3.28.17.21,1.96,3.71,1.96,3.92.02,1.08-2.76,2.89-3.81,2.84-2.02-.08-4.23-3.52-5.21-4.02-1.78-.9-1.89.7-3.56-2.37-.25-.47-.23-1.29-.28-1.33-.22-.22-1.64.84-2.35.28-.6-.48-.23-1.78-.9-2.37-1.45-1.26-5.26-.57-3.72-4.41-.99.11-2.12.44-3.1.09-1.74-.63-3.46-3-4.83-4-.65-.48-1.74-.45-2.33-.97-.47-.4.1-1.13.05-1.16-.55-.3-2.52.27-3.71-1.19-.55-.67-.42-1.55-.48-1.61-.07-.07-1.03.6-1.57.44-.67-.2-2.5-2.85-3.26-3.49-1.09-.92-2.96-1.85-4.25-2.97-.56-.48-1.1-1.72-1.23-1.79-.61-.33-1.52.14-2.14-.19-.15-.08-1.29-2.21-2.18-2.72-.79-.46-1.81.17-2.82-.87-.61-.63-.71-1.86-1.11-2.14-.79-.53-2.29.06-2.75-.27-.2-.14-.23-1.02-.52-1.45-1.52-2.21-1.06-1.18-2.79-1.74-1.19-.03-1.72-.2-1.6-.52-1.24-1.09-2.29-2.29-3.14-3.6-1.8.17-2.6-.33-3.01-2.15-3.49-1.27-4.73-1.01-3.73.78,1.36.02,2.9.39,1.73,1.78,1.44.49,2.14.79,3.17,1.86s3.19,4.28,2.41,5.57c1.33-.14,1.57.22.93,1.39,2.33,3.75,4.67,6.27,6.7,9.78,1.29,2.23,2.21,3.33,3.52,5.54.08.73.43,1.32.93,1.86,2.07.71,2.95,3.7,3.97,5.08,1.17,1.59,2.55.99,2.22,3.66-.73,5.96-6.78.76-8.99-1.55-.89-.93-2.54-3.49-3.35-4.3-.68-.67-3.32-2.34-3.97-3.01-.55-.56-.49-2.13-.58-2.22-.05-.05-.88.59-1.39.28-.94-.56-.62-2.81-.97-3.01-.42-.24-1.51.11-2.29-.27-.12-.06-1.76-1.54-1.85-1.64-1.28-.75-1.44-.6-.46.46l2.9,6.39c2.52.11,1.31,2.2,2.24,3.56.73,1.07,2.99.72,2.78,2.79-.09.87-1.13,1.18-.95,2.11,3.89-1.16,2.58,1.82,3.35,2.69.18.2,1.03.12,1.51.56,1.27,1.17.75,3.35,1.13,3.9.08.11,1.66.75,2.32,1.51.44.5.44,1.28.65,1.46.32.28,1.09,0,1.25.12.1.07-.41,1.72,0,2.44.32.56,1.27.27,1.65.78.33.45,1.01,2.98,1.48,3.73.7,1.1,3.18,3.46,3.81,4.47.36.58,2.82,5.65,2.82,5.98,0,1.87-2.16,4.04-4.29,3.39-.18-.06-2.87-2.21-2.98-2.36-.36-.51-.24-1.37-.6-1.86-.78-1.05-2.78-1.75-1.87-3.58-1.72.92-1.94-.19-1.86-1.86l-.92.47c.31-2.27-2.32-3.08-2.99-4.21-.35-.58-.13-1.45-.36-1.74-.19-.23-1.15-.16-1.56-.51-.74-.63-.49-1.64-.95-2.34-.67-1.02-2.74-1.87-3.28-2.51s-1.42-3.83-1.62-3.96c-.38-.25-1.31.12-1.71-.12-.24-.15-.65-2.25-1.06-2.92-.51-.83-1.83-.43-.87-1.66-2.28.47-5.24-3.41-3.26-5.11-3.91.69-2.63-2.09-3.46-3.28-.41-.58-1.93-.45-2.58-.91-1.98-2.7-2.13-2.7-.46,0,.49.9.8,2.65,1.44,3.79,2.62,4.65,6.31,9.29,8.76,13.74,1.29,2.34,2.66,7.45,4.17,9.1.39.43,1.1.21,1.29.4.43.42.26,2.07.83,2.7.48.54,1.33.33,1.58.51.28.2,1.43,5.67,1.66,6.46,1.41,4.8,1.26,2.66,3.26,5.56.64.92.73,2.42,1.13,2.95.36.47,1.31.26,1.87,1.03.74,1.02.08,1.79.19,2.32s.87-.04,1.23,2.53c-.86,3-1.79,3.77-2.79,2.32-.38-.73-1.6-.28-2.11-.91-.41-.52-.53-2.8-1.59-3.89-.42-.43-1.18-.14-1.43-.61-.38-.71-.2-2.75-.89-3.22-.3-.2-1.06.37-1.32.21-.31-.18-2.52-5.33-3.16-6.4-1.86-3.09-3.82-5.22-5.56-7.92-.57-.89-1.78-1.51-2.18-2.47-1.05-2.56-.74-3.44-2.88-5.94-.95-1.11-2.78-.96-2.12-3.7-2.07,1-3.11-1.77-2.32-3.72-3.29,1.5-2.28-2.64-2.81-3.23-.15-.17-1,.05-1.37-.02-1.64-1.19-2.28-2.41-3.18-4.27-1-.9-1.49-1.8-1.47-2.7-3.3-3.57-4.96-5.36-4.96-5.36-2.73-7.05-1-.29.47,2.69l.16,2.1c1.08,1.06,1.36,1.6.14,2.43l1.17.63c.69,3.05,1.26,6.2,1.61,9.12-.74,2.67.09,1.36.43,2.21,1.46,3.63,1.72,6.27,2.74,10.16.58,2.19,2.26,5.91,2.8,8.34.36,1.6.38,7.22.61,7.52s1.28.4,1.55,1c.12.26-.08,2.98.62,4.51.43.93.97.59,1,.65.15.27-.75.63-.72,1.41.08,2.05,1.44,3.03,1.85,4.14.17.46.04,2.97.41,4.29.54,1.96,2.35,5.3,2.66,6.72.19.86-.4,1.82-.24,2.54.15.66,1.15,1.25,1.17,2.04.03,1.43-2.28,1.57-3.03,2.54-.1-2.46-.85-2.19-2.99-1.86-1.01-2.12,1.07-2.79-.5-4.75-.35-.44-.88-.33-.91-.37-.17-.28,1.07-1.33.89-2.03-.14-.53-1.22-.71-1.57-1.23-.41-.61-.49-1.95-.72-2.76.29-2.22.13-3.61-.46-4.18-2.51-1.02-1.34-2.32-1.88-4.3-.09-.32-1.42-.89-1.72-2.08-.37-1.51.07-2.43.34-3.83-.59.81-2.05-.84-2.43-1.51-.81-1.42-1.17-5.04-1.75-6.85-.19-.55-.5-1.02-.93-1.39-.52-1.47-.51-4.92-.66-5.12-.18-.23-2.5-1.07-2.56-1.67-.08-.91,1.06-4.2.9-4.35-.1-.09-.98.18-1.28-.08-.32-.28-.32-1.68-.57-2.24-2.28-.54-3.65-3.59-2.32-5.57l-.33-1.57c-1.9-.16-2.69-1.06-2.38-2.69-1.7-.84-1.7-1.78-.08-2.71-1.51.44-1.53-1.8-.93-2.79-1.07-.33-1.22-.64-.46-.93-1.71-1.24-2.85-2.91-3.41-4.99-1.1,1.15-1.26,2.4-.45,3.73l-.78.79c1.21.64,1.6,1.98,1.19,4.01,1.86-.12,2.2,2.58.24,2.76.42,1.53.41,2.83-.04,3.91,1.47.5,1.25,2.02,0,2.79,1,.46,1.06,1.73.17,3.8,1.46,1.76,1.71,3.13.76,4.1.19,1.63.45,1.56.51,2.06.2,1.76-.4,4.34-.25,6.37.11,1.53,1.17,5.32,1.01,6.76-.1.95-.71,1.4-.8,1.79-.03.12,1.77,1.7,1.77,1.83,0,.69-.56,1.65-.44,2.83.1.99.54-.15.51,2.76-.04,4.46,1.29,6.2-4.18,5.8l.47-1.38c-2.95-.29-1.52-1.32-1.62-3.04-.09-1.49-1.33-1.9.68-3.23,0-.29-.99-.51-1.24-.83-.77-1.01.51-5.42.33-6.99-.04-.35-1.01-.3-1.23-1.2-.3-1.23.56-2.27.22-3.42-.3-1.03-1.71-1.06-1.82-1.58-.21-.95.41-1.68.44-2.27,0-.15-.74.18-.88-1.59l.26-.82c-1.14-.11-1.33-1.76-.57-2.55-1.43-1.31-1.94-3.12-1.55-5.46-1.55.24-1.72-3.55-.46-4.18-1.11-1.19-1.53-2.46-1.25-3.83-2.09-1.21-2.29-2.42-.61-3.6-.56-1.96-4.56.75-5.11,2.32,1.17.47,1.17,1.25,0,2.32,1.43,1.57,1.37,4.43,0,6.04.9.34.7.8,0,1.39,1.25.13,1.76,2.31.46,2.79.22.11.44.24.62.4.97.86-.48,7.54-1.08,8.89.12,5.83.27,11.73.44,17.39,0,.28.94.25.98.53.1.64-1.38,4.21-1.4,5.06-.03,1.75,2.29,2.62.98,6.11-1.29,3.42-.79,2.71-.68,6.39.13,4.07-.15,8.74-.32,13.05-.05,1.23,1.22,2.21-.93,2.81-.81.22-1.87-.57-2.56.67-.89.04-1.12-5.3-1.2-6.25-.2-2.5-.65-4.33-.82-6.57-.71-9.15,1.24-20.73-1.18-28.62-.88-2.87-.09-3.12-.28-5.92.05-.71-.09-1.25-.46-1.86.01-.16-.04-.35,0-.46.4-.52.15-1.23-.76-2.12.56-1.75.28-3.52-.83-5.32l.66-.92c-.92-1.02-.93-4.87,0-6.04l-.34-1.25c-1.16-.87-1.36-1.69-.59-2.46.26-.9-.13-1.58-1.17-2.04,0-.94-.26-3.1-.7-3.7-.5-.69-4.82.51-2.95,1.92-.21,1.82-.61,3.71-1.22,5.68,1.4.58,1.39,2.65,0,3.25.81,1.03,1.9,4.12.46,5.11.9.85.77,2.3-.39,4.35,1.36,1.84,1.41,3.07.16,3.68l.23,1.26c-.21,1.49-1.2,2.39-1.22,3.01-.05,1.28,1.51,3.49.77,6.42-.12.47-.97.44-1.23.98-.55,1.13.22,4.05-.01,5.32-.19,1.05-.47.46-.73,2.48-.17,1.3-.95,2.56.57,2.91-2.15,2.27-1.01,6.12-.94,9.05-5.66,1.62-3.29-2.13-3.8-5.24-.2-1.21-1.14-1.11-1.39-1.91-.27-.84.05-1.71-.06-2.04-.03-.1-.8-.09-.77-.3.5-4.59.25-7.11-.06-11.66-.14-2.14.02-1.39.11-3.24.01-.22-1.18-3.01-1.45-3.94.32-.87.14-1.41-.54-1.6l.45-3.19c-.96-1.03-1.24-1.91-.84-2.64-.44-1.75-.63-3.49-.57-5.22l.57-.35c-1.06-1.43-1.92-.63-1.39.93.78.62.42,1.05-.19,1.59.94,1.21.84,2.08-.27,2.59.58.46.62.77.13,1.21,1.22,2.24.78,4.11-1.06,5.76-.21,1.21-.5,2.74-.36,3.96.03.29.67.22.71.45.49,2.81-1.77,3.64-1.76,4.65.01.88,1.48,1.74,1.19,4.09-.18,1.46.12,2.56-1.65,2.19.4,1.29,1.02,2.39.82,3.84-.43,3.08-1.62,6.55-2.07,9.48-.15.97.29,3.39.04,4.83-.55,3.23-2.15,6.72-2.47,10.03-.19,1.99.8,4.86-.5,6.66l-3.72-.46c-.63-7.3-2.38-19.08-2.13-25.77.03-.87.72-1.62.7-2.74-.03-1.37-1.28-3-1.26-3.68.02-.54.71-6.05.83-6.35l-.93-1.39c-.51-2.03-.11-1.54-.04-3.06.01-.22-.82-.12-.87-.47-.27-1.67,1.23-4.08,1.21-4.59-.02-.31-.62-1.8-.75-3.03-.66-1.18-1.59-1.02-2.79.46-.12.17-.93.41-.92.69.03.61,2.62,1.12,1.12,4.38-.21.45-1.31,1.17-1.12,1.42.06.08.75-.14.84.22.27,1.2-1.16,4.28.55,4.66-3.35,2.1-.72,3.32-.91,5.09-.1.97-1.18,1.32-1.35,1.97-.27,1.01.79,2.09.72,2.71-.06.49-1.03.86-1.15,1.43s.54,1.68.38,2.71c-.08.53-2.39,3.47-2.67,3.52-5.18.77-4.17-6.25-4.14-9.45.07-5.64.76-12.73-.07-18.3-.24-1.59-.13-2.72-.11-4.76-1.13-.68-1.31-.83,0-1.39-1.28-.38-1.75-2.11-.46-2.79.36-1.11-.46-2.19-1.13-2.96l1.3-2.88c-1.04-1.58-1.46-3.47-1.27-5.67-1.24-.68-1.8-.43-1.68.74-1.77.65-1.92,1.22.08,1.94,1.27,1.86-.72,2.26-2.25,2.35.98,2.45.93,3.68-.16,3.68.8.55.52.97-.46.93.7,1.54-.47,3.62-1.39,4.64-.04,1.24-.41,4.11-.39,4.34.06.58.82,1.02.74,1.85-.02.18-1.03,3.3-1.13,3.45-.48.77-1.04.54-1.08.59-.09.14,1.49,2.05,1.42,2.98-.02.26-.95.24-.99.54-.16,1.2.53,5.26.4,6.83-.1,1.22-1.32,1.27-1.33,1.51-.06.91.72,1.36.77,1.85.04.39-.59,1.14-.59,1.85-.03,7.85-.5,13-1.32,20.65-.34,3.21-.32,6.53-.7,9.76-3.18.46-2.13-.69-2.83-1.95-1.65-2.98-.8-7.22-.93-10.79-.03-.88-.65-1.92-.69-3.33-.05-1.92.73-5.21.53-6.94-.05-.47-.88-.86-.72-1.13.04-.07.79.34,1.11-1.01.06-.24.19-4.64.15-4.88-.19-1.02-.92-1.41-1.07-1.99-.13-.52.67-1.01.71-1.67.12-1.92-1.85-5.77.96-5.33-1.57-1.98-.77-3.85.46-5.82l-.92-.67c2.67-.2-.16-3.4-.47-5.12-1.3-1.08-.31-2.93.66-3.95l.27-2.09c-.4-.12-.39-.27,0-.46-1.28-.1-1.57-.62-.46-1.39-.89-.89-.78-1.11.46-.93.05-1.24.36-1.86.93-1.86.14-.4.29-.4.46,0,.33.16.33-.15,0-.93-.19.68-.93.15-.93-.46l-1.13-.12c.29-2.23-.59-3.32-2.65-3.28-1.34-2.02-4.42-1.33-3.65,1.07.86.43.71.89-.46,1.39-.21.69-.39,1.09-.86.62-.72-.7,1.67-.54.4,1.23.12.9-.03,1.9-.93,2.32,1.1.86.13,2.5-1.39,2.79.76.23.07,3.03-.24,3.9-.06.16-.34.23-.68.28-1.75,5.2-3.62,8.9-5.08,14.71-1.21,4.83-2.31,9.5-4.09,14.45-.24.66,0,1.51-.2,2.13-.23.69-1.27.62-1.36,1.07-.13.69.51,1.58.4,2.19-.03.15-1.73,2.41-1.87,2.49-.88.51-4.3.57-4.56-.68-.04-.19.1-2.97.15-3.45.71-6.92,2.83-15.46,4.62-21.48,1.39-4.69,1.99-10.64,2.69-15.6-.96-1.14-.8-1.92.46-2.32-1.73-1.23-.76-3.57.93-4.18-2.1-.68-1.1-2.68.46-1.39.27-.53.25-.86,0-1.39-1.37,1.34-1.78-1.41,0-.93l.26-.97c-.86-.67-.23-1.47.67-1.82-1.09-.34-1.34-1.42-.75-3.22.87-2.11,2.3-11.08-.5-3.84l-1.1.72c.12,1.15.18,2.28-1.18,2.67.37,2.21-.78,3.43-3.45,3.68,1.14.87.95,1.93-.46,2.32.59.7.31.94-.46.46-.35.15-.35.3,0,.46,1.14,1.51-.81,2.92-2.32,3.25.33.72.02,1.23-.91,1.53.16,1.3-.16,2.19-.95,2.65-.45.9-1.78.4-1.83.49-.19.32-.17,2-.53,2.87-.5,1.22-2.22,2.66-2.69,3.54-1.39,2.62-.81,4.08-2.83,6.86-.47.65-1.04,3.52-1.87,4.62-.34.45-1.23.54-1.35.75-.24.39.25,1.25.17,1.85-.11.84-1.08.78-1.16,1.17-.58,2.83-.35,3.83-2.02,6.73s-2.3,3.1-3.59,6.55c-.19.51-1.38.34-.43,1.26-8.01,1.19-6.3-2.21-3.98-7.45.34-.77,1.13-1.29,1.36-1.83.3-.69-.28-2.67-.15-2.77.14-.12.91.14,1.24-.12.74-.6.87-3.49,1.17-3.97.17-.27,1.01-.26,1.22-.87s-.09-3.09.65-4.22c.2-.3.96-.38,1.3-.78.89-1.06-.36-2.19,1.83-1.2.37-1.55-.97-.66-1.38-.95-.07-.05.2-1.72.24-1.81.39-.75,1.55-1.25,1.84-1.91.37-.83-.38-2.54.93-4.16.83-1.03,1.99-.86,2.08-.95.41-.43-1.37-2.74.23-4.19.48-.44,1.36-.24,1.17-.9-1.94.48.37-3.01.93-4.19.04-2.32.66-4.18,1.86-5.57,1.1-3-.3-2.43-1.86-.46.24.65-1.16,4.25-1.58,4.8-.7.9-1.56,1.06-2.6,1.24-.3.32-2.72,3.38-2.84,3.58-.36.59.14,1.39-.2,1.97-1.29,2.19-2.95,2.84-4.48,6.22-1.45,3.18-5.13,9.03-7.33,12.05-.43.59-1.35.7-1.85,1.57-.45.78.09,1.6-.44,2.26-.64.81-2.22,1.05-2.34,1.19-.05.07.44.93.13,1.69-.24.6-1,.68-1.27,1.11-2.14,3.38-4.35,6.52-6.5,9.56-.42.6-2.15,3.12-2.29,3.27-.51.55-1.95.36-2.46,1.06-.25.34.16,1.08,0,1.42-.12.24-3.34,3.45-3.45,3.69-.96.79-2.05,1.41-3.25,1.86-.13-.06-.35.07-.46,0-.58-2.21-.33-4.85.93-6.97.31-.44,1.76-2.47,1.79-2.63.15-.74-1.08-1.56-.8-2.62.42-1.54,3.2-3.56,3.71-4.72.32-.73-.12-1.49-.04-1.6.17-.23,1.58-.25,1.78-.58.28-.46-.17-1.6.28-2.27.28-.42,1.39-.5,1.93-.9.6-.45,0-1.73,1.57-2.1-2.21-.98-.18-1.99.16-2.59,1.39-2.43,3.1-4.6,4.46-6.83.74-1.2-.29-2.44,2.35-1.97-2.07-2.68.55-3.2,1.27-4.3.58-.88.86-2.89,1.97-4.31.37-.47,1.28-.61,1.35-.72.05-.08-.47-.99-.23-1.81.88-3.01,4.45-7.06,5.86-9.75.36-.2.5-.53.46-.93.13-.49-.09-1.3,0-1.86.35-1.26,2.31-4.4,3.72-3.72l.36-.72c.45-.53.65-3.94-.82-.68-.11.25-1.82,3.01-1.98,3.12-.84.52-1.23.61-2.11.15.03.88-.31,1.34-1.02,1.38-.35.96-.44-.25-.46,1.86-.31.45-.78.76-1.39.93-3.72,2.16-4.74,5.4-7.08,7.78-.32.32-1.54.26-2.23.82-.41.33-.04,1.6-1.12,2.57-.73.65-2.6,1.57-3.5,2.31l.92.69c-1.83,1.89-3.68,3.77-5.87,5.51-.5.57-3.21,4.75-3.49,4.84-.37.11-1.12-.56-1.32-.36s.49.97.38,1.33c-.09.29-3.99,3.38-4.59,4-.96,1.01-2.93,3.92-3.55,4.46s-2.61.72-2.85,1.01c-.27.31.02,1.12-.09,1.29-.05.08-1.01-.64-1.98-.04-1.68,1.04-3.58,6.88-6.38,6.07-.32-.27-.63-.58-.93-.93.11-1.86.49-1.05,1.07-1.97,5.58-8.95,10.9-16.59,17.31-24.47,2.5-3.08,5.24-5.55,7.07-9.23.44-.88.09-1.82.16-1.89.59-.51,3.5-.88,3.63-1.02.19-.2-.1-1.46.04-2.04.23-.88.8-1.31,1.11-2.07.14-.34-.29-1.12,0-1.46.39-.46,1.35-.3,1.57-.54.24-.27.11-1.61.6-2.42s1.97-1.16,2.5-2.16-.76-3.26,1.64-2.76c-2.26-3.41-3.37.99-4.38,1.89-2.97,2.61-6.33,5.1-9.34,7.86-2.43,2.23-6.52,4.82-8.44,7.12-.53.63-.9,2.4-1.17,2.57-.42.26-1.31-.1-1.69.14-.27.17-.23,1.18-.67,1.66-1.2,1.3-3.91,2.05-4.98,2.92.11.66-.06,1.34-.46,1.86-1.84,1.51-1.45,1.82-2.79,3.25l-1.86.93c-1.41,1.19-3.78,3.54-5.07,4.94-.46.5-.4,1.22-.62,1.45-.62.65-2.53.05-2.62.14-.1.1-.13,1.04-.51,1.59-2.22,3.28-7.28,7.64-10.05,10.15-1.9,1.73-1.9,1.99-4.36,3.09l-1.39.46c-3.48-1.24-1.03-4.23.46-6.04.94-.73,1.87-1.51,2.79-2.32,1.18-2.1,2.55-2.45,3.48-3.72.52-.7.47-1.68.84-2.18.49-.66,2.54-1.22,3.33-2.01,1.27-1.27,2.61-4.93,3.74-6.48,1.83-2.51,5.38-5.02,7.2-7.67.8-1.16.23-3.29,2.31-2.09-.69-2.77,2.1-2.73,2.25-2.88.35-.34.92-3.01,1.73-4.06,1.08-1.41,2.86-1.54,3.51-2.56.37-.58.1-.74,1.05-2.15s1.15-3.32,3.54-2.28c.11-.51-.64-2.56-.44-2.75.13-.13.96,0,1.32-.3.7-.58.92-1.56,1.67-2.11.43-.32,1.05.01,1.1-.04.38-.39.26-1.67.65-2.13.29-.35,1.18-.29,1.62-.7.2-.18,2.47-3.81,2.92-4.52q1.45-1.74,0,0c-2.34,1.05-3.89,1.86-5.99,3.2-.63.4-1.52-.63-.51,1.44-2.38-.55-3.3,2.49-4.21,3.02-.56.32-1.5.09-1.77.33s.43,1.68-1.73,1.74c-.62.02-1.52-.5-1.58-.45-.08.08-.03,1.61-.59,2.21-.63.69-2.78.78-3.18,1.34-.35.5-.32,1.91-.44,2.03-.08.08-1.78-.5-2.25.04-.04.05.3.65.15.89-.44.69-3.53,2.51-4.28,3.1-6.68,5.23-13.13,11.08-18.66,17.14-.71.78-3.09,2-3.85,2.55-1.33.97-2.46,2.71-4.08,3.5-1.12.56-1.81.1-1.85.18-.18.34.17,1.28-.44,2.13-.19.26-4.22,3.7-4.86,4.22-1.81,1.46-1.71,1.47-3.72,1.56-.15,0-.85,1.89-2.53.85s.82-2.51,1.28-2.99c2.5-2.63,5.26-5.48,7.92-7.89.6-.54,1.62-.57,1.78-.76.22-.27.09-1.32.76-2.26.23-.32,5.13-5.06,5.66-5.48s1.54-.46,1.58-.53c.07-.1-.64-1.05-.45-1.33.57-.83,3.87-2.1,5.09-1.91-1.01-.88.95-3.77,1.49-4.11.32-.2,1.07.63,1.79-.27.4-.49,0-1.42.42-2.24.09-.18,2.28-2.13,2.55-2.27.79-.4,1.33.03,1.55-.06,1.32-.56,3.22-4.56,3.92-5.32.49-.52,1.61-.31,2.09-.7.28-.23,1.43-2.73,2.11-3.47.37-.41,1.15-.29,1.61-.74.69-.69.65-2.9,2.22-2.63-.81-2.47,1.91-1.91,2.34-2.27.8-.68,2.41-4.37,4.13-5.68.58-.44,1.34.21,1.88-.39.95-1.05,1.55-4.37,1.69-4.58s.83-.26,1.11-.55c.38-.4.63-1.22.79-1.3.54-.31,1.56.09,2.27-.31.32-.18.04-.94.42-1.65,1.54-2.06,1.39-2.22-.46-.46-1.11.89-6.7,4.4-7.92,4.89-1.61.64-.29-.39-2.56,1.11-.78.51-1.86.28-2.41.63-.95.6-4.17,3.37-5.23,4.29-1.25,1.08-2.46,1.8-3.86,2.55-.28.15-.27.87-.63.94-1.02.2-2.68-.91-2.9.25-.06.3.49,1.01.42,1.11s-1.5.25-1.95.51c-.93.55-2.63,1.54-3.49,2.15-.62.44-1.75,2.11-1.96,2.22-.45.24-1.27-.37-1.4-.22-.08.08.21.87-.31,1.43-.8.86-3.51,1.57-4.7,2.15-.57.28-.59.98-.66,1.01-.4.17-.92-.41-1.24-.31-.11.03-.88,1.65-1.34,1.75-5.84,1.21-9.1,3.95-14.21,6.62-2.21,1.15-10.2,6-7.54.35,3.85-2.44,7.27-5.44,10.96-8.08,6.32-4.52,13.47-8.64,19.13-13.26.62-.5,1.31-1.71,1.93-2.13,1.1-.74,2.99-.83,3.33-1.09.67-.52.22-1.29.29-1.36.27-.27,5.52-4.54,5.85-4.72,1.67-.89,1.57.39,3.81-2.32.54-.41,1-.87,1.39-1.39.53-2.16,2.15-1.42,2.7-1.98.21-.22-.06-1.03.36-1.32.57-.39,1.72-.18,2.38-.57.51-.3,2.13-2.5,2.7-3.12.69-.75,1.59.17.69-1.84.3-.05.67.06.93,0,.69-.92.54-1.23-.46-.93-1.55.68-3.81,1.81-5.01,2.29s-3.28.38-4.45,1.05c-.62.36-.7,1.26-1.08,1.34-.96.21-2.35-.85-3.55-.44-.53.18-1.24,1.68-2.38,2.29-1.53.82-3.6.44-4.79,1.08-.28.15-.44,1.19-1.48,1.49-.93.27-2.37-.43-3.27-.74,1.17,3.54-2.59.78-2.78.93-.06.04.14.78-.3.91-.18.05-3.5.32-3.68.3-.9-.13-1.52-1.95-1.1-2.56.17-.24,1.76-.43,1.82-.51.16-.25-.5-1.03-.39-1.32.03-.08,1.22-1.16,1.3-1.2.38-.19,1.62.16,2.62-.18,1.87-.65,9.39-4.61,11.42-5.8.82-.49,2.15-2.19,3.07-2.59,2.9-1.27,2.48-.51,5.36-2.68,1.93-1.45,3.4-.99,3.56-1.09.2-.12-1.36-.99,1.86-1.85,1.31-.93.85-2.51-.93-1.86-1.13.45-4.38,1.79-5.22,2.03s-1.66-.19-2.2.06c-.61.28-.97,1.36-1.74,1.55-.59.15-1.3-.37-2.02-.19-1.01.26-1.85,1.8-3.11,2.06-.93.19-1.95-.33-2.47-.14-.84.3-1.31,1.96-1.42,2.03-.12.08-.98-.49-1.56-.41-1.19.17-3.51,1.37-4.88,1.65-.74.15-1.51-.36-2.05-.21-.5.14-.66,1.05-1.35,1.49-1.82,1.15-6.14,1.35-8.59,2.5-3.88,1.83-6.05,2.6-10.31,4.11-2.38.84-4.54,2.27-6.52,3.16-2.47,1.11-5.44,1.88-7.32,2.59-2.4.91-4.87,1.76-7.19,2.86-.44.21-.41.88-.58.86s-3.28-.9-3.42-1c-.75-.51,0-3.28-.08-4.09l1.85.93c-.94-1.88.91-3.05,2.58-3.25.12-.01.35,1.8,1.14.93.1-.11-.24-1.1.27-1.44.48-.32,1.58-.22,2.2-.52.71-.34.74-1.2,1.38-1.46,1.5-.61,2.14.67,5.09-1.21.98-.62,4.11-2.48,5.3-2.67.58-.09,1.23.43,1.71.37.25-.03,1.83-2.35,1.99-2.35.45,0,1.75.75,2.04.46.08-.08-.12-.69.06-.98,1.35-2.19,2.33-.51,2.73-.88.09-.08-.18-1.25.95-2.07,1.64-1.18,3.54-.59,3.67-.73.1-.12-.07-.97.77-1.8,1.48-1.46,2.99-.6,4.26-1.1.39-.16,3.75-3.1,4.58-3.54.78-.41,2.28-.45,2.44-.61.22-.23-.2-1.07.36-1.32,1.31-.57,4.23-.81,5.71-1.64.94-.53,1.67-2.04,2.8-2.33.68-.17,1.74.4,1.86.28.07-.07-.07-1.03.47-1.62,1.31-1.41,3.57-1.32,4.99-1.78.46-.15.97-1.61,1.05-1.71.93,0,4.76-2.38,2.79-2.79-1.62.4-1.7,0-3.72.93l-1.81.35c-.41,1.13-1.36,1.48-2.83,1.04-.23.1-4.14,1.21-4.52,1.3-.88.2-2.82-.57-3.95-.24-1.06.3-2.65,1.94-3.49,2.1-.88.17-1.79-.57-2.6-.41-.37.07-.46.99-1.08,1.34-.77.44-7.41,2.32-8.9,2.74-6.35,1.78-13.57,2.31-19.77,3.99-.65.18-1.01,1.05-1.45,1.1-.54.06-1.41-.76-2.27-.67-4.04.44-8.41,2.32-12.21,2.64-.62.05-1.5-.49-1.56-.44-.19.19-.01,2.21-2.1,2.79-.16.05.06-.62-1.15-.93-1.31-.21-2.21-2.52-1.86-3.72.67-1.03,1.08-.99,2.33-.93l-.47-.92c1.85.8,2.46-.94,2.61-.96.64-.06,1.36.57,2.16.41.91-.18,1.44-1.46,3.38-1.36,1.12.06.3,1.08,1.14.98-.77-3.25,2.93-2.25,4.08-2.89.22-.12.71-1.08,1.96-1.75,1.84.09,3.54-.37,5.11-1.39,1.73-1.22,2.56-.91,2.69-1,.25-.18.26-1.09.85-1.29.86-.29,2.12.63,2.44.4.23-.17.3-1.51,1.32-1.77.82-.21,1.37.35,1.78.35.24,0,.19-.66.57-.82.81-.33,4.5-1.19,4.73-1.47.06-.07-.49-.85-.44-.89,2.25-.2,4.47-1.13,6.61-1.9.39-.14.34-.8.66-.86.44-.08,1.67.48,2.25.33.38-.1,1.15-1.61,1.25-1.63.33-.09.95.42,1.78.17s5.85-2.31,6.84-2.75c.18-.08.72-1.34,1.87-1.6,1.06-.24,2.22.08,3.08-.19.92-.29.28-1.72,3.54-1.79.6-.65,1.53-1.12,2.79-1.39,3.01-.27,2.7-.42-.93-.46-.25,1.37-1.7,1.63-2.32.46-1.49.14-3.85.44-5.26.3-.43-.04-.86-.77-1.39-.7s-1.21,1.19-1.94,1.17c-1.2-.02-3.13-.82-5.05-.29-.36.1-.29.91-.56.93-.71.06-1.87-.91-2.31-.95-.19-.02-.16.87-.52.95-3.81.8-9.24.26-13.15.71-.95.11-2.15.32-3.07.24-1.13-.09-.29-1.07-1.13-.97-.42,2.48-2.1.56-2.95.56-1.54,0-5.01,1.06-6.65,1.27-.93.12-2.64.14-2.72-.91-.43-.03,0,.81-.53.94-2.56.66-2.55-.95-2.71-.94-.97.08-2.19,3.25-4.89.93l-2.79-.93c-.42-.63-.59-.74-.52-1.63,1.46-3,2.26-2.2,4.96-2.14.25,0-.59-.59,1.85-.46.24.01.14-.77.5-.87.85-.25,3.01,1.22,4.5.93.37-.07.37-.78.64-.93.56-.32,11.82-2.34,12.46-2.31.61.03,1.08.76,1.39.77.22,0,1.92-1.37,2.99-1.51.93-.12,1.71.37,2.54.26,1-.13,1.98-1.29,3.35-1.38,2.35-.15,1.1.73,3.33-.45,1.41-.74,1.75.33,2.58.32,2.24-.03,5.23-2.04,9.14-1.28,1.46,0,2.23-.46,2.32-1.39,2.24-.69,4.69-.48,6.97-.93l-3.49-1.85c-1.11,2.66-3.65-.31-5.14-.49-.85-.1-.63,1.08-1.56,1.24s-1.24-.55-1.66-.56c-1.24-.02-1.9,1.34-3.47-1.13-1.05,3.27-2.27.71-4.03.58-.84-.06-1.61.63-2.62.65-1.45.03-3.08-.98-3.82-1.04-.65-.05-3.28.73-4.63.74-3.45.02-7.84-.76-11.18-1.41-.2-.04-.16.91-.48.94-.83.08-3.16-.64-4.14-.69-5.72-.27-11.54.1-17.11-.02-1.81-.04-3.39-.66-4.5-2.09-.88.18-1.23-.35-.46-.93.14-.51.16-.88,0-1.39-2.25.38-.78-2.8,1.39-1.86,1.92-.03,5.71-2.22,8.04-.93.29.16.33.82.39.85.5.2,3.53-1.52,3.88.55,2.22-2.8,3.7-1.27,6.04-1.36,1.15-.04,2.08-.99,2.8-.95,2.2.12,3.01.77,5.19-.48,1.66-.95,2.3.19,3.62.24s2.44-.82,3.29-.9c3.54-.32,7.32-.49,10.65-.51,1.01,0,3.47.22,3.66.18.49-.1.87-1.01,1.57-1.24.35-.11,1.59.06,2.45-.09,2.19-.11,4.36-.13,6.52-.06.27,2.43.27,2.49.02.17-.8-.13-.81-.32-.03-.57.77-.03,1.55.02,2.32,0,.89.37,1.9.4,2.79,0,.06,0,.3-.39.68-.4,1.47-.02,3.53,1.56,3.04-.99-1.12.17-2.79.39-3.88.29-.85-.08-1.81-.83-2.37-.79-.24.01-.26.99-.49.99-.62,0-1.16-.67-1.56-.71-3.44-.33-6.81.09-10.02.15-1.55.03-5.43-.24-5.37-2.26-.85-.15-.25.85-.54,1.29-.68,1.03-10.39-.52-12.63-.19-1.6.23-.93,1.5-1.92,1.23-.43-1.59-1.04-.52-2.31-.64-3.54-.32-1.91-1.45-2.25-2.07-.06-.1-.79-.07-.8-.35-.16-2.46,1.43-1.78,1.97-2.08.46-.25.39-.82.69-.89.48-.12,2.24-.15,2.68-.04.65.15-.35,1.89,1.18,1.42l.47-2.32c2.32,1.08,6.21-1.02,7.66,1.4,1.95-2.19,1.96-.72,3.47-.21,2.39.82,1.54-1.13,3.74-1.19-1-1.96-3.39-.72-5.34-.93s-3.71-.8-5.58-.96c-1.31-.11-2.07.96-3.47-.22-.38-.32-.43-1.19-.7-1.13-1.52.31-.18,1.68-3.77,1.02-2.51-.46-7.2-2.01-9.72-1.39-.57.14.38,1.51-2.67-.11-.32-.17-.28-.89-.61-.91-.78-.04-6.08-.1-6.39-.03-.35.08-.31.96-.51.94-4.46-.55-8.54-2.68-12.33-3.25-.57,0-1.04-.15-1.39-.46.8-1.59-.14-3.74,2.12-4.15.38-.07,2.61-.47,2.75-.47.56,0,3.68,1.01,3.73,1.84l.24-1.41c1.31.94.68-.33,1.16-.46,1.05-.28.47.8.99.94,1.05.28,2.28-.33,3.19-.24.37.03.83.6,1.42.66,1.74.18,2.96-1.18,4.53-.89.33.06.43,1.27,1.55,1.29.58.01,1.02-.58,1.6-.6,8.18-.32,16.97.6,25.29.6,3.86,0,7.44-.56,11.15-1.21,1.17-.21,3.58.89,4.67.82,1.01-.07,2.44-1.39,4.38-.42.46-1.77-1.73-2.37-3.03-2.57-.27-.04-.64.6-1.16.5-2.26-.45-4.6-2.6-4.89-2.59-.66.02-1.25.75-1.89.83-2.77.34-5.23-1.98-6.96-2.19-1.38-.17-3.33.24-5.06-.43-.85-.33-2.14-.87-2.1-1.89-.84-.11,0,.93-1.14.98-1.52.06-3.61-.84-4.99-1.49-.39-.18-.41-.88-.59-.86-.67.08-1.65,1.13-2.72.84-.55-.15-.88-.94-1.27-1.08-.98-.34-1.92-.18-2.82-.45-1.06-.31-.55-1.22-1.81-1.19-.02-.91-.18-.91-.46,0-.29.04-.81.67-1.39.46-.53-2.28-.29-7.26,2.98-6.99.28.02.21.82.57.92,1.49.44,5.35.27,6.84.47.34.05.26.93.58.98.78.11,2.04-.78,3.13-.51.38.09.26,1.03.52.95.47-.15.97-1,1.78-.84.67.13,1.17,1.19,2.42,1.14.77-.03,1.43-.86,1.6-.75.24.15,1.78,1.74,3.03,1.66,1.55-.1,1.63-1.87,3.26,1.11-.02-1.11.7-1.73,1.78-1.35.38.13.27.77.61.85,1.55.33,3.55-.57,4.11,1.43.52-2.02,6.06-.68,7.33.01.46.25.3.88.34.9.93.63.88-.64,1.07-.77.22-.16,2.3-.34,1.24-1.54-.08-.09-1.4.49-2.32.27-1.64-.38-5.69-3.83-7.32-4.35-.7-.23-2.38.24-3.48-.13-.37-.12-3.78-1.99-5-2.53-2.41-1.05-2.95-2.43-3.81-2.96-.29-.18-6.32.21-5.49-2.39-2.1,1.3-2.03-.09-2.7-.41-4.46-2.09-10.37-4.24-13.84-6.49-1.69-1.1-4.44-1.74-6.26-2.58-2.79-1.29-1.19-.64-2.09-1.69-.34-.39-1.1-.35-1.58-.79-.93-.85-3.3-3.07-2.6-4.31.06-.11,1.64-1.67,1.75-1.72.15-.07,3.14-.19,3.3-.16.43.09.64,1.61,2.05,1.8,2.54.34,4.52-.22,6.97.67s6.07,2.52,8.73,3.18c.85.21,1.82-.11,2.25,0,.37.09,1.23,1.63,1.34,1.67.35.13,1.17-.32,1.76-.14,3.04.93,6.59,1.78,8.83,3.99.52.08.98-.07,1.39-.46,2.59.19,1.38.57,2.44,1.06,4.68,2.17,12.32,3.43,17.98,5.24.67.21,2.25.13,2.35.2.77.04.99-.1.46-.46-.39-1.07-2.51-1.43-2.67-1.57-2.25-1.77-.66-1.58-3.7-2.5-1.88-.57-5.68-3.44-7.61-4.47-1.78-.95-9.7-4.39-10.39-5.42-.28-.41-.2-1.32-.25-1.37-.2-.19-1.17.55-1.34.42-.16-.11-.1-1.02-.81-1.29-1.29-.48-2.77,1.24-3.65-1.92-.4,2.01-3.14-.9-4.42-1.54-3.61-1.81-5.91-2.3-9.7-5.24-.44-.34-.67-1.18-.96-1.35-.4-.23-1.6.4-2.47.23-.15-.03-1.94-1.79-2.31-1.99-2.93-1.57-2.98-1.27-5.54-3.49-.25-.22-4.68-1.19-5.84-1.81-.73-.39-1.46-1.88-1.57-1.91-.74-.24-1.72,1.61-1.08-1.26.21-.94,1.5-.89-.24-1.38.42-.22.68-.97.93-1.16.61.11,1.23.11,1.86,0,2.55.06,2.9.9,3.08.91,3.51.21,1.54.43,3.34,1.42,2.66,1.46,7.2,1.52,10.19,3.38.24.15.08.77.12.79.4.88.71,1.03.93.46,2.56,1.23,5.62.54,8.49,1.96,2.61,1.29,1.12,3.01,1.27,3.15h1.4s-.47-.92-.47-.92l2.11-.28c2.37,1.72,5.22,2.63,7.78,4,.33.18.29.93.6.93.49,0,1.17-.62,1.78-.45s.64,1.22.79,1.32c.14.09.99-.47,1.55-.41.24.03,3.05.79,3.64.95.36.1,3.19,3.12,3.42,3.18.56.15,1.27-.39,2.04-.2,1.83.46,5.27,2.83,5.89,2.97,1.26.29,2.18-1.13,4.03,1,.23.26-.17,1.14.53,1.39.15.05-.19-1.05,2.09-.93.91,1.13,1.53,1.05,1.86-.46-.94-.59-2.75.13-2.33-2.78-.78-.2-.19.77-.75.92-2.64.68-1.71-3.1-2.54-3.69-.3-.21-1.31.31-1.88.2-2.39-.49-3.9-2.03-5.28-3.93-.76,2.39-1.4-.21-2.42-.93s-2.15-1.79-2.3-1.87c-.82-.47-2.44-.74-3.59-1.45-.55-.34-.67-1.29-1.06-1.36-.67-.12-1.54.55-2.02.26-.19-.11-.27-.76-.62-1-2.69-1.88-5.77-4.28-8.7-5.91-.6-.34-2.2-.66-2.27-.76-.29-.39,1.55-4.13-1.4-1.84-.07-.26.08-.85,0-.93-.62-1.1-1.4-3.51,0-4.18.08-.09-.07-.66,0-.93,1.85,2.67,1.88.83,2.55.58,2.39-.87,2.76,3.21,4.66,3.6.37.08-.37-1.44,1.68-.4,1.74.88,2.25,2.89,3.55,3.51,1.98.94,4.2.27,4.29,2.93.78.13.38-.58.45-1.07.21-1.42,1.71,1.12,2.03,1.36.77.56,1.73.52,2.42,1.09.51.41.69,1.37,1.12,1.63.32.19,1.09-.26,1.42-.02.61.43.35,2.43,1.16,2.6.64.13,1.64-1.16,2.69-.88.9.24.95,1.47,1.61,1.81.99.5,2.92-.3,3.23,1.23.07.34-.41,1.04-.34,1.09.7.53,4.65-1.23,4.19,1.86.79.21.21-.92.72-.95,2.34-.16,2.19,2.03,2.88,2.35.45.21,4.54,1.01,3.37-.46-1.81.89-.97-1.1-1.7-1.9-.58-.64-5.01-2.59-5.2-2.81-.31-.37.11-1.6-.07-1.78-.12-.12-1.15.17-1.73-.12-.26-.13-1.36-1.87-1.86-2.2-.88-.58-4.55-1.89-5.1-2.46-.31-.33-.18-1.19-.8-1.75-2.09-1.92-3.39-2.23-5.98-4.95-.28-.29-5.86-3.49-6.67-4.02-1.37-.89-.66-1.85-1.2-2.48-.16-.18-3.49-2.31-4.06-2.65-.34-.2-.98.29-1.28.11-.28-.17-1.82-2.45-2.07-2.6-.18-.11-.75.4-.81.35-.14-.11-.14-1.35-.6-1.74-.34-.29-1.5-.3-2.22-.8-1.17-.83-.75-.73-2.16-1.53-2.77-1.58-1.32-1.47-2.16-2.74s-2.14-1.19-1.26-3.86c-3.22,1.25-1.03-2.05-.42-3.65.25-.23,1.1-.08,1.53-.03,3.67.45,5.75,4.1,7.38,4.76,1,.4,2-.17,3.29.84,1.49,1.16.72,2.12.81,2.21.46.49,3.14-.15,4.73,1.42,1.22,1.21.23,2.26.34,2.34.19.14,3.61.64,4.5,1.1s2.07,3.31,2.95,3.75c1.09.54,3.7.41,4.87,1.17,1.82,1.19,3.06,4.5,5.7,5.55.52.21,1.46-.14,2,.24.45.31.27,1.34.52,1.56s1.58.14,2.4.62c1.76,1.02,3.35,2.85,4.94,4.12.78.36,1.27-.13.93-.93-.61-.86-1.16-1.02-.47-2.31-1.87.39-1.12-.79-1.52-1.27-.11-.14-2.69-1.3-3.14-1.72-1.68-1.56-4.01-4.45-5.54-6.09-.9-.97-3.1-2.53-3.63-3.09-.21-.23-1.33-2.94-1.55-3.57-3.17.6-1.8-.79-2.37-1.8-.17-.31-3.63-2.57-4.08-3.13-.96-1.19.18-2.91-1.86-3.01-.58-.13-1.81-5.3-1.54-5.41l1.07-.16c-.87-.13-.8-.48,0-.93-2.7-.12-.43-2.71,1.86-.93.15.17.68.28.93.46l1.39.93c1.33,1.21,2.65,3.02,3.93,4.2.46.42,1.37.3,1.68.74.47.65.31,2.36.43,2.5.08.11,2.04-.56,2.69.11.18.19.02.88.22,1.11,1.78,1.92,4.17,3.4,5.91,5,.77.71,2.57,3.25,3.13,3.53,1.13.56,1.88-.06,1.96,0,.2.16.22,1.84.61,2.2,2.27,2.07,5.3,4.02,7.78,6.38.08.08,1.3,2.31,1.39.93.12-1.82-.97-1.75-1.25-2.23-.32-.57-.11-1.43-.57-2-.48-.61-1.6-.49-1.81-.74-.13-.15-1.69-3.17-1.78-3.39-.17-.43.37-1.35.08-1.65-.7-.69-3.25-2.1-4.13-3.23-.65-.83-2.1-4.33-2.87-5.14-.39-.41-1.05.03-1.1-.02-.27-.33-.29-2.14-.63-2.87-.37-.79-2.03-1.56-2.48-3.11-.18-.61.31-1.33.26-1.37-.07-.06-1.08-.06-1.64-.46-1.47-1.05-2.34-4.25-4.08-5.48-.75-.53-1.84.65-.78-1.51h-1.39c.96-3.75-.42-1.51-2.07-3.27-.64-.68-.74-1.96-1.15-2.47-.35-.42-1.06-.23-1.25-.44-1.34-1.47-1.46-2.83-2.95-4.73-2.06-2.62-3.44-5.48-5.25-7.51-3.22-3.61-5.98-7.41-9.13-11.11-.49-.57-1.7-1.08-1.79-1.22-.58-.98.47-2.6.37-2.69s-2.14-.11-2.58-.91c-.23-.42.38-1.36.27-2.04-.05-.3-1.43-.18-.96-1.85s2.65-.5,3.03-.51c.29,0,.63-.48.91-.48,2.42.02,1.16.51,1.5,1.5.97,2.8,1.62,1.85,2.95,3.11,1.01.95,1.95,3.81,2.45,4.3,1.55,1.51,3.8,2.66,5.25,4.97.66,1.06.87,2.84,1.25,3.4.31.47,1.47.63,1.89,1.04.44.44.18,1.19.58,1.46.5.33,1.81.26,1.99.49.22.29-.12,1.21.15,1.69.1.18,2.56,1.69,3.31,2.49,1.83,1.94,3.93,5.21,5.54,6.8.39.39,1.28.31,1.64.67.78.79-.16,2.17,2.34,1.83l2.38,3.92c2.12-.62,1.09.23,1.95,1.75,1.2,2.12,3.09,2.52,3.84,3.54.25.35-.11,1.27.49,1.85.97.93,4.21,2.68,5.11,3.76,1.04,1.25.17,2.18.26,2.27.12.11,1.96.72,2.94,1.51,1.66,1.34,1.43,2.34,2.17,3.28.62.79,1.91,1.66,2.79,2.19,1.37.8.18-1.37-.46-1.39-.17-.51.05-1.29-.36-2.19-.71-1.57-7.5-12.52-7.03-13.11.09-.11.63-.01.88-.04v-.45c-3.45.08-2.08-3.76-2.34-4.14-.15-.22-1.77-.41-1.84-.51-.2-.28.67-1.57.47-1.85-.37-.51-3.34.3-.93-3.25l-1.4-.02c.85-1.86-.9-1.79-1.62-2.76-1.38-1.87-5.2-10.71-5.95-13.1-.42-1.35-1.19-.89-.79-2.7l-1.39-.46c-.07-.09.06-.32,0-.46v-1.39c-.04-.55-4.29-8.93-4.9-9.73-.55-.73-1.54-.64-1.95-1.06-1.14-1.15-.38-5.05,1.13-5.4,2.59-.59,2.38,1.6,2.51,1.72.29.28,1.52-.25,2.51.54.93.74,2.57,5.46,3.37,6.85,2.21,3.84,5.86,7.6,8.23,11.72.45.79.05,1.84.31,2.26.24.39,2.14.42,2.26.54s-.55,1.2.02,2.01c1,1.43,2.2,2.88,3.22,4.36.71,1.03,1.46,1.63,1.78,2.09.24.35-.43,2.13-.11,2.69.36.64,1.33.83,1.8,1.41,2.03,2.47,8.32,12.12,9,14.7.19.72-.03,2.27.1,2.46.04.06.7-.35,1.08-.3,2,.27.85,1.11,1.37,2.02.13.23.74.54,1.26,1.53,1.56.11,3.69,3.81,3.25,5.11,1.12-.09,1.21,0,.46.93l1.16.33c.79,3.72,5.39,6.1,1.15.77l-.45-2.03c-.41-.13-.4-.29,0-.46-.42-.04-.88-.22-.94-.59-.36-2.37-.62-2.62-2.53-4.22.77-.72.7-1.73.21-2.62-.48-.26-.85-.42-1.13-.95-2.85-5.38-4.89-11.57-7.84-17.07-.13-.25-1.08-.36-1.44-1.01-.25-.45-.53-3.48-.86-4.08-.13-.24-.93-.41-1.2-.86-2.17-3.54-4.58-7.09-6.07-10.31-.73-1.57.66-2.86,2.17-3.25,2.2-.57,1.52.9,2.11,1.63.39.48,2.63,1.06,3,1.65.25.4.09,1.17.4,1.67,1.51,2.44,3.28,4.55,4.59,6.57.62.96.5,2.73.8,3.14.35.48,1.87.35,2.2.6.09.07-.29,1.03.35,2.15,1.57,2.71,4.5,5.57,5.94,7.57.99,1.37,1.27,3.77,2.15,4.82.72.87,2.09.86,2.74,2.14.66.39,1.4.99,1.39,1.86,1.07,2.22,1.9.86.93-.93-.92.58-1.43.08-.93-.93v-.46c-.11-.63-.42-1.1-.93-1.39-.73-2.27-1.97-8.56-2.67-10.07-.43-.94-1.43-1.4-1.86-2.36-.8-1.75-1.29-5.95-2.2-7.59-.24-.44-1.07.05-1.12-.01-.27-.33-1.94-6.99-2.28-8.18-.15-.53.34-1.22.24-1.69-.11-.53-1.71-2.14-1.98-3.15-.21-.79.23-.78.24-.86.42-1.1.69-1.75,1.76-.78.83-1.2,2.49-1.34,1.96.32,3.24-.33,2.73,2.91,2.95,5.26,1.37.82,1.56,5.62,1.78,5.84.18.17,1.01-.09,1.22.11.34.33,3.19,7.73,2.89,8.76,1.79-.81,3.86,4.32,4.52,5.92.28.68-.07,1.7.35,2.44.16.28,1.41,1,2.09,1.86.72.54.88.39.46-.46-.15-.19-.79-3.5-1.25-4.54-.27-.61-1.08-.53-1.08-.83-.01-.68.72-1.69.51-2.72-.09-.47-1.24-.16-1.67-.72-.37-.48-.41-2.1-.79-2.94-2.11-4.79-4.63-8.57-6.61-13.75-.15-.38.25-1.11-.03-1.86-.86-2.32-4.32-6.69-4.81-8.76-.25-1.05.73-1.66-.07-2.21-.13-.09-.74.27-.85.14-.31-.35-1.08-2.99-1.48-3.76-.17-.32-.94-.29-.95-.59-.02-.75,1-1.97.98-2.72,0-.3-.82-.28-.96-.57-.41-.87-.3-2.07-.92-2.72-.46-.49-1.67-.53-1.84-.74-.22-.28.53-1.95.42-2.42-.03-.13-1.21-1.09-1.69-2.07-1.69-3.42-2.81-7.45-4.13-10.8-.33-.85-2.45-2.83-3.17-4.67s-1.97-5.63,1.28-5.1c.38.06.64,1.26,1.18,1.7.66.54,1.69.64,2.12,1.11.17.19,1.34,4.15,1.74,4.82.28.49,2.87,4.06,3.19,4.47.04.05.6-.4.78-.3,1.8,1.03.91,3.39,1.06,3.52.2.18,1.13-.11,1.8.77.75.99.4,2.13.6,2.77.08.26.83.17.87.5.05.54-.62,1.48-.5,1.58.13.11,1.43-.18,2.15.42.26.22,3.27,5.19,3.54,5.74.45.89,1.57,4.95,1.83,5.38.09.15,1.19.38,1.72,1.28.76,1.29,1.72,4.92,2.5,6.09s1.12-.26,1.73,2.91c.96.61,1.17,1.43,1.2,2.47.82.15,1.09.27,1.13,1.24,1.95,1.34,1.62,2.83,1.93,3.19.15.17.89-.04,1.18.16,1.26.87,1.7,3.97,2.01,5.15.09.37,1.65.34.46,2.64,2.36-.57,3.36,1.36,4.18,3.25.54.3.69-.01.46-.93.02-1.03-1.68-5.96-2.1-7.42-1.27-4.36-3.18-9.83-4.01-13.72-.42-1.98-.06-1.9-.16-2.96-.2-2.13-2.04-2.9-2.06-3.13-.17-1.76-.49-2.93-.7-4.56-.09-.68.4-1.49.16-2.26-.23-.72-1.42-.75-1.74-1.56-.24-.62,0-1.4-.07-2-.36-.71-.83-1.33-1.39-1.86-.19-.52,0-1.32-.44-2-.96-1.47-1.82.33-.49-2.65,1.04-.42,1.35.04.93,1.39.15-.72.7-.7.93,0-.76-1.83.8-3.43,2.32-1.86l1.39,1.39c.65,1.35.5,3.03.59,3.16,1.76,2.73,1.36.65,2.19,4.4.05.25,2.45,2.94,2.75,3.89.2.65-.5,3.25-.41,3.41.06.11,1.2-.87,1.99,1.08.4.98.67,3.19,1.1,4.42.58,1.67,2.11,3.63,2.27,5.61.12,1.55-1.16.7.21,2.36l.93,1.39c.07.08.4-.08.46,0,.02.45.33.76.93.93,0,.11-.39.97-.46,1.39-.4.26-.37.57,0,.93,2.86.34,1.17,1.13,1.66,1.88.66,1.02.94.66,1.6,2.77,1.05,2.75,2.02,2.45,2.32-.46-.04-.5.1-1.29,0-2.32-.37-2.38-.83-3.93-1.39-4.64-.76-3.51-1.87-7.68-1.19-11.56.08-.43-.32-1.26-.18-1.4.11-.11,2.57-.96,2.88-.92,3.36.43,2.98,7.07,3.55,7.63.74.73,1.83.61,1.91.68.11.1-.95,1.67-.82,2.47.08.47,1.9,4.29,2.67,4.49-.3-1.15-.23-2.34-.41-3.49-.85-5.31-1.57-9.23-2.86-13.81-.11-.39-.86-.32-.88-.63-.17-2.37.32-4.46-.54-6.77-.16-.43-.85-.4-.89-.68-.09-.72.95-2.87.44-3.39-.18-.18-1.29.26-1.39-.28-.25-1.42-.05-3.79-.16-5.33-.03-.41-.48-.8-.49-1.14-.07-2.07,2.94-3.09,3.78-4.92,4.17-.74,1.92,6.96,2.49,7.93.02.04.54-.34.93-.17,1.59.67-.13,2.83.2,4.13.17.65,1.21,3.47,1.52,4.29.22.59.93.57.97.65.07.15-.21,2.67-.35,3.17,3.09-.84,1.71,1.23,1.98,2.46.49,2.26,1.54,4.27,1.94,6.37.13.69.65,1.28.73,1.64.04.18-1.56.12-.92,1.13.03.05.64-.1,1.08.57.64.98.5,1.57.77,2.22-.33,1.3-.02,2.39.93,3.25.14.45.72.75.93,2.32.9.23,1.21.95.92,2.15,1.46.42,1.62,1.57,1.08,2.89.83.99.94,1.78.33,2.39.48.85,1.15,1.68,1.99,2.51-.15,1.76.32,3.4,1.42,4.93l-.63.92,1.16.22c.26,1.25.65.56,1.16-2.08-2.16-1.2-1.71-4.33-1.33-6.38.12-.64.12-.7-.53-1.06-1.4-1.57-1.58-5.66-.46-7.43-.1-.6.29-1.34-.93-2.09,2.27-.88-1.75-4.23,0-6.26-2.36.24-.98-.52-.94-2.1.1-4.94-2.41-12.63-3.43-17.36-.25-1.13-.31-2.52.65-3.3-.14-1.02.32-1.26.93-.46-.07-.61.39-.78.93-.93-1.25-1.76,1.12-1.42,2.32,0,.62,1.18,1.53,3.28,1.62,4.59.08,1.09-.75,1.9-.72,2.58,0,.16.57.65.95,2.58-.07,1.89.39,3.28,1.39,4.18.06.27-.06.65,0,.93-.3.6-.37,1.26,0,1.86.01.2.45.54.44.71,0,.24-1.57.12-.9,1.14.05.07.76-.29,1.16.91.47,1.42-.27,2.96-.24,3.94,0,.1,1.39,1.4,1.41,1.5.12.72-.38,1.48-.34,2.2.07,1.24,1.14,1.19,1.17,1.28.11.27-.94,2.29.08,3.18.28,1.32,1.13.97,1.86,0,0-.05.08-.39,0-.93.3-.48.36-.92,0-1.39Z"/>
    <path class="cls-97" d="M353.3,332.42c.04.16.82.38.91.81.2.92-.22,1.96.24,2.92.32.66,1.56.8,1.65,1.15.34,1.35-.92,1.12-.9,1.36.04.62,1.11,1.93-.04,2.59-.02-.31.03-.62,0-.93-.51-.04-1.02-.02-1.52.1-.46.11-6.68,2.48-7,2.66-.63.36-.04,1.53-.77,1.89-.07-3.22.48-6.78.46-9.29.33-.92,1.17-1.53,2.53-1.82,1.67-1.31,3.15-1.79,4.44-1.43Z"/>
    <path class="cls-24" d="M417.88,164.74c-.32.94.82.85.92,1.25.6,2.36-1.53,2.21-1.73,3.71-.13.95,1.01,2.27.81,3.4-1.19-.16-1.61,1.47-2.55,1.4-.53-.09-.06-1.21-.25-1.38s-4.05.06-5.1-.01c-2.63-.32-3.86-1.2-3.71-3.98.76-.57,1.53-1.1,2.31-1.6,1.16-.04,2.52-1.32,3.95-1.56s3.67.23,4.11.11c.51-.14.81-.98,1.23-1.34Z"/>
    <path class="cls-94" d="M360.73,328.7c.44-1.14,5.18-4.54,6.08-4.62.81-.07,1.51,1.5,1.36,2.3.98,1.88.17,1.1.44,2.49.04.22,1.63,2.52,1.89,3.08-3.2-.73-5.92,3.43-8.83,4.64-.24-2.02-1.71-3.72-1.73-3.94-.01-.2.78-2.79.8-3.95Z"/>
    <path class="cls-95" d="M337.5,338.92c.01.18,1.2,3.09,1.38,3.41.23.41,1.6.22.93,1.23-.05.07-.98-.16-1.2.91-.24,1.18.63,1.63.62,2.14,0,.4-.78.58-.81.67.25-1.38-.66-.97-1.56-.87-1.95.21-3.84,1.14-5.88.87-.05.45.06.95,0,1.39-1.02-.52-.11-1.92-.23-2.56-.13-.72-1.05-1.53-1.07-2.4,0-.42,1.32-3.49,1.3-4.33l.71-.81c1.43,1.83,3.13,1.01,4.91-.08l.88.42Z"/>
    <path class="cls-80" d="M421.59,187.5c.72,0,2.67.52,3.25.46-.45,2.12.95,1.1,1.36,1.43.05.04.08,1.29.02,1.32-.37.25-3.51.34-3.68.52-.19.2-.18,4.78.44,5.55-1.32-.24-5.72-.9-6.97-.93-1.97-.81-.85-1.94.88-2.11-.09-.79.39-1.49,1.44-2.07-1.14-.8.17-3.49,1.39-3.72.18-.81,1.4-1.46,1.86-.46Z"/>
    <path class="cls-69" d="M378.85,312.91c2.59,1.42,3.22,4.45,4.65,6.97-1.32-.26-.81-1.22-1.62-.92-.26.1-3.77,3.59-3.98,3.93-.47.77-.28,1.06-.44,1.64-.37-.61-1.16-1.58-1.28-2.22-.49-2.51-.57-4.83-1.5-7.54l.31-1.27c1.33-.09,2.62-.28,3.88-.59Z"/>
    <path class="cls-94" d="M260.37,73.71c.39,2.36.45,5.03.46,7.43,2.48,2.52-3.95,4.03-3.25.93-.44-.84-1.29-1.96-1.32-2.09-.08-.3.59-1.62.32-1.99-.19-.26-1.07-.24-1.28-.86-.11-.34.09-1.55-.04-2.49l5.11-.93Z"/>
    <path class="cls-20" d="M392.32,128.05c1.5-.25.78-.34,1.24-.46.83-.22,2.03.12,2.94,0-.13.48-.43.87-.46,1.39,1.17.49,1.21.94,0,1.39-2.59-.45-1.05,2.05-2.32,2.58-.47.2-1.93-1.22-3.99.19-.37.25-.46.76-.66.94-.71.31-1.81-.11-2.18-.65-1.87.44-2.02-2.04-.15-2.14,1.06-.53,1.81-2.19,1.94-2.26.41-.24,1.15.31,1.79.14.49-.13,1.15-1.01,1.84-1.12Z"/>
    <path class="cls-50" d="M301.26,71.85c-.69.67.11,2.46.03,2.97-.02.14-2.55.95-.03,1.22v.46c-1.94-.09.02,1.06-.46,2.79-1.91,2.27-5.16.31-5.11-2.79-1.33-3.05.36-2.67,0-4.64,1.88,0,3.79,1.1,5.58,0Z"/>
    <path class="cls-60" d="M398.36,281.33c-.2-.14-.32-.63-.55-.78s-1.47.31-2.01-.6c-.58-.97,0-2.41-.21-3.41-.12-.56-2.08-.68-1.18-1.71,2.64,1.5,3.74,3.78,7.2,2.78-.79,3.67,1.76,2.07,2.35,2.56.32.26,1.24,2.61,1.48,2.87.12.12,2.51,1.95,2.67,2.01-1.42-.18-2.03.46-1.86,1.86-1.77,1.37-2.55-.35-1.35-1.92-1.24-1.76-2.7-2.59-4.37-2.49l-2.18-1.16Z"/>
    <path class="cls-80" d="M332.85,80.68c.39,1.11,1.1,1.72,2.58,1.86,1.06.1.45-.71,1.14-1.4-.74,3.52-1.68,4.76-2.79,7.9-.26,1.63-2.82,1.06-2.79-.46-.17-.27.47-1.62-.92-1.4v-.45c2.2-.59.85-4.83,2.78-6.05Z"/>
    <path class="cls-95" d="M407.19,259.96c1.98-.2,3.59,2.01,5.02,2.74.9.46,2.53.54,3.35.97-2.7.73-3.6.45-3.72,3.72-.12-.08-.91.19-1.25-.12-.58-.53-1.31-1.97-2-2.67-2.28.12-3.07-3.53-1.39-4.64Z"/>
    <path class="cls-23" d="M250.15,336.6c1.61-2.51,6.35.85,4.86,2.38-5.66,1.22-.77,2.62,2.27,1.02l.78.78c-.14,1.03-.4,1.88-.46,2.32.47-1.46-2.96-1.04-3.52-.97-.86.12-.61.87-.98.96-.49.11-4.18.17-4.32,0-.08-.09-.44-2.1-.47-2.32-.03-.33-.06-3.06.04-3.18.06-.08,1.72-.98,1.82-1Z"/>
    <path class="cls-11" d="M278.03,342.63c.03.15-.01.31,0,.46-.45,1.85-1.04,3.59-1.78,5.22l-.55.36c-.04-.07-1.23-.11-1.39-.72-.22-.84,1.11-1.9.74-2.76-.99-2.3-4.7-.04-6.78-.7-.2,1.29.88,3.26-1.39,2.79.35-1.03.36-2.55.93-4.18l1.27-.99c2.72.08,5.47-.02,8.25-.29l.7.81Z"/>
    <path class="cls-81" d="M398.36,281.33c.89.35,5.33.35,5.53.54.12.11-.05.81.19,1.15.56.77,2.65,1.66,2.11,2.45-.1.14-1.28-.16-.87,1.21.11.39.88.16.94.23s-.03.3,0,.46c-.22.71-1.22,2.66-2.32,1.39-1.68-2.66-3.06-5.68-5.58-7.43Z"/>
    <path class="cls-80" d="M317.98,342.63c.35-2.29,2.66-1.4,1.86.46.36.44,1.76,1.98,1.79,2.12.08.34-.48,4.62-.86,5.31-.1-.34.15-1.24,0-1.38-.14-.13-3.45-.26-3.71.45.18-1.08.02-2.38,1.39-3.49-.72.06-1.23-1.83-1.23-2.33,0-.66.72-.97.76-1.15Z"/>
    <path class="cls-74" d="M357.48,91.36c-.13.28.17,1.15-.25,1.82-.51.83-3.35,4.17-3.37,4.45-.03.45.81,1.13.8,1.4-.03.68-2.1,1.01-2.26,1.22-.2.26.49,2,.34,2.18-.23.29-1.3.29-1.3,1.01-.25,2.04-3.01.8-.93-.46.03-.3-.05-.64,0-.93-.58-.21-.58-.83,0-1.86,3-1.59,2.93-4.61,4.48-7.43.31-.57.89-1.1,1.56-2.32l.93.93Z"/>
    <path class="cls-1" d="M200.9,113.19c.19.1.84-.11.93,0,.15.18-1.7,3.81,1.85,2.78-.91,2.17.36,1.75.46,2.17.18.74-.08,1.69,0,2.48-.44.77-1.77,1.35-2.32.46-1.76-2.13-1.74-2.28-3.25-5.11,2.3-.1,2.61-.5,2.32-2.79Z"/>
    <path class="cls-59" d="M265.95,72.78c.58-.09,1.26.06,1.86,0,.6,3.45.31,3.25.18,6.81-.05,1.32,1.31,3.28-.17,3.87-.68-1.38-.63-3.09-.95-4.31s-3.61-1.32.02-4.29c-.91-.82-3.25-1.75-.93-2.09Z"/>
    <path class="cls-74" d="M280.81,72.32c0,.38.78,1.06.75,1.62-.12,2.05-.71,4.71-.75,6.74,1.27,5.56-2.15,2.12-1.39-1.86-.18-.28-1.42-.57-.9-1.37.05-.07.66.08.81-.24.05-.11-.18-2.1-.32-2.29-.39-.54-1.3-.16-1.45-.28-.1-.08.79-1.52.93-2.32h2.32Z"/>
    <path class="cls-42" d="M286.39,338.92c1.12-1.11,2.15-.18,1.88,1.33,1.79-.2,2.55.45,2.27,1.94,1,.15,1.63.25,1.89,1.37.04.75,0,.89,0,1.39-1.38-1.12-3.76-.09-5.25-.46-.68-.17-1.18-3.17-2.19-.94.09-2.71.55-2.74,1.39-4.64Z"/>
    <path class="cls-29" d="M421.59,232.09l2.33-.47-.47-1.39c2.15-.1,5.56-.22,6.04,2.31l-2.78,1.87c-1.34-.75-3.58-1.52-5.11-2.32Z"/>
    <path class="cls-23" d="M417.88,210.73c1.33.89,2.58,1.71,3.77,2.47.61-1.03,1.51-1.94,2.27-.61v1.86c-1.39-.49-3.31.42-4.18.46-.54.03-1.51-.43-2.32-.46-.57-.11-1.17-.65-1.82-1.6-1.8-.42-5.21-2.2-1.9-2.58,1.35.24,2.83.45,4.18.46Z"/>
    <path class="cls-30" d="M242.72,329.63c.29,2.27-.97,3.7-1.86,5.57l-.46-2.79c.57,2.27-1.74,2.94-3.72,2.79.3-.33,1.02-.36,1.23-.61,1.53-1.8.61-3.59,2.95-5.43.93-2.43,3.4-1.42,1.86.46Z"/>
    <path class="cls-14" d="M414.63,228.38c-1.53-.83-2.69-1.83-4.5-2.02.01-.54-2.67-2.09-2-2.62.61-.49,1.86.85,2.53.89.48.02,1-.43,1.39-.44s.21.9.26.94c.93.76.92-.86,1.12-.87.56-.01,2.33.3,3.05.41v1.39s-1.85-.46-1.85-.46v2.79Z"/>
    <path class="cls-60" d="M369.09,105.76c1.12,1.18,1.17,3.38.96,4.91-.12.86-.85.6-.95.98-.5,1.83.76,2,1.38,3.4-.37.31-1.26.89-1.39,1.17-.45.9,1.84.61.92,1.62-.07.07-1.35-.7-1.85,0-2.29,1-1.97-3.81-.36-4.57.26-1.31.43-4.65.01-5.72l.35-.39c.31-.41.48-.86.93-1.39Z"/>
    <path class="cls-99" d="M342.14,89.5c1.26.57,2.09,1.68,2.79,0-.15.89.18,1.74-.14,2.67-.05.13-1.84,1.43-2.16,1.74-.4.39-1.26,2.08-1.64,2.08-1.84.03.93-5.71,1.16-6.49Z"/>
    <path class="cls-35" d="M230.17,324.52c-1.11.88-2.27,3.76-3.72,3.72-.36-.01-1.23-.66-1.86-.46.17-.47-.26-1.61.44-2.13s1.7.33,1.84.23c.7-.46-.18-1.8,2.83-2.75.44-2.94,2.3.19.46,1.39Z"/>
    <path class="cls-71" d="M425.31,211.19c-.77.14-1.33-.06-1.38,0-.17.17.12,1.19,0,1.39-.03.05-.62.01-.88.3-.83.92-.68,1.52-2.49,1.07-.2-.05-2.61-2.65-2.67-3.23,2.28.03,2.36.1,4.52.37.95.12,1.96-.72,2.92.09Z"/>
    <path class="cls-97" d="M321.7,75.1c.86,1.8.05,4.54,2.32,1.86-.11,1.04.52,2.07.38,2.93-.19,1.15-2.05,3.05-1.32,4.97h-1.39c.43-3.23-.08-6.49,0-9.76Z"/>
    <path class="cls-77" d="M301.26,348.67c1.29-1.76,1.58-2.23.47-4.33-.22-.42-1.04-.19-.93-.54.19-.61,1.42-3.91,1.63-3.95,1.82-.38.57,2.92.71,3.42.48,1.7.68,2.78.91,4.94-.84-1.01-1.79-.58-2.16.46h-.62Z"/>
    <path class="cls-65" d="M398.36,300.83c-2.44-.07-1.65-1.59-2.41-2.93-.32-.57-1.78-1.67-2.39-2.32-.26-.27-1.34-.55-.31-1.02.6-.28.67.5,1.16.54.64.06,1.26-1.04,2.09-.77.1,1.01.09,3.03.46,3.87.24.56,1.08.11,1.46.58.3.38.24,1.37.41,1.58-.19.07-.42.47-.46.46Z"/>
    <path class="cls-98" d="M148.86,117.37s-.17.47-.37.39c-1.73-.7.16-5.42-2.88-6.2.11-.27,2.43-2.92,2.62-2.98,1.96-.56,1.93,1.24,2.03,1.35l-.92,1.39-1.4-1.85c-.27.66.44,1.14.46,1.39,0,.23-.02.42-.12.48-.21.11-.77.14-1.05.15-.07,0,1.28-.41,1.17.31,0,.2-.48.78-.42,1.55.1,1.27.69,2.73.89,4.02Z"/>
    <path class="cls-88" d="M197.65,71.85c.37-3.9,1.31-3.49,4.65-2.32.29.32-.83,1.83-.93,1.85s-.51-.44-.71-.4-1.98,3.33-2.08.2l-.93.67Z"/>
    <path class="cls-7" d="M275.7,50.49c-2.96-.38-1.68-4.5-1.39-6.5,1.14.45,1.79,3.05,1.74,4.05s-.61.54-.35,2.45Z"/>
    <path class="cls-20" d="M418.81,245.56l-3.71.47v.45s.93.47.93.47c-.21-.11-1.02.24-1.31-.09-.27-.3.27-1.02-.66-1.46-.84-.4-1.67.22-1.74.16-.17-.15-.61-1.65.26-1.85,1.5-.34,4.67,1.38,6.24,1.85Z"/>
    <path class="cls-81" d="M179.53,279.93c1.5-.6,3.19-1.84,4.89-2.32.49-.14,1.4-.78,1.61.24.3,1.46-1.56.68-1.74.78-.07.04-.35.75-.95,1.17-.53.37-1.63.47-1.85.73-.52.62.67.8-1.03,1.26.79-1.48.87-2.13-.93-1.86Z"/>
    <path class="cls-29" d="M172.56,266c.06-.01.24-.71.79-.83,1.3-.28,3.53.19,5.05-.6,3.15,1.36-.04,3.12-.95.96-.84,1.3-2.29.38-3.46,1.17-1.39.94-1.16,2.86-4.21,2.08.42-.5,1.08-.37,1.28-.55.1-.09-.59-1.77,1.74-1.33l-.22-.91Z"/>
    <path class="cls-42" d="M217.63,101.11c1.42,1.77.89,1.41,1.89,3.35.25.49,1.35.87,1.54,1.74.43,1.98-1.04,2.65-1.81.93-.26-.59.24-1.4-.07-2.19-.07-.19-1.79-3.07-2.02-3.37l.46-.46Z"/>
    <path class="cls-55" d="M153.51,227.91l.23,2.32-.23-1.85c-.72,0-.77,1.28-1.16,1.4-2.01.64-.23-2.11-2.55-1.4-.21.79.92.21.95.72.03.48-.64,1.39-.5,2.06-1.57-.94-.87-2.54-3.25-2.78,2.44-.43,4.17-.38,6.5-.46Z"/>
    <path class="cls-3" d="M238.07,80.68c.19,2.5.48,2.57.91,4.08.27.94.28,1.93.48,2.88-2.86.63-1.52-1.48-2.31-3.5-.52-1.32-.74-.87-1.4-3l1.16,1.85,1.16-2.31Z"/>
    <path class="cls-21" d="M316.13,73.24c.43,2.56-1.55,4.51-1.86,6.96l-.94-4.44c-.32-.66.44-1.37.48-1.6.03,1.25.7,1.57,1.86,1.4-.25-1.1.11-1.54.47-2.33Z"/>
    <path class="cls-55" d="M214.37,42.59c.28-.64-.4-1.65,1.17-1.88.52-.08,2.22.24,2.68.5.5.28.29.88.33.92.53.46.58-.29,1.39,1.39l-2.32.46.93-1.85c-1.62-.46-1.87,1.65-2.32,1.86-.31-.32-.62-.32-.93,0-.42-.19-.58-1.04-.93-1.39Z"/>
    <path class="cls-31" d="M198.58,380.72c1.02,1.74-2.06,4.4,0,4.87l-.93,2.1c-1.72-1-.53-1.69-.55-3.02,0-.73-.53-1.56-.41-2.23.03-.16,1.45-1.1,1.89-1.72Z"/>
    <path class="cls-86" d="M277.1,349.14c-.13.48-.94,1.37-1.39.93-.15-.15.13-1.18,0-1.39-.92-3.45,1.43-2.75,1.79-3.32.31-.49-.29-1.9.53-2.25.13,1.87-.41,4.19-.93,6.04Z"/>
    <path class="cls-16" d="M95.43,233.02c-1.23-.09-.96-.04-.46.93h-1.41c-.03.35.48.75.47.93.24.37.25.96,0,1.39.1.27.3.72.46.93-2.87,1.48-2.55-3.64-1.43-4.44s2.13.27,2.35.26Z"/>
    <path class="cls-33" d="M259.91,41.2l-1.39.93-.24-1.86c-.2-.01-.51.65-.7.93-.42-.04-.73.27-.93.93-.28.18-.7.28-.93.46.42-1.06-1.02-.84-.94-1.16.15-.53,1.46.41.47-1.62,3.15.28,3.16-1.42,4.65,1.39Z"/>
    <path class="cls-20" d="M162.34,181.47c1.85-.85,6.25,2.55,5.57,3.25-1.17-.78-2.61-.85-3.81-1.54-1.44-.83-.21-1.95-2.22-.32-.06-.26.07-.88,0-.93.18-.11.32-.4.46-.46Z"/>
    <path class="cls-86" d="M166.98,166.6c.36.23.59.9.96,1.11.24.13,4.97,1.48,3.68,2.61-1.21,1.05-2.37-1.27-2.78-1.58-.53-.4-4.02.01-3.73-1.67.53.03,1.34,1.09,1.86-.46Z"/>
    <path class="cls-96" d="M129.81,137.34c-.11,1.45.97,2.87,0,4.18-.42-.43-2.02-.63-1.88-2.53.11-1.52,1.61-1.36,1.88-1.65Z"/>
    <path class="cls-31" d="M201.36,385.83c-.83,1.7.58,3.67-3.25,1.86.5-1.78,1.47-2.1,3.25-1.86Z"/>
    <path class="cls-20" d="M287.32,68.6c.1,1.52-.42,2.38-.37,2.94.06.6,1.35,2.18.36,3.09-1.8,1.66-.92-4.66-.92-5.11l.93-.93Z"/>
    <path class="cls-19" d="M214.84,69.53c2.18.77,2.42,1.29,2.32,3.72-.39-.27-1.44-.05-1.91-.78-.28-.44-.25-2.06-.42-2.93Z"/>
    <path class="cls-41" d="M400.22,127.59c.37,1.42-1.04.7-1.31.99-.31.33-.07,2.69-1.25,3.19-.52.16-1.55-1.16-1.62-1.39-.08-.26-.02-1.02,0-1.39,1.77.95,2.55-.58,4.18-1.39Z"/>
    <path class="cls-105" d="M97.29,279.93c-.43,1.42,1.06.69,1.33.97s-.12,2.14.53,2.75c-.72-.19-1.61-.29-2.32,0,.03-1.43-.33-2.49.46-3.72Z"/>
    <path class="cls-72" d="M168.84,266.93c-1.85.86-2.52.06-1.39,2.78-2.85.75-.84-1.78-3.25-1.39,1.41-.59,2.66-1.87,4.65-1.39Z"/>
    <path class="cls-62" d="M183.71,291.08c1.34-.59,3.04-2.06,4.65-2.32-1.22,1.5-2.41,2.8-4.18,3.25l-.46-.93Z"/>
    <path class="cls-102" d="M275.7,53.74v.62c1.78.92,1.64,2.61,0,3.56-1.47-2.42-.39-2.27,0-4.18Z"/>
    <path class="cls-17" d="M416.02,359.36c.28,1.98.4,3.98-2.54,3.28-.52-.12-.15-.75-.25-.95l1.39.46c-1.11-2.04-.09-1.78,1.39-2.78Z"/>
    <path class="cls-36" d="M383.03,365.39c.17.07.65-.16.86.05.54.56.12,2.56.21,2.66.37.41,1.66,0-.6,1.47-.02-.08-.68-.18-.74-.65-.11-.81.61-2.46.28-3.53Z"/>
    <path class="cls-33" d="M119.59,271.11c-1.21.85-2.01,2.05-3.25,1.4,2.05,2.88-.54.84-1.86,0,2.03-1.07,1.6-.35,2.97-.48.13-.01.72-1.6,2.14-.91Z"/>
    <path class="cls-48" d="M389.07,308.26h-.46c-.68-1.25-1.08-1.04-1.8-1.13-1.51-.19-.71-2.25.17-2.12,1.5.22,1.49,2.21,2.09,3.26Z"/>
    <path class="cls-81" d="M173.02,143.38c.18.24,1.03,1.17,1.28,1.4.96.86,3.83,1.26.58,2.32.36-2.11-.65-1.06-1.74-1.52-.08-.03-.57-.89-1.05-1.27.99.11,1.04.06.93-.93Z"/>
    <path class="cls-16" d="M313.34,21.69l-2.56-1.86c-.52.12-.1,1.03-.23,1.39-1.24-.82.33-2.35,1.16-2.34.78.02,2.08,1.35,2.08,2.09,0,.37-.46.66-.45.71Z"/>
    <path class="cls-24" d="M420.2,250.21c1.35-.07,2.43.31,3.72.47l-.47,2.32c-1.14-.9-2.32-1.66-3.25-2.79Z"/>
    <path class="cls-34" d="M254.33,72.32c-1.71-.19-1.78-.81-2.78-2.09l.92.23.93-1.39c.59,1.41.69,2.46.93,3.25Z"/>
    <path class="cls-61" d="M155.37,243.24l1.39,2.32c-1.65.83-2.18-.63-3.71-.93.56-.61,1.55-1.16,2.32-1.39Z"/>
    <path class="cls-22" d="M438.79,252.53l1.39-1.86c-.63,1.49,2.18,2.55,1.87.94l.92,1.39c-1.4-.22-2.81-.18-4.18-.46Z"/>
    <path class="cls-88" d="M414.16,96c2.05,1.29,1.16,1.43.46,3.25l-1.39-1.86c.15-.11.31-1.01.93-1.39Z"/>
    <path class="cls-5" d="M103.33,255.32l2.79-.92v1.85c.43,2.06-2.25-.14-2.79-.93Z"/>
    <path class="cls-13" d="M158.62,363.54c-.7,1.25-.97,1.05-.47,2.78l-2.32-.46c.83-1.01.76-2.08,2.79-2.32Z"/>
    <path class="cls-20" d="M164.19,252.99c-1.33,2.84-1.15,1.36-2.79,1.39l-.46-1.39c.95-.09,1.72-.4,2.32-.46.47.06.78.21.93.46Z"/>
    <path class="cls-30" d="M227.38,86.71c.81.62,1.98,1.75,1.13,2.79-1.42,1.73-1.29-1.16-1.59-1.86.4-.18.46-.54.46-.93Z"/>
    <path class="cls-24" d="M210.19,107.62c.12.05.8.74.93.93,1.34,2.78.31,4.45-.93.93-.31-.23-1.1-.27-1.3-.57-.29-.44,0-1.1-.1-1.29.42.51,1.33-.03,1.39,0Z"/>
    <path class="cls-34" d="M409.98,122.94c-1.63,2.3,1,.36.47,1.63-.35.84-.73,1.75-1.87,1.62.82-.94.01-1.61,0-1.85-.06-1.32.54-1.08,1.39-1.39Z"/>
    <path class="cls-60" d="M187.89,122.01c2.01-.45,1.21,1.11,2.02,2.19.15.19,1.61.15.54,1.06-.98-.68-2.16-.38-2.1-1.85.07-1.8-.15-.47-.46-1.39Z"/>
    <path class="cls-60" d="M406.26,287.36c.35,1.8-.41,1.7-1.39,2.79-.29-.47-.63-.92-.93-1.39,1.05.13,1.12-.83,1.71-1.4h.61Z"/>
    <path class="cls-32" d="M191.61,301.76c1.05-.84.47-2.59,3.25-1.85-.6,1.24-2.07,1.01-2.79,2.32l-.46-.46Z"/>
    <path class="cls-73" d="M263.16,55.13l-1.64.93.24-5.11c.35,1.79,1.13,3.05,1.39,4.18Z"/>
    <path class="cls-4" d="M437.86,263.21l.46,2.32c-3.31.45-1.24-1.08-1.39-2.32.29.05.68-.07.93,0Z"/>
    <path class="cls-25" d="M374.67,345.42c1.07-.07,1.76-1.54,2.32-.23.04.1-1.54.69-1.39,1.62-.03-.08-.56-.36-.93-1.39Z"/>
    <path class="cls-85" d="M139.1,175.43c.17.84,0,2.72-.92,1.86-.05-.05.07-.85-.47-1.39.42-1.32.93-.5,1.39-.46Z"/>
    <path class="cls-87" d="M427.17,98.33c-.19.25-.28.65-.46.93-2.9-1.3-2.47-2.65.46-.93Z"/>
    <path class="cls-6" d="M100.54,142.45c.29,1.54-1.34,1.23-1.86,0,1.34-1.02,1.46,0,1.86,0Z"/>
    <path class="cls-32" d="M304.51,359.36h1.86c.44,1.05-.79,1.04-.93,1.39-1.47.27-.73-.62-.93-1.39Z"/>
    <path class="cls-90" d="M392.32,92.75c-.28.6-.5,1.18-.47,1.86l-1.39-.47c.46-.37.7-1.49,1.86-1.39Z"/>
    <path class="cls-64" d="M216.7,49.09c-1.09-.38-1.08-1-1.39-1.86,1.5,0,1.25.8,1.39,1.86Z"/>
    <path class="cls-13" d="M416.02,307.34c-.33-.11-.97.08-1.39,0l.46-1.86c.36.61.77,1.15.93,1.86Z"/>
    <path class="cls-3" d="M236.68,73.71c.2.05.87-.09.93,0,.14.19.39,3.88.47,4.65-.93-1.27-1.06-3.09-1.39-4.64Z"/>
    <path class="cls-10" d="M174.42,300.83c-.05.2,1.26,1.5-1.39,1.39.41-.5.17-1.65,1.39-1.39Z"/>
    <path class="cls-12" d="M331.46,52.34l-.47.93,1.4.24c.25.87-.5.66-.93,1.16-.67.01-1.03-1.67-.93-2.04.15-.55.87-.2.93-.29Z"/>
    <path class="cls-88" d="M232.49,75.57c-.05.29.03.63,0,.93-.48-.06-1.22.23-1.4-.23-.47-1.28.45-1.54,1.4-.69Z"/>
    <path class="cls-82" d="M118.2,149.42c.21,2.42-1.36,1.83-.93-.46.29.18.62.32.93.46Z"/>
    <path class="cls-76" d="M434.6,250.67c-.22-.1-.73.1-.93,0,.73-.41-.23-1.9.24-1.86,1.32.1,1.08.93.69,1.86Z"/>
    <path class="cls-88" d="M232.96,74.17c-1.89.87-2.89.19-.93-.93.19.22.87.28.93.93Z"/>
    <path class="cls-27" d="M156.76,371.43c-.41.18.13,1.01-1.39.46-.15-1.1.07-1.02,1.16-.92l.23.46Z"/>
    <path class="cls-84" d="M115.41,196.79l-.46-1.86c.09-.12,2.11.53.92,1.86-.15,0-.32-.02-.46,0Z"/>
    <path class="cls-37" d="M184.64,345.89c-.05-.84-.19-1.32.46-1.86.84,1.18.31,1.22-.46,1.86Z"/>
    <path class="cls-26" d="M166.98,77.89c-.68.08-.95.11-1.39-.46l1.85-.93c.25.69-.38,1.03-.46,1.39Z"/>
    <path class="cls-55" d="M158.62,227.91c-.44.75-2.32.76-2.79,0,.93-.02,1.86.03,2.79,0Z"/>
    <path class="cls-49" d="M379.31,120.16c-.15.16-.31.31-.46.46-1.34,1.81-2.08,1.22-1.39-.93.15.02.31-.03.46,0,.2.03.82.71,1.39.46Z"/>
    <path class="cls-100" d="M181.85,349.14c-1.09,1.17-1.73.82-1.86.93.28-.85,1.01-1.01,1.86-.93Z"/>
    <path class="cls-95" d="M338.89,349.6c-.32-.57-.52-1.2-.46-1.86,1.44.83.46,1.75.46,1.86Z"/>
    <path class="cls-78" d="M179.06,371.9c.99-.11,1.04-.06.93.93-.41-.12-.84-.02-1.2-.46-.31-.38.27-.44.27-.47Z"/>
    <path class="cls-88" d="M231.56,73.24l-.93-1.39c.46.55.87,1.33.93,1.39Z"/>
    <path class="cls-35" d="M224.13,329.63c0,.89-1.08.75-1.39.93l1.39-.93Z"/>
    <path class="cls-73" d="M263.16,57.92c-.69-.15-.72-1.67,0-1.86.1.51-.03,1.27,0,1.86Z"/>
    <path class="cls-98" d="M152.58,111.33c-.68,0-1.19-.26-1.39-.93.41.31.64.24,1.39.93Z"/>
    <path class="cls-24" d="M209.26,105.76c1.24-.22.95.29.93,1.39-.47-.35-.75-.84-.93-1.39Z"/>
    <path class="cls-26" d="M165.59,76.96c-.51-1.35,0-1.27,0-1.39.3.4.7,1.27,0,1.39Z"/>
    <path class="cls-21" d="M313.8,73.24v-1.39c.03.1.48.26.47.69,0,.4-.45.61-.47.71Z"/>
    <path class="cls-59" d="M267.81,71.85c-.07-.43.04-.94,0-1.39.7.07.7,1.33,0,1.39Z"/>
    <path class="cls-75" d="M363.05,76.96c-.2.23-.27.71-.46.93l-.46-.24c-.16-.86.14-.74.92-.69Z"/>
    <path class="cls-35" d="M226.45,330.09c.84.75.6,1.1-.46.93.15-.28.39-.66.46-.93Z"/>
    <path class="cls-71" d="M88.93,212.58c-.36-.05-.78.06-1.15,0l-.24-.46,1.39.46Z"/>
    <path class="cls-99" d="M346.33,87.64c.09.76-.14,1.1-.93.93.31-.49.41-.63.93-.93Z"/>
    <path class="cls-58" d="M211.59,165.21c6.26-15.68,21.85-20.57,37.17-15.1.94.34,3.04,1.17,3.18,1.25.16.1.29,1,.74,1.32,5.85,4.24,7.53,8.04,8.56,15.14,1.23,8.53-.15,16.08-3.19,23.86-1.34,3.48-3.36,6.42-6.04,8.82-4.7,5.87-15.35,8.56-22.77,7.43-.34,1.15-.89.32-1.39-.46-5.02-1.15-13.4-5.47-16.15-9.63-4.54-6.86-4.28-12.05-3.78-19.86.05-.84,1.81-8.09,2.28-9.52l1.39-3.25Z"/>
    <path class="cls-58" d="M313.8,186.11c6.26-12.14,17.02-22.24,31.96-18.24,8.95,2.39,15.4,10.95,17.55,19.61.3,1.2-.02,2.59.27,3.46.24.75.63,1.92.51,2.48-1.78,9.04-1.74,15.06-7.35,23.31-7.68,11.29-23.88,10.93-35.06,5.4-12.82-6.34-14.23-22.29-8.81-34.16-.33-.93.19-1.37.93-1.86Z"/>
    <path class="cls-61" d="M418.81,187.97c.49-.33.8-.33.93,0-.16,1.14-.87,2.68-1.39,3.72-1.01,1.49-2.01,2.67-3.6,3.3l-.58.88c-.06.06.1.83-.23.94-1.79.59-.27-.88-1.74-1.54-1.34-.6-1.49.06-2.21.13-.99-.44-2.08-.58-3.28-.41l-.44-.99c-.83-1.2-1.76-2.43-2.79-3.72-1.04,1.11-1.8-.13-.46-.93.61-.25,1.26-.36,1.86,0,1.71-.17,5.09-.3,6.5-.93l.42-.27c1.23,2.47,3.66,1.67,3.29-.19,3.13-1.09,1.16-.4,3.72,0Z"/>
    <path class="cls-104" d="M291.97,340.78c-.92-.05-1.55-.69-1.89-1.92-1.72.39-2.79.1-3.22-.86.8-2.01-.15-.93-.55-2.05-.8-2.21.2-3.04,2.41-2.6.45-1.65-1.56-.63-1.86-.93.02-1.5-.02-3.16,1.86-2.79l-.93-1.85c5.94.49,3.42,1.41,4.27,5.24.18.8,1.14,1.58,1.14,1.94,0,.43-1.53,2.81-1.52,3.26,0,.51,1.53,1.51.29,2.55Z"/>
    <path class="cls-78" d="M330.53,331.02c.08-2.43.26-3.06,2.46-4.16,2.09-1.03,4.18.25,3.58,2.3.49,1.22,1.42,1.88.93,3.72-1.25-.65-2.14-.56-2.69.26,4.73,2.79,1.21,8.53-3.09,5.74-.08-1.6-.34-3.43-1.19-4.61.08-1.43.03-1.92,0-3.25Z"/>
    <path class="cls-14" d="M256.65,333.35c.79,1.28,1.56,2.36,2.32,3.25.03.05.87.24.46.92-.03.05-.79-.14-1.08.57-.34.82-.18,1.8-.3,2.69-2.09.4-3.77,1.35-6.04.93.68-.86.42-1.3-.7-.94-.43.14.36,1.92-2.08,0,1.08-1.87,3.65-2.1,5.57-2.54,0-.6-2.16.43-.94-1.15-1.15-.28-2.52-.73-3.71-.48.87-1.25,1.69-2.03,2.32-3.25-.4-.13-.39-.28,0-.46.08-.19.43-.34.46-.46,1.39.09,2.62.4,3.72.93Z"/>
    <path class="cls-46" d="M260.37,330.09c-.03.35-.11.78-.4.91-.32.14-6.66.41-6.57-.91.06-.2-.17-.7.05-.86.36-.26,1.41.17,2.05-.53.85-.93.08-3.13.22-3.26s1.16.17,1.34-.03c.23-.25-.08-1.38.12-2s1-.6,1.19-.89c.31-.48.08-1.31.56-1.99.86-1.23,2.84-1.75,2.85.47.01,2.43-1.88,6.31-1.42,9.08Z"/>
    <path class="cls-78" d="M368.16,107.15c.6,1.72.71,4.54.5,6.31-.1.85-1.75.75-.97,1.59.15.16,1.11-.37.92.46-2.48.37-.49,2.1-.46,2.33.06.48-1.05,1.1-1.39,1.39-1.17.42-2.3.93-3.39,1.55-.67,4.17-2.28,2.22-1.72-1.09.63-1.56,2.48-3.21,2.92-4.32.35-.87-.18-1.67.08-2.18.33-.65,1.44-.84,1.84-1.39.24-.32-.04-1.05.25-1.53.41-.68,2.81-1.62.49-2.43.12-.33.77-.49.93-.7Z"/>
    <path class="cls-102" d="M271.06,334.74c-1.73-2.38-.52-1.36.32-1.98.62-.47.33-1.64,2.18-1.28.14.03.59,1.26,2.24,1.55s2.77-1.08,1.76,1.25l2.32-.46c.35,1.42-.8.73-1.37,1.16-.85.63-.44,1.41-.02,2.09-.36.89-1.45,1.34-2.32.93.03,1.05-.79,1.33-2.47.85-.14,3.55-5.51.03-2.6-.75.08-.02-1,1.15-.97-.1-.26-.1-1-1.78-.93-1.85.11-.11,1.01.07,1.39,0l.7-1.07c2.59-.08,1.5-1.7-.24-.33Z"/>
    <path class="cls-10" d="M374.67,314.77c-.49-1.41.61-1.49-1.39-1.41,1.32-2.8-1.36-5.45-1.63-7.64-.12-1.02.29-4.3,1.62-3.02.14.14.48,2.74,1.05,3.83.18.34,2.52,3.45,2.74,3.51.36.11,1.04-.55,1.33-.37.06.03-.38.71-.21.94.36.51,1.74.13.67,2.3-.85,1.74-2.2,1.36-3.87,1.48l-.31.37Z"/>
    <path class="cls-103" d="M403.01,189.36c-.2.6.44.86.46.93,1.1,1.28,2.03,2.52,2.79,3.72,1.48.33,4.17.15,3.72,1.39-.99.1-3.3.58-3.87.48-.36-.06-.33-.79-.63-.95-1.54-.81-4.94-3.09-5.48-.93-.75-.3-1.65-1.7-1.76-1.75-1.1-.55-4.36,1.22-3.59-2.89,2.46.42,5.87.46,8.36,0Z"/>
    <path class="cls-89" d="M330.53,331.02c-.02-.92-.35-2.03-.29-2.79.04-.59.81-1.12.77-2.05-.04-.84-1.06-1.81-.94-2.35.14-.66,1.58-.62,2.17-.88.16-.07.17-.71.47-.77.41-.08,2.78.41,2.87.55.22.3-.09,1.09.08,1.43.23.47.89.36.91.63.03.52-.51,1.04-.28,2.08.29,1.3,2.21.46.29,2.29-.26-.65.52-1.17-1.4-.93l.48-.92c-2.89.34-4.27.77-5.11,3.71Z"/>
    <path class="cls-93" d="M402.55,168.92c.53,1.25,1.34,2.12,2.44,2.6l.35,1.12c-2.69-.1-2.62,1.27-3.48,1.21-.76-.05-1.88-.96-2.9-1.11-2.32-.34-5.08.36-7.08-1.27,0-.58,9.61-2.35,10.68-2.55Z"/>
    <path class="cls-67" d="M359.34,315.23c-.1-.87-.84-2.45-.76-3.04.08-.55,1.02-.86,1.08-1.37.07-.65-1.63-3.54-1.66-5.15,0-.25.71-.16.77-.42.09-.35-.37-2.57.79-2.1,1.81.72.72,2.12.7,2.98,0,.29,1.06.26,1.18,1.17.07.52-.49.9-.47,1.17.03.81,1.14,4.1,1.59,4.7.97,1.29,1.03-.44,1.42,2.51-1.22.75-3.42.08-4.65-.46Z"/>
    <path class="cls-60" d="M350.51,329.16c.03-.95.2-1.13.52-.53-.02-2.66.88-3.1,1.8-.4.18,1.19.27,3.44.46,4.18-2.24,1.23-4.38,2.81-6.97,3.25,0-.36-.46-1.62-.46-2.79l.28-.83c1.85-.68,3.31-1.64,4.37-2.89Z"/>
    <path class="cls-42" d="M260.84,81.14c1.72-.28.69,2.36.94,3.4.3,1.25.67,1.58.92,4.03-.09,1.48-.97,3.59-2.32,1.86-.33-.65-.45-1.58-.91-2.12-.5-.59-1.37-.61-1.41-.68-.12-.16,1.82-2.38-.08-3.63-.09-.06-1.08.91-1.32-.78-.02-.15,1.32-.27.94-1.15.66,1.27,1.59.95,2.92.36s.33-.93.33-1.29Z"/>
    <path class="cls-20" d="M365.38,319.41c-.01.27-.64.75-.38,1.3.05.11,1.64,1,1.67,1.09.1.33-.46.97-.32,1.48.21.74,2.57,1.13,1.82,3.09-.48-.93-.2-2.02-1.16-1.85-1.75,1.83-3.91,3.31-6.28,4.18.01-.9.07-1.9,0-2.79-.15-1.24.07-1.37.93-.46,1-1.85,1.3-3.61,1.28-5.78.81-.86,1.8-1.45,2.44-.26Z"/>
    <path class="cls-45" d="M359.34,315.23l2.79-1.39-.92.92,2.79.93c.03.26.37.63.46.93-.2.69-.78.98-1.75.89.7,2.6.31,5.5-1.04,7.93-.24.19-.65.28-.93.46-.05-.55-1.29-4.08-.92-4.61.18-.27,1.94-.1,1.85-.96-3.18-.42-1.94-.33-1.97-2.11-.01-1-.23-2.02-.35-3.01Z"/>
    <path class="cls-91" d="M345.86,325.45c-.26-2,3.98-2.68,4.97-1.92,1.35,1.03.6,4.69-.33,5.64-.57,1.26-3.55,2.9-4.65,2.32,0-2.1.04-4.04,0-6.04Z"/>
    <path class="cls-76" d="M408.59,264.6c-2.88.23-2.1-1.5-3.06-2.75-1.16-1.51-3.77-2.86-4.7-3.89-.43-.47-.52-1.36-1.04-1.98-.67-.8-2.63-.68-.3-1.57,1.62,1.28,3.49,2.24,5.21,3.38.77.51.47,1.98,2.5.77.06.45-.06.96,0,1.4.19,1.33-.19,3.26-.04,3.89.1.39,1,.32,1.43.75Z"/>
    <path class="cls-92" d="M350.97,320.8c-.13.52-.57,1.32-.38,1.76.05.12,2.1,1.44,2.16,1.56.1.22-.45.99-.39,1.55.09.87.34,1.7.47,2.57-1.66-2.41-1.07-.54-1.39.6-.16.55-.91.29-.94.33.22-.33.15-4.91,0-5.11l-3.25.47-1.39.93c-.02-.96-.11-1.01,0-2.32-.07-1.16,4.18-3.08,5.11-2.32Z"/>
    <path class="cls-68" d="M408.59,167.53c-1.33.52,1.58.45.46,1.39-.16.14-1.4-.1-1.86,0,.02,2.24.52,3.7,2.79,4.18-1.48-.1-3-.4-4.65-.46-1.82-.61-3.63-1.54-2.79-3.72,1.71-.33,3.45-1.41,5.11-.46v-1.4c.47-.17.88.47.93.47Z"/>
    <path class="cls-10" d="M408.12,209.8c1.11.08,3,.59,4.07.16,1.18-.48-.09-1.89,1.51-1.55-.05.6.09,1.28,0,1.86,0,.05-.76.66-.46.93.14.12,1.58.04,1.99.47l2.19,2.78c-.15,0-.73.58-.89.45-.2-.17-.31-1.59-1.26-1.78-.76-.15-1.35.73-1.81.87-.2.06-.11-.67-.59-.9-1.91-.91-3.81-1.15-5.67-2.35-1.83-.78-.5-2.15.93-.93Z"/>
    <path class="cls-62" d="M330.53,334.27c1.84-1.11.88,1.03,1.04,1.26.09.13.69.09.8.46.6,1.98-1,4.2,2.01,3.36.31-.09.33-.6.53-.73,1.02-.63,1.56.3,1.22-2.28-.3-2.29-1.58-1.8-2.23-2.63-.73-.93,2.42-4.13,3.61-.84,1,2.77-.13,4.31,0,6.04-2.06,1.47-4.22.91-6.5.46-.04-1.47-.62-2.22-.46-5.11Z"/>
    <path class="cls-40" d="M286.85,337.99c.85.16,3.76-.28,4.13.08.11.11,0,.75.23,1.12.56.87.36.12.75,1.59.14.53.44,2.28.46,2.79l-4.18-.93,1.85-1.38c-.57-.12-2.63.15-2.79,0-.34-.34.83-2.72-.93-2.33.14-.31.34-.61.46-.93Z"/>
    <path class="cls-52" d="M260.37,330.09c.14,1.21-.49,1.88-.93,2.79l-.54-.29c-.66,1.47-1.41,1.72-2.24.76-1.64.5-2.82.78-3.72-.93.28-.89.22-1.55.46-2.32h6.97Z"/>
    <path class="cls-92" d="M270.13,337.99c.31.11.97-.08,1.39,0l-.92.92,2.08.94c.02-3.2,1.54-1.33,3.49-1.86.87.39,1.49,1.16,1.86,2.32-.15.31-.32.61-.46.93-1.38.42-7.92,1.77-8.35.69.22-.55.3-1.09-.01-1.62.17-.9-1.2-.89.93-2.32Z"/>
    <path class="cls-101" d="M300.79,79.28c-.47,1.71-.69,2.3-.93,4.18-.67,2.66-5.18,1.22-3.25-.93-.69-2.21-.87-3.67-.93-6.04,1.25,2.87,1.85,2.66,5.11,2.79Z"/>
    <path class="cls-66" d="M204.15,121.08c1.18-.53,1.11,1.48,1.42,1.96s.76.39,1.15,1.25c.8,1.78.67,2.83.22,4.68l-2.33-3.03c-1.75-.68-1.5-2.41-2.31-3.94.32-.57,1.19-.96,1.86-.93Z"/>
    <path class="cls-42" d="M411.37,188.43c.15-.07.35-.79.7-.93.48,1.65,1.72.91,3.02.46,2.28-.16-.06,2.21-.5,2.51-.48.33-1.2.16-1.65.45-1.42.89-3.64,3.69-5.28,1.22.45-.1,1.89.24,1.86-.24-.03-.51-1.44.11-.71-.7,1.03-1.45,2.95.15,3.49-1.39l-.93-1.4Z"/>
    <path class="cls-60" d="M333.78,89.04c-.22.63-.14.64-.71,1.88-.26.56.27,1.25.21,1.33-.1.15-2,.45-2.29,1.2-.08.22,1.37-.27.46,2.09-.49,1.35-1.78.81-1.86-.46.27-1.91-.12-5.39,1.39-6.5.07.12,2.14.43,2.57.88l.22-.42Z"/>
    <path class="cls-2" d="M269.2,340.31l2.33.24-1.86,1.15c2.11.7,6.54-2.26,7.9-.46.04.06.43,1.23.46,1.39l-10.22.46c.24-.69,1.24-2,1.39-2.79Z"/>
    <path class="cls-34" d="M296.61,86.25c1.06-.74,1.99.19,2.79,2.79-.6,1.71.02,2.15-.2,3.27-.26,1.33-1.26,2.68-1.2,4.16l-1.85-.47c1.3-2.94.89-6.54.46-9.75Z"/>
    <path class="cls-76" d="M364.45,316.62c.06,0,.16.51.47.63s.89-.22.92-.17c.68,1.01-.86.89-.88,1.14-.02.21.44.79.42,1.18-3.09.59-1.95,2.88-2.33,4.78-.02.09-1.19,1.1-1.39,1.26-.46-1.43.66-2.4.85-3.48.41-2.38-2.89-6.13,1.94-5.35Z"/>
    <path class="cls-83" d="M296.61,82.53c.02.08-.4.46-.34.7.32,1.26,2.65.53,3.59.23-.36,2.88.34,3.27-.46,5.57-2.16.49-.75-1.73-2.79-2.79-.19-1.47-1.78-4.19,0-3.72Z"/>
    <path class="cls-40" d="M386.75,131.3c-2.51,1.72-.37,1.06.57,1.38.63.22.62,1.64,1.75,1.4-1.03.94-1.75-.29-2.35.19-.51.42-.35,1.56-.46,1.67-.18.18-4.51-1.21-3.7,1.39-4.03-1.2,1.94-2.91,2.38-3.43.69-.84.22-2.3.45-2.58.17-.21,1.12.09,1.35-.03Z"/>
    <path class="cls-79" d="M350.97,320.8l-2.46,1.49-2.66.83s-.41-.36-.28-.92c.76-3.08,3.1-1.17,4.22-3.72.48.45,1.36.54,1.61,1.24s-.41.96-.44,1.07Z"/>
    <path class="cls-41" d="M366.77,119.23c-.93.79-2.96,1.69-3.07,1.84-.43.61.57,1.88.26,2.31-.14.19-3.84,2.19-4.16,1.66,1.3-1.56,1.13-3.54,1.86-5.34l.93,3.25c-.13-1.73-.18-2.93,1.87-2.79l-.48-.92h2.79Z"/>
    <path class="cls-51" d="M240.86,329.16c.02-.9.35-1.23.83-1.86.27-.36,2.22-2.26,2.29-2.41.24-.51-1.04-2.66.83-2.69,1.74-.02-1.38,4.93-1.17,5.09l1.4.23c-.49,1.13-1.31,1.5-2.32,2.09-.04-.34-.58-.87-.47-1.39-.11-.08-1.11.71-1.39.93Z"/>
    <path class="cls-16" d="M331.46,95.54c-.69,1.79-.19.68-.44,2.48-.05.34-.82.33-.98.63-.39.75-.32,2.82-2.3,2.92-.29-1.06.84-1.73.92-2.57.07-.72-.98-3.71.94-3.93.43-.05,1.32.44,1.86.46Z"/>
    <path class="cls-2" d="M279.42,78.82c1.15,1.74-1,3.18,1.39,4.18.48-.86,0-1.67,0-2.32,1.21.4.71.95.65,1.76-.18,2.26-.29,5.13-.66,7.28-.14.83.5,1.39-.91,1.17,1.06-2.17-.27-1.72-.4-2.08-.61-1.66,1.32-6.09-.99-7.44,1.43-.4.9-1.35.93-2.55Z"/>
    <path class="cls-84" d="M319.84,337.53c-.28,2.08,1.84,4.49,0,5.57-.7-.84-.55-1.36-1.86-.46.34-1.34-.77-2.16-.78-2.56s.94-1.19,1.24-1.62c-1.12-1.39,1.37-3.31,1.39-.93Z"/>
    <path class="cls-84" d="M256.65,333.35c2.31-.71.76-1.12.95-1.37.5-.64,2.58-.92,1.84.9-.07.14-.47.23-.39.57.05.19.35.25.39.36.29.49.28.9,0,1.39-.34.36-.9.43-.92.47-.34.63.42.85.46.92l-2.59-.9c.93-2.01-1.87-1.15.27-2.35Z"/>
    <path class="cls-70" d="M350.51,102.97c.19.25-.46,1.2.69.92l.24-.46c0,.12.61.52.47.93h-1.4c1.09,1.86-.14,1.17-.66,1.88-.63.86-.76,2.44-2.12,2.3-.21-1,1.01-1.66.95-2.55-.02-.29-.85-.19-.91-.26-.67-.91.6-.88.71-1.06.43-.7,1.05-3.05,2.04-1.7Z"/>
    <path class="cls-13" d="M319.84,337.53l-.24-.46c-.9-.26-.6.6-1.16,1.39-3.07-.63.46-2.28.47-2.59,0-.49-1.58-5.26.23-5.29,1.39-.02.22,3.66.32,4.3.2,1.35.65.62.38,2.66Z"/>
    <path class="cls-38" d="M407.19,210.73c-2.47-1.59-1.54.6-2.92.39-.69-.1-2.89-1.86-3.78-1.82-.48.02-.38,1.62-1.42,1.42-.65-.13-.97-1.97-.68-2.3.36-.41,3.98-.67,3,.91,1.35-.47,2.74-.09,3.97-.2,1.69-.15,1.1-1.52,2.76.66-.99-.07-1.03-.12-.93.93Z"/>
    <path class="cls-104" d="M225.05,112.29c.16.23-.45,1.06-.36,1.53.14.7,2.42,2.42.6,4.01-.76-.84-.49-2.27-.95-3.23-.1-.2-3.66-3.98-1.38-3.27.21.06,2.03.86,2.09.95Z"/>
    <path class="cls-92" d="M211.12,108.54c.72,1.01.58,1.52.96,2.45.15.36.83.31.83.55.05,3.13-3.09,2.87-3.15.46,0-.15,1.53-.24.43-2.52.34.25.61,1.61,1.39.92.07-.06-.67-1.35-.46-1.85Z"/>
    <path class="cls-68" d="M229.71,323.13l-.47-2.32c.53.1,3.81-.96,3.71.23-.02.3-1.08.5-1.38,1.05-.32.59-.27,2.08-.54,2.38-.2.22-.77-.02-.86.05l.46-1.86c-.1-.14-.63.37-.92.46Z"/>
    <path class="cls-105" d="M262.69,88.57c.06.59.06,1.19.31,1.75.36.81,1.42.21,1.09,1.5-2.8.3-2.49,1.02-3.72-1.39.98.09,1.56-1.27,2.32-1.86Z"/>
    <path class="cls-71" d="M350.51,329.16c-.1.16.25,1.12-.31,1.42l-4.34,2.3c0-.46,0-.93,0-1.39.67-.48,4.5-2.11,4.65-2.32Z"/>
    <path class="cls-92" d="M271.06,334.74c.07-.36-.14-1.25,0-1.38.98-.81,3.59.44,2.36,2.02-.28.36-2.18.62-2.84.75-.01-.5.38-1,.46-1.39Z"/>
    <path class="cls-57" d="M303.57,337.06l-1.42-1.2c.85-2.05.68-2.34.03-4.37,1.93-.46,1.79,5.17,1.38,5.57Z"/>
    <path class="cls-2" d="M278.49,337.06c.05,0,.89.43.93.46.27.44.27.75,0,.93-.1-.07-.33.06-.46,0-.59.21-.9.82-.93,1.86-1.28.08-1.98-1.17-1.86-2.32.31-.09.29-1.27,2.32-.93Z"/>
    <path class="cls-40" d="M163.27,252.53c1.98-.21,2.79-.54,4.58-.27.46.07,3.34-.11.79.8-1.3.47-3.11.2-4.44-.06-.37-.07-.78,0-.93-.46Z"/>
    <path class="cls-105" d="M378.85,120.62c-.06.07.05.53-.18.75-.97.94-2.22,1.39-3.07,2.5-.18-1.91,1.47-2.37,1.85-4.18.05,1.12.53,1.7,1.39.93Z"/>
    <path class="cls-30" d="M252.01,200.51c.7-.87,2.39-2.58,2.63-2.94,1.16-1.71,1.7-4.4,3.41-5.88-.2.51-.11,1.22-.51,2.03-1.09,2.22-3.34,5.52-5.53,6.79Z"/>
    <path class="cls-31" d="M236.1,94.29c.08.03,1.44,1.16.58,1.5-.13.05-2.69.32-2.79.22-.67-.76.53-2.36,2.21-1.72Z"/>
    <path class="cls-60" d="M418.34,191.68c-.28.55-.43,1.57-.9,2.02-.77.72-1.88-.37-1.42,2.16-.27,0-1.79-.07-1.86,0-1.21-2.05,1.46-1.99,2.78-2.33l-.92-.92,2.32-.94Z"/>
    <path class="cls-86" d="M311.95,84.85l1.85-4.18c-.16,1.39.2,4.1-1.85,4.18Z"/>
    <path class="cls-71" d="M172.56,252.53c-.32.34-3.31.78-2.79-.92.65-.4,3.9-.25,2.79.92Z"/>
    <path class="cls-70" d="M347.72,109.01c.35.31-.89,2.78-1.85,2.32-.57-1.27.94-3.13,1.85-2.32Z"/>
    <path class="cls-44" d="M160.94,207.48c.73,1.25-2.36.74-2.83.64-.86-.18-1.04-.09-.88-1.11l3.72.46Z"/>
    <path class="cls-78" d="M161.87,203.76c-.68-.04-.65-.94-1.07-1.28-.5-.4-1.59.41-1.25-1.04,1.48-.22,2.5.84,2.32,2.32Z"/>
    <path class="cls-86" d="M204.15,120.62v.46c-.14.06-.72,1.38-1.86.93-.15-.29-.29-.72-.46-.93l2.32-.46Z"/>
    <path class="cls-14" d="M239.93,91.82h-.92s0-2.78,0-2.78c1.18.36.94,1.77.92,2.78Z"/>
    <path class="cls-68" d="M200.43,312.91c.64-1.01.58-3,1.86-2.78,0,1.71-.58,2.21-1.86,2.78Z"/>
    <path class="cls-92" d="M220.35,312.97c.06.04.32,1.04.53,1.32-.55-.22-1.24.6-1.39.47-.6-.51-.77-2.88.86-1.79Z"/>
    <path class="cls-77" d="M235.24,91.4c.11.17.23,1.31-.19,1.35-3.46-1.75-.49-2.44.19-1.35Z"/>
    <path class="cls-32" d="M421.59,187.5c-.82,0-1.55.46-1.86.46s-.65.04-.93,0l2.09-1.86.69,1.39Z"/>
    <path class="cls-70" d="M350.51,100.18c.43.76.11,1.21,0,1.86l-1.86-.7,1.41-.24-.48-.92c.28-.07.76.09.93,0Z"/>
    <path class="cls-76" d="M210.19,168.46c.35-1.06.2-2.4,1.39-3.25-.37.92-.18,2.45-1.39,3.25Z"/>
    <path class="cls-39" d="M145.14,219.56s.17.98-.22.91c-.36-.4-2.09-.65-2.09-1.15,0-.97,2.05-.05,2.31.24Z"/>
    <path class="cls-47" d="M289.18,76.97c-.28,1.02-.84,1.58-1.85,1.85.11-1.36.39-2.2,1.85-1.85Z"/>
    <path class="cls-61" d="M229.24,207.94c.08,2.61-1.01,1.54-1.39-.46.49.11,1.06.41,1.39.46Z"/>
    <path class="cls-52" d="M252.47,332.88c-.06.13.06.35,0,.46h-2.79c.44-1.43,1.68-.52,2.79-.46Z"/>
    <path class="cls-71" d="M90.32,211.65c-1.81.28-1.43-.23-1.39-1.85l1.39,1.85Z"/>
    <path class="cls-54" d="M312.87,187.97c-.96-1.48-.39-1.33.93-1.86-.22.43-.76,1.49-.93,1.86Z"/>
    <path class="cls-52" d="M200.9,75.1c-.48.48-1.86-.92-1.39-1.39s1.86.92,1.39,1.39Z"/>
    <path class="cls-18" d="M376.53,78.36c-.6,1.73-2.62.58-1.16-.46l1.16.46Z"/>
    <path class="cls-23" d="M449.47,175.89h-.92s0-1.86,0-1.86c.92.25,1.04.99.92,1.86Z"/>
    <path class="cls-15" d="M362.13,97.86c-.15-.84.63-1.52,1.38-1.86.15.84-.63,1.52-1.38,1.86Z"/>
    <path class="cls-92" d="M392.32,292.01c.71.87-.87,1.47-1.39.22-.46-1.1,1.32-.3,1.39-.22Z"/>
    <path class="cls-14" d="M226.92,89.97c.27.27-.39,1.38-.69,1.38-1.29,0,0-2.08.69-1.38Z"/>
    <rect class="cls-29" x="379.32" y="114.12" width="1.39" height=".92"/>
    <path class="cls-71" d="M322.63,89.5h-1.39c.35-1.88.86-1.76,1.39,0Z"/>
    <rect class="cls-92" x="263.63" y="83.47" width=".92" height="1.39"/>
    <path class="cls-27" d="M157.69,370.04c-.27.27-1.38-.39-1.38-.69,0-1.29,2.08,0,1.38.69Z"/>
    <path class="cls-24" d="M257.58,41.2c-.07.11.14.61-.09.84s-.73.02-.84.09l-.46-.92,1.17-.46.23.45Z"/>
    <path class="cls-76" d="M211.59,81.14l-1.39.47v-1.39c.57-.3,1.61.73,1.39.92Z"/>
    <path class="cls-56" d="M164.19,246.96l-1.39,2.32c-.68-1.03.12-2.32,1.39-2.32Z"/>
    <rect class="cls-40" x="390.93" y="125.27" width=".92" height="1.39"/>
    <path class="cls-76" d="M361.19,100.65c.1.08-1.21,2.24-1.39,1.85-.4-.84.71-2.4,1.39-1.85Z"/>
    <path class="cls-49" d="M103.79,167.53c.27.27-.39,1.38-.69,1.38-1.29,0,0-2.08.69-1.38Z"/>
    <path class="cls-102" d="M278.96,338.45c-.4.56-.64,1.24-.93,1.86v-2.32c.87-.26.83.42.93.46Z"/>
    <path class="cls-15" d="M94.04,236.27c-.53-1.38-.01-.87,0-1.39.7.07.7,1.33,0,1.39Z"/>
    <path class="cls-15" d="M408.12,143.85v1.39s-1.39-.47-1.39-.47c-.22-.19.82-1.22,1.39-.92Z"/>
    <path class="cls-14" d="M222.74,102.04c-.19-.6.7-2.34.92-1.86.13.83-.03,1.63-.92,1.86Z"/>
    <path class="cls-83" d="M423.45,100.19v.92s-1.39,0-1.39,0c.16-.67.75-1.06,1.39-.92Z"/>
    <path class="cls-71" d="M169.77,243.24h-.92c-.15-.68.2-.97.7-1.39l.23,1.39Z"/>
    <path class="cls-39" d="M148.4,110.87c.02.31,0,.62,0,.93h-1.39c.1-.7.8-.88,1.39-.93Z"/>
    <path class="cls-43" d="M178.6,148.48l-1.39.47c-.05-1.3.91-1.86,1.39-.47Z"/>
    <path class="cls-53" d="M127.02,117.83h-.92c-.15-.68.2-.97.7-1.39l.23,1.39Z"/>
    <path class="cls-106" d="M228.78,345.43c-.16.67-.75,1.06-1.39.92v-.92s1.39,0,1.39,0Z"/>
    <path class="cls-62" d="M432.74,153.6c.51.51-.42,1.43-.92.92s.42-1.43.92-.92Z"/>
    <polygon class="cls-105" points="374.67 124.8 373.28 124.8 373.28 124.34 374.66 123.87 374.67 124.8"/>
    <path class="cls-28" d="M112.16,278.53c-.58.31-1.62-.74-1.39-.92.58-.31,1.62.74,1.39.92Z"/>
    <path class="cls-81" d="M176.74,300.83c-.31-.58.74-1.62.92-1.39.31.58-.74,1.62-.92,1.39Z"/>
    <path class="cls-86" d="M407.19,302.23c-.39,1.01-.77,1.1-1.39.23l1.39-.23Z"/>
    <path class="cls-63" d="M223.66,65.35c.51.51-.42,1.43-.92.92s.42-1.43.92-.92Z"/>
    <path class="cls-78" d="M189.28,330.09c-.58.31-1.62-.74-1.39-.92.58-.31,1.62.74,1.39.92Z"/>
    <path class="cls-68" d="M221.34,352.39c.51.51-.42,1.43-.92.92s.42-1.43.92-.92Z"/>
    <path class="cls-8" d="M215.3,43.98c-.26-1.46,1.21-1.38.93,0-.1.04-.84.04-.93,0Z"/>
    <path class="cls-14" d="M142.35,194.94c.51.51-.42,1.43-.92.92s.42-1.43.92-.92Z"/>
    <path class="cls-9" d="M404.87,189.36c-.61.06-1.25-.04-1.86,0,.35-.07,1.01-1.08,1.86,0Z"/>
    <path class="cls-75" d="M361.66,76.96c.51.51-.42,1.43-.92.92s.42-1.43.92-.92Z"/>
    <path class="cls-39" d="M145.61,202.37c.51.51-.42,1.43-.92.92s.42-1.43.92-.92Z"/>
    <path class="cls-81" d="M185.1,287.82c-.97.13-1.06.05-.92-.92l.92.92Z"/>
    <path class="cls-43" d="M260.37,56.53v.46c-1.93.23-1.93-.69,0-.46Z"/>
    <path class="cls-52" d="M259.44,335.2v-1.39c.18.5.97.34,0,1.39Z"/>
    <path class="cls-83" d="M121.44,224.66h-.46c-.23-1.93.69-1.93.46,0Z"/>
    <path class="cls-102" d="M279.42,337.53c.68.66.6,1.57.23,1.39-.3-.07-.21-.45-.23-.46v-.93Z"/>
    <path class="cls-68" d="M232.49,338.92l-.92.92c-.13-.97-.05-1.06.92-.92Z"/>
    <path class="cls-2" d="M174.42,252.52c-.97.13-1.06.05-.92-.92l.92.92Z"/>
    <path d="M240.09,195.57c-11.63,4.8-24.46-3.61-22.4-16.63,7.7-43.02,51.94-6.85,22.4,16.63Z"/>
    <path d="M347.18,178.75c16.3,14.93.88,46.23-21.43,34.8-12.95-13.81,3.97-44.3,21.43-34.8Z"/>
    <path class="cls-9" d="M403.47,190.29l3.71,2.33-.93,1.39c-.51-.11-1.99-.34-2.24-1.03-.16-.45.39-.92.27-1.21-.05-.12-.38.17-.82-1.48Z"/>
    <path class="cls-58" d="M237.6,175.89c-7.39,9.81-19.88-2.01-8.83-9.29,4.16-5.62,13.12,2.59,8.83,9.29Z"/>
    <path class="cls-60" d="M237.6,175.89c.19-.6.5-3.66.5-4.41.01-4.55-3.93-6.33-7.94-6.27,7.48-3.02,10.88,4.69,7.43,10.68Z"/>
    <path class="cls-58" d="M338.89,194.93c-.15.16-.29.33-.46.46-6.63,6.4-14.76-2.7-8.19-9.75,8.62-9.26,16.08,2.61,8.66,9.29Z"/>
    <path class="cls-84" d="M338.43,195.4c-2.54,5.8-13.09,1.23-11.33-5.02,1.96-10.22,18.02-12.13,14.96.5-5.92,11.94,4.76-10.35-6.53-7.93-10.68,1.96-7.49,19.61,2.9,12.45Z"/>
  </g>
</svg>