<?xml version="1.0" encoding="UTF-8"?>
<svg id="Fish" xmlns="http://www.w3.org/2000/svg" xmlns:xlink="http://www.w3.org/1999/xlink" viewBox="0 0 586.14 401.97">
  <defs>
    <style>
      .cls-1 {
        fill: url(#linear-gradient);
      }

      .cls-2 {
        fill: #0f1514;
      }

      .cls-3 {
        fill: #faf6d2;
      }
    </style>
    <linearGradient id="linear-gradient" x1="189.6" y1="180.84" x2="379.81" y2="273.11" gradientUnits="userSpaceOnUse">
      <stop offset="0" stop-color="#7adec5"/>
      <stop offset=".14" stop-color="#7eddc3"/>
      <stop offset=".31" stop-color="#8cdbbe"/>
      <stop offset=".48" stop-color="#a3d9b7"/>
      <stop offset=".66" stop-color="#c3d5ac"/>
      <stop offset=".85" stop-color="#ecd19f"/>
      <stop offset=".92" stop-color="#ffcf99"/>
    </linearGradient>
  </defs>
  <g id="fish">
    <path class="cls-1" d="M386.59,250.94c-2.19-5.88-7.08-14.99-14.42-14.45-.37.03-.72.1-1.06.19-1.95-.81-4.02-1.45-6.16-1.96-6.41-1.53-13.7-3.07-18.23,2.33-1.43.23-2.86.53-4.28.88-.13,0-.26,0-.39,0-5.36.19-10.73.49-16.1.57-2.22.04-4.01-.51-6.15-.92-.21-.04-.43-.08-.65-.11.26-2.02,2.87-3.79,4.1-5.08,1.61-1.69,3.17-3.43,4.69-5.2,2.06-2.41,4.7-4.96,4.44-8.41-.61-7.97-14.68-7.56-20.35-7.55-1.02,0-2.03.05-3.04.13,1.25-1.13,2.29-2.11,2.68-2.49,5.65-5.49,6.45-12.71,6.04-20.12.21-.91.18-1.88-.04-2.91-.05-.23-.13-.45-.22-.66.27-1.39-.04-2.92-1.25-4.28l-1.25-1.4c-.51-.58-1.05-.99-1.6-1.25-3.8-3.2-8.76-6.02-13.49-5.11-2.53-.28-5.22-.2-8.04.22-6.5.99-12.89,3.11-18.96,5.6-3.2,1.31-12.58,7.89-15.37,4.52-1.02-1.22-2.19-1.72-3.33-1.7-2.82-3.92-6.84-6.66-11.63-7.94-.41-.11-.79-.15-1.17-.17-.61-.48-1.23-.95-1.84-1.44h-.01c-.33-.25-.66-.52-1-.78-.06-.04-.11-.08-.17-.11-1.29-1.38-2.56-2.78-3.79-4.21-3.96-4.61-7.43-9.69-11.74-13.98-4.06-4.04-8.91-7.18-13.79-10.12-4.97-2.99-9.99-5.96-15.8-6.88-.69-.11-1.32-.08-1.92.04-.06-.02-.12-.05-.18-.07-.52-.17-1.04-.24-1.55-.24-1.12-.19-2.29-.02-3.39.54-1.97,1.01-3.96,2.58-5.17,4.48-.51.79-.83,1.68-.98,2.6-.2.28-.36.59-.5.91-.52.62-.84,1.39-1,2.19-.69.72-1.1,1.65-1.27,2.64-.14.33-.25.69-.33,1.09-.81,4.1-.78,7.89.2,11.96.27,1.12.77,1.96,1.4,2.54.07.36.14.73.21,1.09-.48.96-.67,2.07-.37,3.26,1.3,5.02,2.66,10.03,4.36,14.87-.06.88.14,1.84.68,2.82.36.65.75,1.29,1.12,1.93,1.75,4.28,3.86,8.39,6.48,12.24.11.4.25.79.48,1.19.62,1.1,1.27,2.19,1.92,3.26-.41,1.18-.34,2.57.51,4,5.31,9.03,11.92,17.14,19.7,24.1,1.73,1.77,3.5,3.51,5.31,5.22,1.31,1.48,2.68,2.89,4.1,4.24.12.58.38,1.19.79,1.82,2.52,3.84,5.2,7.56,8.03,11.17-.35,1.54-.09,3.22,1.08,4.53,10.65,11.87,25.3,18.77,41.14,19.95,5.45.41,6.1-6.69,2.52-9.32-3.33-2.44-6.17-5.41-8.86-8.52.04-.38.07-.75.08-1.12.82-.61,1.44-1.46,1.69-2.54.06-.24.1-.49.15-.74.26.04.53.09.79.13,1.38,1.24,3.36,1.69,5.14.93.03,0,.06,0,.09.01,6.37.79,12.73,1.61,19.12,2.24,10.99,1.09,22.46.05,32.99,3.52-.07,1.4.38,2.88,1.44,3.81,5.35,4.67,14.5,7.82,21.35,9.5,7.37,1.8,15.1,1.87,22.21-.97,1.43-.57,2.36-1.58,2.87-2.73,2.43-1.05,4.69-2.52,6.66-4.51,5.14-5.18,6.82-12.42,4.27-19.27Z"/>
    <path class="cls-2" d="M211.01,142.32c14.05,8.89,20.91,17.78,33.19,27.33,4.84,3.76,10.93,6.3,15.45,10.6,3.82.81,16.4-7.17,21.28-8.9,8.56-3.03,14.78-4.06,23.61-2.04,8.05,1.85,12.45,4.23,15.54,12.46,2.86,7.62,1.26,17.56-3.37,24.15-.68.96-2.34.19-1.99,1.7,9-.67,16.89-2.21,20.73,7.77,4.33,11.27-5.21,13.91-12.74,18.76-1.2.77-1.99.48-1.98,2.47,7,.28,13.7-2.83,20.61-3.88,12.97-1.96,34.25-4.85,43.38,6.38,5.2,6.4,8.18,15.1,6.32,23.31-1.2,5.27-6.97,11.79-11.4,14.6-15.54,9.87-33.51,4.59-48.6-3.23-3.15-1.63-8.1-6.34-11.02-6.98-4.05-.89-9.47.07-13.48-.43-5.73-.72-12.93-2.93-18.37-3.72-3.4-.49-7.06.04-10.44-1.04l2.99,2.99c3,3,6.81,5.83,4.55,13.06-2,6.39-9.62,6.34-15.09,5.98-16.86-1.11-43.51-20.38-49.87-36.12-.66-1.64-.31-4.02-.76-4.74-.38-.59-8.1-6.55-10.34-9.16-19.37-22.63-33.57-45.4-35.47-76.53-1.25-20.45,8.36-31.14,28.23-21.23,3.08,1.53,6.73,4.96,9.06,6.43ZM261.26,186.69c-6.67-4.17-13.82-8.13-20.05-13.06-13.77-10.89-24.28-25.06-40.44-32.56-23.15-10.75-23.64,6.52-20.77,24.77,1.86,11.82,6.12,22.86,10.72,33.78,3.99,6.01,8.99,22.01,21.99,32.01l13,14c8.23,18.46,30.69,33.03,51,32.99-3.86-4.56-8.29-6.35-13-8.99-.65-.37-3.06-1.64-3.71-2-1.75-.95-11.87-4.51-12.29-5.02-.31-.37-.03-2.33.46-3.02,2.86-4.02,15.41,8.61,20.54,7.03-2.05-5.25-11.49-4.12-12.98-9.51-.73-2.64,5.68-.42,6.22-.21.71.28,5.84,5.06,4.75,1.26-1.19-4.17-21.32-16.44-25.98-18.52-.37-.17-.89-1.16-1.91-1.56-3.71-1.47-11.76-.14-10.09-6.44,15.27.7,27.25,11.58,39.23,19.99.98.69,1.1,2.33,2.44,2.81,22.7,7.99,44.03,5.64,66.89,6.2,1.92.05,4.01-1.01,3.45,2-.48.14-1.2,1.91-2.25,2.32-2.96,1.16-5.49.35-8.27.68-1.41.17-2.85.55-1.48,1.99,1.13,1.18,19.18,7.93,21.98,8.53,9.41,2.01,27.85,1.94,31.01-9.51-1.01-.86-20.27-1.45-23.26-2.24-1.38-.37-7.73-3.72-5.74-5.76,1.13-1.16,27.46,4.61,31.43,4.86,4.69-4.87,2.06-12.81-1.05-17.94-4.05.24-22.2,7.1-24.37,4.06-3.17-4.43,18.9-7.21,20.99-8-2.14-2.94-6.1-4.43-9.61-4.87-2.92-.37-10.1-1.09-12.77-1.01s-25.49,3.65-26.62,4.38c-5.79,3.74,13.55,5.51,10.01,11.51-.07,0-.46.86-1.27.75-9.32-4.34-18.16-9.63-27.06-14.76-1.51-.87.34-2.83.33-3.99,2.96-.15,18.86-9.38,18.75-13.32-.42-14.21-24.28-6.15-30.75-.68-.69-.3-2.86.44-4.04-.44-1.6-1.19-.64-4.06-.96-4.56,6.87-4.79,14.02-6.43,18.19-14.31,6.21-11.73-5.91-1.58-9.82.18-1.2.54-6.64,2.86-7.37,2.12-3.74-3.8,17.03-11.59,18.49-14,2-3.31-.72-11.35-5.51-9.59-10.35,6.09-21.19,14.11-32.98,16.6-.95-1.31-3.36-.88-1-4,4-1,4.9-2.06,7.29-3.21,8.17-3.91,17.53-7.07,23.71-13.78-14.03-3.72-25.71,1.5-37.74,7.79-1.25.66-6.57,4.35-7.71,4.26Z"/>
    <path class="cls-2" d="M213.41,193.93c.38.36,5.08,8.33,5.37,9.12,1.66,4.4,1.55,13.31-4.55,13.46-7.87.18-17.68-20.6-8.24-25.17,1.87-.91,6.07,1.31,7.41,2.59Z"/>
    <path class="cls-3" d="M209.64,193.5c.19.18,2.48,4.07,2.62,4.45.81,2.15.76,6.5-2.22,6.57-3.84.09-8.64-10.06-4.02-12.3.92-.44,2.96.64,3.62,1.27Z"/>
  </g>
</svg>