<?xml version="1.0" encoding="UTF-8"?>
<svg id="Starfish" xmlns="http://www.w3.org/2000/svg" xmlns:xlink="http://www.w3.org/1999/xlink" viewBox="0 0 586.14 401.97">
  <defs>
    <style>
      .cls-1 {
        fill: url(#radial-gradient);
      }

      .cls-2 {
        fill: #090704;
      }

      .cls-3 {
        fill: #faf6d2;
      }
    </style>
    <radialGradient id="radial-gradient" cx="280.25" cy="196.74" fx="280.25" fy="196.74" r="195.54" gradientUnits="userSpaceOnUse">
      <stop offset="0" stop-color="#ce6d62"/>
      <stop offset=".18" stop-color="#cf7065"/>
      <stop offset=".35" stop-color="#d37c6e"/>
      <stop offset=".52" stop-color="#d9907f"/>
      <stop offset=".68" stop-color="#e2ac95"/>
      <stop offset=".85" stop-color="#edcfb2"/>
      <stop offset="1" stop-color="#faf6d2"/>
    </radialGradient>
  </defs>
  <g id="starfish">
    <path class="cls-1" d="M468.89,213.54c-2.02-5.15-6.41-9.74-9.92-13.94-.84-1.01-1.81-1.51-2.77-1.64-.57-.59-1.16-1.15-1.8-1.68-4.23-3.52-9.52-5.8-14.02-8.99-4.87-3.45-9.67-6.08-15.42-7.76-6.75-1.98-13.53-3.72-19.97-6.59-1.16-.52-2.28-.59-3.3-.35-.14.02-.27.03-.4.06-2.35-.8-4.7-1.42-7.14-1.86-1.68-.97-3.3-2.1-4.87-2.91-3.9-2.02-7.97-3.77-12.1-5.26-3.93-1.42-8.25-2.17-11.93-4.18-3.91-2.13-7.23-5.49-10.62-8.34-.16-.13-.32-.25-.48-.36-4.95-10.91-1.9-23.36,1.02-34.45,3.38-12.86,6.57-25.72,8.92-38.81,2.3-12.79,3.99-25.7,5.08-38.65.47-5.63,1.01-11.58-1.91-16.7-2.52-4.41-6.71-7.37-11.56-8.67-2.6-.69-4.74.63-5.75,2.73-8.84.69-17.73,7.47-24.3,12.54-9.96,7.69-18.26,17.18-24.68,27.99-.35.6-.57,1.18-.68,1.75-5.62,6.31-10.48,13.27-14.47,20.78-.32.6-.5,1.21-.56,1.81-4.24,5.69-8.03,11.69-10.97,18.28-3.17,7.11-5.87,15.37-10.9,21.5-2.13,2.15-4.42,4.11-6.93,5.88-2.2.2-4.52-.06-6.7-.18-8.41-.44-16.76-1.47-25.02-3.09-6.43-2.65-13.05-4.21-19.78-5.09-2.28-.71-4.56-1.44-6.84-2.21-3.76-1.26-7.64-2.46-11.65-2.46-4.25,0-8.25,1.96-12.5,1.35-7.54-1.09-14.48-3.81-22.21-4.32-7.25-.47-14.59.16-21.69,1.68-7.08,1.51-13.98,4.07-20.38,7.47-4.42,2.34-10.12,5.21-12.9,9.61-1.73.34-3.13,1.08-4.61,2.39-2.89,2.55-1.52,6.09,1.08,7.62.69,2.19,2.06,4.37,3.79,6.45,1.97,5.67,5.96,9.7,11.14,12.68,1.43.82,2.91,1.53,4.41,2.21.22.34.49.66.83.97,10.74,9.88,23.3,17.38,37.02,22.02,2.13,3.42,5.94,5.21,10.19,6.97,8.51,3.52,17.77,6.42,25.89,10.77,1.67.9,2.75,2.06,3.39,3.39-.08,1.13.18,2.28.76,3.22.2,4.63-2.61,10.16-4.34,14.02-.66,1.48-1.35,2.94-2.05,4.39-.59.39-1.13.93-1.58,1.67-2.37,3.85-4.83,7.64-7.32,11.4-.9.16-1.79.65-2.56,1.56-4.62,5.4-9.05,10.95-13.28,16.65-.43.31-.84.71-1.2,1.2-1.72,2.32-3.36,4.67-4.95,7.06-.54.2-1.06.47-1.51.85-4.67,3.93-8.51,8.69-11.35,14-.42.23-.83.52-1.21.91-3.38,3.51-5.82,7.71-7.09,12.24-1.64,2.9-2.4,6.19-2.32,9.59-.04.09-.07.18-.1.27-1.2.6-2.17,1.62-2.51,3.02-1.25,5.21.32,10.01,3.83,13.26,5.4,5.95,12.65,6.96,20.03,5.78,1.06.68,2.38,1.04,3.82.79,2.59-.44,5.15-.97,7.68-1.59,1.2,1.79,3.58,2.94,5.58,2.16,16.72-6.46,32.9-14.24,48.24-23.51,7.55-4.56,14.63-9.8,22.11-14.46,7.59-4.73,16.02-8.13,24.79-4.51,1.25.51,2.35.49,3.25.11,2.8,1.12,5.05,4.34,6.93,6.51,2.73,3.16,5.22,6.51,7.69,9.88,3.16,4.3,6.43,8.56,9.54,12.91,1.13,4.26,2.96,8.27,6.64,10.22,2.88,5.12,5.34,10.47,8.28,15.55,3.37,5.82,7.35,11.26,11.73,16.35-.19,1.29.27,2.65,1.7,3.77,5.28,4.14,8.92,9.89,14.06,14.17,5.14,4.29,11.27,6.26,17.8,7.22,5.81.86,12.58,1.46,17.26-2.86,4.92-4.54,6.82-12.98,8.59-19.21,4.18-14.74,5.06-29.76,4.08-44.98-.96-14.9-1.98-29.79-2.99-44.68.38-.89.54-1.94.38-3.12-.12-.82-.1-1.6-.01-2.35.08-.08.17-.17.25-.26,3.17-3.69,11.35-4.23,15.87-5.41,6.03-1.58,11.94-2.65,18.14-3.3,5.62-.59,11.32-1.19,16.66-3.15,2.35-.86,4.59-2.34,7.13-2.52,2.81-.21,5.51.27,8.35-.2,5.07-.83,9.83-3.11,13.97-6.1,4.82-3.49,8.4-6.44,9.64-12.34,1.14-5.47,2.73-11.15.6-16.58Z"/>
    <path class="cls-3" d="M348.18,44.25c-8.24-2.73-13.27,4.18-13.17,12.23,6.42,15.64,28.86-4.41,13.17-12.23ZM334.98,74.7c-11.07-8.86-16.52,20.05-1.45,14.51,5.23-2.58,8.37-12.96,1.45-14.51ZM318.01,107.98c-7.94-3.69-14.06,2.24-10.45,10.92,7.62,1.83,13.59-2.83,10.45-10.92ZM145.95,149.12c8.86,4.77,15.23-5.16,6.75-11.38-7.68-2.07-12.47,5.67-6.75,11.38ZM187,152.16c-9.61-8.44-22.38,5.14-10.09,12.33,8.09,1.92,13.93-4.76,10.09-12.33ZM276.67,153.15c-4.29-2.42-8.99.3-9.25,5.14-1.19,14.24,19.79,2.09,9.25-5.14ZM218.13,181.6c5.97-5.46,1.33-18.09-6.44-13.77-11.26,4.52-3.89,26.1,6.44,13.77ZM317.67,182.63c9.53,4.79,13.01-9.69,3.43-11.23-6.7-.08-8.42,7.7-3.43,11.23ZM375.77,201.26c-5.32-7.27-14.83,3.19-10,9.76,7.46,9.99,19.96-4.45,10-9.76ZM392.02,215.7c5.38,3.73,13.86,1.08,12.73-6.73-4.34-11.84-19.02-3.56-12.73,6.73ZM431.53,210.73c-9.17-8.22-17.82,4.68-12.15,13.11,8.74,6.72,19.25-5.1,12.15-13.11ZM226.65,248.71c-5.39-16.06-22.25,5.27-7.41,8.59,4.89,1.11,10.38-4.79,7.41-8.59ZM329.47,259.54c-3.78-4.65-9.81-3.71-11.74,1.63-1.63,12.85,14.66,8.89,11.74-1.63ZM189.88,268.69c-12.21-4.46-15.1,16.66-.7,13.66,5.15-2.69,4.64-9.81.7-13.66ZM160.17,294.52c-8.19-2.3-16.77,4.16-9.77,11.94,8.58,5.42,18.11-4.59,9.77-11.94ZM339.98,313.96c4.79-10.39-6.91-16.97-12.78-7.64-5.68,9.08,6.8,15.01,12.78,7.64ZM336.46,343.51c-3.24,6.81,4.49,12.96,9.43,7.75,6.23-7.71-4.47-17.9-9.43-7.75Z"/>
    <path class="cls-2" d="M276.67,153.15c10.54,7.24-10.45,19.37-9.25,5.14.27-4.83,4.96-7.56,9.25-5.14Z"/>
    <path class="cls-2" d="M317.67,182.63c-5-3.53-3.27-11.31,3.43-11.23,9.58,1.55,6.1,16.02-3.43,11.23Z"/>
    <path class="cls-2" d="M367.2,12.78c20.7,39.15-10.7,85.89-12.25,127.5,7.56,23.68,73.65,31.92,95.92,48,16.84,9.75,37.71,41.19,13.84,54.4-18.47,19.02-71.92,8.88-82.87,24.62,1.95,35.8,7.43,77.68-7.31,111.15-31.77,25.04-58.78-14.25-73.17-39.76-12.82-18.93-21.97-41.59-41.39-54.02-40.48,15.06-78.74,56.08-126.93,42.01-42.7-28.9,57.79-89.91,52.63-123.08-27.04-9.75-53.23-21.16-75.33-40.22-14.17-11.51-31.89-25.33-13.16-42.53,36.86-25.48,88.17-5.49,129.22-4.24,5.96,1.07,26.84,8.93,31.5,2.86,22.12-32.42,57.77-125.34,109.31-106.69ZM132.93,173.14c17.98,10.9,36.32,19.56,56.49,26,3.83,3.28,4.23,7.31,1.85,11.94-13.16,38.28-52.82,57.34-63.16,97.48-.41,28.36,49.11,11.05,64.42,6.86,17.65-11.64,36.74-19.75,53.98-32.47,9.45-7.97,20.84-1.88,27.91,6.1,24.64,26.69,34.56,65.27,64.61,87.31,59.57,27.27,34.09-86.33,38.25-116.95,28.29-10.67,64.37-3.69,89.32-24.57,13.53-57.42-85.3-55.86-116.3-85.31-3.89-17.21,4.69-35.71,7.71-53.28,36.48-127.08-32.02-85.96-77.26-8.84-7.05,13.88-12.78,42.12-31.86,40.08-45.36-5.37-112.15-30.25-150.5.8-15.82,14.28,24.13,37.39,34.53,44.84Z"/>
  </g>
</svg>