<?xml version="1.0" encoding="UTF-8"?>
<svg id="Turtle" xmlns="http://www.w3.org/2000/svg" xmlns:xlink="http://www.w3.org/1999/xlink" viewBox="0 0 586.14 401.97">
  <defs>
    <style>
      .cls-1 {
        fill: #ce6d62;
      }

      .cls-2 {
        fill: #050505;
      }

      .cls-3 {
        fill: url(#linear-gradient-4);
      }

      .cls-4 {
        fill: url(#linear-gradient-3);
      }

      .cls-5 {
        fill: url(#linear-gradient-2);
      }

      .cls-6 {
        fill: url(#linear-gradient);
      }

      .cls-7 {
        fill: #e8b0b3;
      }

      .cls-8 {
        fill: #7adec5;
      }

      .cls-9 {
        fill: #faf6d2;
      }
    </style>
    <linearGradient id="linear-gradient" x1="214.6" y1="133.67" x2="426.78" y2="352.43" gradientUnits="userSpaceOnUse">
      <stop offset="0" stop-color="#ce6d62"/>
      <stop offset=".19" stop-color="#b48e7f"/>
      <stop offset=".42" stop-color="#9bb19d"/>
      <stop offset=".64" stop-color="#88c9b3"/>
      <stop offset=".84" stop-color="#7dd8c0"/>
      <stop offset="1" stop-color="#7adec5"/>
    </linearGradient>
    <linearGradient id="linear-gradient-2" x1="213.5" y1="221.8" x2="464.2" y2="361.4" gradientUnits="userSpaceOnUse">
      <stop offset="0" stop-color="#ce6d62"/>
      <stop offset=".12" stop-color="#b88a7b"/>
      <stop offset=".26" stop-color="#a1a896"/>
      <stop offset=".42" stop-color="#90c0aa"/>
      <stop offset=".58" stop-color="#83d0b9"/>
      <stop offset=".76" stop-color="#7cdac2"/>
      <stop offset=".99" stop-color="#7adec5"/>
    </linearGradient>
    <linearGradient id="linear-gradient-3" x1="162.74" y1="246.2" x2="243.36" y2="298.83" gradientUnits="userSpaceOnUse">
      <stop offset="0" stop-color="#ce6d62"/>
      <stop offset="1" stop-color="#7adec5"/>
    </linearGradient>
    <linearGradient id="linear-gradient-4" x1="75.75" y1="167.07" x2="252.34" y2="167.07" gradientUnits="userSpaceOnUse">
      <stop offset="0" stop-color="#ce6d62"/>
      <stop offset=".06" stop-color="#c4796c"/>
      <stop offset=".25" stop-color="#a99d8c"/>
      <stop offset=".43" stop-color="#94b9a5"/>
      <stop offset=".62" stop-color="#85cdb6"/>
      <stop offset=".81" stop-color="#7cd9c1"/>
      <stop offset="1" stop-color="#7adec5"/>
    </linearGradient>
  </defs>
  <g id="turtle">
    <path class="cls-6" d="M504.19,282.64c-1.98-9.52-2.91-19.18-3.02-28.9-.05-4.12-4.16-5.6-7.1-4.45-8.02-.17-16.02-1.58-23.96-2.62-7.96-1.04-15.99-1.63-23.46-4.76-3.32-1.39-6.58-2.99-10.09-3.85-3.38-.83-6.9-.95-10.32-1.57-7.8-1.4-15.17-4.46-22.46-7.46-.85-.35-1.62-.45-2.32-.36-.45-.42-.99-.78-1.63-1.05-9.31-3.89-17.45-10.07-25.79-15.63-3.89-2.6-8.09-4.81-11.87-7.55-4.22-3.05-7.25-7.52-10.51-11.51-13.79-16.89-28.16-33.29-43.05-49.22-.41-.44-.84-.77-1.28-1.01-11.65-12.13-25.52-22.14-40.87-29.05-11.91-5.37-38.96-9.77-33.22-28.46.41-1.34.25-2.53-.27-3.51.22-1.04.06-2.21-.63-3.41-.3-.52-.6-1.03-.9-1.54-.48-3.31-1.49-6.57-3-9.78-.81-1.71-2.47-2.44-4.18-2.4-2.79-4.61-5.63-9.19-8.54-13.73-2.6-4.06-5.1-8.44-8.48-11.92-3.23-3.32-7.2-5.08-11.34-6.98-8.16-3.74-13.77-10.65-22.43-13.67-5-1.75-10.2-3-15.29-4.44-4.36-1.23-8.68-2.75-12.79-.12-.11.07-.22.16-.33.24-.1,0-.19-.04-.3-.04-3.43-.12-6.86-.24-10.3-.37-1.39-.05-2.48.38-3.27,1.08-.17,0-.35,0-.52,0-.08-.02-.15-.05-.23-.06-.52-.1-1.03-.21-1.55-.31-.66-.21-1.33-.24-1.99-.09-.67.03-1.29.23-1.86.59-.57.31-1.03.73-1.37,1.25-2.53.79-4.96,1.73-6.93,2.25-7.82,2.07-15.66,4.02-23.15,7.12-.68.28-1.25.67-1.71,1.12-.31.11-.63.25-.95.44-7.68,4.42-12.98,11.39-18.13,18.41-.37.51-.58,1.07-.67,1.66-.49.38-.9.85-1.22,1.4-.21.41-.41.83-.62,1.24-.25.39-.41.8-.51,1.24-.55.63-.92,1.4-1.11,2.22-.16.27-.3.54-.41.83-.41.38-.75.83-1,1.32-.94,1.1-1.33,2.63-1.16,4.08-1.49.93-2.23,2.65-2.21,4.37-.04.06-.09.11-.14.17-1.7,2.63-3.02,5.47-4.08,8.42-.3.44-.55.92-.74,1.47l-.62,1.86c-.1.32-.16.64-.17.96-.32.46-.57.97-.73,1.53-.21.52-.42,1.03-.62,1.55-.11.36-.17.72-.18,1.09-.37.48-.66,1.04-.82,1.68-.67,2.7-1.34,5.4-2,8.1-.16.65-.18,1.33-.08,2-.09.36-.18.73-.27,1.09-.21.66-.24,1.33-.09,1.99.03.67.23,1.29.59,1.86.09.16.2.29.31.43.01.03.01.07.02.1.41,4.1-1.09,9.27-1.26,13.21-.08,1.73-.1,3.46-.1,5.18-2.15,10.79-3.93,28.19,7.17,34.53,4.55,2.6,10.07,2.17,15.04,1.05,1.44,1.39,3.61,2.09,5.89,1.07,2.61-1.17,5.22-2.33,7.82-3.5,4.23-1.83,8.54-3.52,12.91-4.83,6.86-2.05,13.98.92,20.93,1.8,14.64,1.84,28.74,6.52,42.88,10.53,14.11,3.99,27.94,6.07,42.47,7.66,13.99,1.53,26.53,7.04,38.79,13.58.45.75,1.1,1.36,1.95,1.76,1.08,1.14,2.7,1.75,4.69,1.19,13.32-3.77,27.62-4.92,41.27-2.2,2.37.47,4.44,1.1,6.22,2.04.13.07.26.15.39.21,2.5,1.42,4.41,3.54,5.74,6.89,2.47,6.21,4.14,12.83,5.91,19.26.62,2.25,2.04,5.48,1.46,7.07-.74,2.03-2.66,3.71-3.41,5.9-1.74,5.07-1.18,10.61-.01,15.74,1.13,4.99,2.51,10.9,7.13,13.79,1.88,1.17,4,2.11,6.21,2.94.4.67,1,1.29,1.84,1.78,8.28,4.85,16.76,9.96,25.77,13.36,9.08,3.42,19.42,3.25,28.87,5.38,9.26,2.08,18.14,3.48,27.54,1.44,7.24-1.57,20.2-7.21,26,.48.51.68,1.11,1.17,1.75,1.51,6.85,6.74,13.94,13.45,22.31,18.27,4.61,2.65,9.66,4.24,14.68,5.89,2.06,4.89,10.19,7.25,14.65,9.1,6.11,2.53,14.15,3.01,18.38-3.15,4.78-6.96-.44-16.99-1.95-24.24ZM169.13,108.93c-.23,2.73-.46,5.46-.7,8.18-.61.81-1,1.79-1.05,2.83-.65-.02-1.24.12-1.78.36-1.9-2.15-5.25-2.96-7.49-.56-.49.53-.87,1.06-1.17,1.59-.98-1.37-1.96-2.75-2.93-4.13-.87-1.23-2.02-1.89-3.21-2.12.33-3.61-.25-7.61-.33-10.49-.05-1.79-.12-3.57-.2-5.35,1.43-.95,2.87-1.74,4.37-2.35,1.36.11,2.69-.25,3.87-.96.08-.01.15-.03.23-.04,1.28,1.61,2.67,2.77,4.34,3.98.36.26.73.43,1.1.56.02.03.04.06.06.09,1.2,2.1,2.39,4.21,3.59,6.31.39.68.85,1.2,1.37,1.59-.03.17-.08.32-.09.5Z"/>
    <path class="cls-5" d="M372.46,370.15c-6.22-9.11-11.76-18.64-17.21-28.22-.81-1.5-1.65-2.99-2.53-4.46-.44-.73-.97-1.27-1.56-1.66-1.6-3.2-3.09-6.46-4.55-9.74-2.97-6.68-5.52-16.52-11.63-20.86-.11-.07-.21-.14-.32-.2-1.31-2.93-2.71-5.81-4.21-8.63-2.52-6.5-5.23-12.94-8.25-19.25-.6-1.26-1.61-1.98-2.75-2.27-.41-1.34-.84-2.67-1.24-4.01-1.84-6.11-3.59-12.25-5.25-18.41-.99-3.69-1.54-7.24-3.81-9.72-.72-4.68-1.3-9.38-1.73-14.11-.04-.48-.15-.93-.29-1.34,1.41-4.49,5.19-6.72,8.79-10.38,3.86-3.92,5.17-9.26,4.95-14.63-.51-12.22-6.47-21.68-18.54-25.15-5.93-1.71-12.28-1.75-18.4-1.82-6.9-.08-13.79.11-20.64,1-12.61,1.64-24.36,5.83-34.24,13.99-1.51,1.24-1.9,2.76-1.58,4.15-1.56,3.03-2.51,6.24-3.07,9.7-.01.04-.03.08-.04.12,0,0,.01,0,.02,0-.07.44-.14.88-.2,1.33-.1.81,0,1.5.22,2.11-1.08,7.6-.99,15.32.22,22.99.18,7.55,1.37,15.07,2.9,22.55.92,14.09,3.65,27.94,8.23,41.31,0,.73.14,1.51.48,2.29.59,1.36,1.18,2.71,1.78,4.06,1.3,4.45,2.97,9.12,5.79,12.34,3.85,7.6,8.23,14.89,13.78,21.54.91,1.09,2.01,1.55,3.12,1.58.15.27.33.53.55.78,2.52,2.97,5.48,5.38,8.85,7.22,6.25,5.26,12.64,10.39,19.56,14.73,8.21,5.15,18.23,7.89,25.6,14.28.67.58,1.38.95,2.08,1.16.38.28.8.53,1.28.72,1.89.76,3.53,1.71,5.23,2.81,1.42.91,2.9.93,4.17.4,2.06.67,4.13,1.31,6.21,1.93.99.48,2.06.87,3.24,1.16.6.14,1.21.24,1.84.31.39.11.77.22,1.16.33.15.07.28.15.44.21,5.89,2.24,11.77,4.5,17.66,6.73,2.23.84,4.44,1.74,6.84,1.95,1.15.1,2.32.11,3.46-.13.02,0,.04,0,.06-.01.96.32,2.02.37,3.05.04.32.13.67.24,1.06.31,4.09.75,8.3-1.49,8.41-6.12.13-5.29-6.23-10.93-9-15Z"/>
    <path class="cls-4" d="M219.96,187.41c-5.39-.31-10.42-2.59-15.76-3.27-4.23-.54-8.59-.2-12.69.99-3.6,1.05-6.95,2.68-9.94,4.81-.25.09-.49.18-.74.3-1.52.8-3,1.64-4.47,2.52-.22.03-.44.07-.66.14-.66.03-1.34.19-2.03.51-1.46.68-2.88,1.41-4.28,2.18-1.41-.25-2.88.12-4.03,1.44-.61.71-1.21,1.42-1.8,2.15-8.11,5.52-15.02,12.61-20.5,20.9-.07.1-.11.2-.16.3-1.27.19-2.48.9-3.34,2.31-1.38,2.26-1.94,4.78-1.96,7.42-.01,2.41.72,4.88.14,7.25-.68,2.74.79,4.79,2.79,5.7-.6,11.82,1.11,23.83,3.5,35.59,4.29,21.16,10.33,42.61,23.17,60.31,2.89,3.98,6.01,7.8,9.4,11.35,3.08,3.22,6.82,7.86,11.67,8.07,11.79.52,9.7-15.7,9.59-22.96-.38-24.79-1.42-49.68-.89-74.47.13-6.18.13-12.68,1.27-18.77,1.16-6.19,5.26-10.55,8.88-15.46,2.71-3.67,5.2-7.48,7.48-11.41,1.89.19,3.78-.63,4.83-2.39.8-1.36,1.39-2.8,1.47-4.39.07-1.32-.27-2.51-.87-3.58,1.73-3.67,3.32-7.4,4.76-11.21,1.22-3.23-1.86-6.16-4.82-6.33Z"/>
    <path class="cls-1" d="M525.05,217.12c-1.94-9.81-6.7-19.63-10.22-28.96-3.6-9.54-7.38-19.02-11.46-28.36-5.68-13-12.09-25.64-19.54-37.63.01-.5-.06-1.03-.24-1.58-5.74-17.18-18.88-30.8-35.71-37.09-1.34-2.69-4.18-4.19-6.66-5.78-3.33-2.14-6.76-4.13-10.26-5.98-13.93-7.36-28.91-12.59-44.11-16.64-15.26-4.08-30.83-7.24-46.38-10-8.06-1.43-15.94-2.01-23.96.01-7.47,1.89-14.65,5.24-21.64,8.4-13.21,5.97-25.92,12.94-38.1,20.77-5.11-.47-10.64-.14-15.06,2.61-5.18,3.22-7.12,9.7-4.87,15.29,2.36,5.85,8.31,9.39,13.61,12.22,7.8,4.17,15.32,8.79,22.64,13.75,14.29,9.68,28.52,20,41.69,31.16,11.4,9.65,20.63,21.31,30.48,32.46,6.26,7.09,12.86,13.75,20.27,19.32-.64,2.06-.14,4.53,2.03,5.94,34.49,22.48,76.62,37.69,118.08,38.49,16.44.32,43.77-6.37,39.42-28.38Z"/>
    <path class="cls-2" d="M185.87,18.57c.22.12.5.75,1.06,1.08,19.51,11.85,36.81,30.88,48.2,50.61.5.87,1.65.87,1.3,2.29,3.37-3.07,6.95-3.34,11.29-3.38,5.31-.04,7.05.11,12.32-1.93,7.11-2.76,16.37-9.21,24.35-13.06,10.44-5.03,25.38-13.97,37.58-15.52,13.67-1.74,31.85,5.32,45.38,8.74,19.57,4.95,43.21,8.29,60.81,17.94,14.6,8,32.75,16.83,44.52,28.01,1.56,1.48,2.25,3.38,3.55,5.21,4.96,6.98,8.77,9.99,12.6,18.7,3,6.82,6.6,13.48,9.87,20.33,4.38,9.15,7.32,18.97,12.06,27.63,3.36,6.14,5.71,15.88,8.85,22.9,1.53,3.43,1.93,6.02,3.39,9.55,2.05,4.97,8.05,12,8.84,16.58,2.49,14.39-5.61,24.9-18.04,30.87-.58.28-2.24,1.17-2.5,1.27-2.08.8-6.3,1.02-6.66,2.93.16,5.47.22,10.57,1.06,15.98,1.89,12.17,4.98,26.69,4.2,39.06-.1,1.52-4.68,8.49-5.03,8.73-11.14,7.59-28.54-2.99-38.17-8.8-10.88-6.55-20.05-13.07-28.61-21.74-2.7-2.74-5.04-5.35-7.19-8.57-2.43.88-5.02,1.3-7.53,1.98-7.32,1.99-25.45,2.27-27.12,4.53-1.88,2.54-2.84,7.04-4.39,9.98-1.28,2.42-3.8,6.63-5.36,8.93-.88,1.3-3.31,4.43-4.79,4.46-2.46.05-8.22-1.34-10.2-2.7-8.12-5.57-14.61-15.52-19.67-23.97-.67-1.12-2.56-5.8-2.81-6.06-.55-.56-5.29-1.77-6.55-2.32-6.36-2.83-12.64-6.96-18.82-10.92-.59-.38-4.98-2.93-5.22-2.69.29,1.65,1.32,3.09,1.79,4.68,2.57,8.67,5.99,17.86,9.98,25.97.37.76,7.33,14.31,8.99,17.85,9.42,20.18,20.86,40.75,33.51,59.55,4.02,5.97,7.9,10.76,12.12,16.63,4.44,6.18,3.77,13.17-4.33,14.78-3.42.68-8.78.99-9.11,1.02-2.47.21-5.75-.56-8.17-.92-2.53-.38-8.38-1.08-10.86-2.09-.9-.36-3.02-.74-4.21-1.03-.69-.17-1.69-.97-2.61-1.27-11.89-3.82-22.53-8.71-33.95-13.04-11.25-4.26-25.91-15.8-36.44-22.88-15.32-10.3-30.33-22.89-37.74-40.18-12.14-28.32-16.86-59.5-17.83-90.05-.05-1.65-.79-3.42-.43-5.22-1.03-.99-1.01.61-1.64,1.21-1.68,1.58-3.42,3.34-4.91,4.94-11.83,12.72-11.48,25.5-12.12,42.26-.72,18.69.92,37.62,1.12,56.4.1,9.29.41,19.17-.24,28.46-.07,1.05-5.61,9.64-6.08,9.78-4.41,1.34-7.52.67-11.56-1.22-2.98-1.39-10.8-8.08-12.75-10.75-.48-.66-7.86-10.78-10.84-16.39-3.43-6.47-6.45-13.71-9.63-20.59-10.7-23.18-20.44-59.12-15.18-86.34.35-1.83,2.78-9.25,3.71-10.67.41-.62,8.75-9.28,9.31-9.66.43-.29,2.67-2.12,3.35-2.62,6.42-4.74,12.11-9.84,19.33-13.74.43-.23,4.57-1.53,4.48-1.77-.8-1.21-27.4,3.7-40.36,5.19-13.9,1.6-20.43-1.4-32.68-6.97-1.93-.88-7.15-2.82-8.38-3.84-.43-.35-2.01-1.71-2.79-2.26-5.81-4.11-11.61-9.61-16.18-14.26-1.07-1.09-4.81-4.04-5.43-5.11-.48-.83-.38-2.36-.95-2.77-1.01-.71-3.91-.42-5.32-.77-8.11-2.03-14.37-11.32-15.9-19.15-.85-4.37-.95-12.12-1.03-12.48-.07-.28-.04-4.88-.02-5.68.39-24.43,7.03-45,16.92-67.02,3.67-8.17,8.35-13.78,14.42-20.34,12.5-13.49,31.81-20.22,49.57-23.96,19.62-4.13,40.02-.54,58.5,9.63ZM90.62,30.84c-7.98,5.63-11.57,10.91-18.05,18.42-1.59,1.84-3.73,6.93-5.06,10.02-8.61,19.86-13.79,38.28-14.3,60.5-.02.98-.04,5.11-.02,5.78.18,6,.36,15.49,4.36,20.12,1.83,2.12,6.29,5.34,8.95,5.82,10.95,1.97,19.63-3.17,29.4-6.54.44-.15,1.01-.35,1.44-.48,5.76-1.74,12.24-3.36,18.04-1.03.78.31.73.98,1.26,1.17,8.77,3.18,18.68-1.35,25.4-7,2-1.68,2.26-.92,1.06,1.06-1.36,2.22-4.98,6.38-6.9,8.2-6.33,6-13.05,6.61-21.09,4.07-1.43-.45-2.73-1.58-4.33-1.94-3.83-.87-9.65,1.18-13.42,2.44-3.51,1.18-6.77,2.97-10.56,4.07-1.91.56-4.77,1.47-6.5,1.89-1.21.3-3.16-.02-4.53.51,1.43,2.07,3.49,3.55,5.28,5.27,8.06,7.74,17.47,14.97,28.18,19.54,11.41,4.86,16.74,5.34,29.08,3.91,14.81-1.73,29.19-4.75,43.82-7.02,10.1-1.57,34.16.04,42.96,5.14.47.27,6.54-2.45,7.67-3.17,6.73-4.31,12.09-3.63,19.5-4.48,13.52-1.55,26.92-3.46,40.51-3.86,2.96-.09,5.94.1,8.9.02.55,2.07-.98,2.43-2.75,2.76-13.32,2.53-55.31,6.8-62.92,11.45-.37.22-6.52,6.67-7.24,7.58-5.64,7.15-3.34,32.36-2.87,38.86.25,3.35,1.58,7.69,1.91,10.79,1.44,13.28,2.66,26.43,6.23,39.79,5.63,21.07,11.57,35.58,27.34,50.82,5.51,5.33,10.99,9.93,17.33,14.1.34.22,5.22,3.44,5.77,3.83,11.61,8.39,23.82,15.59,36.86,21.06,2.7,1.13,5.75,2.55,8.63,3.68,5.56,2.18,11.17,4.01,16.81,5.97,4.56,1.59,8.6,3.09,13.88,4.1,2.99.58,8.37,1.32,11.58,1.17,1.07-.05,8.09-1.25,8.35-1.61,1.26-1.73-.84-2.89-1.44-3.9-5.03-8.32-12.49-16.51-17.53-24.42-2.76-4.32-4.56-9.47-7.19-13.9-5.75-9.69-11.55-18.81-16.59-29.13-2.98-6.09-5.88-13.86-9.1-20.22-.32-.63-2.61-3.02-2.62-3.22-.04-.61-.6-2.38-.81-2.69-.52-.8-1.5-4.15-2.05-5.3-1.96-4.08-4.59-8.82-6.23-13.28-1.41-3.83-3.71-10.39-4.63-14.24-.15-.62-.83-2.17-.96-2.75-1.22-5.44-3.29-11.48-4-17.05-.08-.61-1.94-17.09-1.79-18.41.13-1.19,10.45-4.71,14.72-3.63.43.76-.45,1.67-.46,1.9-.3.05-2.25.44-2.4.48-2,.47-3.65.62-5.3,2.26.2,4,1.03,7.99,1.4,11.95.18,1.89,1.77,12.44,2.09,13.02.08.14,2.19,1.77,2.53,2.02,11.58,8.29,26.5,16.71,40.4,20.5,14.36,3.91,28.02,6.58,43.52,5.39,6.56-.5,13.8-1.31,19.78-3.25.72-.23,4.58-.81,4.93-1.07l-7.07-11.87c-.59-1.28.02-2.71,1.49-2.43.65.12,7.52,8.69,8.69,9.99,10.05,11.14,18.68,20.01,31.42,28.76,7.68,5.28,15.65,10.71,24.68,13.93,5.27,1.88,8.49,2.97,14.02,1.02,3.88-1.37,3.38-1.33,3.51-4.88.18-4.76-.49-10.99-.96-15.82-.83-8.63-2.32-17.4-4.29-25.24-.53-2.12.26-8.64-.03-11.68-.03-.33.2-.98-.24-.96-1.74,1.42-4.65,1.01-6.66,1.1-16.92.76-38.42-2.92-55.13-7.9-9.97-2.97-19.89-6.75-29.76-10-3.59-1.18-7.82-3.35-11.28-5.07-18.49-9.18-30.43-18.23-44.16-33.02-18.22-19.64-36.18-43.92-57.85-59.91-15.08-11.12-31.49-17.98-47.06-28.07-5.16-3.34-14.04-7.67-14.98-14.67-.44-3.31,1.29-9.38.93-12.9-.66-6.39-9.54-15.78-13.42-20.86-4.93-6.47-8.11-11.27-14.14-16.79s-12.64-9.98-19.08-14.84c-3.66-2.77-5.99-3.39-10.06-5.32-.85-.41-3.54-1.84-4.17-2.16-3.58-1.83-7.62-2.65-11.56-3.55-22.81-5.22-50.28,2.07-69.06,15.34ZM320.83,45.71c-4.37.34-14.29,4.23-18.34,6.35-5.38,2.82-10.82,5.57-16.52,8.41-8.96,4.46-16.62,10.11-26.04,13.53l5.66,2.26c.7.39,1.97-.05,2.49.13,4.77,1.67,14.78,6.09,18.91,8.68,11.89,7.47,21.83,17.34,31.89,27.66,2.51,2.57,5.49,4.92,7.71,7.29s3.95,5.19,6.23,7.67c1.43,1.56,4.02,3.55,4.97,4.83,10.35,13.9,25.89,26.08,38.38,39.33,1.3,1.38,4.13,5.84,5.22,6.53,7.19,4.57,14.19,10.23,22.08,14.12,7.3,3.6,15.57,6.46,22.87,9.02,8.05,2.82,16.89,6.04,25.42,7.19,6.36.86,14.52,1.67,20.91,1.87,12.45.4,26.67.04,38.74-1.93,2.84-.46,5.59-1.47,8.45-1.87-.86-1.48-.95-3.35-1.59-4.88-5.52-13.27-10.61-27.42-16.47-40.59-.43-.98-.67-1.83-1.61-2.47.12-1-.01-1.8-.38-2.74-2.16-5.52-4.87-10.3-7.3-15.48-4.11-8.76-7.89-18.62-12.78-26.53-2.33-3.76-3.78-4.85-6.15-8.01-.77-1.03-2.19-4.11-2.9-4.78-.49-.46-1.38-.36-1.56-.57-.31-.35-.05-1.92-1.05-3.03-.71-.79-1.87-.98-2.65-1.66-8.26-7.15-16.87-11.84-26.26-17.38-.6-.27-1.67-.55-2.27-.36-1.51-2.44-4.99-3.03-7.36-4.38-2.78-1.58-4.44-2.74-7.5-4.25-12.58-6.17-26.56-9.01-40.09-12.42-14.56-3.67-29.29-7.4-43.96-10.71-1.38-.31-4.49-1.62-5.48-1.7-1.95-.16-6.07.55-9.04.38-.8-.05-2.13-.32-2.63.48ZM281.49,87.68c-9.06-4.29-17.85-8.53-27.62-10.8-3.02-.7-8.95-1.88-11.69-.72-.23.1-3.48,3.35-3.6,3.6-.64,1.42-1.05,8.06-1.08,8.75-.03.87,3.79,7.71,5.51,8.96,3.74,2.72,8.88,5.3,12.91,7.6,1.16.66,6.48,4.41,7.1,4.43.7.01.85-.27,1.1-.84.6-1.35.78-4.06,1.59-5.98,3.24-7.68,10.32-10.15,17.01-13.78.3-.16-.65-.94-1.24-1.22ZM293.01,95.09c-.93-.68-3.75-3.87-4.96-3.76-8.45,3.73-18.34,8.18-19.89,18.39-.42,2.78,2.46,3.12,4.23,4.07,12.67,6.78,26.78,15,35.6,25.28,1.69,1.97,6.23,4.84,8.07,7.2.33.42,5.34-2.2,5.56-2.41,2.38-2.33,6.71-7.79,9.01-9.48.58-.42,1.37-.23,1.71-.69l-8-8.06c-9.22-10.45-19.62-21.99-31.32-30.54ZM338.1,140.16c-1.05-1.03-2.15-2.23-3.11-3.35-1.97.7-2.52,2.96-3.77,4.15-.72.68-1.9,1.03-2.72,1.84-2.66,2.61-5.12,5.48-7.65,8.18v.66s4.29,3.38,4.29,3.38c-.02.35,5.48,7.6,6.7,8.88,1.65,1.73,8.54,9.24,9.11,9.94,7.29,8.86,16.94,18.51,25.12,26.57,1.38,1.36,2.92,2.68,4.39,3.95,3.61-2.69,6.15-5.55,9.04-8.9,2.48-2.87,5.53-6.89,5.6-7.2.49-2.5-6.58-7.4-8.8-9.59-12.82-12.64-25.47-26.06-38.21-38.52ZM194.41,257c.57-7.81,1.45-14.63,3.88-21.91,2.07-6.22,4.13-7.4,8.21-12.17,2.46-2.88,4.57-5.61,7.16-7.95.65-.59,4.12-4.39,4.28-4.83.7-1.95.29-6.32.88-9.19.16-.78,1.35-5.19,1.55-5.64.36-.81,2.61-2.45,3.1-3.61,0-.25-3.72-2.13-4.35-2.38-5.28-2.14-12.47-2.73-18.84-3.32-1.55-.14-7.33-1.06-8.45-.54-.84.39-1.12,1.65-1.81,2.18-1.99,1.52-6.4,2.97-8.91,4.39-8.9,5.03-17.15,9.41-24.75,16.03-4.13,3.6-11.71,10.46-13.3,15.45-1.38,4.31-1.67,9.09-2.08,13.51-.44,4.75-.22,8.84-.47,13.67-.08,1.55.35,4.01.65,5.08.79,2.83.3,7.04.83,10.2.85,5.01,2.91,9.83,4.27,14.68,2.28,8.17,4.63,18.29,7.67,25.41,1.08,2.52,2.88,5.26,4.01,7.73.6,1.31,1.82,5.88,2.17,6.37.33.45,1.17.13,1.38.36s1.34,4.54,1.67,5.31c3.92,9.03,13.32,22.96,21.93,28.18.42.25,3.02,1.77,3.2,1.81,3.4.65,6.5-.41,7.09-4.15,1.01-6.42-.65-18.08-.73-25.23-.1-8.94-.23-17.64-.45-26.61-.11-4.5-.31-9.17-.4-13.73-.11-5.33.85-11.47.42-16.74-.06-.79-.07-8.97.18-12.34ZM394.69,193.38c-.76-.47-5.07-4.35-5.75-3.83-2.63,7.59-9.28,12.9-15.35,17.75l5.75,3.83c16.66,12.19,36.88,17.36,55.53,24.41,1.08.41,2.65.11,3.71,1.47,4.58-5.58,11.44-14.65,10.81-22.31-.28-3.38-1.18-1.58-2.98-1.9-8.89-1.56-29.6-9.28-37.9-13.24-.35-.16-9.82-3.69-13.82-6.17ZM516.99,212.07c-1.9.36-3.77,1.06-5.75.96,1.4,9-2.52,18.55-7.28,26.05-.58.91-3.61,3.68-.74,3.11,2.31-.46,5.79-2.16,8.01-3.26,5.05-2.51,10.34-6.53,13.05-11.65,3-5.68,1.31-10.42-.63-16.11-.46-.32-5.58.7-6.66.91ZM460.88,214.47c-1.13-.09-6.21-1.46-6.72-.96-.05,1.64.15,3.29-.11,4.92-.66,4.16-4.33,10.01-6.42,13.47-.61,1.02-3.46,5.32-3.54,5.82-.19,1.05.21.59.72.72,1.6.39,3.42.58,5.04.97,8.85,2.11,18.18,3.58,27.08,4.24,3.62.27,12.16.97,15.32.52,3.61-.52,5.74-4.81,7.75-7.6,2.72-3.78,5.75-10.21,6.61-15.35.23-1.38.78-6.83-.15-7.49-9.18,1.72-18.38,1.38-27.61,1.2-5.89-.12-12.14,0-17.96-.45ZM389.89,279.68c-4.19-.69-8.46-.54-12.65-1.16-4.51-.67-11.3-2.11-15.65-3.39-1.15-.34-2.08-1.8-3.83-1.2-.47.4,2.05,3.24,2.36,3.74,2.79,4.55,4.84,8.92,8.89,13.06.89.91,2.11,1.1,2.54,1.53.73.75.58,1.43,1.92,2.26s3.71,2.35,5.22,2.41c2.33.09,3.09-3,4.01-4.44,1.31-2.04,3.29-4.74,4.52-7.11.92-1.76.9-4.18,2.68-5.7Z"/>
    <path class="cls-7" d="M166.68,237.19c2.43,3.29,3.03,5.85,7.37,7.75,1.86.82,1.65.19,3.12.22,1.31.03,1.9.84,3.3-.06,3.41-2.2,5.13-11.6,5.68-15.42.09-.59.65-1.13.76-2.01.43-3.58-1.87-5.93-4.63-7.75-4.69-3.1-12.98-5.02-18.54-4.51-9.79.9-2.11,15.01.74,19.43.54.84,1.69,1.67,2.2,2.36Z"/>
    <path class="cls-8" d="M389.89,279.68c-1.78,1.52-1.77,3.94-2.68,5.7-1.23,2.37-6.2,11.64-8.53,11.55-1.51-.06-3.9-1.59-5.22-2.41s-3.57-2.89-4.45-3.8c-4.06-4.14-6.1-8.51-8.89-13.06-.31-.5-2.82-3.34-2.36-3.74,1.75-.59,14.97,3.93,19.49,4.6,4.18.62,8.45.47,12.65,1.16Z"/>
    <g>
      <path class="cls-8" d="M332.82,127.69c1.39-.29,2.15-1.77,3.18-2.34,4.38-2.39,9.15-5.25,13.64-7.46,1.49-.73,3.14-1.4,4.6-2.1,8.76-4.19,21.17-9.28,30.99-7.18,4.44.95,11.84,7.64,16,10.37,9.6,6.29,19.49,10.87,26.81,20.19,7.26,9.25,4.7,22.15,3.59,32.86-1.01,9.72-1.7,17.81-4.35,27.3-.22.77-.53,1.49-.93,2.18-7.3-2.56-15.57-5.42-22.87-9.02-7.89-3.89-14.9-9.55-22.08-14.12-1.09-.69-3.92-5.16-5.22-6.53-12.49-13.25-28.03-25.42-38.38-39.33-.96-1.29-3.54-3.28-4.97-4.83Z"/>
      <path class="cls-8" d="M451.76,208.72c.54-.78.66-1.38.04-2.19-.76-.99-3.79-3.09-5.08-4.52-9.87-10.94-14.56-25.41-9.13-39.82,2.43-6.44,10.88-11.83,17.68-11.78,8.33.05,21.14.19,29.2,1.39,5.48.82,7.6,1.73,12.07,4.74,1.26.85,2.56,1.57,3.66,2.31.94.64,1.18,1.49,1.61,2.47,5.85,13.17,10.94,27.32,16.47,40.59.64,1.53.72,3.4,1.59,4.88-2.86.4-5.61,1.4-8.45,1.87-12.07,1.97-26.29,2.33-38.74,1.93-6.39-.21-14.55-1.02-20.91-1.87Z"/>
      <path class="cls-8" d="M436.9,78.31c.6-.19,1.67.09,2.27.36,9.4,5.54,18,10.23,26.26,17.38.79.68,1.94.86,2.65,1.66,1,1.12.74,2.69,1.05,3.03.19.21,1.08.12,1.56.57.71.67,2.13,3.75,2.9,4.78,2.36,3.16,3.81,4.25,6.15,8.01,4.9,7.91,8.68,17.76,12.78,26.53-.5.84-1.3.85-2.15.96-5.57.73-14.33-.02-20.14-.49-16.95-1.36-24.22-4.11-38.08-13.23-4.17-2.74-16.55-11.11-19.09-14.72-.6-.86-3.91-8.88-3.95-9.72-.14-2.98,1.48-6.19,3.32-8.46,7.11-8.77,13.56-11.72,23.64-15.83.52-.21.77-.82.82-.84Z"/>
      <path class="cls-8" d="M268.07,76.39c2.22-2.11,4.63-3.84,7.26-5.45,18.27-11.18,28.37-14.26,47.74-3.26,10.71,6.08,27.42,16.6,31.91,28.03,1.17,2.97,1.58,6.94.12,9.91-.33.66-2.4,2.12-3.15,2.61-6.29,4.15-13.85,6.06-20.58,9.16-1.63.75-3,2.17-4.79,2.64-2.22-2.36-5.2-4.72-7.71-7.29-10.06-10.32-20-20.19-31.89-27.66-4.13-2.6-14.14-7.02-18.91-8.68Z"/>
      <path class="cls-8" d="M422.03,69.68c-1.02,1.04-1.55,2.45-2.4,3.6-1.6,2.16-4.68,5.27-6.77,7.14-3.03,2.73-6.39,4.68-9.6,6.71-13.16,8.34-28.71,4.2-41.78-2.24-7.49-3.69-26.9-14.86-31.28-21.47-1.16-1.75-4-7.21-4.8-9.1-.66-1.54-.43-8.02-1.29-8.55-1.07-.11-2.23-.15-3.29-.06.5-.8,1.83-.52,2.63-.48,2.96.17,7.08-.54,9.04-.38.99.08,4.1,1.39,5.48,1.7,14.67,3.31,29.4,7.04,43.96,10.71,13.53,3.41,27.52,6.25,40.09,12.42Z"/>
      <path class="cls-8" d="M511.24,238.92c-2.22,1.1-5.7,2.8-8.01,3.26-2.87.58.16-2.19.74-3.11,4.76-7.5,8.68-17.05,7.28-26.05,1.98.1,3.86-.6,5.75-.96-.17,2.9.23,6.01.02,8.88-.22,3-.98,7.71-2.76,10.19l-3.01,7.78Z"/>
      <path class="cls-8" d="M460.88,214.47c-.77,4.09-1.39,8.16-3.13,11.98-2.06,4.54-5.77,8.43-7.91,12.95-1.62-.39-3.44-.58-5.04-.97-.52-.13-.91.33-.72-.72.09-.49,2.93-4.8,3.54-5.82,2.09-3.46,5.76-9.31,6.42-13.47.26-1.63.06-3.29.11-4.92.51-.5,5.59.87,6.72.96Z"/>
      <path class="cls-8" d="M293.01,95.09c-1.86,1.52-4.34,1.53-6.42,2.45-2.5,1.1-7.73,4.38-9.4,6.42-.4.48-2.19,3.15-2.5,3.73-.93,1.73-1.59,4.21-2.29,6.1-1.77-.95-4.66-1.29-4.23-4.07,1.56-10.21,11.44-14.66,19.89-18.39,1.21-.11,4.03,3.08,4.96,3.76Z"/>
      <path class="cls-8" d="M394.69,193.38c-3.86,6.04-8.7,11.14-14.06,15.91-.62.55-1.33.74-1.29,1.83l-5.75-3.83c6.07-4.85,12.72-10.16,15.35-17.75.68-.52,4.99,3.36,5.75,3.83Z"/>
      <path class="cls-8" d="M325.15,155.02l-4.3-3.38v-.66c2.53-2.7,4.99-5.58,7.65-8.18.82-.81,4.52-5.29,6.49-5.99.96,1.12,2.06,2.32,3.11,3.35-.1,4.15-12.83,12.8-12.95,14.86Z"/>
    </g>
    <path class="cls-3" d="M251.21,175.48c-16.21-12.82-44.06-22.29-64.52-24.11-6.34-.57-13.31.24-19.57-.19-8.7-.6-17.44-3.1-25.93-4.28-1.59-.22-3.39.09-5.01-.03-6.33,6-13.05,6.61-21.09,4.07-1.43-.45-2.73-1.58-4.33-1.94-3.83-.87-9.65,1.18-13.42,2.44-3.51,1.18-6.77,2.97-10.56,4.07-1.91.56-4.77,1.47-6.5,1.89-1.21.3-3.16-.02-4.53.51,1.43,2.07,3.49,3.55,5.28,5.27,8.06,7.74,17.47,14.97,28.18,19.54,11.41,4.86,16.74,5.34,29.08,3.91,14.81-1.73,29.19-4.75,43.82-7.02,10.1-1.57,34.16.04,42.96,5.14.47.27,6.54-2.45,7.67-3.17,6.73-4.31,12.09-3.63,19.5-4.48.4-1.8-.51-1.18-1.03-1.59Z"/>
    <path class="cls-9" d="M97.33,144.47c-.43.13-1,.33-1.44.48l1.44-.48Z"/>
    <path class="cls-2" d="M167.17,101.98c3.05,4.2,4.22,13.47,1.13,17.79-.28.4-2.78,3.2-2.98,3.29-.83.37-5.47.79-6.48.71-10.79-.88-14.19-16.56-9.22-24.47,1.99-3.16,9.52-5.07,12.42-2.96.33.24,4.73,5.1,5.13,5.66ZM157.02,99.14c-3.73.34-4.79,10.01.45,9.83,5.81-.2,5.75-10.39-.45-9.83Z"/>
    <g>
      <g>
        <path class="cls-8" d="M316.99,271.53c1.64,4.46,4.27,9.2,6.23,13.28.55,1.14,5.17,10.58,5.48,11.21,3.22,6.37,6.12,14.14,9.1,20.22,5.04,10.31,10.84,19.43,16.59,29.13-2.97.58-4.66-.77-7.11-1.78-12.73-5.27-27.46-11.38-37.03-21.96-6.89-7.62-10.48-12.56-11.02-23.48-.19-3.82-.02-12.44.53-16.25.49-3.41,4.03-9.89,7.2-11.51,3.87-1.97,6.25-.19,10.02,1.15Z"/>
        <path class="cls-8" d="M261.36,335.29c1.74-.16,3.24-.85,5.02-.98,7.71-.56,16.86.96,24.4.79,5.73-.13,10.23-1.06,16.29.28,8.33,1.84,21.43,25.73,22.77,33.82.42,2.57.46,6.16.11,8.76-2.88-1.13-5.94-2.55-8.63-3.68-13.04-5.47-25.25-12.66-36.86-21.06-.55-.4-5.43-3.61-5.77-3.83-6.33-4.17-11.82-8.77-17.33-14.1Z"/>
        <path class="cls-8" d="M227.79,244.68c3.8.7,10.44,3.8,13.27,6.4.71.65,6.41,7.48,6.61,8.01,1.5,3.95.8,8.53.93,12.6.11,3.52,1.47,9.78-.65,12.56-1.7,2.24-7.25,1.65-9.72,1.06-1.3-.31-2.91-2.16-4.2-.84-3.57-13.37-4.79-26.52-6.23-39.79Z"/>
        <path class="cls-8" d="M361.6,359.27c5.05,7.91,12.5,16.11,17.53,24.42.61,1.01,2.7,2.17,1.44,3.9-.27.36-7.29,1.56-8.35,1.61-3.21.16-8.59-.59-11.58-1.17,0,0-9.47-14.5-10.02-18.99-.19-1.54-.27-4.69-.09-6.19.3-2.55,8.77-3.46,11.07-3.58Z"/>
        <path class="cls-8" d="M277.01,289.92c.45.26,3.5,2.24,4.5,2.95,4.3,3.02,11,16.42,11.02,21.57,0,.96-.38,4.76-.58,5.65-.49,2.25-3.42,4.59-5.65,4.95s-12.19-.38-14.54-.96c-10.8-2.64-16.05-14.76-16.63-24.99-.31-5.43-.03-10.21,6.09-11.55,2.84-.62,13.2.87,15.79,2.38Z"/>
      </g>
      <g>
        <path class="cls-8" d="M175.4,21.21c4.07,1.93,6.39,2.55,10.06,5.32,6.44,4.86,12.79,9.08,19.08,14.84s9.2,10.32,14.14,16.79c-4.32,2.4-7.8,6.39-12.63,7.75-13.45,3.81-33.78-8.9-40.81-19.78-1.89-2.92-5.03-9.8-4.61-13.16.1-.76,1.73-4.95,2.13-5.54.27-.39,3.77-3.23,4.49-3.79.99-.76,7.29-2.85,8.15-2.44Z"/>
        <path class="cls-8" d="M159.68,15.5c-2.01-.5-2.76,2.84-3.51,3.68-1.84,2.08-6.28,4.35-8.47,6.17-4.2,3.48-6.74,6.6-11.57,9.5-6.46,3.88-21.41,9.68-28.74,6.79-4.24-1.67-10.46-5.19-14.35-7.71-1.16-.75-.72-3.2-2.42-3.09,18.79-13.27,46.25-20.56,69.06-15.34Z"/>
        <path class="cls-8" d="M161.47,55.42c.39.34,3.54,9.13,3.54,9.7.02,2.9-1.47,4.94-3.82,6.31-4.1,2.38-17.76,6.26-22.43,6.35-1.37.03-6.81-.84-7.6-1.89-.29-.39-1.68-3.52-1.74-4.04-.48-4.29,5.6-16.44,8.98-19.36,4.81-4.14,11.08-4.15,16.59-1.38.87.44,5.86,3.78,6.47,4.31Z"/>
        <path class="cls-8" d="M222.86,71.74c.13.06,1.98,1.88,2.06,2,1.37,1.93,1.76,5.42,1.45,7.72-.17,1.22-3.75,8.89-4.62,10.25-2.82,4.45-8.33,10.58-13.86,11.08-7.29.66-7.13-.92-9.97-6.39-.31-.59-1.04-.67-1.3-1.2-.47-.98-.16-8.8-.02-10.4.14-1.55.67-5,1.42-6.25.14-.23,3.56-3.57,3.88-3.79,2.4-1.62,13.92-4.17,17.02-4.05.2,0,3.7.95,3.92,1.04Z"/>
        <path class="cls-8" d="M106.75,52.59c2.17,2.09,4.71,7.18,4.93,10.21.15,2-.64,3.23-2.29,4.32-5.75,1.67-11.1,4.9-16.75,6.75-1.04.34-2.49.16-3.79.53-2.82.8-5.06,2.77-8.45,1.98-.34-.08-.35-.72-.71-.9-.61-.31-1.42-.25-2.02-.76-.47-.4-2.2-3.23-2.22-3.89-.12-3.05,2.46-8.31,3.96-11.14.94-1.78,3.8-6.54,4.97-7.85,5.95-6.62,16.35-5.04,22.38.76Z"/>
        <path class="cls-8" d="M185.42,66.96c1.92,1.85,3.5,5.82,5.13,8.04.63,2.28.64,5.59-1.38,7.14-2,1.53-6.89,2.86-9.51,2.71-5.94-.33-13.87-9.35-10.6-15.15,1.48-2.63,3.97-3.45,6.56-4.38.41-.15.39-.83.72-.91,1.85-.42,7.66,1.17,9.09,2.55Z"/>
      </g>
      <g>
        <path class="cls-8" d="M461.36,293.1c7.88-4.31,15.56-6,24.37-3.51,5.92,1.67,9.37,8.1,14.21,11.68.63.47,2.55,2.24,3.62,1.9-.13,3.54.37,3.51-3.51,4.88-5.52,1.95-8.75.85-14.02-1.02-9.03-3.21-17-8.65-24.68-13.93Z"/>
        <path class="cls-8" d="M498.29,250.43c.29,3.04-.5,9.56.03,11.68,1.97,7.84,3.46,16.6,4.29,25.24-2.29-.58-6.87-2.44-8.49-3.98-.72-.68-7.96-9.17-8.21-9.76-1.47-3.4-1.97-7.65-.02-10.92.5-.84,8.28-10.72,12.41-12.27Z"/>
        <path class="cls-8" d="M468.68,271.87c-.26-.15-5.07-3.28-5.86-3.96-.86-.74-3.33-3.73-3.96-5.15-1.66-3.68,5.2-8.26,7.04-8.52,1.94-.28,2.53-1.23,5.22-.75,3.4.6,5.71,2.04,7.21,5.15,1.3,2.68,1.28,5.36.18,8.2-.08.22-1.93,3.53-2.06,3.7-1.37,1.78-5.88,2.37-7.76,1.33Z"/>
      </g>
      <g>
        <path class="cls-8" d="M140.98,237.01c3.2-1.12,5.67,1.7,8.1,3.65,3.4,2.72,4.59,4.18,7.23,7.64.53.69,1.8,3.75,1.95,4.76.96,6.4,3.16,17.54,1.78,23.88-.51,2.35-2.93,5.94-5.4,6.15s-5.75-2.33-8.4-2.44c-1.36-4.85-3.42-9.67-4.27-14.68-.54-3.17-1.56-13.72-1.48-15.28.25-4.83.03-8.92.47-13.67Z"/>
        <path class="cls-8" d="M153.92,306.05c1.18-.01,2.36.25,3.47.61,5.54,1.82,15.6,6.43,19.79,10.42,2.73,2.59,5.81,6.62,6.45,10.33.21,1.23-.16,2.6.03,3.8,1.18,7.43,2.52,15.27,1.43,22.78-8.61-5.22-18.01-19.15-21.93-28.18-.33-.77-2.73-5.21-3.05-5.67-.36-.49-1.57-5.05-2.17-6.37-1.13-2.47-2.94-5.21-4.01-7.73Z"/>
        <path class="cls-8" d="M194.23,269.34c.43,5.27-.53,11.41-.42,16.74.1,4.56.29,9.24.4,13.73-.91.15-2.08-.78-2.8-1.27-5.49-3.8-15.61-10.83-17.49-17.51-1.43-5.08-1.67-15.68,2.6-19.28.45-.38,1.21-.99,1.75-1.13,2.6-.69,9.23,1.98,11.6,3.51.45.29,4.3,4.43,4.37,5.21Z"/>
        <path class="cls-8" d="M164.49,234.84c-2.85-4.42-10.53-18.52-.74-19.43,5.56-.51,13.85,1.41,18.54,4.51,2.76,1.82,5.06,4.17,4.63,7.75-.11.89-3.03,15.24-6.44,17.44-1.4.9-4.56.66-6.42-.16-4.34-1.91-9.03-9.26-9.57-10.11Z"/>
      </g>
    </g>
    <path class="cls-9" d="M157.02,99.14c6.2-.56,6.26,9.63.45,9.83-5.24.18-4.18-9.49-.45-9.83Z"/>
  </g>
</svg>