<?xml version="1.0" encoding="UTF-8"?>
<svg id="Squid" xmlns="http://www.w3.org/2000/svg" xmlns:xlink="http://www.w3.org/1999/xlink" viewBox="0 0 586.14 401.97">
  <defs>
    <style>
      .cls-1 {
        fill: #ce6d62;
      }

      .cls-2 {
        fill: url(#linear-gradient-3);
      }

      .cls-3 {
        fill: url(#linear-gradient-2);
      }

      .cls-4 {
        fill: url(#linear-gradient);
      }

      .cls-5 {
        fill: #080707;
      }

      .cls-6 {
        fill: #faf6d2;
      }
    </style>
    <linearGradient id="linear-gradient" x1="88.37" y1="382.08" x2="163.81" y2="367.49" gradientUnits="userSpaceOnUse">
      <stop offset="0" stop-color="#ce6d62"/>
      <stop offset=".16" stop-color="#cf7165"/>
      <stop offset=".33" stop-color="#d37e6f"/>
      <stop offset=".51" stop-color="#da9381"/>
      <stop offset=".69" stop-color="#e3b099"/>
      <stop offset=".87" stop-color="#efd6b8"/>
      <stop offset="1" stop-color="#faf6d2"/>
    </linearGradient>
    <linearGradient id="linear-gradient-2" x1="47.93" y1="324.7" x2="85.04" y2="275.93" gradientUnits="userSpaceOnUse">
      <stop offset="0" stop-color="#ce6d62"/>
      <stop offset=".74" stop-color="#faf6d2"/>
    </linearGradient>
    <linearGradient id="linear-gradient-3" x1="110.62" y1="203.03" x2="513.64" y2="170.64" gradientUnits="userSpaceOnUse">
      <stop offset="0" stop-color="#ce6d62"/>
      <stop offset=".16" stop-color="#cf7165"/>
      <stop offset=".33" stop-color="#d37e70"/>
      <stop offset=".51" stop-color="#da9582"/>
      <stop offset=".7" stop-color="#e4b49c"/>
      <stop offset=".89" stop-color="#f1dbbc"/>
      <stop offset="1" stop-color="#faf6d2"/>
    </linearGradient>
  </defs>
  <g id="squid">
    <path class="cls-4" d="M162,378.16c-2.8-4.33-8.17-6.54-12.03-10.08-.11-.48-.3-.95-.59-1.4-1.15-1.76-2.36-3-4.17-4.05-.13-.07-.25-.12-.38-.18-.45-1.02-1.08-2.13-1.16-2.25-.41-.53-.81-1.06-1.22-1.59-.31-.56-.55-.9-.73-1.04,1.27-3.48-2.24-7.81-6.05-6.5-7.95,2.74-14.66,7.61-21.72,12.03-7.65,4.79-15.5,9.18-24.11,12.02-6.08,2.01-3.48,11.67,2.66,9.64,1.96-.65,3.89-1.36,5.79-2.13.79,1.21,2.14,2.1,4.03,2.2.88.05,1.71-.29,2.51-.37.09.06.21.13.41.22,2.6,1.13,5.31,1.61,8.09,2.07,5.84.98,10.92,2.87,16.25,5.42,1.78.85,4.05.54,5.65-.54.43.06.87.13,1.29.19,6.51.92,13.05,1.36,19.17-1.48,4.81-2.23,9.9-6.6,6.31-12.16Z"/>
    <path class="cls-3" d="M67.38,338.34c-.21-2.24-.55-4.37-1.16-6.5.03-.29.03-.59-.01-.91-.1-.82-.19-1.81-.29-2.87.27-.62.4-1.33.32-2.13-.83-8.01-1.67-16.06-1.52-24.12.09-4.75,1.17-10.67.19-15.74.11-.36.19-.74.21-1.14.07-1.63-.37-2.79-1-4.26-.56-1.31-1.74-2.06-3.06-2.33-.16-.09-.32-.18-.49-.26-.9-.41-2.07-.4-3.19-.43-.72-1.08-1.68-1.81-2.93-2.22-.28-.09-.56-.18-.84-.27-.32-.1-.67-.15-1.03-.17-.31-.11-.65-.18-1.01-.23-.56-.22-1.2-.35-1.92-.35-.48,0-.92.07-1.33.18-1.23-.33-2.57-.29-3.89.26-3.32-.24-5.48,3.22-4.98,6.37-.06-.08-.12-.15-.18-.23-.45,1.43-.26,2.67.3,3.65.31,2.98,1.43,6.02,2.59,8.44.08.17.17.32.26.47,3.62,9.91,6.25,20.12,8.81,30.35.45,1.78,1.5,2.85,2.77,3.31.24,1.96.62,3.9,1.18,5.81.03.1.08.18.11.28.04.54.09,1.08.14,1.61.09.88.36,1.63.74,2.28,0,.03,0,.06,0,.09.05,4.4.24,8.83.26,13.25.72,1.3,1.09,2.77,1.43,4.21.44,1.88,1.26,3.7,1.04,5.67-.02.21-.07.41-.11.61,2.9,1.37,7.34-.07,7.53-4.32.23-4.97.06-9.99-.07-14.99.79-.81,1.26-1.94,1.13-3.36Z"/>
    <path class="cls-6" d="M527.65,212.74c-3.86,2.08-8.32,3.39-12.87,4.21-.57-.26-1.22-.41-1.94-.4-.72.01-1.6.09-2.53.17-.33-.38-.71-.71-1.17-.96-3.4-1.84-6.86-3.67-9.91-6.06-1.76-1.38-4.22-1.33-6.11-.42-1.75-.26-3.59.37-4.74,2.38-.13.23-.24.44-.35.66-.75.1-1.49.23-2.22.4-2.13-.57-4.52.28-5.68,2.25-1.39,2.37-.52,5.44,1.79,6.84.69.42,1.42.79,2.2,1,.5.17,1.01.32,1.54.4,1.35.22,2.79.01,3.96-.63.32.46.67.9,1.07,1.3,2.19,2.15,5.07,2.62,8.08,2.46.84,1.08,2.08,1.83,3.69,1.79,10.13-.25,21.24-1.87,30.24-6.73,5.66-3.06.62-11.7-5.05-8.63Z"/>
    <path class="cls-2" d="M527.14,129.69c-1.67,2.59-3.34,5.17-5,7.76-.41.48-.82.95-1.24,1.42-1.72-.24-3.56.39-4.78,2.33-1.28,2.03-2.62,4.03-4,5.98-1.52,1.7-2.89,3.53-4.14,5.5-.29.46-.48.93-.59,1.4-5.9,5.8-11.08,12.23-15.53,19.22-.18.29-.33.58-.44.87-.23.21-.45.43-.68.64-.22.09-.43.18-.66.3-3.26,1.75-6.36,3.72-9.31,5.9-.49.29-.97.58-1.46.86-.45.04-.94.14-1.45.33-1.97.73-3.89,1.54-5.76,2.43-4.92.22-10.55,2.71-14.85,3.84l-9.02,2.37c-1.08-1.27-2.77-2-4.87-1.45-5.94,1.54-11.89,2.42-17.93,2.7-3.88-1.37-7.97-1.9-12.18-2.18-.68-.05-1.35-.08-2.03-.12-.19-.19-.41-.37-.64-.53-3.82-2.66-8.18-3.27-12.72-3.62-5.39-.41-9.21-2.04-14.16-4.07-1.3-.54-2.64-.98-3.99-1.38-.57-1.05-1.48-1.92-2.7-2.39-.16-.06-.32-.11-.48-.17,1.68,0,3.41-.8,4.53-2.34,1.9-2.61.65-5.85,1.1-8.82.27-1.76.84-3.45,1.67-5.01,1.9-.71,3.02-2.59,3.28-4.69.07-.61.15-1.21.22-1.82.35-2.86-2.39-4.86-5.05-4.94.67-.12,1.36-.17,2.07-.1,2.12.21,4.38,1.11,6.42,1.7,8.9,2.6,17.46,6.17,25.59,10.63,7.88,4.33,15.33,9.42,22.12,15.31,5.88,5.1,12.27,12.24,20.88,8.82.74-.29,1.35-.69,1.85-1.15.94-.02,1.88-.03,2.83,0,6.6.22,6.19-9.21,0-10-.87-.11-1.75-.22-2.62-.33-.38-.85-1.05-1.6-2.11-2.13-3.55-1.77-5.82-4.74-8.31-7.74-2.74-3.31-5.77-6.24-9.1-8.95-3.22-2.63-6.59-5.06-9.77-7.74-3.31-2.79-6.11-6.05-9.29-8.97-4.97-4.56-10.55-8.36-16.57-11.34.44-.13.89-.33,1.35-.61,4.86-3.06,7.33-7.76,8.85-13.19,1.87-6.68,3.45-13.68,4.67-20.51,1.08-6.05,1.03-11.9-1.83-17.47-2.77-5.4-7.48-9.94-12.07-13.8-9.04-7.61-23.76-9.63-35.26-8.58-9.44.86-18.4,4.78-25.94,10.51-.66.09-1.35.35-2.04.81-12.51,8.37-21.78,20.75-25.96,35.06.11-.94.2-1.88.27-2.82.17-.48.3-.99.34-1.57.24-3.94.39-7.87.47-11.81.4-.54.71-1.21.88-2.05,1.48-7.39,3.19-14.73,5.11-22.01.44-1.39.9-2.77,1.39-4.15.3-.85.37-1.63.27-2.33.02-.24.02-.46.01-.69.35-.23.69-.51,1.01-.87,2.7-3.09,5.4-6.18,8.09-9.27.97.14,1.99,0,2.98-.51,5.01-2.61,10.01-5.22,15.02-7.84,1.78-.41,3.59-.65,5.42-.76,6.94,2.13,13.61,4.89,19.97,8.43,6.35,3.53,12.12,8.27,19.01,10.74,5.12,1.84,10.95,2.24,16.05.27,6.02-.39,12.7-5.64,17.59-8.98.65-.37,1.29-.78,1.91-1.25,4.93-3.79.6-12.12-5.05-8.63-.32.2-.94.62-1.74,1.19-2.36,1.43-4.99,2.41-7.56,3.5-1.11-.83-2.56-1.28-4.18-1.06-1.66.23-3.94.77-6.21.99-.23-.44-.52-.86-.93-1.25-6.55-6.28-16.12-4.72-22.97-10.22-5.97-4.79-11.72-10.73-19.32-10.72-1.71-.79-3.45-1.43-5.26-1.91-2.04-1.25-4.28-2.11-6.67-2.59-.68-.88-1.67-1.55-2.73-1.96-5.02-1.95-12.12-1.12-17.3-.38-1.59.23-3.3.63-4.83,1.31-.68-.12-1.41-.11-2.19.11-2.11.6-4.14,1.37-6.08,2.28-1.25-.4-2.66-.38-3.95.28-8.46,4.35-14.29,12.02-18.98,20.37-.61.4-1.12,1-1.49,1.82-2.13,4.72-4.25,9.44-6.38,14.16-.83,1.85-.53,3.63.35,5-.31,3.35-.43,6.7-.27,10.1.05,1.02.35,1.89.8,2.6-.8.8-1.31,1.95-1.24,3.45.16,3.96.34,7.93.51,11.9-.04.42-.03.86.06,1.31.21,4.78.4,9.57.54,14.35.2,6.93.3,14.84-3.81,20.76-.51.27-1.03.5-1.58.69-.27.12-.52.25-.74.39-.31.05-.6.12-.87.21-6.82-.42-13.7,1-19.68,4.54-7.93,4.69-10.87,13.63-14.77,21.51-.23.47-.39.94-.48,1.39-.13.13-.25.26-.36.4-24.07,2.1-49.11,5.49-71.97,13.28-11.27,3.84-21.73,9.57-31.99,15.54-8.31,4.84-16.88,9.64-23.74,16.43-2.57,1.98-5.13,3.97-7.71,5.93-.39.3-.71.62-.98.97-16.17,13.76-30.41,30.2-38.3,50.13-4.4,11.13-5.86,22.94-6.41,34.82-.56,11.99-.77,23.98.88,35.86.21,1.97.43,3.94.64,5.91-.03,1.15.27,2.31.92,3.24l.38,10.49c-.55,1.04-.73,2.28-.55,3.45-.2,2.64-.48,5.26-.86,7.87-3.13,7.65-5.92,15.42-8.36,23.33-.96,3.1,1.65,6.36,4.82,6.33,9.33-.1,17.71-3.76,25.64-8.41,8.81-5.16,17.41-10.58,26.43-15.38,13.17-7.01,26.76-13.15,40.68-18.46,1.11.31,2.37.27,3.68-.3,4.49-1.96,8.98-3.93,13.47-5.89.55-.24,1-.56,1.36-.93,3.36-2.06,6.68-4.16,9.97-6.33.56-.14,1.14-.39,1.72-.81,1.63-1.16,3.25-2.35,4.86-3.55.77-.56,1.53-1.12,2.3-1.68.2-.15.38-.3.55-.47,1.56-1.19,3.1-2.41,4.63-3.63,1.39.29,2.93-.06,4.26-1.39,1.62-1.63,3.22-3.28,4.81-4.93,1.33.21,2.75-.2,3.95-1.57,3.24-3.71,6.47-7.41,9.71-11.12,1.07-.04,2.18-.53,3.22-1.64,10.86-11.65,21.48-23.51,31.83-35.61,4.97-5.81,9.91-11.64,14.72-17.58,3.16-3.9,8.26-7.84,6.87-12.69.15-.54-1.72-1.77-1.79-2.45-1.38-12.94,2.45-25.6,11.3-35.25.66-.72,1.07-1.49,1.26-2.26,1.94-1.07,3.94-2.03,5.98-2.86,3.34-1.37,9.71-4.32,12.9-1.35,1.13,1.05,2.88,1.56,4.49,1.35.31.21.63.37.94.5.13.38.28.76.45,1.16,1.04,2.4,4.79,3.14,6.84,1.79.2-.13.4-.25.6-.37.89.06,1.84-.09,2.79-.54,1.06-.5,2.12-1,3.18-1.51.73.47,1.59.77,2.58.76.84,0,1.68,0,2.52.01,1.76,2.57,4.45,3.38,7.6,3.6,1.84.13,3.69.18,5.55.21.52.41,1.14.73,1.91.89,2.92.62,5.85,1.12,8.8,1.52.56.55,1.3,1.01,2.26,1.3.65.2,1.29.34,1.94.45.41.29.85.55,1.31.77.57.63,1.36,1.13,2.39,1.39.24.06.48.13.73.19.27.24.56.46.9.65,1.45.78,2.92,1.47,4.4,2.1-.5.2-.97.47-1.39.8-4.09-1.07-8.45,4.54-4.8,8.5,3.18,3.44,5.13,7.48,6.1,12.05.31,1.44,1.05,2.4,1.99,2.97-.53,6.67-3.17,13.31-6.76,19.45-3.25,5.57,5.39,10.61,8.63,5.05,8.45-14.47,12.06-31.74,2.61-46.61,2.3.6,4.65,1.01,7.05,1.26.58.75,1.4,1.36,2.51,1.71,4.59,1.43,9.24,2.35,13.99,2.87.58.82,1.53,1.45,2.92,1.7,9.37,1.69,18.74,3.39,28.12,5.08,5.37.97,12.14,3.15,17.26.64,13.66,2.3,29.2-3.62,40.77-9.17,1.62-.78,2.39-1.99,2.55-3.28.85-.17,1.68-.56,2.4-1.21,3.53-3.2,6.43-6.75,8.87-10.64,1.14-.26,2.2-1.01,2.96-2.39,2.07-3.76,3.96-7.6,5.74-11.5.4-.8.8-1.61,1.2-2.41.22-.45.37-.89.46-1.33.79-1.85,1.56-3.7,2.3-5.58.2-.51.28-1,.28-1.48.72-.4,1.35-1.04,1.78-1.98,1.91-4.15,3.81-8.3,5.72-12.45.57-1.25.64-2.47.35-3.55.41-.32.78-.7,1.09-1.18,3.11-4.83,6.23-9.66,9.34-14.49,3.5-5.42-5.16-10.44-8.63-5.05ZM341.13,110.65c.2-.57.28-1.11.27-1.62,1.22-1.53,2.39-3.08,3.52-4.67,1.96-2.44,4.04-4.76,6.24-6.98.01,0,.02-.02.03-.02,2.61-2.07,5.1-4.24,7.51-6.52,1.03.2,2.18-.01,3.37-.83,3.01-2.08,5.87-4.3,8.61-6.7,4.07-1.95,8.63-2.7,13.3-2.73,1.97,2.71,4.86,4.47,8.26,5.92,2.26.96,4.2,2.11,5.66,3.6.32,3.26.63,6.28,2.04,9.46-.73,2.6-1.64,5.23-2.68,7.92-.61,1.6-.25,3.04.62,4.13-1.08,2.19-2.37,4.27-3.92,6.19-1.17,1.45-1.59,3.42-1.16,5.11-.53-.14-1.05-.29-1.59-.41-4.01-.94-7.99-2.51-12-3.29-8.35-1.63-18.14.22-26.23,2.42-6.21,1.69-12.54,4.12-18.25,7.38,2.12-6.12,4.25-12.23,6.37-18.35ZM374.61,153.19c-.11.11-.23.23-.34.34-.49.45-.83.99-1.03,1.61-.31.59-.45,1.22-.43,1.9-1.35,2.8-2.85,5.7-3.56,8.61-.08.31-.12.62-.16.93-.06.08-.12.16-.18.24-.45.78-.68,1.62-.68,2.52-.1.82-.2,1.64-.3,2.46-.14,1.13.6,2.6,1.37,3.43-5.55-1.6-11.19-2.72-16.99-3.47-.3-.04-.58-.04-.85-.03-.43-1.26-1.32-2.35-2.69-2.86-.95-.49-2.12-.65-3.46-.29-1.83.5-3.59,1.12-5.28,1.84.07-.06.13-.13.2-.19,4.45-1.86,8.45-5.31,12.49-8.08,3.98-2.72,8.91-3.61,13.34-5.41,3.43-1.4,6.76-2.97,10.01-4.72.46-.15.91-.3,1.37-.45.68-.23,1.33-.48,1.99-.73-.22.16-.42.34-.6.56-.1.12-.2.24-.3.36-.12,0-.24-.02-.36-.02-.44.06-.89.12-1.33.18-.85.24-1.58.67-2.21,1.29Z"/>
    <path class="cls-1" d="M311.63,188.47c-2.59-4.93-8.33-2.31-12.11-.84-3.62,1.41-6.76,2.83-7.93,6.25-.19.16-.38.33-.55.54-1.05,1.22-1.96,2.48-2.74,3.8-.02.03-.05.07-.07.1-.1.15-.2.3-.28.45-2.16,2.5-4.14,5.21-5.46,8.22-2.03,4.66-2.9,9.93-4.15,14.84-1.58,6.24,7.91,8.87,9.64,2.66,1.5-5.39,4.02-10.13,7.76-14.3,1.25-1.4,1.53-3,1.2-4.44.3-.2.59-.43.88-.71,2.2-2.18,4.41-4.35,6.61-6.53.82-.81,1.26-1.68,1.43-2.56.17-.05.29-.09.37-.13.73.14,1.5.16,2.27.01.05,0,.09-.02.14-.03,3.33-.63,4.37-4.71,2.99-7.35Z"/>
    <path class="cls-6" d="M311.68,195.59c-.93,1.04-1.87,2.09-2.8,3.13-.88.98-1.3,2.04-1.39,3.06-.64.83-1.03,1.7-1.2,2.55-1.79,1.52-1.88,3.45-1.04,5.04.02.55.14,1.09.35,1.63-2.78,5.08-6.71,9.33-12.57,12.23-.71.35-1.25.79-1.65,1.28-.8.16-1.54.5-2.19,1.02-.04.02-.07.04-.11.06-.51.17-.98.41-1.37.77-.54.35-.97.82-1.29,1.4-.37.57-.56,1.19-.59,1.86-.15.66-.12,1.33.09,1.99.39,1.21,1.14,2.38,2.3,2.99,1.2.64,2.51.85,3.85.5.17-.04.33-.1.49-.16.52-.2,1.07-.4,1.56-.68.63-.36,1.22-.83,1.74-1.34.16-.16.3-.35.43-.54.58-.06,1.18-.23,1.79-.53,8.73-4.33,14.34-11.35,18.04-19.63.64-.41,1.21-.94,1.57-1.62l.5-1.19c.23-.87.23-1.73.01-2.6.33-.98.64-1.97.93-2.97.36-.63.52-1.27.53-1.91.13-.49.26-.98.38-1.48,1.12-4.61-4.88-8.75-8.36-4.86Z"/>
    <path class="cls-5" d="M350.3,259.18c-.42-2.17,1.68-1.82,3.06-2.45,10.73-4.93,19.32-16.07,17.48-28.34-1.33-8.84-6.81-16.41-7.72-25.36-4.29-3.33-9.74-4.61-14.89-6.24-6.72-2.13-16.72-4.75-23.92-3.86-5.11.63-2.49,2.4-2.39,5.88.5,17.67-16.18,41.81-36.04,37.16-1.01-.24-2.17-1.28-3.02-1.3-1.37-.03-6.36,8.27-7.64,9.94-18.55,24.13-39.79,46.77-61.74,67.35-8.52,7.99-23.15,18.38-33.89,23.65s-22.68,8.5-33.85,12.65c-1.58.59-3.24-.4-3.26,2.04-.02,2.25,3.53,7.41,5.05,9.27,5.09,6.26,14.54,11.83,18.85,18.68,3.11,4.94.31,9.67-3.88,12.8-10.06,7.5-28.79,4.95-40.28,2.38-11.81-2.64-26.64-9.31-38.52-9.4-7.6-.06-18.36,4.47-24.86-.57-1.79-1.39-2.68-4.16-2.71-6.43-.04-2.63,1.39-6.32,1.37-8.61-.1-14.2-6.86-44.32-11.23-58.32-2.21-7.09-10.73-22.15-10.56-28.2.28-9.81,10.3-12.08,18.26-10.15,3.29.8,6.48,3.25,9.47,3.98.56.14.81.43,1.22-.24.23-.37.56-7.03.86-8.75,4.15-23.83,22.27-49.48,39.57-65.57,36.28-33.74,81.24-50.26,130.28-55.72,4.05-.45,8.35-.26,12.44-.74.5-2.83,1.69-5.64,3.21-8.08,6.01-9.68,16.02-17.96,27.82-18.22,2.34-.05,5.19,1.89,6.89-.88,3.78-6.16,4.48-13.49,4.46-20.47-.08-26.82-10.13-51.58,11.29-73.49,17.5-17.91,39.68-22.57,63.01-12.61,14.31,6.11,29.85,20.61,44.22,23.46,1.67.33,5.75,1.67,6.05,1.68,6.03.08,18.93-2.76,23.57-6.36,2.64-2.05,5.91-7.81,6.36-11.16,1.02-7.57-1.47-10.16-8.31-12.72-1.17-.44-3.67-.21-2.64-1.87.91-1.46,7.03.04,8.61.71,6.09,2.57,7.82,7.92,6.94,14.18-.82,5.84-3.45,12.6-6.79,17.7-.47.72-2.06,2.78-2.66,3.56-2.91,3.81-11.24,10.94-15.63,13.17-1.95.99-9.84,4.16-11.78,4.57-1.72.36-3.93.03-5.66-.2-.15.72.21,1.04.72,1.45,9.47,7.75,13.37,12.01,16.64,24.6s-.5,26.47-8.16,36.8c-1.41,1.9-5.5,5.52-6.2,7.23s2.32,1.9,3.28,2.49c9.37,5.74,18.7,13.05,26.9,20.13,11.61,10.04,21.47,22.05,34.48,30.28,1.26-.68,2.69-1.11,3.94-1.79,16.87-9.21,21.61-23.87,34.48-37.02,7.73-7.9,23.66-20.64,34.34-23.21.98-.24,1.88-.33,2.88-.23.37.32-1.59,2.66-1.93,3.1-6.58,8.48-11.55,13.78-16.59,23.73-10.95,21.65-12.71,39.32-29.27,58.84-.46.54-2.04,1.05-2.19,1.91-.14.79,2.34,3.42,3.07,4,5.87,4.67,14.76,5.68,21.93,4.26,2.42-.48,13.18-7.06,15.47-8.99,1.34-1.12,5.25-6.3,6-6.51,1.38-.39,1.93,1.2,1.87,2.36-2.64,4.23-4.77,8.86-7.91,12.76-11.26,14-25.21,20.34-42.67,16.76-12-2.46-21.08-11.12-24.97-11.55-2.42-.27-4.45,1.13-6.21,1.4-22.78,3.39-45.57-1.38-67.48-6.93-4.68-1.18-9.38-2.86-14.02-4.22.76,2.67,2.42,10.19,2.59,11.3,1.17,7.67-1.44,16.8-5.3,23.36-3.62,6.15-8.33,9.25-15.03,11.94-1.4.56-17.12,3.25-17.12,3.25ZM374.51,21.34c-26.48-15.4-50.54-16.16-71.47,8.13-8.24,9.57-11.31,18.32-10.92,31.14.28,9.16,1.86,19.09,2.39,28.28.47,8.21.7,18.89-2.37,26.51-.65,1.6-3.47,6.89-4.65,7.83-2.72,2.17-4.39.33-7.27.04-9.18-.94-17.22,5.45-22.66,12.22-.59.74-4.69,6.8-4.85,7.25-.55,1.6-.02,5.13-1.62,6.01-2.62,1.43-8.55.67-11.87,1.03-14.22,1.56-29.46,3.86-43.27,7.5-47.93,12.63-102.79,46.52-120.78,94.11-5.84,15.44-6.34,26.83-6.48,43.02-.05,6.37-.2,12.99-.01,19.22.4,13.38,4.24,30.59-.21,43.07-1.7,4.77-4.99,8.87-6.38,13.79-2.05,7.26-2.17,11.24,6.7,10.58,10.24-.76,34.73-16.31,44.8-21.84,11.7-6.43,25.51-14.95,38.35-19.18,4.27-1.41,8.79-1.77,13.34-3.43,30.26-11.03,58.03-39.29,79.32-62.42.65-.7,24.1-28.07,30.92-37.96.57-.82,2.83-4.13,2.84-4.78.03-1.89-1.91-3.18-2.23-4.45-3.19-12.47,5.59-30.95,15.84-38.21,6.98-4.95,15.25-6.73,22.82-1.78,1.24.81,2.45,2.92,3.27,3,.89.09,4.54-1.77,6.7-1.95,1.76-.15,4.46-.1,6.25.03,18,1.37,34.59,10.8,51.76,15.95,30.11,9.02,68.44,19.36,98.69,7.23,33.95-13.61,32.29-46.41,49.28-73.6l2.53-6.35c-.77.47-1.8.52-2.53.96-4.95,2.95-17.1,15.35-20.97,20.02-7.3,8.81-12.62,20.35-22.25,26.61-25.31,16.44-56.17,16.62-83.95,9.66-8.62-2.16-17.08-5.06-25.55-8.06-5.93-2.1-12.16-5.02-18.32-6.65-4.93-1.3-10.33-1.52-15.22-3.01-4.17,2.37-7.96,5.31-12.78,6.35-2.85.62-4.2.83-3.18-2.72.52-1.82,8.74-4.77,10.78-5.78,13.55-9.53,38.43-24.46,55.96-18.33,15.72,5.49,27.42,13.48,40.46,23.63,3.02,2.35,5.88,5.63,9,8.03,1.62,1.25,6.86,4.81,8.62,4.82,5.02,0,10.34-2.53,15.12-3.82.51-.5-6.38-5.8-7.03-6.4-8.67-7.85-17.33-16.69-26.37-24.38-2.43-2.07-6.38-4.54-8.52-6.71-.63-.65-9.17-7.12-11.84-8.79-11.49-7.23-29.1-14.26-42.78-13.91-11.31.28-31.37,6.63-40.31,13.4-1.42,1.08-8.08,8.51-9.84,6.71,0,0,5-7.98,7.44-10.57,2.74-2.92,1.61-2.73,3.05-6.06,4.12-9.5,7.49-16.72,14.28-24.61,6.4-7.44,14.15-14.74,22.79-18.95,3.6-1.75,6.84-2.75,10.85-2.61,8.97.33,19.69,4.94,21.17,14.82.12.79-.2,10.42-.38,11.87-.39,3.1-2.16,7.02-3.67,9.77-.76,1.39-3.93,4.52-2.58,5.58.54.42,6.23,2.49,7.29,2.79.94.27,2.91,1.05,3.73.62.35-.18,4.65-5.13,5.21-5.86,6.48-8.43,11.34-21.29,9.57-32-.36-2.21-2.84-10.25-3.7-12.41-.57-1.44-8.74-10.06-10.38-11.45-3.84-3.26-15.47-7.27-20.54-8.13-11.62-1.96-26.09.85-36.35,6.66-15.35,8.69-31.9,36.88-32.57,54.37-.06,1.62,1.64,4.84-1.14,4.57-1.92-.19-1.96-3.46-2.04-5.08-.34-7.08.94-14.49,3.8-20.94,1.47-3.32.45-5.2.65-8.85.4-7.32,1.59-16.04,3.53-23.12.18-.68,1.36-4.29,1.55-4.58.43-.67,5.58-9.04,6.08-9.88,3.05-5.14,14.87-14.1,20.77-15.2,22.77-4.25,32.29,12.45,51.07,17.31,2.19.57,7.2,1.98,9.18,1.89,1.44-.06,10.74-3.12,12.35-3.88,3.67-1.75,9.58-7.62,12.03-10.37.38-.43.18-2.12-.34-2.02-8.58,1.58-16.8,5.51-26.2,3.07-5.93-3.01-13.61-5.16-19.24-8.5-4.57-2.72-9.58-7.02-14.47-9.86ZM388.56,50.93c-3.67-1.66-6.62-4.29-10.21-6.35-11.72-6.71-22.91-10.11-35.01-2.3-12.95,8.36-19.66,25.14-20.07,39.96-.02.91,1.58-.1,2.38-1.46,9.89-16.69,24.82-26.99,44.11-29.75,6.95-.99,10.1-.06,16.62.38.51.03,2.26.34,2.17-.49ZM390.52,117.8c4.58-6.67,6.58-10.34,6.63-19.1.03-4.97-1.62-7.57-5.54-10.33-14.36-10.1-31.63,4.43-41.02,15.04-6.23,7.04-10.11,15.04-13.49,23.74,17.02-6.82,34.52-11.92,52.76-6.14-.03-1.17-.05-2.2.64-3.22ZM386.94,154.13c-1.67.4-10.65.86-11.07,1.26-3.54,3.35-4.67,12.75-5.07,17.45,1.32.48,8.88,3.86,9.39,3.36.09-1.32-.15-2.73.05-4.04.23-1.46,1.18-5.04,1.63-6.53,1.23-4.07,3.43-7.62,5.07-11.49ZM423.21,170.19c-9.21-6.63-19.69-12.27-30.69-15.05-2.09,2.33-4.15,5.36-5.14,8.32-1.56,4.71-2.74,9.74-2.89,14.65,5.54,2,11.23,3.03,16.88,4.49,7.12,1.84,14.35,4.09,21.77,5.12,7.03.97,14.22,1.26,21.28.57.93-.76-3.06-3.01-3.27-3.2-5.79-5.06-11.78-10.48-17.95-14.92ZM366.28,170.89c-.83-1.95,3.32-12.88,2.9-13.43-4.73,2-9.74,3.52-14.15,6.22-1.51.93-3.22,3.27-5.05,3.35.81,1.57,3.23.82,4.9,1.1,3.89.65,7.54,2.03,11.39,2.77ZM311.01,190.07c-.47-.79-5.22-1.6-6.37-1.54-13.36.75-24.18,19.52-24.29,31.41-.03,3.01-.19,5.23,1.43,7.91l4.13-8.11c6.44-10.8,14.13-19.27,23.62-27.37.52-.44,2.63-.4,1.49-2.31ZM314.3,212.2c2.26-5.69,4.45-12.5.39-17.88-.5.96-4.83,3.15-5,3.42-.14.23.05,4.31-.11,5.39-1.21,8.03-8.36,21.93-17.12,23.68-3.39.68-6.49-1.2-6.36,4.4,5.15,1.08,10.93.32,15.46-2.37.29-.17,9.9-9.48,12.74-16.64ZM379.42,207.86l-11.27-2.89c3.06,11.51,9.89,20.9,6.62,33.34-.96,3.65-2.76,6.94-4.3,10.34.4.39,5.13-3.53,5.71-4.12,4.91-4.99,8.21-15.65,7.32-22.53-.11-.83-2.37-9.86-4.08-14.15ZM519.82,219.24c-1.17-.15-4.05.42-5.58.22-6.56-.86-14.34-5.09-18.35-10.34-5.08,2.78-9.98,5.76-15.53,7.58-.21.28,1.36,1.57,1.75,1.84,13.31,9.07,30.62,10.73,44.51,2.05,1.11-1.6,5.44-3.12,6.01-4.53.35-.86-.64-.89-1.18-.72-.45.13-11.08,3.98-11.63,3.91ZM60.88,279.5c-4.28-2.05-14.44-5.96-18.24-2.09-.55.56-2,2.9-2.07,3.61-.51,5.1,6.29,16.75,8.29,22.2,3.37,9.22,6.06,21.1,8.04,30.79,1.56,7.65,2.1,17.6,4.06,24.7.15.55.16,1.16.9,1.25.08-1.22,1.03-2.04,1.46-3.1,3.81-9.36,2.41-19.05,1.99-28.82-.43-9.89-1.38-19.79-1.45-29.76-.04-5.04.84-10.25.56-15.34-.17-3.02-3.41-3.36-3.55-3.43ZM138.15,351.44l-51.84,28.22c1.77.84,3.75.22,5.47.53,14.69,2.66,28.4,8.77,43.25,11.01,6.5.98,19.31-.04,24.61-4,1.64-1.23,3.87-3.31,3.2-5.5-.26-.85-6.12-7.14-7.21-8.17-4.67-4.41-9.76-7.84-13.64-13.34-1.75-2.48-3.67-5.7-3.84-8.75Z"/>
    <path class="cls-5" d="M265.67,141.63c-.35.29-4.51,4.85-4.67,5.16-1.5,2.81.24,6.2-4.59,4.28.49-1.54.62-3.29,1.21-4.78,1.56-3.96,11.11-11.5,14.64-14.63,1.48-1.31,2.83-3.26,4.55-4.57s5.5-3.73,4.94.58c-.48,3.67-7.12,9.6-10.25,11.39-1.71.98-4.74,1.67-5.83,2.57Z"/>
    <path class="cls-5" d="M257.55,196.03c.67,2.01,2.32,4.03,3.03,5.83.34.87,1.6,3.35,2.08,3.81,1.21,1.15,2.58,3.56,3.5,4.32.81.67,2.15-.54.75,2.96-1.61,1.11-6.29-4.21-7.15-5.48-4.41-6.5-7.94-18.31-9-26.03-.3-2.18-1.98-10.49,1.99-9.21,1.32.43.36,1.78.46,2.53,1.02,7.19,2.01,14.34,4.33,21.27Z"/>
    <path class="cls-5" d="M230.62,206.16c-.75-.87-1.43-4.69-1.51-5.05-.59-2.53-1.7-9.5-1.48-11.82.14-1.42,1.22-3.67,2.91-2.48.6.42,1.5,12.35,1.92,14.4.25,1.23,2.75,4.85.62,5.52-.57.18-2.07-.12-2.45-.56Z"/>
    <path class="cls-5" d="M298.13,130.92c.58.58-2.57,9.25-3.33,10.22-1.3,1.66-4.43.24-4.32-2.25.05-1.04,1.81-5.73,2.46-6.68,1.76-2.58,2.49-1.53,5.2-1.28Z"/>
    <path class="cls-5" d="M244.79,187.18c.41.74.9,7.99,1.19,9.62s2.72,6.6.59,7.08c-.42.1-2.48-2.12-2.68-2.58-.7-1.61-2.66-12.47-2.25-13.88.14-.46.5-.8.86-1.1.46-.4,2.21.72,2.29.86Z"/>
    <path class="cls-5" d="M332.88,118.66c-1.2,1.39-5.7,7.37-6.71,7.47-4.21.43.55-5.16,1.44-6.29.41-.52,2.83-3.85,3.77-4.62,1.26-1.04,2.99-1.69,3.5.32.35,1.39-1.25,2.24-2,3.11Z"/>
    <path class="cls-5" d="M221.85,203.86c-4.1.64-4-7.53-4.03-7.93-.14-1.65.12-6.16,1.9-6.47,3.64-.64,1.24,2.5,1.15,4.09-.22,3.61,2.02,6.95.98,10.32Z"/>
    <path class="cls-5" d="M299.89,140.1c1.01-.35,2.78.13,2.97,1.2.14.75-3.68,8.31-5.08,8.73-6.51,1.93.84-9.49,2.1-9.93Z"/>
    <path class="cls-5" d="M329.66,180c1.21,1.14.26,2.43-1.2,2.68-2.1.36-8.08-2.85-6.29-5.62,2.3-.67,3.28,1.05,4.87,1.96.75.43,2.1.49,2.62.98Z"/>
  </g>
</svg>