<?xml version="1.0" encoding="UTF-8"?>
<svg id="Toad_fish" data-name="Toad fish" xmlns="http://www.w3.org/2000/svg" xmlns:xlink="http://www.w3.org/1999/xlink" viewBox="0 0 586.14 401.97">
  <defs>
    <style>
      .cls-1 {
        fill: url(#linear-gradient-3);
      }

      .cls-2 {
        fill: url(#linear-gradient-2);
      }

      .cls-3 {
        fill: #ffcf99;
      }

      .cls-4 {
        fill: url(#linear-gradient);
      }

      .cls-5 {
        fill: #faf6d2;
      }

      .cls-6 {
        fill: #060504;
      }
    </style>
    <linearGradient id="linear-gradient" x1="88.5" y1="118.33" x2="448.35" y2="271.96" gradientUnits="userSpaceOnUse">
      <stop offset="0" stop-color="#3fa0a2"/>
      <stop offset=".25" stop-color="#43a4a4"/>
      <stop offset=".51" stop-color="#4fb1ab"/>
      <stop offset=".78" stop-color="#64c7b8"/>
      <stop offset="1" stop-color="#7adec5"/>
    </linearGradient>
    <linearGradient id="linear-gradient-2" x1="250.51" y1="259.64" x2="317.92" y2="407.52" gradientUnits="userSpaceOnUse">
      <stop offset="0" stop-color="#ffcf99"/>
      <stop offset=".03" stop-color="#fed09b"/>
      <stop offset=".38" stop-color="#fce5b9"/>
      <stop offset=".68" stop-color="#faf1cb"/>
      <stop offset=".89" stop-color="#faf6d2"/>
    </linearGradient>
    <linearGradient id="linear-gradient-3" x1="447.85" y1="169.37" x2="532.29" y2="169.37" gradientUnits="userSpaceOnUse">
      <stop offset="0" stop-color="#ffcf99"/>
      <stop offset=".25" stop-color="#fed4a1"/>
      <stop offset=".63" stop-color="#fce3b7"/>
      <stop offset="1" stop-color="#faf6d2"/>
    </linearGradient>
  </defs>
  <g id="toadfish">
    <path class="cls-4" d="M447.8,160.62c-2.91-15.19-7.36-29.51-15.17-42.93-7.52-12.91-17.17-24.49-27.32-35.39-.71-.77-1.5-1.22-2.29-1.42-.34-.26-.7-.48-1.11-.62-.32-.17-.66-.29-1.01-.36-6.43-7.26-13.68-13.93-23.27-16.54-6.92-1.88-13.77-2.24-20.42-5.2-5.62-2.5-11.04-5.4-16.88-7.4-12.34-4.21-25.64-4.95-38.56-5.55-6.42-.3-12.85-.58-19.28-.87-.79-.68-1.84-1.12-3.15-1.12-7.36,0-14.73,0-22.09,0-1.88,0-3.21.83-3.99,2.01-7.91-.29-15.82-.61-23.72-.91-.29-.01-.55,0-.82.03-.54-.25-1.11-.36-1.73-.34-.11,0-.23,0-.34,0-.06,0-.11,0-.17,0-.47-.18-.99-.3-1.57-.34-37.64-2.55-75.11,18-93.36,50.98-.32.58-.5,1.17-.57,1.75-12.8,18.04-22.16,38.65-30.7,59.31-1.77,3.18-3.17,6.56-4.19,10.17-4.56,9.44-8.36,19.17-10.61,29.63-3.52,16.35-4.67,33.55-12.2,48.75-.7,1.42-.79,2.74-.46,3.86-2.83,5.74-6.87,10.95-9.03,16.83-1.76,3.39-2.18,7.2-1.23,11.24.41,1.76,1.67,2.82,3.15,3.27,5.89,11.33,20.09,17.99,32.27,19.49,8.06.99,13.5-1.87,20.29-5.67,7.99-4.48,16.55-1.51,24.61,1.27.31.11.6.17.89.22,4.83,2.98,8.71,7.46,13.5,10.55.85.55,1.72,1.06,2.59,1.56.12,1.52.88,2.99,2.37,3.81,8.54,4.72,18.32,7.24,28.11,6.4,3.61-.31,7.05-.97,10.04-2.99.06,0,.12-.02.18-.02.85-.24,1.58-.67,2.21-1.29.02-.02.03-.04.05-.06.1-.07.2-.13.3-.21,12.31-9.44,25.49-19.42,40.26-24,.59-.02,1.15-.15,1.66-.42.12-.04.22-.11.34-.16.34-.09.68-.17,1.02-.26,6.55-.35,13.11-.7,19.66-1.05,1.08,1.5,2.99,2.49,5.32,2.15,8.47-1.23,16.54-3.79,24.38-7.02,1.09.88,2.53,1.22,4.14.56.4-.17.79-.35,1.19-.52,0,0,0,0,0,.01.05-.03.1-.05.15-.08,3.66-1.59,7.1-3.42,10.37-5.54l3.82-2.04c4.69-.61,9.22-1.86,13.35-4.36,1.48-.9,2.22-2.44,2.32-4.01l2.14-1.14c5.48-2.92,10.99-6.51,16.9-8.48,5.43-1.81,11.04-1.16,16.64-.82,12.15.75,24.35.6,36.48-.46,5.87-.51,11.72-1.24,17.55-2.14,3.17-.49,6.32-1.04,9.47-1.66.74-.14,1.48-.3,2.22-.45,4.41,3.07,11.6,2.22,12.19-4.17.04-.42.04-.8.03-1.17,7.91-9.4,8.47-24.51,8.64-36.12.23-16.32-2.46-32.6-5.53-48.58Z"/>
    <path class="cls-2" d="M436.04,254.71c-7.84,1.61-15.72,2.88-23.65,3.83-.72-.15-1.52-.12-2.4.13-.29.08-.57.16-.86.23-4.14.45-8.28.82-12.45,1.09-.71.05-1.33.21-1.88.44-11.98-.27-24.08-3.47-36.11-2.58-9.38.7-18.12,4.22-26.59,8.47-7.69,2.8-14.99,6.63-21.76,11.4-.6.29-1.21.57-1.81.85-17.32,7.91-35.55,13.25-54.74,11.35-9.48-.94-16.53.19-25.06,4.57-8.28,4.25-15.9,9.57-23,15.57-1.53,1.29-1.91,2.81-1.58,4.19-6.22,3.71-12.83,6.56-19.79,7.21-3.83-2.53-8.18-2.93-12.38-1.65-.76-.18-1.53-.37-2.28-.59-3.4-1.77-6.66-3.75-9.78-5.95-2.22-2.99-5.15-5.36-8.66-6.88-.49-.21-1-.34-1.5-.4-1.66-1.33-3.37-2.61-5.13-3.79-.53-.42-1.06-.84-1.59-1.26-.7-.56-1.45-.89-2.19-1.06-3.83-2.12-7.91-3.69-12.38-4.25-11.12-1.38-20.69,6.14-31.6,5.2-.82-.07-1.53.08-2.16.36-1.01-.55-1.96-1.21-2.84-2.01-1.64-1.49-4.14-1.55-6.04-.64-4.7-2.01-10.17,4.15-5.69,7.93l7.61,6.43c.32,1.16,1.04,2.21,2.26,2.88.24.61.62,1.18,1.19,1.63.36.29.73.58,1.09.87.11.32.24.63.4.92.06.2.14.39.24.58.2.62.55,1.16,1.03,1.61.45.49.99.83,1.61,1.03.42.22.86.35,1.33.4.55.57,1.11,1.13,1.7,1.66.9.82,1.85,1.57,2.81,2.3.22.3.48.59.8.87,10.21,9.11,21.42,16.92,33.57,23.22,1.16.6,2.4.65,3.54.33,2.49,1.11,4.98,2.22,7.47,3.33,8.87,6.39,19.1,10.47,29.36,14.16,1.71.71,3.42,1.39,5.16,2.03.47.17.92.26,1.35.28,6.29,2.2,12.62,4.07,19.24,5.01,7.48,1.07,15.02,1.36,22.35,3.35,1.66.45,3.06.09,4.11-.71,3.11.49,6.23.79,9.38.89.7.41,1.52.64,2.44.6,4.72-.22,9.43-.59,14.13-1.07.35.19.73.36,1.16.47,14.78,3.65,31.01-.07,45.43-3.87,6.38-1.68,12.65-3.71,18.82-6.02.64.07,1.32,0,2.03-.29,18.96-7.58,38.35-15.74,54.1-28.8.97.13,2.03-.09,3.11-.8.89-.59,1.76-1.21,2.63-1.82.19-.09.38-.19.57-.3,8.99-5.43,16.65-12.36,22.99-20.63.48-.26.94-.61,1.36-1.1,4.62-5.32,8.96-10.86,13-16.6.23-.32.46-.63.69-.95.07-.1.13-.21.2-.31,3.12-4.51,6.07-9.13,8.82-13.9.72-1.26.88-2.46.65-3.51,2.99-3.94,5.99-7.88,8.98-11.82.98-1.29,1.03-2.7.53-3.96.51-.6,1-1.21,1.52-1.81,3.3-3.83.14-9.38-4.86-8.36Z"/>
    <path class="cls-1" d="M531.99,181.3c-.35-9.61-1.17-19.18-2.53-28.71-1.3-9.1-2.22-19.16-5.12-27.9-1.2-3.6-3.66-5.71-5.55-8.83-2.08-3.44-2.89-6.52-7.52-7.04-6.96-.79-15.9,4.19-21.78,7.46-7.01,3.91-13.43,8.85-19.51,14.06-2.92,2.5-5.76,5.08-8.56,7.7-2.27,2.12-5.72,4.5-7.03,7.56-3.28-.82-7.47,1.77-6.33,6.05,2.73,10.22,4.85,20.61,6.11,31.12.59,4.88.53,9.95,1.32,14.79.79,4.86,4.87,6.18,8.9,8.19,9.31,4.66,18.62,9.32,27.92,13.98,8.08,4.04,16,6.28,24.59,8.17,1.37,1.84,3.94,2.84,6.5,1.52,7.51-3.89,8.8-10.88,8.86-18.66.08-9.82.11-19.64-.25-29.45Z"/>
    <path class="cls-3" d="M265.11,209.1c-2.97-4.97-9.93-6.03-15.12-4.56-5.68,1.61-10.72,6.44-14.57,10.73-2.06,2.29-3.97,4.76-5.66,7.34-.47.71-1.42,2.78-2.46,4.49-1.06.35-2.07.96-2.97,1.71-.2-.03-.39-.08-.59-.09-2.83-.22-5.64,1.39-7.15,3.73-1.33,2.06-1.49,4.63-.71,6.9.02,1.48.76,2.92,2.5,3.83,6.42,3.35,12.91,6.63,19.91,8.44,3.94,1.45,8,2.8,11.89,3.57,5.65,1.11,11.96-.38,14.79-5.85,2.92-5.64,2.8-14.14,3.05-20.35.25-6.12.33-14.44-2.94-19.9Z"/>
    <path class="cls-5" d="M72.86,216.64c-3.14,3.76-6.08,7.58-6.9,12.54-.35,2.14-.28,4.26-1,6.32-.88,2.53-1.66,4.39-.71,7.08,2.13,6.03,11.79,3.43,9.64-2.66-.16-.46,1.21-3.43,1.34-4.12.25-1.31.24-2.65.42-3.97.45-3.28,2.17-5.61,4.27-8.12,4.1-4.91-2.94-12.02-7.07-7.07Z"/>
    <g>
      <path class="cls-3" d="M146.39,179.58c-.01-.06-.03-.11-.04-.17-.08-.33-.18-.62-.3-.9.05-1.53-.52-3.02-1.12-4.6-1.67-4.47-6.83-4.35-8.9-1.38-4.2-1.61-9.95.15-13.92,1.64-5.97,2.25-3.18,10.34,2.86,8.06.8-.3,1.57.9,2.6.56,2.57,1.98,6.47,1.66,9.89,1.3,1.55,1.94,4.2,2.35,6.43,1.24.07-.03.13-.07.2-.1,2.02-1.01,2.78-3.59,2.3-5.65Z"/>
      <path class="cls-3" d="M140.41,139.49c-6.43,0-6.45,10,0,10s6.45-10,0-10Z"/>
      <path class="cls-3" d="M185.66,99.08c-.24.29-.45.6-.6.94-.27.41-.5.86-.68,1.34-1.15,3.14-3.72,5.59-7.06,7.1-2.46,1.11-3.06,4.68-1.79,6.84,1.03,1.77,2.76,2.47,4.55,2.36.8.89,1.97,1.5,3.51,1.54.41-.06.78.04,1.11.3,2.66,1.45,6.68.28,7.34-2.99.99-4.85,2.04-9.68,3.15-14.5,1.43-6.19-7.34-8.68-9.54-2.93Z"/>
      <path class="cls-3" d="M244.77,150.99c-1.94.1-4.01.04-5.9.54-.9.24-1.76.67-2.52,1.23-.9.4-1.71,1.07-2.29,2-1.69,2.68-.56,5.94,1.96,7.58,2.05,1.34,4.97.62,6.47-1.22.76-.03,1.53-.08,2.29-.12,2.61-.13,5.13-2.21,5-5-.12-2.6-2.2-5.14-5-5Z"/>
      <path class="cls-3" d="M273.3,85.82c-3.88,1.44-7.69,3.07-11.4,4.92-2.53-1.97-6.95-1.67-8.04,2.36-1.59,5.89,3.75,13.41,10.09,13.13,3.19-.14,5.69-2.25,7.8-4.44,2.61-2.7,5.05-5.52,7.19-8.62,2.4-3.47-1.62-8.83-5.65-7.34Z"/>
      <path class="cls-3" d="M336.13,113.14c-1.62.55-3.17,1.21-4.67,1.98-1.58-.13-3.1.29-4.39,1.25-.61-.06-1.22-.04-1.82.09-.06.01-.11.03-.17.05-3.32-3.43-10.48-.79-8.5,4.5,1.38,3.67,3.99,9.65,8.4,10.31,1.89.28,3.74-.43,4.91-1.9.31-.17.6-.35.88-.58.97-.78,1.59-1.7,2.1-2.83.02-.03.03-.08.05-.12.1-.06.2-.1.29-.17,1.75-1.24,3.53-2.26,5.57-2.95,6.06-2.06,3.46-11.72-2.66-9.64Z"/>
      <path class="cls-3" d="M341.25,180.25c-1.66-1.34-3.35-2.6-5.26-3.57-.94-.48-1.91-.89-2.89-1.28,0-.08,0-.16,0-.24-.12-6.43-10.12-6.45-10,0,.07,3.73.52,7.23,4.44,8.82,2.38.96,4.03,3.42,6.64,3.33,2.8-.09,5.02,2.05,7.07,0,1.75-1.75,2.11-5.37,0-7.07Z"/>
      <path class="cls-3" d="M399.79,137.74c-.69.27-1.38.53-2.07.78-1.67.38-4.28.31-5.56.28-2.57-.05-4.52-.54-6.95-.2-3.38-3.84-10.53.88-7.87,6.18,2.07,4.14,5.29,7.91,10.31,6.73,5.04-1.19,9.96-2.26,14.81-4.14,0,0,0,0,0,0,.39-.15.79-.31,1.19-.5,5.03-2.43,1.46-11.19-3.85-9.14Z"/>
      <path class="cls-3" d="M411.91,190.32c-2.38-.28-4.57-2.06-6.91-2.62-1.16-.27-2.32-.38-3.49-.31-2.06-2.26-6.09-2.85-8.08.57-.9,1.54-2.24,3.35-2.02,5.23.27,2.36,1.39,4.03,3.67,4.82,2.86,1,5.44-1.2,8.13-.43,3.06.87,4.52-.74,7.77-.37,2.69.31,5.93.57,5.93-1.9,0-2.96-2.31-4.69-5-5Z"/>
      <path class="cls-3" d="M135.87,70.75c-.09-.1-.18-.2-.28-.3-1.06-1-2.5-1.49-3.92-1.46-.68-2.39-3.81-3.66-6.05-3.04-2.86.79-3.89,3.47-3.49,6.15.19,1.25.9,2.18,1.39,3.31.47,1.08.69,2.25.88,3.41.46,2.74.92,5.18,2.03,7.76,1.78,4.15,8.05,2.58,9.14-1.19.3-1.06.47-2.14.54-3.23,1.3-.58,2.44-1.68,3.54-2.82,3.45-3.57.03-8.6-3.77-8.58Z"/>
      <path class="cls-3" d="M211.64,35.43c-.18-.28-.39-.56-.52-.86-.22-.49-.38-1.25-.42-1.76-.17-2.47-1.77-4.61-4.34-4.91-2.38-.28-4.88,1.12-5.49,3.58-.15.6-.3,1.21-.44,1.81-.34.2-.67.42-.97.69-1,.9-1.84,2-2.44,3.2-1.61,3.24.3,7.65,4.32,7.52,1.43-.05,2.83-.4,4.05-1.06,1.37,1.2,3.05,1.9,5.06,1.7,2.69-.27,5-2.1,5-5,0-2.12-1.66-4.44-3.82-4.92Z"/>
      <path class="cls-3" d="M291.58,23.53c-2.17-.87-5.11-.22-6.24,2.05-.94,1.89-2.81,3.23-4.41,4.59-1.71,1.46-3.53,2.7-5.57,3.67-2.44,1.16-3.08,4.65-1.79,6.84,1.46,2.49,4.39,2.96,6.84,1.79,1.04-.5,2.02-1.09,2.97-1.72.81.99,1.98,1.63,3.48,1.57,1.93,1.01,4.26.93,5.93-.74,1.53-1.53,1.95-4.35.73-6.23.45-2.12.64-4.32.95-5.92.47-2.44-.47-4.92-2.9-5.9Z"/>
      <path class="cls-3" d="M401.42,63.95c-.04-.88-.02-1.76-.08-2.64,1.17-1.57,1.49-3.63.4-5.49-1.28-2.18-4.62-3.36-6.84-1.79-1.95,1.37-2.94,3.3-3.39,5.45-2.19-.68-4.59-.68-6.79.02-6.12,1.93-3.5,11.58,2.66,9.64,1.33-.42,1.66.13,2.58,1.15,1.36,1.5,2.68,2.93,4.47,3.94,1.75.99,3.98.86,5.55-.39,1.72-1.37,2.08-3.16,1.79-5.26-.21-1.53-.29-3.08-.35-4.62Z"/>
      <path class="cls-3" d="M443.55,100.89c-1.17.47-2.24.2-3.48.11-1.56-.11-3.16,0-4.62.57-.11.04-.22.09-.33.14-4.77-4.09-11.72,2.88-6.96,7.16,1.56,1.4,4.49,3.74,5.39,5.91.02,2.23,1.26,4.29,3.59,4.93,2.49.68,5.59-.84,6.15-3.49.53-2.75,3.29-5,5.12-6.98,3.1-3.33.08-10.36-4.86-8.36Z"/>
      <path class="cls-3" d="M93.12,154.42s-.06-.06-.09-.08c-1.74-1.7-3.97-1.71-6.06-.78-.04.02-.09.04-.13.06-.12.06-.24.13-.36.21-.14-.08-.28-.17-.43-.24-2.33-1.18-5.53-.69-6.84,1.79-1.2,2.28-.7,5.58,1.79,6.84.12.07.2.11.27.15.3.47.56.97.8,1.47.19.4.57,1.64.83,2.68.05.2.09.4.14.59.57,2.56,3.67,4.29,6.15,3.49,2.71-.88,4.07-3.4,3.49-6.15l-.24-1.08c.34-.32.65-.69.91-1.09.52-.8.82-1.64.94-2.57,0-.07.01-.21.02-.38.49-1.69.16-3.56-1.2-4.89Z"/>
      <path class="cls-3" d="M347.77,69.23c-.32-1.16-1.22-2.42-2.3-2.99-1.16-.61-2.57-.92-3.85-.5-1.15.37-2.49,1.13-2.99,2.3-.5,1.17-1.09,2.29-1.79,3.35-1.44,2.19-.51,5.62,1.79,6.84,2.5,1.32,5.31.55,6.84-1.79.7-1.06,1.29-2.18,1.79-3.35.55-1.29.89-2.44.5-3.85Z"/>
    </g>
    <g>
      <path class="cls-6" d="M146.57,187.57c-.75.22-24.57-3.95-27.93-4.92-2.2-.64-8.28-1.7-7.49-4.81.31-1.24,3.5-2.46,4.73-2.74,3.47-.81,5.25-1.88,8.74-3.05,1.38-.46,7.45-2.03,8.04-2.22l1.44-.48c1.01-.35,1.86-.91,2.87-1.21,2.09-.62,8.73-2.8,10.13-.99,1.15,1.49,1.58,11.32,1.41,13.48s-.84,5.14-1.94,6.94ZM143.15,171.81c-3.1-.8-5.59,1.46-8,2.18-4.05,1.2-9.24,1.96-13.12,3.56-.17.07-1.32,1.04-1.34,1.38l22.23,4.75c.61-.18.69-.6.79-1.15.27-1.53.48-10.08-.55-10.72Z"/>
      <path class="cls-6" d="M407.34,145.22c-4.87,3.08-14.62,7.84-20.35,8.19-2.55.16-6.49-1.4-8.13-3.39-.31-.37-3.66-6.18-3.77-6.54-.27-.9-.87-7.62-.62-8.34.52-1.55,2.45-.39,3.48-.45,8.46-.56,17.53.71,26.3.76,4.44,1.35,8.33-.46,6.87,6.13l-3.77,3.65ZM405.56,140.59c-3.34-.33-7.07-1.18-10.36-1.4-2.62-.18-6.84-.28-9.63-.33-2.1-.04-6.37-.29-6.35,2.45,0,.38,2.9,5.28,3.31,5.76,2.91,3.33,5.87,1.11,8.99.34,6.06-1.5,5.62-1.99,10.57-4.87.96-.56,3-.29,3.47-1.94Z"/>
      <path class="cls-6" d="M179.33,120.29c-.22-.15-7.62-4.43-7.6-7.76,0-.97,1.42-4.14,2.19-4.8,6.26-5.35,18.69-21.3,21.1-20.14s1.7,20.91.68,27.64c-.38,2.52-1.28,6.3-4.26,6.68-2.67.33-9.97-.17-12.11-1.62ZM192.14,95.52c-.43-.25-2.37,1.25-2.73,1.61-1.41,1.39-13.07,15.41-13.07,15.41,3.08,1.78,5.73,4.62,9.33,5.02.72.08,4.86.19,5.03,0,.15-.15,1.25-7.04,1.43-9.84.25-4.05-.38-8.18,0-12.21Z"/>
      <path class="cls-6" d="M251.59,92.39c.02-1.06,3.33-3.03,4.24-3.44,4.25-1.93,16.85-5.93,18.93-6.49s7.88-3.34,8.9-.03c.79,2.55-5.55,12.34-8.73,16.98-2.37,3.46-4.43,8.56-9.17,8.48-3.76-.06-8.52-3.74-10.27-6.94-.63-1.16.12-1.85-.04-2.56,4.23-2.65,3.34-.36,4.78,1.57.13.17,2.87,2.93,3.07,3.03,1.16.6,1.9.78,3.16.42,1.88-.55,7.03-8.34,8.66-12.07.79-1.83,1.51-3.23,2.41-4.93-1.99.47-5.25.73-7.02,1.35-4.33,1.53-9.77,3.94-14.21,5.86-1.11.48-4.71.22-4.69-1.23Z"/>
      <path class="cls-6" d="M323.27,166.92c.41-.55,2.24-1.35,2.51-1.41,1.53-.31,4.25,2.05,5.45,3.11,2.17,1.92,7.27,7.37,7.64,7.7,3.11,3.11,7.22,6.09,10.09,9.33,1.55,1.75,3.09,4.15,0,5.27h-1.44c-1.66-.4-9.78-2.6-11.03-2.88l-1.92-.48c-3.17-.68-6.48-1.06-9.59-1.92l-1.92-.48c-2.56-1.4-2-9.09-1.92-9.59.13-.83,1.63-8.01,2.12-8.67ZM327.62,171.79c-1.76,1.32-3.5,8.07-1.67,9.32,2.25.24,4.39,1.02,6.55,1.53.61.14,7.42,1.95,7.84,1.58.27-1.15-11.42-12.23-12.72-12.42Z"/>
      <path class="cls-6" d="M315.4,117.57c.04-.92-.32-2.52.47-3.13.44-.34,8.19-1.64,9.55-1.86,5.85-.95,12.16-1.65,18.01-1.7,2.83-.02,4.88-1.83,4.33,3.32-1.46,1.19-2.44,3.09-3.59,4.44-3.17,3.74-7.95,8.75-11.57,12.06-2.33,2.14-3.44,3.06-6.78,2.56-6.09-.9-5.82-3.9-9-7.55-.56-2.4,1.28-3.37,3.11-4.31,2.37,4.4,4.64,10.42,10.16,5.59,2.12-1.86,6.06-5.89,8.03-8.04,1.02-1.11,1.81-2.56,2.69-3.78,0,0-15.67,1.96-16.31,2.15-3.46,1.06-5.64.55-9.11.24Z"/>
      <path class="cls-6" d="M230.99,160.24c-.32-2.77.07-4.41-.05-6.5-.05-.86-1.12-1.37-.93-2.82.1-.8,2.89-3.05,3.24-3.13,1.04-.23,4.61.04,5.9.22,2.48.34,6.57.86,8.73,1.29,1.11.22,8.54,2.12,8.89,2.42,1.36,1.15.34,3.8-1,4.52-2.62,1.4-4.34,2.32-6.95,3.95-3.5,2.18-8.57,4.52-11.59,6.76-5.06.68-2.87-5.58-6.23-6.71ZM248.73,155.44c-.26-2.53-3.31-1.67-4.99-1.96-2.86-.51-5.36-1.38-8.44-.91.33,1.68-.69,3.41-.47,4.99.2,1.44,2.17,2.6,2.63,4.11,3.92-1.88,7.12-4.97,11.27-6.23Z"/>
      <path class="cls-6" d="M346.09,63.39c3.28-1.11,4.47,1.52,4.33,4.53-.08,1.83-3.64,10.24-4.72,12.1-3.62,6.3-9.58-1.81-11.39-5.59-.33-.69.26-5.88,1.06-6.17,3.56-1.26,6.9-3.58,10.71-4.88ZM345.61,68.67c-.64-.69-6.42,2.44-6.98,3.36-.81,1.35,2.56,5.19,2.67,5.26.95.61.76-.2.99-.66.45-.91,3.92-5.63,3.31-7.95Z"/>
      <path class="cls-6" d="M140.16,135.02c2.29,1.81,5.03,4.51,7.25,6.53.79.72,2.04.05,1.89,2.73-.06,1.11-2.54,5.26-3.34,5.76-.35.22-5.05,2.01-5.39,2-.53-.01-3.94-1.95-4.08-2.19-.73-1.23-3.45-13.26-3.38-14.78.27-5.63,4.54-2.04,7.04-.06ZM140.65,141.24c-.52-.41-1.96-2.13-2.68-2.01.23,2.28,2,8,1.89,8.07,1.42-.48,5.41-1,3.97-2.9-.29-.39-2.76-2.82-3.19-3.15Z"/>
      <path class="cls-6" d="M395.01,183.73c1.11-.38,2.2-1.19,3.47-.87,2.18.54,17.39,7.72,21.33,9.88,2.65,1.45,4.95,4.21,1.1,5.86l-1.92.48c-.28.06-25.24,1.44-26.38,1.44h-1.92c-1.52-1.24-1.7-5.17-1.46-6.97.23-1.69,1.47-2.74,1.94-4.05.75-.63,2.91-1.73,3.36-2.4,4.87,2.35-2.93,5.91.3,9.07l22.14-.94-21.96-9.58c.11-.55-.08-1.32,0-1.92Z"/>
    </g>
    <g>
      <path class="cls-6" d="M217.56,241.27c-.73.05-1.67.63-2.4-.22-2.06-2.4,2.3-11.33,4.11-13.65,8.14-10.4,14.17-19.16,26.1-25.93,0,0,3.6-2.29,7.19-2.88.76-.12,2.81-.45,3.36-.48.71-.05,4.37,1.43,5.13,1.82,11.83,6.17,11.7,22.69,11.18,34.13v.48c-.4,6.03-.55,8.02-2.27,13.79-.33,1.1-4.28,7.24-5.4,8.26-.49.44-.88.96-1.44,1.44-2.32,1.97-14.57,1.04-17.63-.36-3.89-1.78-6.72-1.93-10.22-5.12-1.48-1.35-2.01-2.82-1.89-4.82.18-3.12,3.08-2.61,5.4-1.56,1.37.62,12.6,7.61,13.15,7.93,1.5.85,4.54.84,6.1.04.47-.24,5.07-4.38,5.31-4.76.96-1.45,2.37-7.49,2.58-9.4.91-8.24.94-21-2.44-28.58-2.44-5.48-7.15-7.91-12.92-5.59-12.32,4.95-30.46,32.9-30.61,33.38"/>
      <path class="cls-6" d="M250.51,219.11c-.05.09-2.03,2.57-2.52,2.95-.95.75-2.11,2.39-3.35,3.42-1.58,1.31-5.23,4.83-6.87,6.99-1.73,2.29-1.35,4.93-5.3,4.44-.42-1.17-.89-2.62-.29-3.81.31-.61,1.86-3.29,2.29-3.7,1.24-1.18,5.44-5.85,5.7-6.26.13-.2,7.47-7.73,9.8-5.88.57.46.91,1.18.54,1.85Z"/>
      <path class="cls-6" d="M254.36,228.01c.08.08,1.14,1.86,1.14,1.97-.06,2.51-11.26,8.4-12.48,8.67-.64.14-2.82-1.02-2.91-1.49-.16-.8,4.29-4.43,5.63-5.13,1.81-.93,7.11-5.5,8.62-4.02Z"/>
      <path class="cls-6" d="M254.83,242.56c-.35.27-5.41,2.91-5.87,3.03-.27.07-2.09-1-2.16-1.3-.74-2.96,4.87-5.99,7.21-6.2,2.73-.24,2.85,2.91.83,4.47Z"/>
    </g>
    <g>
      <path class="cls-6" d="M470.19,185.32c4.85,2.12,14.38,4.09,19.91,5.71,1.08.32,6.7,1.66,6.98,1.9.68.58.76,2.76-.41,3.48-2.64,1.61-12.05-1.92-15.81-3.39-4.21-1.64-6.28-1.76-10.56-2.79-1.41-.34-8.87-2.33-9.05-2.96-.08-.29.39-2.44.49-2.52.34-.28,4.75.09,5.58.32.96.26,2-.13,2.88.26Z"/>
      <path class="cls-6" d="M503.36,174.19c.89,6.61-22.9,3.43-27.48,3.47-2.18.02-9.31-.04-9.29-1.93.03-3.46,2.85-1.63,3.95-1.54,1.37.12,30.12-1.8,32.81,0Z"/>
      <path class="cls-6" d="M495.14,151.24c.11.07,1.6,1.78,1.6,2.04-.03,3.92-30.62,13.02-31.84,12.62-1.83-.6-1.07-4.15.29-5.02.37-.23,3.26-.82,4.76-1.24,6.48-1.83,11.97-4.57,18.39-6.5,1.38-.41,5.67-2.56,6.8-1.9Z"/>
      <path class="cls-6" d="M487.42,143.34c-3.29,1.82-10.69,6.97-10.97,7.16-.56.38-4.68.97-5.11.58-.14-.12-.53-1.96-.33-2.34.5-.97,12.48-9.89,15.31-9.05.38.11,2.24,1.97,1.1,3.66Z"/>
    </g>
    <path class="cls-6" d="M113.48,250.38c-.07-.3.39-5.87.57-6.12.32-.46,1.86-3.79,1.92-3.88.18-.28,1.69-2.35,1.82-2.47.08-.07,3.89-3.2,5.77-4.1,1.53-.73,7.23-1.67,8.9-1.7.83-.01,6.92,1.77,7.3,2.03.14.1,5.64,4.18,5.77,4.33.27.3,2.08,2.97,2.38,3.37s1.44,3.74,1.52,4.07c.18.79.15,3.56.02,4.46-.2,1.41-.9,4.09-1.18,4.79-.08.19-2.42,2.84-2.7,3.08-.82.71-8.42,4.96-8.93,5.06-3.33.7-8-.27-11.23-1.15-.84-.23-.84-1.02-1.27-1.21-.8-.34-2.02-.28-2.51-.51-.66-.31-.79-.86-.96-.96l-.96-.48c-1.68-1.44-3.43-3.85-4.32-5.75,0,0-.55-3.18-1.92-2.88ZM134.71,245.46c2.01,1.85,6.68,1.05,7.1-2.01.89-6.54-7.59-5.47-8.18-1.92-.16.96.41,3.3,1.09,3.93Z"/>
    <ellipse class="cls-6" cx="131.58" cy="247.73" rx="18.6" ry="15.5"/>
    <ellipse class="cls-5" cx="139.48" cy="241.23" rx="3.5" ry="3"/>
    <path class="cls-6" d="M292.86,18.32s1.15-2,2.4,1.44c.01.17.54.99.96.96.44.54.57,3.6.53,4.57-.15,3.54-.12,6.68-.05,10.5.03,1.55-1.32,3.33.5,4.81,5.33.58,10.52,2.25,15.79,2.91,1.08.14,2.48-.14,3.82,0,11.67,1.19,26.07,4.18,36.86,8.33,6.79,2.62,12.81,5.11,19.76,7.48,1.65.56,4.42,2.73,6.22,1.91,5.16-3.25,10.11-6.9,15.21-10.23.82-.53,1.99-.74,2.92-1.34,1.28-.83,6.11,1.37,6.14,3.91.08,5.39.64,10.87.71,16.32.03,2.26-1.02,5.03,0,7.5,1.55.96,6.69,5.34,7.82,6.21,4.49,3.48,8.33,8.31,11.77,12.68.34.44,24.95,1.57,28.83,2.59,3.17,2.55,2.55,2.46,1.92,3.84-.35.53-11.09,16.09-11.35,16.46-3.24,4.67-1.3,5.31.18,9.81.76,2.3,1.67,4.54,2.39,6.72.79,2.4.77,5.69,1.59,8.25,2.41-2.4,5.05-4.53,7.47-6.9,9.92-9.71,19.61-17.37,31.5-24.76,2.21-1.37,20.94-8.74,26.98-8.16,2.68.26,3.19,1.9,4.69,3.24,12.28,11.06,16.64,47.37,16.59,48.83-.04,1.03,1.47,14.6,1.8,18,1.41,14.73,1.81,29.96-.74,44.33-.22,1.24-.62,5.82-1.03,6.6-.26.48-3.87,5.07-4.27,5.41s-2.59,2.05-2.94,2.3c-2.51,1.75-5.65,2.06-8.65,1.92-12.53-.6-37.73-14.52-48.62-20.76-4.77-2.73-14.37-9.33-15.1-9.15.01.59.41,1.13.41,1.73,0,10.45-.73,24.45-3.91,34.33-.68,2.11-1.17,4.83-1.37,5.78-.27,1.27-1.98,4.42-2.48,6.2-5.29,18.88-11.44,32.57-22.79,48.16-3.98,5.47-8.14,11.5-12.79,16-8.69,8.4-16.83,17.04-26.65,24.18-21.95,15.95-44.9,27.52-69.95,35.56-7.58,2.43-16.78,3.86-24.8,4.79-41,4.74-81.5,2.98-121.27-9.63-19.06-6.05-37.38-14.74-52.66-26.61-11.53-8.95-20.23-18.36-29.34-29.28-3.14-3.77-6.46-6.49-9.3-10.84-.67-1.02-2-2.71-2.37-3.37-.26-.48-1.45-3.74-1.52-4.26-.19-1.35-.46-3.05-.93-3.35-6.48-4.16-16.29-16.83-16.59-17.48-.86-1.91-.69-12.1.34-13.78.17-.28,7.62-9.9,7.92-10.51,1.59-3.17-1.58-5.15-2.76-8.06-2.79-6.83-1.52-8.87.22-15.34,1.9-7.05,2.19-10.08,7.96-15.33.49-.44,7.69-4.07,8.14-4.35,1.69-1.08,2.15-9.49,2.52-11.84.99-6.27,1.93-12.78,3.04-19.11.13-.73.97-1.47.97-2.12.02-1.15-6.04-12.55-7.03-14.85-.73-1.72-4.08-9.88-3.79-10.99.04-.17,2.92-1.67,3.09-1.73.29-.09.13.86.54.97,1.38.35,7.14.46,9.04.52,1.19.04,2.25-.51,3.3-.48,1.43.04,3.31.77,4.79.94,1.13-1.87,1.56-3.89,2.7-5.79,2.69-4.49,4.35-8.79,6.79-13.63,4.97-9.83,10.04-19.73,15.75-29.52.97-1.67,1.97-2.76,2.62-3.84s4-6.74,3.99-7.34c-.02-.9-.96-1.8-1.18-2.63-1.65-6.38-4.45-13.9-5.21-20.2-.06-.5-.11-4.17,0-4.36.1-.16,3.49-1.07,3.62-.94s-.16,1.13.02,1.42c.03.04.59-.26.95-.15,6.53,1.95,13.11,4.27,19.78,5.46,6.7-5.81,13.92-12.37,21.66-16.82,1.62-.93,3.29-1.49,4.92-2.26,6.59-3.16,13.48-5.71,20.56-7.75,3.04-5.37,5.77-11,8.78-16.25.19-.32.07-1.02.33-1.47,2.11-3.55,3.11-5.47,7.27-2.8.84,2.51,2.19,4.89,3.54,7.14,1.56,2.58,4.29,5.91,5.59,8.42.37.72.5,2.44.59,2.54.06.06,1.05-.52,1.66-.5,10.08.38,20.18-.2,30.31-.22,3.72,0,8.2.61,11.71.56,5.99-.09,5.67-1.31,9.81-4.64,4.96-3.98,10.31-8.27,14.92-12.13,1.85-1.55,3.75-3.28,5.93-4.65ZM275.71,37.61c-1.61,3.44,3.39,1.33,5.37,1.45,1.49-.01,10.06.82,10.6.41.36-.27.64-.66.58-1.13l-.37-13.78-16.18,13.05ZM212.96,38.77c-1.88-4.03-3.79-8.22-7.15-11.33-1.09,2.04-7.28,11.58-6.96,13.17.05.24.75.82,1.15.71,4.42-.37,9.44-1.84,13.72-.94.48-1.34-.65-1.38-.76-1.61ZM445.37,163.12c-.81-4.57-1.71-10.18-2.79-14.67-1.74-7.22-4.29-17.58-7.43-23.8-10.1-20.03-44.65-50.31-45.26-50.72-9.19-6.07-26.73-11.15-36.93-15.21-15.45-6.15-31.74-8.25-47.95-10.51-11.27-1.57-23.1-3.1-34.47-2.96-13.87.17-28.79.25-42.65.48-31.1.5-52.45,4.68-75.36,25.52-5.09,4.63-14.56,15.2-18.38,20.84-9.97,14.72-19.13,32.83-26.91,49.22-4.08,8.6-8.43,17.46-11.58,25.84-1.15,3.07-4.17,9.22-4.64,11.66-2.69,14.11-4.33,29.27-6.93,43.41-.54,2.95-1.53,7.33-2.45,9.81-1.64,4.42-3.62,11.65-6.13,16.52-3.23,6.28-8.45,11.71-11.42,17.55-3.85,7.56,2.64,13.38,7.67,18.08,8.99,8.4,17.42,11.91,29.96,12.24,8.1.21,10.13-1.91,17.11-3.98,3.78-1.12,7.07-1.48,10.94-1.77.47-.04,16.01,4.32,16.79,4.79s4.65,3.48,5.76,4.32c4.42,3.35,8.41,7.11,13.02,10.24,1.35.91,7.87,4.8,8.92,5.01.56.11,5.42.9,5.72.92,1.08.06,16.26-2.6,20.52-5.17,3.4-2.05,4.46-3.22,7.46-5.73,1.03-.86,5.86-5.31,6.24-5.5,1.33-.7,3.87-1,5.28-1.69.05,1.05.35,4.73.02,5.02-.69.61-1.97.72-2.54,1.21-3.16,2.68-5.75,6.33-9.11,8.78-6.68,4.88-16,9.18-24.1,9.48-1.32.05-12.8-2.28-13.68-2.67-10.98-4.88-19.74-13.99-30.32-19.93-.43-.24-11.97-2.59-14.28-2.14-10.93,2.14-16.07,6-27.55,5.04-4.01-.34-5.67-1.21-8.93-2.1-1.66-.45-3.06-.09-4.75-.78-.31-.13-1.47-.29-.96.48,8.8,13.17,22.89,27.08,34.58,37.57,1.32,1.18,48.17,27.07,70.13,32.61,24.8,6.26,54.02,8.68,79.1,6.91,10.38-.73,20.87-2.01,30.82-3.2,14.02-1.68,28.89-7.62,41.28-12.48,15.81-6.21,30.66-18.2,44.28-27.18,1-.66,4.42-2.45,4.71-2.71.48-.44.38-1.54.68-1.73.42-.27,1.46.16,1.79-.13.15-.13-.1-.91.36-1.4.35-.37,1.5-.67,2.07-1.2,4.29-3.9,8-8.41,12.16-12.03.64-.55,4.46-2.85,4.6-3.09.1-.18-.61-1-.4-1.32.1-.14.82-.23,1.1-.59,4.52-5.71,8.47-11.2,12.62-17.1,5.59-7.94,9.16-15.86,12.91-25.01.87-2.14,5.4-10.28,4.5-12.04-3.93-.18-7.57,1.27-11.43,1.8-21.56,2.97-43.02.97-64.58,2.25-6.39.38-11.46.65-17.59,2.82-.89.32-8.83,4.25-9.21,4.6-.56.5-3.65,2.8-4.16,3.11-10.92,6.54-21.88,12.99-34.17,16.12-3.9,1-9.19,3.64-13.72,4.49-15.31,2.9-33.25-2.14-48.96-2.11.13-.7.8-2.16.48-4.79-.02-.17.04-.35,0-.48,2.81-.14,11.2.42,11.99.48,2.49.17,5.24.24,7.67.48,2.26.22,4.81.74,7.19.96,3.54.33,8.45,1.36,11.8,1.39,1.41.01,5.55-.69,8.34-1.39,2.16-.54,4.21-1.7,6.23-2.4,11.16-3.85,18.08-6.71,28.44-12.32,6.02-3.26,12.63-6.34,18.42-9.41,1.59-.84,10.16-5.58,10.21-5.6,3.29-.98,22.42-2.31,29.26-2.4.32,0,6.41-.48,8.39-.48h12.95c1.87,0,8.56.02,8.87,0s2.56.05,3.36,0c4.12-.25,8.28-.73,12.47-.96.85-.05,19.44-3,20.04-3.45.79-.59,2.22-7.69,2.62-9.13,1.16-4.15,2.08-6.43,2.52-10.67.53-5.19,1.11-20.6,1.18-21.55.02-.3.03-5.11,0-6.73-.25-9.51.55-15.29-1.24-25.08-.77-4.23-1.83-8.36-2.57-12.57ZM399.81,53.81c-.4-.48-9.76,5.69-10.7,6.32-1,.66-4.26,2.8-4.99,3.16-2.12,1.03.54,1,1.26,1.34,3.68,1.72,7.14,4.04,9.85,5.98.6.43,4.24,2.75,4.58,2.38.05-6.44.64-12.76,0-19.18ZM137.73,77.1c.95-1.02,3.46-3.23,2.13-4.35l-14.39-4.55,4.8,18.22c2.37-.57,1.95-2.77,2.95-4.48,1.24-2.13,2.98-3.18,4.51-4.83ZM448.73,102.71l-20.14-.96,1.75,3.25c3.3,3.59,6.63,8.35,7.84,13.05.85.71,3.38-2.61,3.98-3.48.71-1.02,7.11-11.46,6.57-11.86ZM513.79,111.5c-2.67-1.44-8.97.01-11.92.84-10.02,2.81-15.53,7.82-23.71,13.56-2.89,2.03-5.66,3.87-8.31,5.81-5.52,4.04-13.48,13.15-18.87,18.3-.31.3.18,6.82.51,8.19,1.2,5.12,1.5,11.1,2.26,15.47.48,2.79,1.55,5.73,1.95,8.6l.23,16.8c.86.26,7.38,3.09,8.48,3.75,5.52,3.31,10.8,6.03,15.97,8.97.86.49,2.4,1.89,3.75,2.58,6.95,3.56,13.59,6.87,20.94,9.66,2.95,1.12,6.96,2.85,9.85,3.61,1.49.39,7.13,1.15,7.37,1.11.53-.09,4.25-2.66,4.84-3.33,4.37-4.94,3.9-20.18,4.08-26.6.18-6.5.49-13.05.02-19.63-.12-1.64-1.14-12.28-1.44-12.86-.14-.28-2.66-16.89-2.87-22.61-.15-4.23-1.91-9.91-3-13.8-1.56-5.53-3.86-11.05-7.24-15.54-.22-.3-2.7-2.77-2.88-2.87ZM88.05,168.87c.39-2.47,5.61-11.44,5.25-13.15-.39-1.85-10.53-.9-12.44-1.71-.3,1.59,6.18,15.55,7.18,14.86ZM77.99,216.34l-3.35,2.16c-5.7,6.75-9.99,18.09-4.56,26.12.55-2.28,2.02-4.12,2.86-6.24,1.44-3.63,3.2-9.41,3.95-13.31.21-1.09,1.38-8.4,1.09-8.73Z"/>
  </g>
</svg>