<?xml version="1.0" encoding="UTF-8"?>
<svg id="Clown_fish" data-name="Clown fish" xmlns="http://www.w3.org/2000/svg" xmlns:xlink="http://www.w3.org/1999/xlink" viewBox="0 0 586.14 401.97">
  <defs>
    <style>
      .cls-1 {
        fill: #ffcf99;
      }

      .cls-2 {
        fill: url(#linear-gradient);
      }

      .cls-3 {
        fill: #0d0e0c;
      }

      .cls-4 {
        fill: #faf6d2;
      }
    </style>
    <linearGradient id="linear-gradient" x1="88.16" y1="201.6" x2="481.5" y2="201.6" gradientUnits="userSpaceOnUse">
      <stop offset="0" stop-color="#ce6d62"/>
      <stop offset=".16" stop-color="#d27566"/>
      <stop offset=".42" stop-color="#dd8b72"/>
      <stop offset=".73" stop-color="#efaf87"/>
      <stop offset=".97" stop-color="#ffcf99"/>
      <stop offset="1" stop-color="#ffcf99"/>
    </linearGradient>
  </defs>
  <g id="clownfish">
    <path class="cls-2" d="M481.28,215.58c-.96-11.73-5.67-32.16-20.08-33.55-7.19-.69-14.07,2.63-20.44,5.51-8.38,3.78-16.74,7.62-25.11,11.42-.24.11-.43.24-.63.36-3.89.62-7.81,1.03-11.78,1.21-.4-.63-.97-1.2-1.78-1.66-7.38-4.19-16.15-6.42-22.58-12.14-6.21-5.52-11.08-11.76-18.14-16.37-16.1-10.49-33.48-19.75-50.38-28.88-16.34-8.83-33.47-15.44-51.9-18.18-17.11-2.54-34.39-2.23-51.46.55-10.11,1.65-20.08,4.21-29.74,7.61-8.31,2.92-17.46,6-23.3,12.96-6.81,3.4-13.55,6.95-20.19,10.67-11.96,6.71-23.87,14.22-32.42,24.95-1.05.54-1.93,1.46-2.42,2.84-.11.31-.23.61-.34.91-.72,1.07-1.42,2.16-2.08,3.29-.54.93-.74,1.85-.7,2.71-.16.2-.33.4-.46.63-.22.43-.43.87-.65,1.3-.37.57-.56,1.19-.59,1.86-.13.58-.12,1.15.02,1.73-.47,1.12-.95,2.22-1.43,3.33-.53.54-.89,1.26-1.01,2.15-.15.26-.29.52-.44.78-1.38,1.03-2.18,2.73-1.55,4.88-1.12,3.97-.88,8.68-.58,12.38.07.86.16,1.72.27,2.57-1.07,1.13-1.6,2.7-.94,4.47,2.52,6.81,5.6,13.31,9.39,19.5,1.13,1.85,2.87,2.5,4.54,2.34.39.65.94,1.26,1.71,1.8,9.49,6.64,19.73,12.07,30.49,16.22.33.69.66,1.38.99,2.07,1.53,3.11,4.67,3.08,6.86,1.49.68.92,1.43,1.77,2.28,2.51,1.87,1.62,4.71,1.66,6.6.39,4.49,1.48,9.03,2.49,13.61,3.04.59.78,1.42,1.43,2.5,1.81,16.99,5.96,36.22,4.44,53.95,4.37,19.34-.07,38.68-.85,57.8-3.87,35.94-5.67,71.15-19.22,108.02-16.34,9.45.74,18.91,2.65,27.78,6.02,1.43,2.35,3.46,3.78,6.34,3.51.42-.04.81-.12,1.18-.23,4.91,2.46,9.57,5.45,13.84,9.03,2.33,1.95,5.15,1.38,6.95-.19,5.37,1.9,10.73,2.34,15.88-1.41,5.34-3.9,9.28-9.72,12.13-15.6,6.84-14.13,11.28-30.98,10-46.74Z"/>
    <path class="cls-4" d="M248,112.5c-.74-5.95-1.88-11.76-3.86-17.43-1.35-3.86-3.07-7.9-6.94-9.21-.51-1.92-2.06-3.51-4.63-3.51-17.02.05-30.19,16.01-36.98,30.09-1.5,3.1.23,7.87,4.32,7.52,14.04-1.17,29.03-4,43.09-2.47,2.47.27,5.31-2.52,5-5Z"/>
    <path class="cls-1" d="M157.01,200.56c-.06-.44-.12-.89-.18-1.33-.24-.85-.67-1.58-1.29-2.21-.34-.26-.67-.52-1.01-.78-.78-.45-1.62-.68-2.52-.68-.23.02-.47.05-.7.09-.23.02-.46.05-.68.09-.03,0-.05.02-.08.02l-1.19.5s-.03.01-.04.02c-.01,0-.03.02-.04.03-.34.26-.67.52-1.01.78-.72.65-1.14,1.51-1.44,2.41-.15.45-.19,1.21-.21,1.46-.02.27.05.52.09.79.11.84.05.62.38,1.38.12.29.16.44.28.65.26.34.52.67.78,1.01.01.02.03.03.04.05.45.49.99.83,1.61,1.03.6.31,1.24.46,1.93.43.69.03,1.33-.12,1.93-.43.62-.2,1.16-.55,1.61-1.03.26-.34.52-.67.78-1.01.25-.44.43-.89.54-1.37,0,0,0,0,0,0,.31-.6.46-1.24.43-1.93Z"/>
    <path class="cls-3" d="M161.5,195.92c1.35,1.79.75,8.88.09,10.98-2.84,9.04-24.47,4.87-15.63-9.64,3.31-5.43,12.09-5.89,15.54-1.34ZM152.81,196.62c-2.81-2.84-7.95,4.67-3.48,5.99,3.86,1.14,4.19-5.27,3.48-5.99Z"/>
    <path class="cls-4" d="M365.19,159.73c-.48-3.78-1.56-7.38-3.26-10.8-.45-.91-1.07-1.8-1.74-2.69-.1-.36-.22-.72-.4-1.08-1.22-2.35-2.66-4.54-4.2-6.67-.12-.27-.24-.54-.35-.8-.47-1.07-1.14-1.77-1.9-2.17-.52-.66-1.04-1.32-1.56-1.97-1.54-1.93-3.1-3.84-4.65-5.77-.78-.97-1.57-1.94-2.35-2.91-.32-.39-.79-1.29-1.24-1.73.55-3.01-2.41-6.63-6.06-6.08-.99-.45-2.11-.58-3.27-.27l-.21.06c-1.72.46-2.76,1.54-3.24,2.82-5.55-1.7-10.72.34-15.78,2.55-2.22.97-4.9,1.58-6.96,2.88-1,.63-2.03,1.62-2.66,2.61-.26.4-.87,2.45-.93,2.47-3.27,1.5-3.27,7.14,0,8.63,4,1.83,8.01,3.47,11.95,5.18,2.91,2.97,8.22,4.48,11.64,6.79,7.79,5.27,15.15,10.65,23.73,14.65.34.16.68.32,1.02.49,1.72,1.41,3.61,2.57,6.02,3.17,3.46.86,6.28-1.77,6.26-5.02.37-1.31.35-2.8.15-4.35Z"/>
    <path class="cls-4" d="M305.16,293.29c-.43-4.51-1.43-10.84-4.68-14.3-4.15-4.41-10.9-1.03-15.71.28-6.42,1.75-12.74,3.13-19.43,2.92-1.09-.03-2.02.29-2.76.82-1.83-.42-3.81.23-5.1,1.46-.19-.12-.37-.23-.54-.35-4.61-2.97-9.29-4.64-14.81-3.89-6.44.88-12.86,2.86-19.18,4.36-4.53,1.07-4.47,6.8-1.19,9.14,2.33,1.67,3.77,4.29,5.69,6.35,1.96,2.11,4.37,3.83,6.87,5.25,5.15,2.92,10.95,5.2,16.7,6.56,6.67,1.58,11.24.39,17.18-2.66.83-.43,1.74-.9,2.68-1.33,2.83,3.06,5.79,5.93,8.88,8.44,3.96,3.23,9.07,4.08,14.06,3.17,5.36-.98,7.71-5.5,9.42-10.24,1.82-5.05,2.44-10.65,1.93-15.99Z"/>
    <g>
      <path class="cls-1" d="M211.92,230.6c0-9.58-.01-19.16-.02-28.74,0-9.01.11-18.03-1.27-26.96-1.42-9.18-4.93-17.77-8.39-26.33-1.58-3.91-3.21-7.8-4.88-11.68-1.56-3.62-2.76-8.2-7.31-8.65-3.63-.36-7.77,1.35-11.19,2.33-4.11,1.18-8.14,2.6-12.12,4.15-.28.07-.55.18-.81.31-.17.07-.35.13-.52.2-3.65,1.46-5.39,6.97-1.19,9.14,1.13.58,2.05.86,3.04.94.12.44.32.88.61,1.31,6.62,9.5,13.48,18.98,19.47,28.89,3.97,6.57,3.82,14.3,6.96,20.99-1.47.8-2.55,2.21-2.46,4.17.33,6.9.94,13.88,1.01,20.84-1.59,2.45-2.26,5.09-2.26,8.07,0,.61.1,1.15.26,1.64-.96,2.78-2.01,5.52-3.17,8.23-1.09,2.55-2.19,5.17-2.78,7.82-.94.58-1.7,1.47-2.05,2.73-2.17,7.96-5.71,15.33-10.83,21.83-2.44,3.1-1.23,8.78,3.54,8.54,8.2-.42,16.42.52,22.91-5.2,5.59-4.91,9.71-11.62,11.79-18.75,2.42-8.29,1.68-17.31,1.67-25.83Z"/>
      <path class="cls-1" d="M388.07,215.52c.55-5.32,2.27-11.69,1.51-16.99-.72-5-5.22-6.49-9.2-8.54-.03-.02-.06-.03-.09-.04-1.18-3.04-5.23-5.04-8.17-2-4.42,4.56-5.59,10.25-6.26,16.38-.86,7.95-1.23,16.02-.86,24.01.33,7.29,1.31,14.67,3.47,21.66,1.99,6.45,6.27,7.97,12.85,7.64,3.29-.16,5.63-3.06,4.82-6.33-1.38-5.6-.61-11.28-.02-16.94.65-6.28,1.3-12.57,1.96-18.85Z"/>
      <path class="cls-1" d="M314.65,264c-5.15-7.84-7.89-16.24-9.18-25.5-1.37-9.86-2.59-19.86-2.63-29.82-.02-5.15.32-10.29-.09-15.43-.4-5.05-1.35-9.96-1.13-15.05.44-9.9,3.26-19.78,3.41-29.66.05-3.51-1.45-5.92-4.72-7.31-4-1.7-7.79-2.39-11.43-5.04-3.09-2.24-5.94-5.4-10.21-4.03-3.43,1.1-5.43,5.01-7.42,7.73-10.62,14.48-20.71,29.88-23.95,47.86-1.12,6.21,8.24,8.91,9.59,2.9.7.14,1.47.16,2.32-.02,7.91-1.64,15.78,3.17,22.69,6.4,1.15.54,2.31,1.08,3.46,1.61.53.35.92.59,1.21.73.09,1.45-.28,3.36-.25,4.51.1,4.04.47,8.06.93,12.08.91,8.04,2.23,16.07,2.39,24.17.05,2.29.35,6.43-1.62,8.19-2.11,1.88-6.59,1.42-9.14,3.14-1.05.71-1.72,1.73-2.05,2.84-2.02-.45-4.14-.57-6.57-.06-4.29.9-4.77,7.08-1.19,9.14,6.26,3.61,10.45,9.85,17.95,11.23,8.09,1.48,15.35-3.55,23.32-3.07,3.71.22,6.34-4.44,4.32-7.52Z"/>
    </g>
    <path class="cls-3" d="M246.5,77.93c6.37,4.74,12.34,17.51,13.2,25.29.33,2.94-.57,15.66.68,16.51,8.68-1.24,29.93,13.45,35.84,12.91.82-.07,6.82-9.44,11.25-11.87,15.55-8.52,40.64-7.38,54.55,3.9,5,4.06,16.41,22.55,17.55,28.68,1.87,10.12-.1,20.18-1.62,30.12,8.56,4.98,13.61,10.1,24.34,10.22,22.84.24,33.86-14.41,54.03-16.06,14.18-1.16,23.63,1.41,33.43,11.77,20.31,21.44,18.32,54.78.47,77.14-12.24,15.34-26.85,24.16-47.39,18.56-15.39-4.2-32.42-20.01-47.54-21.46-5.52-.53-18.12.41-23.97,1-19.43,1.97-39.31,8.38-58.52,11.99,2.24,11.5,4.64,27.42-1.43,38.07-.72,1.27-6.66,7.52-7.84,8.21-6.1,3.54-17.34,5.76-23.66,2.15-2.48-1.42-8.95-8.78-10.79-9.28-1.97-.54-11.94,2.75-15.78,2.65-19.62-.53-33.58-16.3-43.17-31.84-10.1-1-21.92.03-31.75-1.04-27.13-2.96-59.99-18.34-81.49-34.51-19.2-14.44-16.65-41.41-9.07-61.89,7.01-18.94,57.51-50.09,76.28-58.72,7.24-3.32,16.08-5.67,23.46-9.03,3.5-6.96,6.13-14.61,10.22-21.29,7.01-11.45,23.61-25.81,37.67-26.11,3.54-.08,8.21,1.84,11.03,3.94ZM241.81,116.61c2.81-9.06-1.92-33.81-14.42-32.99-3.99.26-15.6,10.26-18.42,13.65-5,6-9.36,13.65-11.14,21.35,14.48-2.26,29.45-4.98,43.99-2ZM271.81,130.64c-25.34-8.16-50.93-10.02-77-4.01,4.1,6.64,8.69,13.66,11.46,21.03,11.58,30.82,7.86,60.43,8.5,92.5.09,4.51,1.86,8.85.99,13.91-.93,5.4-18.53,23.91-16.94,25.55,26.33-.52,53.08,1.95,78.99-4.01-4.14-3.97-8.68-7.67-12.51-11.98-1.6-1.8-5.25-8.38-5.73-8.77-2.44-1.98-15.84-4.29-20.05-6.45-2.24-1.15-2.32-4.66-1.19-4.81,10.96-.36,27.79,15.2,35.7,2.73,5.83-9.2,1.51-32.44-1.76-42.67-1.31-4.08-4.34-11.63-9.2-11.82-10.65,3.35-20.59,10.38-29.51,17.02l-4.73.76c.19-1.39-.49-3.78.16-4.84.54-.89,14.8-7.97,15.61-9.37.38-.65.69-10.79,1.51-14,3.75-14.57,15.53-30.83,22.88-44.12.59-1.06,3.35-5.95,2.83-6.65ZM357.81,168.62v-15.5c0-.53-3.56-8.58-4.18-9.82-4.83-9.64-15.14-21.67-27.03-20.47-8.76.88-19.56,4.24-22.8,13.28l37.33,20.74c4.76,4.68,11.59,7.15,16.69,11.77ZM190.65,128.75c-2.57-1.51-23.33,9.9-27.85,10.38,11.02,14.21,22.86,28.69,29.19,45.81,7.02,18.98-.23,52.6-8.49,70.87-3.05,6.74-7.31,14.38-11.68,20.32,4.93.64,18.64,4.04,22.09,1.09,1.6-1.37,1.75-3.67,2.9-5.09,4.06-5.04,11.74-11.75,13.16-17.84,1.92-8.24.9-21.3.88-30.2-.04-23.36-.26-47.7-7.76-70.25-2.97-8.94-7.78-16.99-12.45-25.08ZM314.81,267.63c-1.28,0-2.17-.59-2.82-1.69-11.11-19-13.11-58-12.2-79.88.54-13.12,2.62-26.89,4.79-39.84-2.26-3.36-24.91-13.16-27.11-12.51l-4.48,5.58c-8.85,16.61-20.43,31.91-24.1,50.74.83,3.8,10.58-2.41,13.86-2.98,6.63-1.14,15.8-.77,21.3,3.53.6.47,9.24,11.05,9.71,11.83,4.35,7.25,5.85,34.05,2.28,41.92-4.21,9.28-18.88,13.31-28.23,12.27-2.66,2.63,13.82,16.25,17.54,16.95,4.17.78,18.1-1.9,22.85-3.06,1.65-.4,5.73-1.41,6.6-2.88ZM158.65,142.79c-1.53-.66-25.16,14.07-28.73,16.48-8.73,5.89-21.37,14.67-28.08,22.88-10.26,12.55-15.62,36.02-9.53,51.47,2.12,5.37,4.33,7.18,10.11,7.88,8.43,1.02,12.53-1.12,18.91-5.86,1-.74,5.8-7.71,8.47-5.01,3.63,3.65-12.29,13.22-14.98,14.51l-10,2.48c18.48,12.23,38.82,22.35,60.53,27.63,3.24-.45,13.32-19.78,14.94-23.64,6.36-15.13,11.27-40.17,9.53-56.48-1.09-10.25-15.86-33.71-22.66-42.34-2.54-3.23-6.16-6.57-8.51-9.99ZM325.14,157.27c-.52-.3-.85-1.72-2.04-2.4-4.67-2.65-9.83-4.25-14.28-7.25-4.23,30.23-6.92,61.17-.72,91.21,1.19,5.75,5.57,27.12,12.22,27.79l46.49-9.01c-1.31-3.66-2.94-7.98-3.72-11.77-1.97-9.56-3.16-25.06-2.31-34.76.77-8.8,6.02-17.82,6.89-26.78-.56-2.29-10-6.33-12.5-8.05-10.57-7.26-18.94-12.52-30.02-18.99ZM475.81,225.62v-14.5c0-1.96-2.12-4.73-4.45-4.32-7.58,2.05-15.21,3.99-22.78,6.09-2,.56-3.72,2.13-5.5,2.51-3.54.74-11.73-.19-6.53-3.54,3.13-2.02,6.58-1.6,9.5-2.5,8.57-2.65,17.86-6.52,26.76-6.75-1.4-3.76-6.67-16.23-10.52-16.97-15.34-2.95-28.89,10.7-42.22,13.74-2.87.66-13.07,2.23-15.81,2.26-3.84.05-7.92-1.96-11.8-2.11-5.98,10.31-3.56,24.06-3.61,35.62-.03,6.61-2.36,14.04.89,21.02,9.53.2,18.43,2.99,26.96,7.04,10.66,5.05,25.14,17.8,37.58,15.37,4.79-.93,7.38-9.26,9.52-12.97-7.48-.62-15.79-1.5-23.01-3.5-.83-.23-10.32-2.63-7.99-4.5,11.31-.68,21.94,4.06,33.32,4.05l5.67-14.05-35.3-3.99-1.7-5.01c12.89,2.45,25.83,3.81,39,4-1.01-4.95,3.04-8.19.88-12.9l-34.13-.31c-1.02.62-7.31-3.58-5.76-4.79,1.98-1.54,35.91,2.14,40.99.99ZM377.19,192.23c-1.32-.99-2.54-4.61-5.42-3.19-1.66,1.17-5.8,20.75-6,24.03-.51,8.5.43,27.49,2.76,35.33,3.16,10.6,4.71,8.22,15.29,8.22.19-9.16-.26-18.38-.05-27.55.17-7.42-.28-17.6,1.26-24.74.42-1.94,2.93-4.72,2.84-6.15-.04-.61-8.47-4.31-10.68-5.96ZM296.77,279.63l-38.3,6.14s6.38,12.99,10.35,18.34c1.69,2.29,12.91,13.02,15.02,13.97,1.22.55,6.83,1.45,8.03,1.12,3.83-1.06,8.7-9.13,8.89-13.23.15-3.46-.55-14.25-1.03-17.77-.16-1.17-2.59-8.3-2.96-8.57ZM246.81,286.62c-.86-.87-21.12,0-24.5,0-4.61,0,3.98,9.94,5.01,10.99,8.99,9.2,21.75,16.22,35.05,12.03.87-.27-15.44-22.91-15.55-23.03Z"/>
  </g>
</svg>