<?xml version="1.0" encoding="UTF-8"?>
<svg id="Big_fishes" data-name="Big fishes" xmlns="http://www.w3.org/2000/svg" xmlns:xlink="http://www.w3.org/1999/xlink" viewBox="0 0 586.14 401.97">
  <defs>
    <style>
      .cls-1 {
        fill: #ce6d62;
      }

      .cls-2 {
        fill: url(#linear-gradient-2);
      }

      .cls-3 {
        fill: url(#linear-gradient);
      }

      .cls-4 {
        fill: #e8b0b3;
      }

      .cls-5 {
        fill: #faf6d2;
      }

      .cls-6 {
        fill: #131410;
      }

      .cls-7 {
        fill: #3fa0a2;
      }
    </style>
    <linearGradient id="linear-gradient" x1="83.96" y1="270.09" x2="337.01" y2="175.56" gradientUnits="userSpaceOnUse">
      <stop offset="0" stop-color="#e8b0b3"/>
      <stop offset=".14" stop-color="#e4afb2"/>
      <stop offset=".28" stop-color="#d7aeb1"/>
      <stop offset=".43" stop-color="#c3acaf"/>
      <stop offset=".57" stop-color="#a7a9ac"/>
      <stop offset=".71" stop-color="#83a6a8"/>
      <stop offset=".85" stop-color="#57a2a4"/>
      <stop offset=".92" stop-color="#3fa0a2"/>
    </linearGradient>
    <linearGradient id="linear-gradient-2" x1="340.13" y1="219.79" x2="505.73" y2="131.16" gradientUnits="userSpaceOnUse">
      <stop offset="0" stop-color="#e8b0b3"/>
      <stop offset=".13" stop-color="#e3afb2"/>
      <stop offset=".27" stop-color="#d5aeb1"/>
      <stop offset=".42" stop-color="#beacae"/>
      <stop offset=".58" stop-color="#9ea9ab"/>
      <stop offset=".74" stop-color="#75a5a7"/>
      <stop offset=".91" stop-color="#43a0a2"/>
      <stop offset=".92" stop-color="#3fa0a2"/>
    </linearGradient>
  </defs>
  <g id="big_fishes" data-name="big fishes">
    <path class="cls-3" d="M337.97,177.64c-1.36-6.04-3.84-11.66-6.6-17.17-1.01-2-2-4.13-3.57-5.77-2.1-2.19-4.35-3.25-5.81-6.08-.52-1.02-1.23-1.69-2.02-2.09-.31-.47-.72-.92-1.26-1.33-2.35-2.33-5.3-3.91-8.6-4.72-2.12-.52-3.82.17-4.89,1.39-2.57.33-5.07,1.24-7.37,2.81-6.78,4.64-7.74,13.32-8.74,20.81-1.12,8.33-1.39,17.72-5.71,25.18-2.08,3.59-5.26,5.62-8.95,7.4-.91.44-9.72,4.28-12.27,3.92,2.11-5.93,6.73-15.03-1.5-18.05-3.4-1.25-6.9-.6-10.37-.11-1.99.28-3.97.45-5.94.56,2.56-4.87,4.69-9.85,4.06-15.6-.94-8.53-7.4-13.43-15.75-13.59-17.05-.33-34.2,9.16-44.65,22.24-.45.57-.75,1.21-.93,1.87-.1.1-.21.2-.32.31-4.42,4.39-8.59,10.32-13.52,14.64-19.15,5.93-38.58,9.73-58.03,14.43-8.72,2.11-17.2,5.3-25.22,9.34-4.35,2.2-11.06,4.98-14.77,9.24-2.14.69-3.21,2.73-3.21,4.77-.3,1.67-.45,3.31-.45,4.91-1.1,1.12-1.7,2.73-1.19,4.62,1.23,4.56,3.01,8.91,5.29,12.96-.07.88.1,1.82.57,2.75,2.98,5.87,6.8,11.29,11.44,15.97,4.02,4.04,9,8.48,15.05,7.93,6.4,9.71,18.43,11.67,29.94,12.36,8.01.48,15.36,2.54,23.19,3.85,2.34.39,4.6.41,6.89.07.81.69,1.86,1.15,3.06,1.21,6.07.27,11.98-.66,17.65-2.84,2.26-.87,3.45-2.43,3.67-4.82.31-3.3-1.51-5.19-3.73-7.28-1.48-1.4-1.97-1.33-2.15-3.48-.18-2.23.9-5.09,1.32-7.28.85-4.48,1.7-8.96,2.55-13.44.94-4.93.98-8.38,6.43-9.97,8.3-2.43,17.36-1.52,25.79-.3,6.33.92,12.67,1.94,18.97,3.11.24.2.51.39.81.56.81.47,1.63.84,2.45,1.15,4.49,2.19,8.69,4.78,12.68,7.84,2.1,1.61,5.68.36,6.84-1.79.78-1.45,1.64-2.79,2.59-4.05,1-.1,1.97-.54,2.78-1.43,4.56-4.99,9.12-9.98,13.68-14.98.25-.11.5-.23.75-.39,4.86-3.05,8.67-6.74,12.36-11.1,4.44-5.23,8.83-4.42,15.2-4.7,10.95-.48,24.01-1.98,30.12-12.34,5.79-9.8,3.72-22.98,1.35-33.51Z"/>
    <path class="cls-2" d="M509.37,157.19c.07-9.15-.7-18.26-2.38-27.26-1.51-8.11-3.36-18.02-7.48-25.3-3.92-6.92-13.02-5.39-18.46-1.34-6.07,4.52-9.33,11.91-11.75,18.86-2.61,7.49-2.22,16.5-8.95,21.72-1.51,1.17-3.22,2.12-4.89,3.03-.64.35-1.29.67-1.94,1-.01-.07-.02-.13-.04-.21,1.18-3.41,1.93-8.43,1.76-12.05-.35-7.52-6.95-12.48-13.79-8.08-5.31,3.41-9.81,8.41-13.37,13.79-.67-.96-1.18-2.04-1.42-3.37-.53-2.92-.46-5.65-1.79-8.39-1.3-2.68-3.31-4.74-5.61-6.49.15-.62.2-1.28.11-1.97-.54-3.96-5.26-5.86-8.8-5.94-2.35-.05-4.63.57-6.61,1.75-1.19.47-2.31,1.17-3.24,2.07-.03.01-.06.02-.09.03-.04.02-.08.03-.12.05-.24.1-.47.22-.68.36-.03.02-.06.04-.09.06-.22.15-.42.31-.6.48,0,0-.02.02-.03.03-.39.38-.7.83-.93,1.32,0,0,0,0,0,0-.12.25-.21.5-.29.76,0,0,0,.01,0,.02-.08.26-.13.53-.17.81-1.34.86-2.63,1.79-3.85,2.82-.87.16-1.72.59-2.47,1.33-9.22,9.27-14.99,21.33-17.46,34.1-1.23,6.33-.65,13.59-3.05,19.58-.73,1.83-1.74,3.5-2.93,5.07l-2.71,2.3c-2.09.03-4.16,1.15-4.78,3.52-.06.23-.11.45-.17.68-5.07,4.31-10.14,8.61-15.21,12.92-1.05.89-1.55,1.91-1.64,2.93-4.48,4.52-8.21,9.52-11.31,14.97-.84.38-1.58,1.05-2.09,2.07-4.17,8.23-8.14,17.08-7.58,26.19-.73,1.38-.87,3.05.07,4.61.66.95,1.17,1.97,1.53,3.06.73,1.95,2.25,2.99,3.88,3.29,4.85,4.97,10.45,8.57,18.05,8.98,5.62.3,11.48-.28,17.22-1.42,7.64,3.44,17.87-3.91,24.48-7.19,8.58-4.26,18.21-8.5,24.64-15.85,5.6-6.39,8.41-14.87,5.84-23.19-.75-2.44-1.77-4.83-2.95-7.19.87-1.83,1.84-3.7,2.89-5.57,6.26-5.53,12-11.55,17.31-17.99,1.38-.61,2.82-1.09,4.33-1.4,3.72-.76,7.39-.5,11.01-.72,1.12,1.2,2.85,1.89,4.89,1.52,4.15-.75,6.68-3.9,8.56-7.45,2.02-2.03,3.73-4.4,5.29-6.81.64-.37,1.25-.89,1.76-1.6,1.93-2.68,3.96-5.23,6.11-7.71.26-.23.51-.46.78-.68,1.92-1.6,1.22-1.56,3.02-.59.46.25.89.59,1.31.98.41,1.45,1.07,2.74,2.1,3.94,2.41,5.41,10.53,6.4,15.61,3.67,2.87-1.55,4.88-3.78,6.23-6.38.88-.55,1.63-1.4,2.07-2.6,1.2-3.26,1.49-6.63.87-9.94Z"/>
    <path class="cls-6" d="M479.72,171.45l-15.94,19.54-4.05,2.47c7.27,7.68,13.72,21.32,10.54,32.03-2.4,8.08-23.19,19.32-31.1,20.9-5.76,1.15-17.82.81-22.74,2.26-1.87.55-5.59,5.58-7.79,7.21-21.82,16.21-43.3,22.23-70.31,17.48-9.34-1.64-19.52-9.55-20.61-19.39-1.11-10.06,3.7-19.29,6.99-28.49-4.17.35-8.27,1.77-12.46,2.03-3.08.2-15.64-.85-16.59-.5-.85.32-5.27,6.2-4.95,6.45,12.8-3.83,27.82,1.11,15.51,15.02-8.4,9.49-23.82,13.55-36.02,14.98-3.9.46-8.68-1.03-12.04.95-4.04,2.38-1.27,4.87-1.54,7.45-.87,8.07-2.31,17.07-7.46,23.57-11,13.86-31.29,18.33-47.95,13.05-8.99-2.85-6.27-4.7-11.42-8.58-4.17-3.14-8.55.29-13.53.6-32.86,2.05-74.94-5.13-97.19-31.37-3.82-4.51-12.53-21.75-13.3-27.24-.41-2.89,1.62-10.86,3.27-13.11,15.56-21.16,77.46-26.5,102-36.49,11.8-11.51,20.77-29.4,37.01-35.99,21.95-8.91,51.44-1.65,40.68,27.17,13.08-3.34,24.99-2.8,18,14,9.29-1.01,14.87-3.57,17.51-12.98,4.27-15.19-1.53-31.86,11.79-43.7,6.35-5.64,18.33-5.63,24.59.28,14.43,13.62,19.73,39.15,21.1,57.92.43,5.92,2.1.73,3.75-.54,5.76-4.44,12.48-9.21,17.73-13.95,7.74-6.99,5.58-17.69,7.82-27.22,4.15-17.63,21.44-48.25,42.97-44.56,11.58,1.98,13.42,12.79,13.74,22.76l7.1-7.39c10.15-8.68,24.77-8.93,22.81,7.81-.35,2.95-3.07,5.7-.45,8.53,8.04-1.87,5.39-9.24,6.77-15.21,3.26-14.15,13.29-36.74,31.2-31.67,6.53,1.85,8.35,5.5,10.27,11.73,3.81,12.36,8.85,46.32,7.19,58.61-.85,6.31-11.14,13.36-17.46,13.63s-14.8-3.41-15.46-10.02ZM408.73,200.44c2.01,2.51,3.23,5.35,6.06,8.72.62.74.51,2.13.86,2.66,2,3.07,5.11-6.34,6.43-8.05,2.82-3.65,13.37-12.05,17.6-13.88,8.52-3.67,14.4,1.94,18.06.07.76-.39,10.19-11.03,11.4-12.61,1.54-2,7.53-12.76,8.28-12.95,6.41-1.56,5.12,5.12,8.28,8.55s8.44,4.19,12.86,2.81c4.02-1.25,12.36-11.5,9.72-15.37-1.65-2.43-20.64-2.91-21.57-8.46-.36-2.13.88-1.63,2.41-1.42,6.03.83,12.16,4.36,18.6,3.91l-5.01-33.99c-5.83-.24-15.25,25.69-19.98,20.99-.76-.75.75-3.38,1.18-4.33,1.15-2.54,7.87-12.23,9.8-14.9,1.3-1.8,6.21-5.31,6.85-7.48,1.35-4.58-2.56-10.98-7.11-12.51-12.62-4.27-20.98,15.51-23.43,25.03-1.08,4.17-1.54,13.35-2.8,16.2-1.34,3.01-17.29,11.24-19.49,9.01-1.24-6.52,4.63-11.32,4.94-17.64.27-5.57-1.46-8.35-7.21-7.14-7.25,1.52-13.14,10.72-15.9,17.12-1.26,2.93-6.18,20.33-7.42,20.72-7.25,2.28-2.36-5.64-1.63-7.77,1.2-3.51,2.92-8.16,3.2-11.79.19-2.45-1.28-19.75-2-20.49-1.7-1.76-1.69.65-2.08,1.42-4.23,8.31-6.88,19.76-10.4,28.59-1.59,2.18-6.49,1.1-5.05-2.02,1.41-4.91,13.16-30.58,12.46-33.4-.79-3.16-9.29-2.54-11.74-1.91-7.13,1.84-4.13,5.5-5.43,11.57-1,4.68-6,28.05-7.65,30.13-.99,1.25-2.72.48-4.09.62-.31-4.8,7.72-31,5.99-32.99-1.75-.36-2.47.9-3.51,1.98-5.2,5.38-10.08,16.37-12.4,23.6-3.38,10.5-2.73,20.02-6.08,30.42-15.63,10.56-37.34,32.28-44.71,49.79-2.45,5.83-5.44,15.45-4.24,21.66.88,4.59,9.41,11.97,13.92,13.07,2.5.61,5.49.73,8.03.47,2.96-.3,7.61-2.23,9.66-4.34,3.55-3.64,2.31-13.39,7.87-9.68,1.3,1.8-2.83,11.59-4.48,13.29-1.56,1.6-3.79.95-4.05,2.72,8.16-.64,15.92-1.3,23.78-3.71,13.85-4.25,43.02-20.34,40.98-37.51-1-8.43-8.24-16.33-12.76-22.78-1.07-1.52-1.8-3.67-2.98-5.25-.85-1.13-7.79-5.94-5.02-8.75,1.8-1.83,9.74,6.43,10.99,8ZM189.73,231.44c1.4,5.32.9,11.54,1.01,17,3.46-2.33,7.22-3.02,11.36-2.85,13.94.56,39.18,5.74,50.61,13.41,1.02.69.77,2.69,1.51,2.44,10.03-6.71,17.53-16.18,26.15-24.34l20.32-24.18c6.87-2.14.97,6.74.04,9.52,1.47,2.05,16.95-.65,20.02-1.47,14.89-3.94,16.63-13.23,15.97-27.52-4.14-.63-22.53,10.61-25,8-1.44-5.73,4.72-5.09,8.69-6.8,2.09-.9,14.95-6.91,15.17-7.76-1.04-4.07-1.19-8.38-2.39-12.41-2.02-6.8-6.33-13.27-8.48-20.03l-18.5,31.98-4.48,1.01c-.24-1.74.11-3.12.78-4.71,2.99-7.18,11.12-16.72,14.76-24.24,2.59-5.33,4.93-8.91.12-13.71-7.23-7.21-22.34.21-24.42,8.4-1.63,6.4-1.21,17.36-2.38,24.62-.78,4.85-3.16,17.43-7.15,20.35-2.97,2.17-25.35,8.26-26.7,3.77-.83-2.75,6.42-6.08,6.99-11.06.75-6.57-7.65-4.35-12.02-2.94-10.64,3.44-15.98,16.19-24.71,21.29-2.71,1.59-19.05,7.67-20.27,3.72-1.52-4.94,8.22-4.36,10.81-5.17,8.67-2.68,15.71-9.74,21.16-16.84,5.78-7.53,8.93-13.52,6.53-23.47-4.68,3.03-8.29,7.57-12.27,11-.82.71-2.53.95-3.74,1.98-2.08,1.77-15.35,16.32-17.49,14.01l.2-4.79,30.79-25.72-6.59-4.38c-5.76-3.38-5.29.8-7.87,2.93-2.6,2.15-3.77,2.92-6.5,5.5-10.15,9.59-20.63,18.88-28.54,30.46-.62.31-3.53-2.36-3.54-2.58-.06-1.98,7.08-9.88,9.01-11.94,6.49-6.95,15.11-15.44,22.03-22.04,1.21-1.15,6.8-3.67.5-3.47-25.66.82-31.48,26.67-46.94,38.04-2.24,1.65-4.32,1.67-6.54,3-.11-.12-1.42.04-2,0-.32-.02-.68-.02-1,0-9.93.66-22.91,6.09-32.74,8.76-11.9,3.23-24.47,5.92-36.22,9.78-22.12,7.27-29.84,18.03-18.09,40,2.93,5.47,9.19,11.59,14.04,15.46,6.65,5.29,10.47,9.72,16.47-.03,1.48-2.4,1.34-8.13,5.03-6.96,4.19,1.34-.79,10.06-2.47,12.23s-6.88,2.83-1.93,6.18c6.11,4.13,37.03,11.7,44.18,10.34,2.09-.4,16.91-6.84,18.42-8.08,12.39-10.12,16.16-38.22,13.31-52.68-.82-4.17-2.25-8.44-4.09-12.23-.13-.28-4.68-3.88-.39-4.77,3.68-.77,8.73,11.18,9.48,14ZM455.69,196.49c-1.39-1.96-10.06-3.39-12.99-2.58-4.01,1.12-15.48,10.64-17.84,14.15-.39.59-4.82,9.5-4.92,10.06-.25,1.43,3.65,7.28,3.84,10.86.19,3.57-4.04,12.73-2.06,13.99.83.53,14.1-1.35,16.24-1.8,8.48-1.8,27.12-10.54,27.82-20.18.13-1.76.85-4.88-1.55-4.56-3.5.48-22.23,15.34-24.5,13.01-.47-.48.47-3.95,1.26-4.74,3.63-2.48,20.68-10.72,22.26-13.26s-1.08-7.12-3.12-8.93c-10.27,5.82-18.54,14.73-28.43,21.42l-3.97-.99c-.49-2.07.6-2.29,1.63-3.35,6.17-6.29,19.01-12.05,24.93-19.07.83-.98,2.21-2.86,1.39-4.02ZM304.59,237.57c-4.25-2.67-26.68,1.85-27.86,10.08l-10.99,10.78c10.42-.77,21.56-2.26,30.46-8.02,2.35-1.52,13.09-9.87,8.39-12.83ZM250.73,268.44c.46-2.51-.95-3.5-2.46-5.03-11.27-11.39-35.9-10.43-50.95-12.95-1.51.21-6.75,4.24-7.3,5.26-2.14,3.99-1.53,16.83-6.18,20.54-2.08,4.52.76,3.01,1.92,4.92,6.26,10.2,7.45,21.68,21.55,24.19,7.16,1.27,15.6.45,22.41-1.93-1.53-3.31-6.03-3.37-9.14-5.12-4.08-2.29-8.75-5.82-12.96-8.27-3.24-1.88-10.87-4.28-12.78-7.22-2.9-4.47-1.08-5.36,3.39-3.39,9.09,4.02,28.96,19.93,37.91,19,8.29-.86,16.45-17.13,14.58-25-10.59.24-22.95-.72-33.25-3.29-1.84-.46-3.83-.68-2.74-3.2,1.6-3.71,15.71,1.14,19.51,1.48,5.32.47,11.1-.3,16.48.01ZM181.72,283.45c-1.88-1.3-4.64,4.37-5.94,5.53-2.14,1.91-4.9,3.11-7.15,4.88-1.05.83-2.52-.03-1.88,2.58l18.97-3.03c.7-1.03-3.55-9.65-4-9.96Z"/>
    <ellipse class="cls-7" cx="384.97" cy="236.43" rx="17.62" ry="14.13" transform="translate(-46.17 371.41) rotate(-48.94)"/>
    <ellipse class="cls-7" cx="142.44" cy="257.73" rx="19" ry="15.74" transform="translate(-141.51 335.76) rotate(-76.44)"/>
    <path class="cls-4" d="M250.73,268.44c-5.37-.31-11.16.46-16.48-.01-3.8-.33-17.91-5.18-19.51-1.48-1.09,2.52.91,2.74,2.74,3.2,10.3,2.57,22.67,3.53,33.25,3.29,1.86,7.86-6.29,24.14-14.58,25-8.96.93-28.82-14.98-37.91-19-4.46-1.97-6.29-1.08-3.39,3.39,1.91,2.94,9.54,5.34,12.78,7.22,4.21,2.44,8.88,5.97,12.96,8.27,3.12,1.75,7.61,1.81,9.14,5.12-6.81,2.38-15.25,3.2-22.41,1.93-14.1-2.51-15.29-13.98-21.55-24.19-1.17-1.91-4-.39-1.92-4.92,4.66-3.71,4.04-16.56,6.18-20.54.54-1.01,5.79-5.05,7.3-5.26,15.05,2.52,39.68,1.56,50.95,12.95,1.51,1.53,2.92,2.52,2.46,5.03Z"/>
    <path class="cls-4" d="M455.69,196.49c.82,1.17-.56,3.04-1.39,4.02-5.92,7.02-18.76,12.78-24.93,19.07-1.04,1.06-2.13,1.28-1.63,3.35l3.97.99c9.89-6.69,18.15-15.6,28.43-21.42,2.04,1.81,4.66,6.46,3.12,8.93s-18.63,10.78-22.26,13.26c-.78.79-1.72,4.26-1.26,4.74,2.27,2.33,21-12.53,24.5-13.01,2.39-.33,1.67,2.8,1.55,4.56-.7,9.65-19.34,18.39-27.82,20.18-2.14.45-15.41,2.33-16.24,1.8-1.98-1.26,2.24-10.43,2.06-13.99-.19-3.58-4.09-9.43-3.84-10.86.1-.55,4.52-9.47,4.92-10.06,2.36-3.51,13.84-13.03,17.84-14.15,2.93-.82,11.61.62,12.99,2.58Z"/>
    <path class="cls-4" d="M304.59,237.57c4.7,2.96-6.04,11.31-8.39,12.83-8.9,5.76-20.04,7.26-30.46,8.02l10.99-10.78c1.19-8.24,23.62-12.76,27.86-10.08Z"/>
    <path class="cls-4" d="M181.72,283.45c.45.31,4.7,8.93,4,9.96l-18.97,3.03c-.64-2.61.83-1.75,1.88-2.58,2.24-1.77,5.01-2.97,7.15-4.88,1.3-1.16,4.06-6.83,5.94-5.53Z"/>
    <path class="cls-1" d="M164.73,199.44c.32-.02.68-.02,1,0l-.5.98-.5-.98Z"/>
    <path class="cls-7" d="M184.73,234.44c-3.99.27-9.26.45-13.04,1.49-5.58,1.53-5.44,8.48-12.96,6.51-.94-1.43-8.95-7.48-10.74-7.84-4.73-.94-14.46,2.96-17.96,6.15-.41.37-.37,1.82-.94,2.55-3.8,4.85-3.81,6.01-5.36,12.14-4.8.4-3.73-3.73-4-4-.82-.8-7.12,3.08-8.48,4.01-1.6,1.09-13.75,11.46-14.24,12.26-1.26,2.05.17,6.32-5.27,5.73,6.65,5.29,10.47,9.72,16.47-.03,1.48-2.4,1.34-8.13,5.02-6.96,4.19,1.34-.79,10.06-2.47,12.23-1.67,2.16-6.88,2.83-1.93,6.18,6.11,4.13,37.03,11.7,44.18,10.34,2.09-.4,16.91-6.84,18.42-8.08,12.39-10.12,16.16-38.22,13.31-52.68ZM150.26,241.42c8.39,5.07,7.31,16.9,3.54,24.58-1.29,2.62-2.06,2.31-3.66,3.85-5.45,5.24-10.93,5.32-17.67,1.57-12.96-7.19,1.42-39.89,17.79-30.01Z"/>
    <path class="cls-7" d="M418.49,229.22c-1-8.43-8.24-16.33-12.76-22.78-2.06,4.69-9.64,6.79-10,12-6.41-2.85-12.88-.28-18.32,3.18-7.68,4.88-11.47,9.75-11.68,18.82v1c.11.63-.18,1.56,0,2-2.69,1.8-2.89,4.74-5.48,7.01-6.91,6.06-15.24,4.71-15.52,17.99,2.96-.3,7.61-2.23,9.66-4.34,3.55-3.64,2.31-13.39,7.87-9.68,1.3,1.8-2.83,11.59-4.48,13.29-1.56,1.6-3.79.95-4.05,2.72,8.16-.64,15.92-1.3,23.78-3.71,13.85-4.25,43.02-20.34,40.98-37.51ZM375.2,229.37c3.96-4.46,12.35-9.07,18.31-6.2.3.15,4.7,4.3,4.89,4.58,7.13,10.46-14.43,26.16-22.46,21.46-.66-.39-5.78-8.1-5.91-9.41-.37-3.75,2.82-7.79,5.17-10.44Z"/>
    <path class="cls-6" d="M138.42,246.63c3.31-2.19,7.31-3.19,10.38.24s2.5,19.24-6.83,20.38c-13.76,1.69-8.76-17.19-3.55-20.63Z"/>
    <path class="cls-5" d="M137.82,248.6c1.08-.71,2.38-1.04,3.39.08s.82,6.28-2.23,6.65c-4.49.55-2.86-5.61-1.16-6.73Z"/>
    <path class="cls-6" d="M385.47,229.66c9.94-1.97,11.74,10.31.29,13.31-13.06,3.41-10.4-11.3-.29-13.31Z"/>
    <path class="cls-5" d="M381.37,233.5c2.86-.57,3.38,2.97.08,3.83-3.76.98-2.99-3.25-.08-3.83Z"/>
  </g>
</svg>