<?xml version="1.0" encoding="UTF-8"?>
<svg id="Layer_7" data-name="Layer 7" xmlns="http://www.w3.org/2000/svg" viewBox="0 0 1920 1080">
  <g>
    <path d="M850.48,528.21c0-.22-.02-.43-.02-.66,0-4,4-7,4-9s-5-2-2-9,16.31-4.59,16.31-4.59c-3.69-5.59,2.69-10.41,2.69-10.41,1.4-1.4,3.72-2.08,6.74-2.3,5.5-7.21,10.23-13.16,11.26-14.7,4-6,6-26,16-16s2.41,21.18,0,26c-1.11,2.23-2.91,4.59-4.74,6.99,6.91,1.11,14.38,2.34,21.74,3.01,5.43.49,13.78,1.46,23.34,2.61,9.32-5.72,17.46-10.94,21.66-13.61,11-7,23-20,26-21s7-2,10,1,0,14,0,14c12,11,7,18,7,18,2,1,6,1,9,5,.68.9,1.2,2.52,1.58,4.54,5.28-2.66-1.52-15.42-10.58-33.54-4-8,4-30,14-27s5,14,7,20,5,7,9,13,12,20,13,23c.93,2.79,15.71,13.38,20.18,21.28,17.03-16.46,36.6-31.96,58.16-43.39-.11-1.56-.21-3.08-.29-4.57-2-35-18-56-42-66s-119-41-125-53c0,0,0-21,5-24s34,18,43,19,13-10,16-18,16-24,19-28,0-6,3-8,6-1,7-5,1-19,4-22,28-14,27-20-26-35-22-47,7.7-19.71,9.85-39.86c0,0,0-.02,0-.02,3.38-20.87,1.28-42.52-7.24-62.99-26.13-62.81-102.65-90.71-170.91-62.32-54.81,22.8-87.62,74.95-84.92,127.13,0,0,0,0,0,0,0,0,.01.23.04.63.61,10.71,2.72,21.42,6.45,31.87,3.98,13.75,10.39,31.49,20.73,52.56,0,0-5,71-17,87s-34,32-87,54-81,33-91,54c-2.16,4.54-4.04,8.75-5.66,13.03,49.01,3.99,100.29-4.02,148.28,21.13,23.33,12.23,44.35,29.27,62.36,47.17Z"/>
    <path d="M1138.5,764.88c8-4,46-33,42-67s-34-105-36-118c-1.36-8.86-5.98-37.25-9.41-65.51-18.52,8.43-36.09,18.87-52.03,29.84,4.6,8.34,10.08,17.02,14.4,21.34,8,8,20,29,23,37s0,163,0,163c0,0-37.8-17.12-39-31-.93-10.79-18.55-64.56-27.58-87.87-2.68-6.91-4.42-14.13-21.42-14.13-26.21,0-49.85-11.95-69.99-18.89-10.07,6.87-19.8,13.49-24.01,14.89-9,3-19,5-30,8s-19,17-19,17c-39,79-108,151-108,151-11-6-35-108-35-108,0,0-14,8-17,10,0,0,1-58,3-68,0,0,12,54,14,58,14.24-16.76,98.83-92.97,96-109-1.51-8.57,1.29-22.72,5.22-36.19-43.46-31.81-101.45-61.95-158.13-55.63-20.17,2.25-39.18,2.19-57.07.3-.66,8.69-.98,19.02-.98,31.84,0,46-3,217-8,232s7,81,20,99,48,12,71-3,61-49,68-51,39,103,41,143,4,126,3,135c0,0,323,1,331-3s-24-164-27-184-9-116-9-130c0,0,9,3,17-1Z"/>
    <path d="M1828.5,172.5c-90,61-247.52-36.58-291-11-34,20-53.11,77.29-53.11,77.29-27.6,69.79-58.89,140.67-115.13,188.05-71.82,60.5-159.09,12.92-237.47,54.6h0c.71,10.1,1.9,21.5,3.29,32.93,30.44-13.85,63.45-22.27,96.03-18.63,120.6,13.45,202.23-56.64,246.3-110.71,22.28-27.34,37.73-59.54,45.62-93.92,8.67-37.74,26.82-92.31,59.46-93.61,50-2,134,43,213.5,41.29,79.5-1.71,164.5-66.29,164.5-66.29V15.5s-42,96-132,157Z"/>
  </g>
  <path d="M1883.5-178.5l-100,8s42,239-84,253-173-16-246,66,6,125.76-50,186.38c0,0-45.53,56.38-105.83,82.58-47.49,20.64-95.99,28.59-136.59,33.35,0,0,97.22,1.59,137.83-10.32,53.5-15.69,71.72-33.41,104.6-64.32,0,0,29.91-36.14,41.84-76.5.65-2.21,1.21-4.46,1.68-6.72,3.79-18.19,28.31-128.12,70.48-146.45,46-20,85.47-.55,126,7,102,19,221,9,248-167s-8-165-8-165Z"/>
  <path d="M551.4,426.84c-56.25-47.38-87.53-118.26-115.13-188.05,0,0-10.35-28.13-31.26-63.69-16.48-28.02-41.42-50.13-71.32-62.87-37.49-15.97-95.49-30.27-170.19-16.74-127.66,23.13-11.43-157.42,79.54-179.85L15.5-61.5S-11.5,52.5,107.5,123.5s50.09-24.09,142.55-5.55c92.45,18.55,159.45,211.9,159.45,211.9,0,0,70.41,150.06,222.98,166.19,1.2-15.76,3.57-26.13,7.36-36.13-30.84-2.51-60.78-9.78-88.43-33.07Z"/>
  <path d="M546.27,361.31c-27.92-56.96-30.63-162.69-30.63-162.69,0,0-2.14-33.12-26.14-72.12-16.07-26.12-25.92-32.89-41-42-12.03-7.27-29.33-12.7-42.45-17.74-47.55-18.26-110.55-28.26-129.55-33.26,0,0-.3.9-42.66-13.64-24.34-8.36,12.69-56.57,19.66-78.36h-25.68S54.5,60.5,250.5,57.5c0,0,223.81.81,244.4,211.91,6.88,59.55,10.4,93.56,38.97,131.14,21.69,28.52,88.72,45.2,88.72,45.2-25.27-16.27-54.32-39.57-76.31-84.43Z"/>
</svg>